<svg xlink="http://www.w3.org/1999/xlink" viewBox="0 0 5000 5000" xmlns="http://www.w3.org/2000/svg" style="transform: scale(1);"><defs><filter id="goo"><feGaussianBlur in="SourceGraphic" stdDeviation="0" result="blur"></feGaussianBlur><feColorMatrix in="blur" type="matrix" values="1 0 0 0 0 0 1 0 0 0 0 0 1 0 0 0 0 0 19 -9" result="good"></feColorMatrix><feComposite in="SourceGraphic" in2="goo" operator="atop"></feComposite></filter><path d="M266,220C282,232 287,252 276,272Q263,299 236,281C212,260 219,227 246,216C251,233 254,233 266,220z" id="P0"></path><path d="M258,260L244,261L241,241L252,237L258,260z" id="P1"></path><path d="M253,225Q283,232 273,261Q270,282 250,275Q221,274 225,247C228,234 239,226 253,225z" id="P2"></path><path d="M244,236L256,236L258,263L236,256L244,236z" id="P3"></path><path d="M248,284C235,262 231,248 228,224Q253,199 273,225C266,242 268,249 283,258Q280,291 248,284z" id="P4"></path><path d="M266,241L243,267L232,251L246,233L266,241z" id="P5"></path><path d="M226,276L216,241Q228,202 265,218Q288,214 283,237Q281,292 226,276z" id="P6"></path><path d="M242,242L258,242L258,257L240,255L242,242z" id="P7"></path><path d="M244,226C257,224 268,230 274,242L261,273L226,258C237,247 241,240 244,226z" id="P8"></path><path d="M241,238L264,244L244,264L235,252L241,238z" id="P9"></path><path d="M268,263C261,271 251,273 241,270Q217,254 238,231Q258,218 270,242C262,249 261,253 268,263z" id="P10"></path><path d="M259,263L241,264L234,251L244,235L259,263z" id="P11"></path><path d="M218,230C245,229 260,231 287,241C270,254 266,262 270,282L232,283C214,270 209,247 218,230z" id="P12"></path><path d="M247,234L266,248L253,266L243,264L247,234z" id="P13"></path></defs><rect id="RECT" width="5000" height="5000" fill="#6FB76B"></rect><g id="group" fill="#3A7147" filter=""><use x="-115" y="-100" href="#P12"></use><use x="-81" y="66" href="#P5"></use><use x="-88" y="203" href="#P12"></use><use x="-227" y="382" href="#P0"></use><use x="-113" y="609" href="#P6"></use><use x="-108" y="700" href="#P10"></use><use x="-154" y="1000" href="#P12"></use><use x="-104" y="1118" href="#P0"></use><use x="-126" y="1359" href="#P13"></use><use x="-250" y="1401" href="#P4"></use><use x="-249" y="1748" href="#P5"></use><use x="-88" y="1934" href="#P13"></use><use x="-198" y="2009" href="#P7"></use><use x="-126" y="2148" href="#P3"></use><use x="-141" y="2341" href="#P12"></use><use x="-232" y="2642" href="#P3"></use><use x="-112" y="2688" href="#P11"></use><use x="-160" y="2882" href="#P6"></use><use x="-84" y="3169" href="#P6"></use><use x="-72" y="3360" href="#P1"></use><use x="-216" y="3588" href="#P7"></use><use x="-173" y="3666" href="#P11"></use><use x="-125" y="3930" href="#P7"></use><use x="-127" y="4134" href="#P0"></use><use x="-182" y="4284" href="#P7"></use><use x="-231" y="4447" href="#P4"></use><use x="-73" y="4665" href="#P6"></use><use x="-222" y="4768" href="#P0"></use><use x="-244" y="4966" href="#P0"></use><use x="-170" y="5189" href="#P11"></use><use x="50" y="-114" href="#P11"></use><use x="105" y="102" href="#P13"></use><use x="106" y="227" href="#P11"></use><use x="91" y="468" href="#P8"></use><use x="51" y="557" href="#P5"></use><use x="59" y="797" href="#P11"></use><use x="-5" y="1001" href="#P11"></use><use x="26" y="1070" href="#P9"></use><use x="107" y="1222" href="#P13"></use><use x="89" y="1576" href="#P9"></use><use x="70" y="1665" href="#P8"></use><use x="-51" y="1820" href="#P5"></use><use x="-33" y="1954" href="#P10"></use><use x="53" y="2259" href="#P11"></use><use x="-26" y="2445" href="#P1"></use><use x="-24" y="2598" href="#P8"></use><use x="81" y="2773" href="#P7"></use><use x="-14" y="2978" href="#P9"></use><use x="47" y="3191" href="#P8"></use><use x="98" y="3346" href="#P2"></use><use x="-3" y="3451" href="#P0"></use><use x="-3" y="3753" href="#P9"></use><use x="52" y="3934" href="#P9"></use><use x="56" y="4142" href="#P13"></use><use x="-10" y="4326" href="#P2"></use><use x="36" y="4418" href="#P9"></use><use x="-64" y="4685" href="#P12"></use><use x="75" y="4709" href="#P6"></use><use x="116" y="4886" href="#P4"></use><use x="-17" y="5233" href="#P3"></use><use x="238" y="-230" href="#P4"></use><use x="246" y="36" href="#P10"></use><use x="167" y="224" href="#P4"></use><use x="294" y="435" href="#P9"></use><use x="136" y="633" href="#P8"></use><use x="217" y="691" href="#P8"></use><use x="197" y="866" href="#P12"></use><use x="121" y="1111" href="#P11"></use><use x="220" y="1219" href="#P7"></use><use x="242" y="1493" href="#P11"></use><use x="236" y="1635" href="#P8"></use><use x="282" y="1870" href="#P10"></use><use x="287" y="1968" href="#P13"></use><use x="205" y="2307" href="#P6"></use><use x="160" y="2444" href="#P8"></use><use x="161" y="2547" href="#P7"></use><use x="297" y="2692" href="#P13"></use><use x="248" y="3019" href="#P9"></use><use x="274" y="3068" href="#P1"></use><use x="232" y="3322" href="#P5"></use><use x="279" y="3568" href="#P4"></use><use x="125" y="3742" href="#P11"></use><use x="153" y="3901" href="#P12"></use><use x="204" y="3988" href="#P13"></use><use x="194" y="4237" href="#P7"></use><use x="255" y="4370" href="#P3"></use><use x="202" y="4682" href="#P9"></use><use x="184" y="4804" href="#P0"></use><use x="291" y="5027" href="#P13"></use><use x="249" y="5107" href="#P3"></use><use x="433" y="-67" href="#P12"></use><use x="467" y="106" href="#P3"></use><use x="302" y="262" href="#P10"></use><use x="375" y="396" href="#P6"></use><use x="337" y="653" href="#P10"></use><use x="419" y="801" href="#P4"></use><use x="473" y="887" href="#P10"></use><use x="324" y="1120" href="#P11"></use><use x="344" y="1254" href="#P4"></use><use x="324" y="1449" href="#P10"></use><use x="428" y="1766" href="#P1"></use><use x="470" y="1786" href="#P7"></use><use x="337" y="2082" href="#P2"></use><use x="369" y="2200" href="#P10"></use><use x="404" y="2355" href="#P6"></use><use x="309" y="2650" href="#P10"></use><use x="305" y="2734" href="#P4"></use><use x="378" y="2994" href="#P1"></use><use x="414" y="3131" href="#P9"></use><use x="346" y="3417" href="#P5"></use><use x="371" y="3547" href="#P9"></use><use x="390" y="3739" href="#P5"></use><use x="441" y="3799" href="#P9"></use><use x="346" y="4092" href="#P12"></use><use x="353" y="4308" href="#P5"></use><use x="334" y="4344" href="#P0"></use><use x="357" y="4685" href="#P8"></use><use x="387" y="4833" href="#P4"></use><use x="418" y="5039" href="#P12"></use><use x="351" y="5168" href="#P1"></use><use x="590" y="-195" href="#P4"></use><use x="592" y="-27" href="#P1"></use><use x="514" y="173" href="#P3"></use><use x="559" y="364" href="#P5"></use><use x="645" y="590" href="#P2"></use><use x="491" y="700" href="#P8"></use><use x="619" y="920" href="#P5"></use><use x="575" y="1090" href="#P0"></use><use x="586" y="1255" href="#P12"></use><use x="640" y="1496" href="#P12"></use><use x="561" y="1755" href="#P13"></use><use x="665" y="1818" href="#P9"></use><use x="536" y="1968" href="#P10"></use><use x="511" y="2313" href="#P2"></use><use x="520" y="2478" href="#P4"></use><use x="647" y="2671" href="#P5"></use><use x="606" y="2737" href="#P5"></use><use x="615" y="2977" href="#P3"></use><use x="634" y="3154" href="#P7"></use><use x="634" y="3354" href="#P13"></use><use x="643" y="3542" href="#P7"></use><use x="546" y="3716" href="#P5"></use><use x="509" y="3889" href="#P3"></use><use x="554" y="4086" href="#P7"></use><use x="498" y="4185" href="#P7"></use><use x="664" y="4364" href="#P3"></use><use x="487" y="4676" href="#P0"></use><use x="509" y="4710" href="#P3"></use><use x="647" y="5025" href="#P10"></use><use x="485" y="5176" href="#P9"></use><use x="841" y="-86" href="#P8"></use><use x="783" y="82" href="#P12"></use><use x="808" y="239" href="#P10"></use><use x="667" y="336" href="#P0"></use><use x="702" y="569" href="#P3"></use><use x="688" y="738" href="#P12"></use><use x="745" y="869" href="#P8"></use><use x="770" y="1124" href="#P2"></use><use x="796" y="1245" href="#P4"></use><use x="735" y="1461" href="#P3"></use><use x="673" y="1666" href="#P7"></use><use x="784" y="1801" href="#P11"></use><use x="680" y="1970" href="#P13"></use><use x="747" y="2246" href="#P7"></use><use x="795" y="2416" href="#P10"></use><use x="703" y="2532" href="#P2"></use><use x="768" y="2748" href="#P3"></use><use x="724" y="2896" href="#P3"></use><use x="678" y="3106" href="#P3"></use><use x="849" y="3320" href="#P7"></use><use x="825" y="3489" href="#P7"></use><use x="693" y="3775" href="#P10"></use><use x="690" y="3886" href="#P8"></use><use x="694" y="4126" href="#P12"></use><use x="831" y="4258" href="#P9"></use><use x="711" y="4420" href="#P6"></use><use x="739" y="4562" href="#P5"></use><use x="753" y="4809" href="#P11"></use><use x="771" y="5034" href="#P13"></use><use x="711" y="5182" href="#P0"></use><use x="1020" y="-184" href="#P12"></use><use x="963" y="18" href="#P6"></use><use x="984" y="129" href="#P0"></use><use x="893" y="360" href="#P9"></use><use x="881" y="514" href="#P8"></use><use x="1033" y="769" href="#P1"></use><use x="1016" y="878" href="#P4"></use><use x="954" y="1204" href="#P1"></use><use x="894" y="1395" href="#P11"></use><use x="902" y="1458" href="#P11"></use><use x="1021" y="1667" href="#P3"></use><use x="1003" y="1858" href="#P13"></use><use x="971" y="2103" href="#P8"></use><use x="900" y="2300" href="#P8"></use><use x="1033" y="2461" href="#P2"></use><use x="924" y="2639" href="#P8"></use><use x="969" y="2809" href="#P2"></use><use x="955" y="2880" href="#P10"></use><use x="995" y="3203" href="#P12"></use><use x="956" y="3319" href="#P6"></use><use x="857" y="3427" href="#P8"></use><use x="857" y="3630" href="#P11"></use><use x="998" y="3944" href="#P5"></use><use x="1018" y="4037" href="#P1"></use><use x="1029" y="4312" href="#P5"></use><use x="994" y="4386" href="#P11"></use><use x="1024" y="4637" href="#P9"></use><use x="981" y="4861" href="#P11"></use><use x="918" y="4963" href="#P6"></use><use x="928" y="5166" href="#P1"></use><use x="1141" y="-181" href="#P7"></use><use x="1174" y="-65" href="#P10"></use><use x="1114" y="222" href="#P5"></use><use x="1066" y="350" href="#P6"></use><use x="1056" y="487" href="#P9"></use><use x="1200" y="706" href="#P7"></use><use x="1047" y="865" href="#P11"></use><use x="1065" y="1194" href="#P12"></use><use x="1042" y="1385" href="#P12"></use><use x="1183" y="1497" href="#P10"></use><use x="1059" y="1633" href="#P8"></use><use x="1077" y="1879" href="#P10"></use><use x="1065" y="1961" href="#P12"></use><use x="1157" y="2270" href="#P1"></use><use x="1155" y="2360" href="#P2"></use><use x="1098" y="2564" href="#P4"></use><use x="1094" y="2742" href="#P5"></use><use x="1155" y="2885" href="#P4"></use><use x="1052" y="3164" href="#P3"></use><use x="1096" y="3274" href="#P7"></use><use x="1038" y="3541" href="#P12"></use><use x="1074" y="3682" href="#P7"></use><use x="1083" y="3796" href="#P12"></use><use x="1040" y="4075" href="#P7"></use><use x="1191" y="4179" href="#P10"></use><use x="1042" y="4470" href="#P10"></use><use x="1103" y="4526" href="#P2"></use><use x="1113" y="4813" href="#P1"></use><use x="1121" y="5047" href="#P10"></use><use x="1044" y="5153" href="#P12"></use><use x="1250" y="-175" href="#P1"></use><use x="1354" y="61" href="#P12"></use><use x="1241" y="260" href="#P0"></use><use x="1321" y="421" href="#P7"></use><use x="1244" y="539" href="#P13"></use><use x="1319" y="806" href="#P11"></use><use x="1339" y="887" href="#P7"></use><use x="1221" y="1158" href="#P2"></use><use x="1358" y="1296" href="#P9"></use><use x="1303" y="1460" href="#P0"></use><use x="1321" y="1678" href="#P7"></use><use x="1381" y="1809" href="#P12"></use><use x="1218" y="2042" href="#P1"></use><use x="1260" y="2310" href="#P13"></use><use x="1298" y="2337" href="#P5"></use><use x="1222" y="2576" href="#P11"></use><use x="1362" y="2790" href="#P0"></use><use x="1288" y="3017" href="#P3"></use><use x="1311" y="3126" href="#P13"></use><use x="1395" y="3351" href="#P8"></use><use x="1269" y="3472" href="#P1"></use><use x="1394" y="3724" href="#P10"></use><use x="1304" y="3858" href="#P11"></use><use x="1378" y="3986" href="#P4"></use><use x="1294" y="4180" href="#P7"></use><use x="1237" y="4493" href="#P0"></use><use x="1386" y="4651" href="#P6"></use><use x="1397" y="4869" href="#P0"></use><use x="1292" y="4904" href="#P7"></use><use x="1340" y="5125" href="#P5"></use><use x="1507" y="-124" href="#P13"></use><use x="1570" y="-31" href="#P3"></use><use x="1575" y="147" href="#P12"></use><use x="1473" y="460" href="#P2"></use><use x="1459" y="575" href="#P1"></use><use x="1465" y="775" href="#P5"></use><use x="1465" y="983" href="#P13"></use><use x="1526" y="1039" href="#P0"></use><use x="1544" y="1262" href="#P11"></use><use x="1493" y="1472" href="#P5"></use><use x="1468" y="1706" href="#P6"></use><use x="1577" y="1856" href="#P2"></use><use x="1519" y="2016" href="#P9"></use><use x="1425" y="2161" href="#P12"></use><use x="1514" y="2374" href="#P10"></use><use x="1580" y="2529" href="#P9"></use><use x="1557" y="2738" href="#P7"></use><use x="1584" y="2966" href="#P6"></use><use x="1542" y="3107" href="#P6"></use><use x="1430" y="3272" href="#P13"></use><use x="1466" y="3435" href="#P4"></use><use x="1513" y="3733" href="#P5"></use><use x="1583" y="3863" href="#P5"></use><use x="1552" y="4139" href="#P11"></use><use x="1560" y="4286" href="#P2"></use><use x="1497" y="4491" href="#P9"></use><use x="1444" y="4611" href="#P12"></use><use x="1441" y="4746" href="#P11"></use><use x="1473" y="4952" href="#P6"></use><use x="1551" y="5149" href="#P5"></use><use x="1645" y="-173" href="#P3"></use><use x="1744" y="56" href="#P8"></use><use x="1645" y="126" href="#P5"></use><use x="1614" y="359" href="#P2"></use><use x="1604" y="536" href="#P12"></use><use x="1653" y="715" href="#P2"></use><use x="1690" y="1004" href="#P13"></use><use x="1751" y="1170" href="#P2"></use><use x="1657" y="1303" href="#P6"></use><use x="1690" y="1517" href="#P11"></use><use x="1661" y="1640" href="#P3"></use><use x="1605" y="1920" href="#P7"></use><use x="1759" y="2028" href="#P3"></use><use x="1765" y="2185" href="#P11"></use><use x="1760" y="2367" href="#P1"></use><use x="1589" y="2574" href="#P5"></use><use x="1587" y="2802" href="#P11"></use><use x="1741" y="2896" href="#P11"></use><use x="1691" y="3123" href="#P12"></use><use x="1622" y="3284" href="#P8"></use><use x="1697" y="3455" href="#P7"></use><use x="1761" y="3745" href="#P11"></use><use x="1627" y="3939" href="#P0"></use><use x="1742" y="4010" href="#P11"></use><use x="1637" y="4271" href="#P6"></use><use x="1678" y="4408" href="#P11"></use><use x="1681" y="4526" href="#P0"></use><use x="1696" y="4790" href="#P2"></use><use x="1641" y="5007" href="#P6"></use><use x="1713" y="5072" href="#P1"></use><use x="1875" y="-73" href="#P8"></use><use x="1817" y="16" href="#P5"></use><use x="1840" y="175" href="#P12"></use><use x="1787" y="457" href="#P1"></use><use x="1895" y="626" href="#P1"></use><use x="1835" y="850" href="#P13"></use><use x="1828" y="871" href="#P12"></use><use x="1843" y="1198" href="#P7"></use><use x="1767" y="1388" href="#P2"></use><use x="1904" y="1558" href="#P4"></use><use x="1815" y="1702" href="#P8"></use><use x="1875" y="1932" href="#P1"></use><use x="1797" y="2028" href="#P3"></use><use x="1849" y="2172" href="#P10"></use><use x="1950" y="2397" href="#P12"></use><use x="1945" y="2585" href="#P7"></use><use x="1861" y="2715" href="#P11"></use><use x="1842" y="2937" href="#P5"></use><use x="1891" y="3156" href="#P10"></use><use x="1867" y="3259" href="#P12"></use><use x="1819" y="3573" href="#P0"></use><use x="1837" y="3739" href="#P6"></use><use x="1907" y="3957" href="#P1"></use><use x="1858" y="3980" href="#P7"></use><use x="1876" y="4295" href="#P9"></use><use x="1789" y="4369" href="#P2"></use><use x="1822" y="4518" href="#P9"></use><use x="1822" y="4863" href="#P6"></use><use x="1836" y="5043" href="#P13"></use><use x="1774" y="5105" href="#P5"></use><use x="2123" y="-109" href="#P3"></use><use x="1992" y="97" href="#P2"></use><use x="2124" y="231" href="#P3"></use><use x="1988" y="376" href="#P6"></use><use x="2028" y="611" href="#P6"></use><use x="2030" y="735" href="#P6"></use><use x="1953" y="1016" href="#P8"></use><use x="1960" y="1109" href="#P13"></use><use x="1998" y="1257" href="#P2"></use><use x="1970" y="1548" href="#P11"></use><use x="1975" y="1641" href="#P2"></use><use x="2116" y="1773" href="#P13"></use><use x="2123" y="1968" href="#P3"></use><use x="2095" y="2252" href="#P9"></use><use x="2097" y="2462" href="#P1"></use><use x="2117" y="2551" href="#P8"></use><use x="1979" y="2794" href="#P10"></use><use x="2034" y="3007" href="#P5"></use><use x="2058" y="3088" href="#P1"></use><use x="2033" y="3306" href="#P8"></use><use x="1993" y="3497" href="#P1"></use><use x="2065" y="3682" href="#P13"></use><use x="2109" y="3868" href="#P11"></use><use x="1964" y="4060" href="#P11"></use><use x="2134" y="4246" href="#P6"></use><use x="2117" y="4446" href="#P12"></use><use x="2085" y="4567" href="#P12"></use><use x="2068" y="4731" href="#P9"></use><use x="2012" y="4946" href="#P8"></use><use x="2099" y="5157" href="#P1"></use><use x="2297" y="-233" href="#P0"></use><use x="2222" y="-8" href="#P5"></use><use x="2144" y="259" href="#P8"></use><use x="2154" y="446" href="#P6"></use><use x="2241" y="665" href="#P11"></use><use x="2285" y="760" href="#P11"></use><use x="2149" y="912" href="#P11"></use><use x="2168" y="1073" href="#P10"></use><use x="2243" y="1364" href="#P8"></use><use x="2303" y="1541" href="#P3"></use><use x="2203" y="1764" href="#P9"></use><use x="2161" y="1792" href="#P1"></use><use x="2155" y="1975" href="#P1"></use><use x="2158" y="2161" href="#P6"></use><use x="2167" y="2408" href="#P4"></use><use x="2288" y="2520" href="#P0"></use><use x="2135" y="2792" href="#P13"></use><use x="2146" y="2929" href="#P6"></use><use x="2211" y="3057" href="#P1"></use><use x="2280" y="3243" href="#P7"></use><use x="2277" y="3575" href="#P9"></use><use x="2248" y="3669" href="#P0"></use><use x="2181" y="3957" href="#P2"></use><use x="2149" y="3980" href="#P5"></use><use x="2224" y="4294" href="#P6"></use><use x="2158" y="4363" href="#P7"></use><use x="2194" y="4560" href="#P12"></use><use x="2171" y="4757" href="#P0"></use><use x="2152" y="4937" href="#P10"></use><use x="2145" y="5234" href="#P11"></use><use x="2393" y="-165" href="#P7"></use><use x="2345" y="-4" href="#P6"></use><use x="2380" y="189" href="#P0"></use><use x="2395" y="347" href="#P1"></use><use x="2370" y="656" href="#P9"></use><use x="2480" y="739" href="#P7"></use><use x="2410" y="962" href="#P5"></use><use x="2352" y="1155" href="#P12"></use><use x="2329" y="1356" href="#P6"></use><use x="2330" y="1580" href="#P9"></use><use x="2400" y="1685" href="#P2"></use><use x="2352" y="1783" href="#P4"></use><use x="2350" y="1990" href="#P6"></use><use x="2496" y="2179" href="#P13"></use><use x="2480" y="2443" href="#P6"></use><use x="2488" y="2640" href="#P8"></use><use x="2365" y="2721" href="#P4"></use><use x="2379" y="3018" href="#P4"></use><use x="2453" y="3116" href="#P5"></use><use x="2404" y="3414" href="#P0"></use><use x="2492" y="3541" href="#P13"></use><use x="2475" y="3670" href="#P10"></use><use x="2477" y="3829" href="#P1"></use><use x="2362" y="4140" href="#P4"></use><use x="2469" y="4242" href="#P7"></use><use x="2394" y="4376" href="#P5"></use><use x="2369" y="4627" href="#P0"></use><use x="2460" y="4883" href="#P7"></use><use x="2415" y="4977" href="#P9"></use><use x="2499" y="5132" href="#P4"></use><use x="2535" y="-207" href="#P1"></use><use x="2622" y="82" href="#P13"></use><use x="2618" y="177" href="#P6"></use><use x="2677" y="330" href="#P12"></use><use x="2663" y="532" href="#P8"></use><use x="2503" y="850" href="#P3"></use><use x="2523" y="1033" href="#P13"></use><use x="2615" y="1132" href="#P8"></use><use x="2584" y="1285" href="#P3"></use><use x="2561" y="1573" href="#P12"></use><use x="2678" y="1692" href="#P5"></use><use x="2642" y="1811" href="#P10"></use><use x="2623" y="2048" href="#P3"></use><use x="2507" y="2231" href="#P6"></use><use x="2545" y="2479" href="#P0"></use><use x="2512" y="2529" href="#P8"></use><use x="2549" y="2706" href="#P0"></use><use x="2644" y="3041" href="#P6"></use><use x="2621" y="3091" href="#P6"></use><use x="2555" y="3260" href="#P8"></use><use x="2623" y="3466" href="#P0"></use><use x="2641" y="3669" href="#P2"></use><use x="2554" y="3939" href="#P2"></use><use x="2521" y="4073" href="#P1"></use><use x="2526" y="4205" href="#P7"></use><use x="2610" y="4368" href="#P9"></use><use x="2622" y="4675" href="#P6"></use><use x="2607" y="4820" href="#P0"></use><use x="2637" y="5018" href="#P11"></use><use x="2502" y="5225" href="#P3"></use><use x="2696" y="-249" href="#P9"></use><use x="2834" y="71" href="#P2"></use><use x="2685" y="213" href="#P4"></use><use x="2741" y="435" href="#P12"></use><use x="2750" y="551" href="#P4"></use><use x="2799" y="839" href="#P1"></use><use x="2697" y="975" href="#P4"></use><use x="2693" y="1040" href="#P3"></use><use x="2796" y="1374" href="#P13"></use><use x="2847" y="1437" href="#P6"></use><use x="2698" y="1760" href="#P9"></use><use x="2826" y="1873" href="#P9"></use><use x="2723" y="2099" href="#P1"></use><use x="2849" y="2177" href="#P4"></use><use x="2765" y="2436" href="#P11"></use><use x="2825" y="2524" href="#P13"></use><use x="2808" y="2760" href="#P0"></use><use x="2766" y="2992" href="#P9"></use><use x="2692" y="3066" href="#P6"></use><use x="2689" y="3335" href="#P13"></use><use x="2841" y="3423" href="#P2"></use><use x="2769" y="3621" href="#P10"></use><use x="2782" y="3863" href="#P10"></use><use x="2683" y="4066" href="#P0"></use><use x="2834" y="4218" href="#P13"></use><use x="2858" y="4368" href="#P8"></use><use x="2719" y="4684" href="#P7"></use><use x="2822" y="4726" href="#P9"></use><use x="2790" y="5048" href="#P3"></use><use x="2742" y="5154" href="#P11"></use><use x="2957" y="-220" href="#P10"></use><use x="2928" y="-59" href="#P12"></use><use x="2985" y="128" href="#P1"></use><use x="2932" y="305" href="#P2"></use><use x="3047" y="554" href="#P3"></use><use x="3026" y="725" href="#P10"></use><use x="2897" y="1018" href="#P3"></use><use x="2948" y="1112" href="#P4"></use><use x="3030" y="1273" href="#P1"></use><use x="2966" y="1469" href="#P13"></use><use x="2997" y="1586" href="#P0"></use><use x="3022" y="1785" href="#P9"></use><use x="3034" y="2034" href="#P1"></use><use x="2891" y="2220" href="#P0"></use><use x="2979" y="2435" href="#P3"></use><use x="2990" y="2509" href="#P11"></use><use x="2958" y="2729" href="#P5"></use><use x="2931" y="2913" href="#P11"></use><use x="2935" y="3109" href="#P5"></use><use x="2901" y="3357" href="#P6"></use><use x="2925" y="3442" href="#P3"></use><use x="2958" y="3703" href="#P9"></use><use x="2941" y="3856" href="#P2"></use><use x="2880" y="3977" href="#P2"></use><use x="2981" y="4255" href="#P0"></use><use x="2905" y="4466" href="#P0"></use><use x="2930" y="4624" href="#P10"></use><use x="3022" y="4828" href="#P8"></use><use x="2877" y="4989" href="#P12"></use><use x="2875" y="5196" href="#P4"></use><use x="3196" y="-113" href="#P8"></use><use x="3131" y="-36" href="#P1"></use><use x="3098" y="135" href="#P6"></use><use x="3138" y="302" href="#P5"></use><use x="3090" y="597" href="#P7"></use><use x="3215" y="700" href="#P6"></use><use x="3075" y="968" href="#P1"></use><use x="3102" y="1118" href="#P2"></use><use x="3233" y="1384" href="#P9"></use><use x="3218" y="1422" href="#P11"></use><use x="3080" y="1672" href="#P5"></use><use x="3093" y="1803" href="#P1"></use><use x="3137" y="1996" href="#P10"></use><use x="3219" y="2214" href="#P11"></use><use x="3133" y="2428" href="#P8"></use><use x="3143" y="2543" href="#P10"></use><use x="3179" y="2740" href="#P5"></use><use x="3159" y="2914" href="#P12"></use><use x="3080" y="3100" href="#P12"></use><use x="3055" y="3378" href="#P0"></use><use x="3189" y="3449" href="#P11"></use><use x="3171" y="3661" href="#P6"></use><use x="3135" y="3821" href="#P6"></use><use x="3074" y="4101" href="#P0"></use><use x="3199" y="4276" href="#P5"></use><use x="3149" y="4372" href="#P4"></use><use x="3182" y="4542" href="#P3"></use><use x="3145" y="4871" href="#P3"></use><use x="3222" y="5048" href="#P6"></use><use x="3229" y="5068" href="#P1"></use><use x="3409" y="-171" href="#P9"></use><use x="3356" y="-14" href="#P8"></use><use x="3396" y="264" href="#P13"></use><use x="3312" y="333" href="#P9"></use><use x="3316" y="533" href="#P7"></use><use x="3376" y="784" href="#P9"></use><use x="3346" y="953" href="#P6"></use><use x="3299" y="1039" href="#P2"></use><use x="3328" y="1248" href="#P0"></use><use x="3309" y="1578" href="#P10"></use><use x="3325" y="1760" href="#P8"></use><use x="3378" y="1852" href="#P5"></use><use x="3338" y="2037" href="#P1"></use><use x="3356" y="2307" href="#P6"></use><use x="3348" y="2494" href="#P5"></use><use x="3276" y="2560" href="#P6"></use><use x="3345" y="2817" href="#P1"></use><use x="3287" y="2986" href="#P10"></use><use x="3285" y="3157" href="#P11"></use><use x="3303" y="3292" href="#P9"></use><use x="3372" y="3476" href="#P12"></use><use x="3234" y="3779" href="#P2"></use><use x="3242" y="3953" href="#P4"></use><use x="3350" y="3970" href="#P1"></use><use x="3364" y="4169" href="#P0"></use><use x="3308" y="4390" href="#P6"></use><use x="3252" y="4559" href="#P12"></use><use x="3351" y="4787" href="#P2"></use><use x="3402" y="5039" href="#P2"></use><use x="3268" y="5229" href="#P12"></use><use x="3461" y="-207" href="#P1"></use><use x="3488" y="74" href="#P11"></use><use x="3522" y="198" href="#P0"></use><use x="3477" y="426" href="#P8"></use><use x="3486" y="537" href="#P11"></use><use x="3440" y="772" href="#P6"></use><use x="3446" y="863" href="#P7"></use><use x="3543" y="1156" href="#P7"></use><use x="3482" y="1301" href="#P2"></use><use x="3458" y="1425" href="#P3"></use><use x="3529" y="1670" href="#P11"></use><use x="3490" y="1791" href="#P1"></use><use x="3570" y="2042" href="#P6"></use><use x="3513" y="2270" href="#P4"></use><use x="3549" y="2344" href="#P9"></use><use x="3534" y="2591" href="#P7"></use><use x="3545" y="2706" href="#P9"></use><use x="3429" y="2958" href="#P4"></use><use x="3509" y="3059" href="#P5"></use><use x="3577" y="3395" href="#P1"></use><use x="3479" y="3452" href="#P8"></use><use x="3563" y="3727" href="#P3"></use><use x="3529" y="3827" href="#P13"></use><use x="3427" y="4093" href="#P6"></use><use x="3540" y="4150" href="#P5"></use><use x="3443" y="4489" href="#P12"></use><use x="3441" y="4654" href="#P9"></use><use x="3592" y="4781" href="#P3"></use><use x="3474" y="5057" href="#P7"></use><use x="3471" y="5217" href="#P5"></use><use x="3619" y="-188" href="#P3"></use><use x="3645" y="-52" href="#P3"></use><use x="3627" y="219" href="#P2"></use><use x="3627" y="349" href="#P3"></use><use x="3692" y="507" href="#P2"></use><use x="3643" y="752" href="#P7"></use><use x="3688" y="850" href="#P2"></use><use x="3669" y="1153" href="#P10"></use><use x="3622" y="1243" href="#P11"></use><use x="3642" y="1563" href="#P12"></use><use x="3653" y="1746" href="#P3"></use><use x="3772" y="1920" href="#P4"></use><use x="3741" y="2056" href="#P2"></use><use x="3693" y="2315" href="#P7"></use><use x="3624" y="2419" href="#P3"></use><use x="3751" y="2540" href="#P10"></use><use x="3735" y="2706" href="#P8"></use><use x="3610" y="2958" href="#P13"></use><use x="3637" y="3184" href="#P13"></use><use x="3624" y="3295" href="#P11"></use><use x="3614" y="3588" href="#P11"></use><use x="3660" y="3713" href="#P1"></use><use x="3653" y="3812" href="#P6"></use><use x="3761" y="4020" href="#P5"></use><use x="3652" y="4178" href="#P4"></use><use x="3764" y="4497" href="#P1"></use><use x="3716" y="4658" href="#P8"></use><use x="3748" y="4844" href="#P2"></use><use x="3639" y="4916" href="#P9"></use><use x="3616" y="5229" href="#P12"></use><use x="3925" y="-146" href="#P5"></use><use x="3931" y="44" href="#P6"></use><use x="3827" y="156" href="#P0"></use><use x="3865" y="440" href="#P7"></use><use x="3795" y="526" href="#P3"></use><use x="3908" y="825" href="#P12"></use><use x="3884" y="1010" href="#P11"></use><use x="3902" y="1187" href="#P11"></use><use x="3820" y="1248" href="#P4"></use><use x="3805" y="1539" href="#P13"></use><use x="3853" y="1608" href="#P8"></use><use x="3812" y="1919" href="#P11"></use><use x="3812" y="2060" href="#P9"></use><use x="3808" y="2156" href="#P12"></use><use x="3956" y="2427" href="#P12"></use><use x="3857" y="2643" href="#P9"></use><use x="3902" y="2733" href="#P10"></use><use x="3931" y="2868" href="#P10"></use><use x="3888" y="3089" href="#P5"></use><use x="3794" y="3329" href="#P2"></use><use x="3810" y="3433" href="#P10"></use><use x="3966" y="3702" href="#P11"></use><use x="3794" y="3943" href="#P0"></use><use x="3942" y="3992" href="#P7"></use><use x="3924" y="4164" href="#P2"></use><use x="3868" y="4342" href="#P3"></use><use x="3794" y="4667" href="#P12"></use><use x="3795" y="4725" href="#P12"></use><use x="3858" y="4953" href="#P3"></use><use x="3813" y="5153" href="#P3"></use><use x="4082" y="-123" href="#P3"></use><use x="4126" y="98" href="#P9"></use><use x="4021" y="261" href="#P12"></use><use x="4108" y="436" href="#P9"></use><use x="4130" y="584" href="#P12"></use><use x="4117" y="799" href="#P12"></use><use x="4070" y="1024" href="#P2"></use><use x="4025" y="1116" href="#P7"></use><use x="4116" y="1260" href="#P5"></use><use x="4044" y="1483" href="#P6"></use><use x="4046" y="1664" href="#P4"></use><use x="4053" y="1790" href="#P2"></use><use x="4128" y="2034" href="#P7"></use><use x="4125" y="2270" href="#P0"></use><use x="4113" y="2328" href="#P2"></use><use x="4029" y="2636" href="#P6"></use><use x="3981" y="2719" href="#P8"></use><use x="4108" y="2928" href="#P6"></use><use x="4105" y="3214" href="#P7"></use><use x="4064" y="3265" href="#P12"></use><use x="4081" y="3508" href="#P9"></use><use x="4105" y="3701" href="#P3"></use><use x="4018" y="3854" href="#P13"></use><use x="3999" y="4089" href="#P3"></use><use x="3998" y="4274" href="#P9"></use><use x="3998" y="4507" href="#P7"></use><use x="4062" y="4614" href="#P2"></use><use x="3972" y="4735" href="#P11"></use><use x="4078" y="4983" href="#P12"></use><use x="4006" y="5195" href="#P8"></use><use x="4211" y="-174" href="#P0"></use><use x="4308" y="-15" href="#P8"></use><use x="4220" y="229" href="#P9"></use><use x="4235" y="413" href="#P8"></use><use x="4192" y="522" href="#P5"></use><use x="4262" y="802" href="#P9"></use><use x="4208" y="911" href="#P1"></use><use x="4310" y="1190" href="#P10"></use><use x="4177" y="1244" href="#P5"></use><use x="4208" y="1489" href="#P7"></use><use x="4197" y="1693" href="#P12"></use><use x="4179" y="1936" href="#P9"></use><use x="4236" y="2037" href="#P7"></use><use x="4174" y="2165" href="#P3"></use><use x="4296" y="2395" href="#P9"></use><use x="4235" y="2565" href="#P11"></use><use x="4182" y="2808" href="#P13"></use><use x="4277" y="2956" href="#P9"></use><use x="4166" y="3093" href="#P10"></use><use x="4173" y="3313" href="#P2"></use><use x="4214" y="3522" href="#P13"></use><use x="4153" y="3733" href="#P2"></use><use x="4180" y="3955" href="#P12"></use><use x="4168" y="3994" href="#P12"></use><use x="4211" y="4240" href="#P7"></use><use x="4214" y="4504" href="#P13"></use><use x="4218" y="4665" href="#P10"></use><use x="4235" y="4766" href="#P13"></use><use x="4184" y="4971" href="#P8"></use><use x="4237" y="5231" href="#P6"></use><use x="4482" y="-118" href="#P12"></use><use x="4490" y="95" href="#P7"></use><use x="4495" y="247" href="#P2"></use><use x="4423" y="454" href="#P7"></use><use x="4337" y="492" href="#P0"></use><use x="4346" y="791" href="#P2"></use><use x="4367" y="1000" href="#P10"></use><use x="4334" y="1060" href="#P7"></use><use x="4370" y="1329" href="#P8"></use><use x="4394" y="1503" href="#P5"></use><use x="4495" y="1661" href="#P11"></use><use x="4433" y="1793" href="#P9"></use><use x="4436" y="2004" href="#P5"></use><use x="4470" y="2188" href="#P11"></use><use x="4385" y="2389" href="#P9"></use><use x="4343" y="2531" href="#P6"></use><use x="4417" y="2840" href="#P4"></use><use x="4356" y="2876" href="#P9"></use><use x="4416" y="3161" href="#P9"></use><use x="4485" y="3302" href="#P8"></use><use x="4352" y="3507" href="#P4"></use><use x="4497" y="3702" href="#P0"></use><use x="4484" y="3894" href="#P7"></use><use x="4397" y="4029" href="#P11"></use><use x="4516" y="4293" href="#P5"></use><use x="4512" y="4477" href="#P5"></use><use x="4469" y="4594" href="#P4"></use><use x="4510" y="4855" href="#P10"></use><use x="4499" y="4904" href="#P13"></use><use x="4362" y="5207" href="#P3"></use><use x="4645" y="-235" href="#P1"></use><use x="4542" y="98" href="#P12"></use><use x="4621" y="169" href="#P11"></use><use x="4688" y="416" href="#P11"></use><use x="4573" y="529" href="#P1"></use><use x="4579" y="721" href="#P9"></use><use x="4630" y="960" href="#P8"></use><use x="4551" y="1212" href="#P9"></use><use x="4606" y="1256" href="#P5"></use><use x="4647" y="1425" href="#P7"></use><use x="4584" y="1699" href="#P4"></use><use x="4580" y="1781" href="#P11"></use><use x="4523" y="2072" href="#P0"></use><use x="4613" y="2227" href="#P10"></use><use x="4672" y="2417" href="#P13"></use><use x="4548" y="2529" href="#P6"></use><use x="4623" y="2801" href="#P2"></use><use x="4652" y="2895" href="#P11"></use><use x="4680" y="3090" href="#P9"></use><use x="4603" y="3278" href="#P0"></use><use x="4582" y="3558" href="#P5"></use><use x="4576" y="3659" href="#P1"></use><use x="4539" y="3940" href="#P12"></use><use x="4556" y="4065" href="#P7"></use><use x="4645" y="4257" href="#P12"></use><use x="4657" y="4454" href="#P0"></use><use x="4541" y="4609" href="#P5"></use><use x="4692" y="4862" href="#P3"></use><use x="4632" y="4926" href="#P12"></use><use x="4660" y="5133" href="#P10"></use><use x="4868" y="-184" href="#P1"></use><use x="4817" y="93" href="#P7"></use><use x="4762" y="221" href="#P0"></use><use x="4709" y="316" href="#P4"></use><use x="4762" y="639" href="#P3"></use><use x="4828" y="743" href="#P0"></use><use x="4883" y="1032" href="#P1"></use><use x="4706" y="1074" href="#P6"></use><use x="4810" y="1371" href="#P5"></use><use x="4735" y="1427" href="#P9"></use><use x="4717" y="1623" href="#P6"></use><use x="4874" y="1934" href="#P2"></use><use x="4770" y="1999" href="#P4"></use><use x="4808" y="2305" href="#P2"></use><use x="4834" y="2392" href="#P0"></use><use x="4727" y="2503" href="#P10"></use><use x="4826" y="2811" href="#P1"></use><use x="4758" y="2904" href="#P11"></use><use x="4783" y="3195" href="#P12"></use><use x="4717" y="3242" href="#P10"></use><use x="4798" y="3535" href="#P3"></use><use x="4785" y="3613" href="#P2"></use><use x="4772" y="3927" href="#P6"></use><use x="4806" y="3984" href="#P0"></use><use x="4811" y="4235" href="#P9"></use><use x="4752" y="4365" href="#P0"></use><use x="4829" y="4656" href="#P11"></use><use x="4701" y="4726" href="#P7"></use><use x="4708" y="5042" href="#P10"></use><use x="4712" y="5214" href="#P4"></use><use x="4977" y="-82" href="#P6"></use><use x="4893" y="83" href="#P3"></use><use x="5048" y="276" href="#P1"></use><use x="5044" y="350" href="#P0"></use><use x="5013" y="529" href="#P6"></use><use x="4927" y="688" href="#P4"></use><use x="4887" y="987" href="#P10"></use><use x="4937" y="1185" href="#P3"></use><use x="5065" y="1319" href="#P1"></use><use x="4978" y="1468" href="#P6"></use><use x="4988" y="1704" href="#P3"></use><use x="5065" y="1816" href="#P5"></use><use x="5054" y="2069" href="#P11"></use><use x="4973" y="2179" href="#P2"></use><use x="4884" y="2412" href="#P6"></use><use x="4988" y="2594" href="#P11"></use><use x="4924" y="2724" href="#P2"></use><use x="4907" y="2972" href="#P2"></use><use x="4915" y="3124" href="#P1"></use><use x="4918" y="3396" href="#P3"></use><use x="5001" y="3591" href="#P8"></use><use x="5042" y="3694" href="#P4"></use><use x="4997" y="3822" href="#P6"></use><use x="5045" y="4129" href="#P12"></use><use x="4992" y="4174" href="#P13"></use><use x="4908" y="4360" href="#P4"></use><use x="4981" y="4560" href="#P11"></use><use x="5018" y="4754" href="#P8"></use><use x="4907" y="4991" href="#P12"></use><use x="4979" y="5115" href="#P0"></use><use x="5109" y="-98" href="#P6"></use><use x="5120" y="59" href="#P7"></use><use x="5098" y="127" href="#P7"></use><use x="5070" y="369" href="#P0"></use><use x="5219" y="655" href="#P2"></use><use x="5139" y="707" href="#P7"></use><use x="5067" y="949" href="#P9"></use><use x="5185" y="1176" href="#P11"></use><use x="5078" y="1399" href="#P2"></use><use x="5108" y="1574" href="#P4"></use><use x="5239" y="1601" href="#P5"></use><use x="5124" y="1781" href="#P12"></use><use x="5238" y="2094" href="#P2"></use><use x="5187" y="2297" href="#P4"></use><use x="5205" y="2347" href="#P2"></use><use x="5155" y="2608" href="#P7"></use><use x="5155" y="2742" href="#P11"></use><use x="5218" y="2883" href="#P13"></use><use x="5121" y="3194" href="#P6"></use><use x="5237" y="3294" href="#P12"></use><use x="5081" y="3497" href="#P1"></use><use x="5084" y="3684" href="#P9"></use><use x="5134" y="3885" href="#P1"></use><use x="5188" y="4020" href="#P12"></use><use x="5154" y="4261" href="#P1"></use><use x="5128" y="4356" href="#P12"></use><use x="5176" y="4676" href="#P7"></use><use x="5191" y="4820" href="#P13"></use><use x="5157" y="4894" href="#P0"></use><use x="5068" y="5112" href="#P4"></use></g></svg>