<svg width="20" height="22" viewBox="0 0 20 22" fill="none" xmlns="http://www.w3.org/2000/svg">
<path d="M8.0905 12.1851L7.05395 6.67403C6.96852 6.09197 6.75637 5.53496 6.43201 5.04112C6.31561 4.76961 6.28481 4.46993 6.3436 4.18097C6.40239 3.89201 6.54806 3.62713 6.76169 3.42071C6.97532 3.2143 7.24704 3.07589 7.54158 3.02345C7.83612 2.97102 8.13987 3.00698 8.41339 3.12666C8.68691 3.24635 8.91756 3.44424 9.0754 3.69463C9.23324 3.94503 9.31098 4.23636 9.29852 4.5308C9.28606 4.82525 9.18397 5.1092 9.00552 5.3458C8.82707 5.58239 8.5805 5.7607 8.29782 5.85757L8.91975 8.69476H11.7367C12.0129 8.69476 12.2367 8.91861 12.2367 9.19476V9.48067C12.2367 9.75681 12.0129 9.98067 11.7367 9.98067H9.12706L9.23072 10.593C9.23072 10.6471 9.25256 10.6991 9.29144 10.7373C9.33032 10.7756 9.38305 10.7971 9.43803 10.7971H13.5843L15.6574 14.8794L16.935 14.2504C17.1806 14.1295 17.4777 14.2286 17.6017 14.4726L17.7708 14.8056C17.8969 15.054 17.7957 15.3576 17.5458 15.4806L15.4992 16.4881C15.2536 16.609 14.9565 16.51 14.8326 16.2659L12.7602 12.1851H8.0905ZM7.26126 9.02134C6.44955 9.35033 5.73425 9.87388 5.18042 10.5444C4.62658 11.2149 4.25178 12.0111 4.0901 12.8606C3.92841 13.71 3.98498 14.5858 4.25465 15.4083C4.52432 16.2307 4.99855 16.9738 5.63419 17.5698C6.26983 18.1658 7.04673 18.596 7.89422 18.8211C8.74172 19.0462 9.63292 19.0591 10.4868 18.8587C11.3407 18.6583 12.1301 18.2509 12.7833 17.6735C13.4365 17.0962 13.9328 16.3673 14.2269 15.553L13.4599 14.0425C13.4223 14.7613 13.1924 15.4574 12.7935 16.0605C12.3945 16.6635 11.8408 17.1521 11.1883 17.4765C10.5359 17.8009 9.80789 17.9498 9.07817 17.908C8.34845 17.8662 7.64293 17.6351 7.03311 17.2383C6.4233 16.8415 5.93086 16.2931 5.6057 15.6485C5.28055 15.004 5.13425 14.2862 5.18161 13.5681C5.22898 12.8499 5.46833 12.1568 5.87542 11.5591C6.2825 10.9613 6.84285 10.4802 7.49967 10.1644L7.26126 9.02134Z" fill="#E0E0E0"/>
</svg>
