<svg width="102" height="102" viewBox="0 0 102 102" fill="none" xmlns="http://www.w3.org/2000/svg">
<path fill-rule="evenodd" clip-rule="evenodd" d="M102 0H0V102H102V0ZM20 2H2V20H20V2ZM2 22H20V40H2V22ZM20 42H2V60H20V42ZM2 62H20V80H2V62ZM20 82H2V100H20V82ZM42 2H60V20H42V2ZM60 22H42V40H60V22ZM42 42H60V60H42V42ZM60 62H42V80H60V62ZM42 82H60V100H42V82ZM40 2H22V20H40V2ZM22 22H40V40H22V22ZM40 42H22V60H40V42ZM22 62H40V80H22V62ZM40 82H22V100H40V82ZM62 2H80V20H62V2ZM80 22H62V40H80V22ZM62 42H80V60H62V42ZM80 62H62V80H80V62ZM62 82H80V100H62V82ZM100 2H82V20H100V2ZM82 22H100V40H82V22ZM100 42H82V60H100V42ZM82 62H100V80H82V62ZM100 82H82V100H100V82Z" fill="#FEFA53"/>
</svg>
