<svg width="23" height="23" viewBox="0 0 23 23" fill="none" xmlns="http://www.w3.org/2000/svg">
<path d="M3.04059 14.4689C3.26136 13.8857 3.81987 13.5 4.44341 13.5H20.8218C21.8729 13.5 22.598 14.553 22.2231 15.535L19.9326 21.535C19.7108 22.1161 19.1533 22.5 18.5312 22.5H2.17181C1.12249 22.5 0.397444 21.4502 0.76898 20.4689L3.04059 14.4689Z" fill="#5FAE86" stroke="white" stroke-linejoin="round"/>
<path d="M8.83087 16.052C8.33437 15.5453 7.65377 15.3 6.80582 15.3H4.39027L4.15039 16.1773H5.01508V20.591H6.80582C7.65377 20.591 8.33437 20.3458 8.83087 19.8499C9.32179 19.3486 9.56167 18.7165 9.56167 17.9537C9.56167 17.1908 9.32179 16.5533 8.83087 16.052ZM8.02754 16.6405C8.3511 16.9238 8.52404 17.3543 8.52404 17.9482C8.52404 18.5585 8.3511 18.989 8.02196 19.2778C7.68725 19.5666 7.26885 19.7191 6.75004 19.7191H6.00808V16.1882H6.75004C7.27443 16.1882 7.69282 16.3462 8.02754 16.6405Z" fill="white"/>
<path d="M12.7243 19.3451H10V18.572L11.527 15.3H12.473L11.1216 18.572H12.7243L12.773 17.3422H13.673V18.572H14.5V19.3451H13.673V20.7H12.7243V19.3451Z" fill="white"/>
<path d="M18.1247 20.7001L17.7867 19.5951H16.0967L15.7587 20.7001H14.6992L16.3372 16.0396H17.5397L19.1842 20.7001H18.1247ZM17.2147 17.6906C17.1931 17.6169 17.1649 17.5237 17.1302 17.4111C17.0956 17.2984 17.0609 17.1836 17.0262 17.0666C16.9916 16.9496 16.9634 16.8477 16.9417 16.7611C16.9201 16.8477 16.8897 16.9561 16.8507 17.0861C16.8161 17.2117 16.7814 17.3331 16.7467 17.4501C16.7164 17.5627 16.6926 17.6429 16.6752 17.6906L16.3437 18.7696H17.5527L17.2147 17.6906Z" fill="white"/>
</svg>
