<svg width="63" height="63" viewBox="0 0 63 63" fill="none" xmlns="http://www.w3.org/2000/svg">
<path d="M39.6863 53.3149C39.6863 49.56 39 38.4 32 36C34.6667 40.5 37.0719 52.7934 36.549 56.6005L39.8614 56.9009C39.9114 57.0537 39.9624 57.0071 40 56.9134L39.8614 56.9009C39.7722 56.6283 39.6863 55.7212 39.6863 53.3149Z" fill="#646464" stroke="white" stroke-linejoin="round"/>
<path d="M24.2941 43.9277C24.2941 36.7212 23.1176 18.1046 29 13C26.0588 19.6059 26.7451 42.9268 27.2353 50.2333L24.13 50.8097C24.0831 51.103 24.0352 51.0136 24 50.8339L24.13 50.8097C24.2136 50.2866 24.2941 48.5457 24.2941 43.9277Z" fill="#646464" stroke="white" stroke-linejoin="round"/>
<path d="M17.3473 52.3641C16.4439 40.0182 20.3585 17.4341 29.6933 14.1218C22.3295 21.0475 18.5518 38.5126 22.1653 52.3641L24.2731 56.2787C24.2347 56.7891 17.8527 59.2714 17.3473 52.3641Z" fill="#646464" stroke="white" stroke-linejoin="round"/>
<path d="M62.5 56C62.5 56.2231 62.3833 56.5044 62.0194 56.8432C61.6559 57.1816 61.0918 57.5317 60.3193 57.8796C58.7774 58.5739 56.515 59.2115 53.6803 59.7515C48.0191 60.8298 40.1769 61.5 31.5 61.5C22.8231 61.5 14.9809 60.8298 9.31969 59.7515C6.48499 59.2115 4.22256 58.5739 2.68074 57.8796C1.90821 57.5317 1.34414 57.1816 0.980638 56.8432C0.616689 56.5044 0.5 56.2231 0.5 56C0.5 55.7769 0.616689 55.4956 0.980638 55.1568C1.34414 54.8184 1.90821 54.4683 2.68074 54.1204C4.22256 53.4261 6.48499 52.7885 9.31969 52.2485C14.9809 51.1702 22.8231 50.5 31.5 50.5C40.1769 50.5 48.0191 51.1702 53.6803 52.2485C56.515 52.7885 58.7774 53.4261 60.3193 54.1204C61.0918 54.4683 61.6559 54.8184 62.0194 55.1568C62.3833 55.4956 62.5 55.7769 62.5 56Z" fill="#646464" stroke="white"/>
<path d="M26.9602 38.896C18.6758 38.896 10.1949 48.4451 10.1949 54.8156C8.99738 55.2789 7.566 55.2017 7 55.1052C7 48.1555 16.2808 36 26.9602 36C45.6416 36 55.1073 51.3408 56 55.6843C55.1019 56.2635 53.605 55.9739 53.0062 55.3948C53.0062 52.4991 43.225 38.896 26.9602 38.896Z" fill="#646464" stroke="white" stroke-linejoin="round"/>
<path d="M34 37.0784C20.3923 31.2327 16.4845 50.7323 17.0529 57.7054C17.0529 57.7054 17.0529 58 19.0989 58C21.145 58 21.145 57.7054 21.145 57.7054C21.145 38.9244 29.1617 37.0784 34 37.0784Z" fill="#646464" stroke="white"/>
<path d="M28 15.9608C35.7812 8.73745 33.9769 44.152 33.413 58.3981C33.413 58.3981 33.413 59 31.3831 59C29.3533 59 29.3533 58.3981 29.3533 58.3981C30.1427 46.4594 30.9772 18.8502 28 15.9608Z" fill="#646464" stroke="white"/>
<path d="M29.9384 15.4604C10.8863 14.9684 5.15779 42.52 6.06875 56.3573C4.50714 56.8493 3.86633 56.7673 3.12823 56.6648C2.06662 41.7187 7.31394 12.4757 29.5167 13.0071C57.2701 13.6714 57.7251 45.04 60 56.6648C58.8288 57.2798 57.4896 56.9723 56.7089 56.3573C54.7568 45.5949 53.7534 16.0754 29.9384 15.4604Z" fill="#646464" stroke="white" stroke-linejoin="round"/>
<path d="M29.7916 15.596C15.083 15.1175 11.6068 41.9158 12.31 55.3749C11.1044 55.8534 9.66336 55.7736 9.09353 55.6739C8.27394 41.1364 12.6506 11.4898 29.7917 12.0067C51.218 12.6528 51.2437 44.367 53 55.6739C52.0958 56.2721 50.5887 55.973 49.986 55.3749C48.4789 44.9067 48.1775 16.1942 29.7916 15.596Z" fill="#646464" stroke="white" stroke-linejoin="round"/>
<path d="M29.7916 15.596C15.083 15.1175 11.6068 41.9158 12.31 55.3749C11.1044 55.8534 9.66336 55.7736 9.09353 55.6739C8.27394 41.1364 12.6506 11.4898 29.7917 12.0067C51.218 12.6528 51.2437 44.367 53 55.6739C52.0958 56.2721 50.5887 55.973 49.986 55.3749C48.4789 44.9067 48.1775 16.1942 29.7916 15.596Z" fill="#646464" stroke="white" stroke-linejoin="round"/>
<path d="M28 11.7354C36.8374 -5.42839 46.6745 41.3197 45.9636 55.5727C45.9636 55.5727 45.6748 56 43.8464 56C42.0179 56 41.4546 55.5727 41.4546 55.5727C42.4499 43.6282 35.3137 5.41192 28 11.7354Z" fill="#646464" stroke="white"/>
</svg>
