<svg width="105" height="105" viewBox="0 0 105 105" fill="none" xmlns="http://www.w3.org/2000/svg">
<path d="M48.5 6C50.5 8 52 12 52 17" stroke="white" stroke-width="2" stroke-linejoin="round"/>
<path d="M67.6163 60.8469C66.2512 42.7788 59.8809 25.9847 56.089 17.5877C56.089 17.5877 55.0498 15.6877 51.5739 16.0447C46.6873 16.5464 47.1401 19.1513 47.1401 19.1513C47.1401 19.1513 47.6472 38.0016 45.8898 49.8222C44.0543 62.1674 37 80.9956 37 80.9956C37 80.9956 46.5647 80.9857 52.4862 80.9956C58.3425 81.0055 67.0874 80.9956 67.0874 80.9956C67.138 80.4696 68.7043 75.2482 67.6163 60.8469Z" fill="#646464" stroke="white" stroke-width="2" stroke-linejoin="round"/>
<path d="M67.0104 80.4365C67.0105 80.4364 67.0101 80.4377 67.0088 80.4402C67.0097 80.4377 67.0104 80.4365 67.0104 80.4365ZM66.9447 80.4778C66.9521 80.4857 66.9588 80.4932 66.9647 80.5C66.9588 80.5068 66.9521 80.5143 66.9447 80.5222C66.8386 80.6356 66.6332 80.7931 66.2833 80.9741C65.5859 81.3348 64.5114 81.6892 63.1 81.998C60.2935 82.6119 56.3686 83 52 83C47.6309 83 43.835 82.6118 41.1592 82C39.8131 81.6923 38.8063 81.3403 38.1605 80.9858C37.7159 80.7417 37.5678 80.5699 37.52 80.5C37.5678 80.4301 37.7159 80.2583 38.1605 80.0142C38.8063 79.6597 39.8131 79.3077 41.1592 79C43.835 78.3882 47.6309 78 52 78C56.3686 78 60.2935 78.3881 63.1 79.002C64.5114 79.3108 65.5859 79.6652 66.2833 80.0259C66.6332 80.2069 66.8386 80.3644 66.9447 80.4778ZM67.0088 80.5598C67.0101 80.5623 67.0105 80.5636 67.0104 80.5635C67.0104 80.5635 67.0097 80.5623 67.0088 80.5598Z" fill="#646464" stroke="white" stroke-width="2"/>
<path d="M68 69C68 67.3431 62.0549 66 54.7213 66C47.3877 66 41 67.3431 41 69" stroke="white" stroke-width="2"/>
<path d="M67 58C65.6981 56.5 61.5973 55 55.468 55C49.3387 55 44.8679 57 44 58" stroke="white" stroke-width="2"/>
<path d="M66 47C64.9194 45.5 61.061 44 55.9734 44C50.8859 44 46.9091 46 46 47" stroke="white" stroke-width="2"/>
<path d="M63 35.8571C62.1108 34.1429 58.9359 33 54.7496 33C50.5632 33 47.7481 35.8571 47 37" stroke="white" stroke-width="2"/>
<rect x="50" y="75" width="2.90356" height="5" fill="#646464"/>
<path d="M60 26.5C58.6071 25 56.1941 25 53.0357 25C49.8773 25 47.5644 26.8571 47 28" stroke="white" stroke-width="2"/>
<path d="M31 97L37.3902 81L38.0244 97L44.0976 79L44.6098 97L52 67L53.3902 97L59.9024 79L59.9756 97L66.6098 81L67 97" stroke="white" stroke-width="2" stroke-linejoin="round"/>
<rect x="27" y="97" width="44" height="5" fill="#646464" stroke="white" stroke-width="2"/>
<path d="M46.5 13.5L50 6.5C49 6.5 46.5 6.5 45.5 8.5C44.7 10.1 45.8333 12.5 46.5 13.5Z" fill="#646464" stroke="white" stroke-width="2" stroke-linejoin="round"/>
<path d="M55.4858 12.1143L49.3218 7.29189C50.2252 6.86301 52.4836 5.79079 54.2447 7.16862C55.6536 8.27089 55.6591 10.925 55.4858 12.1143Z" fill="#646464" stroke="white" stroke-width="2" stroke-linejoin="round"/>
<path d="M42.819 8.4736L50.4322 6.65983C49.7899 5.89341 48.1841 3.97732 46.0089 4.49554C44.2687 4.91011 43.1572 7.32032 42.819 8.4736Z" fill="#646464" stroke="white" stroke-width="2" stroke-linejoin="round"/>
<path d="M56.108 2.24296L50.0659 7.21712C49.8426 6.24236 49.2846 3.80542 51.011 2.38424C52.392 1.24729 54.9844 1.81632 56.108 2.24296Z" fill="#646464" stroke="white" stroke-width="2" stroke-linejoin="round"/>
</svg>
