<svg width="63" height="63" viewBox="0 0 63 63" fill="none" xmlns="http://www.w3.org/2000/svg">
<path d="M11.9192 45.4423C10.7435 42.7888 5.61217 42.4959 4.26149 41.5616C4.22262 41.5347 4.16817 41.5584 4.16235 41.6053L3.51783 46.8018C3.51171 46.8512 3.56501 46.8865 3.60873 46.8628C5.71807 45.7201 8.98203 46.6395 9.21851 47.4158C9.81967 49.3893 8.04753 54.1941 9.21396 58.0232C10.7169 62.9569 18.2234 61.5167 20.3356 58.5166C28.1508 47.4158 28.1525 23.7571 27.8502 19.7872C27.5532 15.8878 18.0635 14.5126 15.2264 12.577C15.1845 12.5484 15.13 12.582 15.1329 12.6326L15.4201 17.691C15.4222 17.7273 15.4566 17.7532 15.4923 17.7466C20.5651 16.8063 24.0228 20.5373 21.8385 22.5007C15.424 28.2666 17.0291 58.0232 13.7227 57.2832C11.0491 56.6847 13.7395 49.5504 11.9192 45.4423Z" fill="#646464" stroke="white"/>
<path d="M16.7331 46.1824C16.3977 45.9071 17.0714 45.7823 17.6349 45.8621L17.6349 41.8021C17.6349 41.769 17.6618 41.742 17.6949 41.7429C18.8004 41.7716 19.8656 42.5874 20.6407 43.5031C19.8987 31.5847 23.1802 26.8841 25.7461 22.5008C27.5984 19.3365 25.6237 16.7253 22.3641 16.9247C22.3247 16.9271 22.2925 16.8919 22.2999 16.8532L23.1624 12.3226C23.1707 12.2793 23.2206 12.259 23.2561 12.2849C25.9554 14.252 29.6565 16.8639 29.9543 20.774C30.2566 24.7439 27.2627 50.376 23.9562 58.5166C22.6211 61.8036 18.8372 62.9569 17.3343 58.0232C16.1679 54.1941 20.0396 48.8959 16.7331 46.1824Z" fill="#646464"/>
<path d="M23.9562 58.5166C22.6211 61.8036 18.8372 62.9569 17.3343 58.0232C16.1679 54.1941 20.0396 48.8959 16.7331 46.1824C16.0429 45.6159 19.6259 45.6867 17.728 46.8663C17.6886 46.8908 17.6349 46.8641 17.6349 46.8177L17.6349 41.8021C17.6349 41.769 17.6618 41.742 17.6949 41.7429C18.8004 41.7716 19.8656 42.5874 20.6407 43.5031M23.9562 58.5166C27.2627 50.376 30.2566 24.7439 29.9543 20.774C29.6565 16.8639 25.9554 14.252 23.2561 12.2849C23.2206 12.259 23.1707 12.2793 23.1624 12.3226L22.2999 16.8532C22.2925 16.8919 22.3247 16.9271 22.3641 16.9247C25.6237 16.7253 27.5984 19.3365 25.7461 22.5008C23.1802 26.8841 19.8987 31.5847 20.6407 43.5031M23.9562 58.5166C24.3081 57.5759 21.2419 58.7633 20.6407 54.5697C20.0647 50.5514 22.1436 48.1559 21.8431 45.689C21.7832 45.1979 21.3251 44.3116 20.6407 43.5031" stroke="white"/>
<path d="M16.4999 15.5C16.4999 16.3956 16.2914 17.1818 15.98 17.7268C15.6605 18.2859 15.2954 18.5 14.9999 18.5C14.7045 18.5 14.3393 18.2859 14.0198 17.7268C13.7084 17.1818 13.4999 16.3956 13.4999 15.5C13.4999 14.6044 13.7084 13.8182 14.0198 13.2732C14.3393 12.7141 14.7045 12.5 14.9999 12.5C15.2954 12.5 15.6605 12.7141 15.98 13.2732C16.2914 13.8182 16.4999 14.6044 16.4999 15.5Z" fill="#646464" stroke="white"/>
<path d="M24.4999 14.5C24.4999 15.3743 24.2461 16.145 23.8608 16.6843C23.4749 17.2245 22.9869 17.5 22.4999 17.5C22.013 17.5 21.5249 17.2245 21.139 16.6843C20.7538 16.145 20.4999 15.3743 20.4999 14.5C20.4999 13.6257 20.7538 12.855 21.139 12.3157C21.5249 11.7755 22.013 11.5 22.4999 11.5C22.9869 11.5 23.4749 11.7755 23.8608 12.3157C24.2461 12.855 24.4999 13.6257 24.4999 14.5Z" fill="#646464" stroke="white"/>
<path d="M5.49994 44.5C5.49994 45.3956 5.29144 46.1818 4.98003 46.7268C4.66054 47.2859 4.29536 47.5 3.99994 47.5C3.70452 47.5 3.33934 47.2859 3.01985 46.7268C2.70844 46.1818 2.49994 45.3956 2.49994 44.5C2.49994 43.6044 2.70844 42.8182 3.01985 42.2732C3.33934 41.7141 3.70452 41.5 3.99994 41.5C4.29536 41.5 4.66054 41.7141 4.98003 42.2732C5.29144 42.8182 5.49994 43.6044 5.49994 44.5Z" fill="#646464" stroke="white"/>
<path d="M19.4999 44.5C19.4999 45.3743 19.2461 46.145 18.8608 46.6843C18.4749 47.2245 17.9869 47.5 17.4999 47.5C17.013 47.5 16.5249 47.2245 16.139 46.6843C15.7538 46.145 15.4999 45.3743 15.4999 44.5C15.4999 43.6257 15.7538 42.855 16.139 42.3157C16.5249 41.7755 17.013 41.5 17.4999 41.5C17.9869 41.5 18.4749 41.7755 18.8608 42.3157C19.2461 42.855 19.4999 43.6257 19.4999 44.5Z" fill="#646464" stroke="white"/>
<path d="M51.0561 45.4423C52.2318 42.7888 57.3631 42.4959 58.7138 41.5616C58.7527 41.5347 58.8071 41.5584 58.8129 41.6053L59.4575 46.8018C59.4636 46.8512 59.4103 46.8865 59.3665 46.8628C57.2572 45.7201 53.9932 46.6395 53.7568 47.4158C53.1556 49.3893 54.9278 54.1941 53.7613 58.0232C52.2584 62.9569 44.7518 61.5167 42.6397 58.5166C34.8245 47.4158 34.8228 23.7571 35.1251 19.7872C35.4221 15.8878 44.9118 14.5126 47.7489 12.577C47.7908 12.5484 47.8453 12.582 47.8424 12.6326L47.5552 17.691C47.5531 17.7273 47.5187 17.7532 47.483 17.7466C42.4102 16.8063 38.9525 20.5373 41.1368 22.5007C47.5513 28.2666 45.9461 58.0232 49.2526 57.2832C51.9262 56.6847 49.2358 49.5504 51.0561 45.4423Z" fill="#646464" stroke="white"/>
<path d="M46.2423 46.1824C46.5777 45.9071 45.904 45.7823 45.3405 45.8621L45.3405 41.8021C45.3405 41.769 45.3136 41.742 45.2805 41.7429C44.175 41.7716 43.1098 42.5874 42.3347 43.5031C43.0767 31.5847 39.7952 26.8841 37.2293 22.5008C35.377 19.3365 37.3517 16.7253 40.6113 16.9247C40.6507 16.9271 40.6829 16.8919 40.6755 16.8532L39.813 12.3226C39.8047 12.2793 39.7548 12.259 39.7193 12.2849C37.02 14.252 33.3189 16.8639 33.0211 20.774C32.7188 24.7439 35.7127 50.376 39.0192 58.5166C40.3543 61.8036 44.1382 62.9569 45.6411 58.0232C46.8075 54.1941 42.9358 48.8959 46.2423 46.1824Z" fill="#646464"/>
<path d="M39.0192 58.5166C40.3543 61.8036 44.1382 62.9569 45.6411 58.0232C46.8075 54.1941 42.9358 48.8959 46.2423 46.1824C46.9325 45.6159 43.3495 45.6867 45.2475 46.8663C45.2868 46.8908 45.3405 46.8641 45.3405 46.8177L45.3405 41.8021C45.3405 41.769 45.3136 41.742 45.2805 41.7429C44.175 41.7716 43.1098 42.5874 42.3347 43.5031M39.0192 58.5166C35.7127 50.376 32.7188 24.7439 33.0211 20.774C33.3189 16.8639 37.02 14.252 39.7193 12.2849C39.7548 12.259 39.8047 12.2793 39.813 12.3226L40.6755 16.8532C40.6829 16.8919 40.6507 16.9271 40.6113 16.9247C37.3517 16.7253 35.377 19.3365 37.2293 22.5008C39.7952 26.8841 43.0767 31.5847 42.3347 43.5031M39.0192 58.5166C38.6673 57.5759 41.7335 58.7633 42.3347 54.5697C42.9107 50.5514 40.8318 48.1559 41.1323 45.689C41.1922 45.1979 41.6503 44.3116 42.3347 43.5031" stroke="white"/>
<path d="M46.4753 15.5C46.4753 16.3956 46.6838 17.1818 46.9952 17.7268C47.3147 18.2859 47.6799 18.5 47.9753 18.5C48.2708 18.5 48.6359 18.2859 48.9554 17.7268C49.2668 17.1818 49.4753 16.3956 49.4753 15.5C49.4753 14.6044 49.2668 13.8182 48.9554 13.2732C48.6359 12.7141 48.2708 12.5 47.9753 12.5C47.6799 12.5 47.3147 12.7141 46.9952 13.2732C46.6838 13.8182 46.4753 14.6044 46.4753 15.5Z" fill="#646464" stroke="white"/>
<path d="M38.4753 14.5C38.4753 15.3743 38.7292 16.145 39.1144 16.6843C39.5003 17.2245 39.9884 17.5 40.4753 17.5C40.9623 17.5 41.4503 17.2245 41.8362 16.6843C42.2215 16.145 42.4753 15.3743 42.4753 14.5C42.4753 13.6257 42.2215 12.855 41.8362 12.3157C41.4503 11.7755 40.9623 11.5 40.4753 11.5C39.9884 11.5 39.5003 11.7755 39.1144 12.3157C38.7292 12.855 38.4753 13.6257 38.4753 14.5Z" fill="#646464" stroke="white"/>
<path d="M57.4753 44.5C57.4753 45.3956 57.6838 46.1818 57.9952 46.7268C58.3147 47.2859 58.6799 47.5 58.9753 47.5C59.2708 47.5 59.6359 47.2859 59.9554 46.7268C60.2668 46.1818 60.4753 45.3956 60.4753 44.5C60.4753 43.6044 60.2668 42.8182 59.9554 42.2732C59.6359 41.7141 59.2708 41.5 58.9753 41.5C58.6799 41.5 58.3147 41.7141 57.9952 42.2732C57.6838 42.8182 57.4753 43.6044 57.4753 44.5Z" fill="#646464" stroke="white"/>
<path d="M43.4753 44.5C43.4753 45.3743 43.7292 46.145 44.1144 46.6843C44.5003 47.2245 44.9884 47.5 45.4753 47.5C45.9623 47.5 46.4503 47.2245 46.8362 46.6843C47.2215 46.145 47.4753 45.3743 47.4753 44.5C47.4753 43.6257 47.2215 42.855 46.8362 42.3157C46.4503 41.7755 45.9623 41.5 45.4753 41.5C44.9884 41.5 44.5003 41.7755 44.1144 42.3157C43.7292 42.855 43.4753 43.6257 43.4753 44.5Z" fill="#646464" stroke="white"/>
<path d="M29.8283 15.7478C29.57 14.7314 29.7732 13.9237 30.1854 13.3777C30.6014 12.8268 31.2605 12.5 32 12.5C32.7395 12.5 33.3986 12.8268 33.8146 13.3777C34.2269 13.9237 34.43 14.7314 34.1717 15.7478C33.5749 18.0952 33.4207 19.9333 33.5349 21.565C33.6489 23.1935 34.029 24.5934 34.4708 26.0487C34.5419 26.283 34.6149 26.5194 34.6888 26.7592C35.5278 29.4786 36.5 32.6297 36.5 38.1466C36.5 44.2099 36.1106 49.6563 35.7212 53.5869C35.5265 55.5518 35.3319 57.1372 35.186 58.2304C35.1131 58.777 35.0524 59.2005 35.01 59.4868C35.0094 59.4913 35.0087 59.4956 35.0081 59.5H28.9919C28.9913 59.4956 28.9906 59.4913 28.99 59.4868C28.9476 59.2005 28.8869 58.777 28.814 58.2304C28.6681 57.1372 28.4735 55.5518 28.2788 53.5869C27.8894 49.6563 27.5 44.2099 27.5 38.1466C27.5 32.6297 28.4722 29.4786 29.3112 26.7592C29.3852 26.5194 29.4581 26.283 29.5292 26.0487C29.971 24.5934 30.3511 23.1935 30.4651 21.565C30.5793 19.9333 30.4251 18.0952 29.8283 15.7478Z" fill="#646464" stroke="white"/>
<path d="M33.524 46.5C33.5223 46.5248 33.5205 46.5503 33.5187 46.5766C33.4914 46.9706 33.4588 47.5324 33.437 48.2061C33.3936 49.5515 33.3932 51.3525 33.5682 53.1593C33.7791 55.3365 34.2984 56.7936 34.6779 57.8584C34.6846 57.8774 34.6914 57.8963 34.6981 57.9151C35.0965 59.0335 35.2293 59.5167 34.9932 60.0043C34.7078 60.5936 34.3084 60.9548 33.8242 61.1776C33.3267 61.4065 32.7145 61.5 31.9999 61.5C31.2853 61.5 30.6732 61.4065 30.1756 61.1776C29.6915 60.9548 29.292 60.5936 29.0067 60.0043C28.7706 59.5167 28.9034 59.0335 29.3018 57.9151C29.3085 57.8963 29.3152 57.8774 29.322 57.8584C29.7015 56.7936 30.2208 55.3364 30.4317 53.1593C30.6066 51.3525 30.6063 49.5515 30.5629 48.2061C30.5411 47.5324 30.5085 46.9706 30.4812 46.5766C30.4794 46.5503 30.4776 46.5248 30.4758 46.5H33.524Z" fill="#646464" stroke="white"/>
<path d="M34.5 44.5C34.5 46.2319 33.3112 47.5 32 47.5C30.6888 47.5 29.5 46.2319 29.5 44.5C29.5 42.7681 30.6888 41.5 32 41.5C33.3112 41.5 34.5 42.7681 34.5 44.5Z" fill="#646464" stroke="white"/>
</svg>
