<svg width="63" height="63" viewBox="0 0 63 63" fill="none" xmlns="http://www.w3.org/2000/svg">
<rect x="0.5" y="58.5" width="62" height="3" fill="#646464" stroke="white"/>
<path d="M2.91113 46.0397C2.93779 45.7343 3.19347 45.5 3.5 45.5C3.80653 45.5 4.06221 45.7343 4.08887 46.0397L4.5 50.7491V58.5H2.5V50.7491L2.91113 46.0397Z" fill="#646464" stroke="white"/>
<path d="M58.8594 46.0397C58.886 45.7343 59.1417 45.5 59.4482 45.5C59.7548 45.5 60.0104 45.7343 60.0371 46.0397L60.4482 50.7491V58.5H58.4482V50.7491L58.8594 46.0397Z" fill="#646464" stroke="white"/>
<path fill-rule="evenodd" clip-rule="evenodd" d="M15.5992 46.7465C15.5992 46.7465 9.51424 47.5936 10.7954 58.5L29.9868 58.5L30.4191 53.1316H32.5808L33.0132 58.5L52.1085 58.5C52.773 53.508 52.1449 49.716 51.0734 47.6842C50.0794 45.7992 48.7038 44.9762 47.6249 44.8218C47.6249 44.8218 46.6642 39.0478 40.259 40.6517C40.259 40.6517 36.7362 35.1985 31.9324 40.0102C31.9324 40.0102 26.488 34.557 21.6841 41.6141C21.6841 41.6141 15.5992 40.0102 15.5992 46.7465Z" fill="#646464"/>
<path d="M10.7954 58.5L10.2988 58.5583L10.3507 59H10.7954L10.7954 58.5ZM15.5992 46.7465L15.6682 47.2417L16.0992 47.1817V46.7465H15.5992ZM29.9868 58.5V59H30.4482L30.4852 58.5401L29.9868 58.5ZM30.4191 53.1316V52.6316H29.9578L29.9207 53.0915L30.4191 53.1316ZM32.5808 53.1316L33.0792 53.0914L33.0421 52.6316H32.5808V53.1316ZM33.0132 58.5L32.5148 58.5401L32.5518 59H33.0132V58.5ZM52.1085 58.5V59H52.5463L52.6041 58.566L52.1085 58.5ZM51.0734 47.6842L50.6311 47.9174V47.9174L51.0734 47.6842ZM47.6249 44.8218L47.1317 44.9039L47.1918 45.2649L47.5541 45.3168L47.6249 44.8218ZM40.259 40.6517L39.839 40.923L40.0333 41.2237L40.3805 41.1368L40.259 40.6517ZM31.9324 40.0102L31.5785 40.3634L31.9324 40.7179L32.2862 40.3634L31.9324 40.0102ZM21.6841 41.6141L21.5567 42.0975L21.8985 42.1877L22.0974 41.8954L21.6841 41.6141ZM46.934 50.1053L47.0047 49.6103L46.934 50.1053ZM50.6018 48.2188L50.9801 48.5457L50.9801 48.5457L50.6018 48.2188ZM33.6182 48.2895L33.5484 47.7944L33.6182 48.2895ZM35.4881 45.5532L35.9835 45.621L35.4881 45.5532ZM35.434 40.6517L35.9092 40.807V40.807L35.434 40.6517ZM37.8982 40.3443L38.0636 39.8724L37.8982 40.3443ZM39.7201 44.1744L40.009 43.7663L39.7201 44.1744ZM43.1104 47.1655L43.4582 46.8063L43.1104 47.1655ZM27.9512 46.5436L28.136 47.0082L27.9512 46.5436ZM11.292 58.4417C10.6623 53.0811 11.8526 50.2982 13.0952 48.8603C13.7214 48.1356 14.3799 47.7293 14.8751 47.5046C15.1231 47.392 15.3301 47.325 15.4712 47.2867C15.5417 47.2676 15.5955 47.2557 15.6294 47.2489C15.6464 47.2455 15.6584 47.2434 15.665 47.2423C15.6683 47.2417 15.6702 47.2414 15.6708 47.2413C15.6711 47.2413 15.671 47.2413 15.6705 47.2414C15.6703 47.2414 15.67 47.2415 15.6696 47.2415C15.6694 47.2415 15.6691 47.2416 15.669 47.2416C15.6686 47.2417 15.6682 47.2417 15.5992 46.7465C15.5303 46.2513 15.5298 46.2513 15.5294 46.2514C15.5292 46.2514 15.5287 46.2515 15.5283 46.2516C15.5275 46.2517 15.5267 46.2518 15.5257 46.2519C15.5238 46.2522 15.5215 46.2525 15.5189 46.253C15.5136 46.2538 15.5068 46.2548 15.4986 46.2562C15.4823 46.259 15.4603 46.2629 15.433 46.2684C15.3784 46.2793 15.3027 46.2963 15.2093 46.3216C15.0227 46.3723 14.7643 46.4567 14.4618 46.594C13.8561 46.8689 13.0734 47.356 12.3386 48.2064C10.8589 49.9187 9.64735 53.0125 10.2988 58.5583L11.292 58.4417ZM29.9868 58L10.7954 58L10.7954 59L29.9868 59V58ZM30.4852 58.5401L30.9175 53.1717L29.9207 53.0915L29.4885 58.4599L30.4852 58.5401ZM30.4191 53.6316H32.5808V52.6316H30.4191V53.6316ZM32.0824 53.1717L32.5148 58.5401L33.5115 58.4599L33.0792 53.0914L32.0824 53.1717ZM52.1085 58L33.0132 58V59L52.1085 59V58ZM50.6311 47.9174C51.6356 49.8223 52.2701 53.4968 51.6129 58.434L52.6041 58.566C53.2759 53.5192 52.6541 49.6097 51.5157 47.451L50.6311 47.9174ZM47.5541 45.3168C48.4469 45.4445 49.6979 46.1477 50.6311 47.9174L51.5157 47.451C50.4609 45.4508 48.9607 44.5079 47.6957 44.3269L47.5541 45.3168ZM40.3805 41.1368C41.909 40.754 43.0736 40.8205 43.9603 41.1031C44.8463 41.3854 45.4905 41.895 45.9605 42.4563C46.4335 43.0211 46.7286 43.6372 46.9055 44.1175C46.9935 44.3564 47.051 44.5583 47.0861 44.6984C47.1036 44.7683 47.1155 44.8226 47.1228 44.8579C47.1264 44.8756 47.1289 44.8885 47.1303 44.8963C47.131 44.9002 47.1315 44.9028 47.1317 44.9041C47.1318 44.9048 47.1319 44.9051 47.1319 44.905C47.1319 44.905 47.1319 44.9049 47.1318 44.9047C47.1318 44.9046 47.1318 44.9044 47.1318 44.9044C47.1317 44.9041 47.1317 44.9039 47.6249 44.8218C48.1181 44.7398 48.1181 44.7395 48.118 44.7392C48.118 44.739 48.1179 44.7387 48.1179 44.7384C48.1178 44.7379 48.1177 44.7372 48.1176 44.7365C48.1173 44.7351 48.117 44.7333 48.1166 44.7312C48.1159 44.7269 48.1149 44.7213 48.1136 44.7143C48.111 44.7004 48.1073 44.6811 48.1023 44.6568C48.0924 44.6084 48.0774 44.5401 48.0561 44.4553C48.0137 44.2859 47.946 44.0492 47.8439 43.7719C47.6405 43.2197 47.2952 42.4926 46.7272 41.8143C46.1564 41.1326 45.3595 40.4994 44.2639 40.1503C43.169 39.8013 41.8116 39.7475 40.1376 40.1667L40.3805 41.1368ZM32.2862 40.3634C33.4319 39.2159 34.4621 38.7184 35.3412 38.5739C36.2191 38.4295 37.0013 38.6281 37.6684 38.9712C38.3405 39.3169 38.8859 39.8049 39.2673 40.2153C39.4567 40.419 39.6023 40.5999 39.6995 40.7285C39.7481 40.7927 39.7844 40.8435 39.8079 40.8772C39.8196 40.8941 39.8281 40.9067 39.8333 40.9145C39.8359 40.9184 39.8377 40.9211 39.8387 40.9225C39.8392 40.9232 39.8394 40.9237 39.8395 40.9237C39.8395 40.9238 39.8395 40.9238 39.8394 40.9236C39.8394 40.9236 39.8393 40.9234 39.8393 40.9234C39.8392 40.9232 39.839 40.923 40.259 40.6517C40.679 40.3804 40.6789 40.3802 40.6787 40.3799C40.6786 40.3798 40.6784 40.3795 40.6783 40.3793C40.678 40.3789 40.6777 40.3783 40.6773 40.3777C40.6765 40.3765 40.6754 40.3749 40.6742 40.3731C40.6717 40.3693 40.6684 40.3643 40.6642 40.358C40.6558 40.3455 40.6439 40.328 40.6287 40.3061C40.5982 40.2623 40.5541 40.2007 40.497 40.1251C40.3828 39.9742 40.2157 39.7667 39.9997 39.5344C39.5705 39.0726 38.9349 38.4981 38.1258 38.0819C37.3118 37.6633 36.3125 37.4007 35.1789 37.5871C34.0463 37.7734 32.8347 38.3986 31.5785 39.6569L32.2862 40.3634ZM22.0974 41.8954C23.2568 40.1922 24.426 39.2853 25.5 38.8496C26.5716 38.4148 27.5927 38.4311 28.4906 38.6513C29.3945 38.873 30.1697 39.3012 30.7241 39.6809C30.9998 39.8698 31.2171 40.044 31.3641 40.1696C31.4375 40.2324 31.493 40.2828 31.5293 40.3166C31.5475 40.3335 31.5608 40.3462 31.569 40.3542C31.5732 40.3582 31.576 40.361 31.5776 40.3626C31.5784 40.3633 31.5789 40.3638 31.579 40.364C31.5791 40.364 31.5791 40.364 31.579 40.3639C31.579 40.3639 31.5789 40.3638 31.5788 40.3638C31.5787 40.3636 31.5785 40.3634 31.9324 40.0102C32.2862 39.6569 32.286 39.6567 32.2858 39.6565C32.2857 39.6564 32.2854 39.6561 32.2852 39.6559C32.2848 39.6555 32.2843 39.655 32.2837 39.6544C32.2825 39.6532 32.281 39.6517 32.2792 39.6499C32.2755 39.6463 32.2705 39.6414 32.2642 39.6353C32.2515 39.6231 32.2337 39.606 32.2108 39.5847C32.1649 39.5421 32.0989 39.4822 32.014 39.4096C31.8444 39.2647 31.5989 39.068 31.2891 38.8559C30.6726 38.4336 29.7865 37.9395 28.7288 37.6801C27.6651 37.4192 26.4244 37.3953 25.1241 37.9229C23.8262 38.4495 22.5133 39.5073 21.2708 41.3327L22.0974 41.8954ZM16.0992 46.7465C16.0992 45.1367 16.4623 44.0842 16.9566 43.3937C17.4487 42.7062 18.1045 42.3305 18.7809 42.1344C19.4639 41.9363 20.1592 41.9249 20.6939 41.9672C20.9592 41.9881 21.1795 42.0219 21.3319 42.05C21.408 42.064 21.4667 42.0766 21.5052 42.0853C21.5245 42.0897 21.5386 42.0931 21.5473 42.0952C21.5517 42.0963 21.5547 42.097 21.5562 42.0974C21.557 42.0976 21.5575 42.0978 21.5575 42.0978C21.5576 42.0978 21.5575 42.0978 21.5574 42.0977C21.5573 42.0977 21.5571 42.0977 21.5571 42.0977C21.5569 42.0976 21.5567 42.0975 21.6841 41.6141C21.8115 41.1306 21.8113 41.1305 21.811 41.1304C21.8109 41.1304 21.8105 41.1303 21.8103 41.1302C21.8098 41.1301 21.8092 41.13 21.8085 41.1298C21.8071 41.1294 21.8053 41.129 21.8032 41.1284C21.7989 41.1273 21.7931 41.1259 21.786 41.1241C21.7716 41.1206 21.7516 41.1158 21.7263 41.1101C21.6757 41.0986 21.6037 41.0833 21.5134 41.0666C21.333 41.0333 21.078 40.9944 20.7728 40.9703C20.1666 40.9223 19.3407 40.9309 18.5024 41.1739C17.6576 41.4189 16.7922 41.9053 16.1434 42.8116C15.4968 43.715 15.0992 44.9882 15.0992 46.7465H16.0992ZM46.8633 50.6002C47.8948 50.7476 48.7003 50.514 49.3709 50.0821C50.0164 49.6665 50.526 49.0713 50.9801 48.5457L50.2235 47.8919C49.7501 48.4398 49.3326 48.9174 48.8295 49.2414C48.3516 49.5492 47.787 49.7221 47.0047 49.6103L46.8633 50.6002ZM50.9801 48.5457C51.1368 48.3644 51.2875 48.19 51.4415 48.0226L50.7053 47.3458C50.5392 47.5265 50.3784 47.7126 50.2235 47.8919L50.9801 48.5457ZM33.6879 48.7846C34.6191 48.6534 35.181 48.1721 35.5075 47.5301C35.8089 46.9372 35.9022 46.2158 35.9835 45.621L34.9927 45.4855C34.9054 46.1244 34.8262 46.6637 34.6161 47.0768C34.4311 47.4407 34.1424 47.7107 33.5484 47.7944L33.6879 48.7846ZM35.9835 45.621C36.0625 45.0436 36.1303 44.5787 36.2898 44.2279C36.4294 43.9209 36.6235 43.7323 36.9967 43.6663L36.8227 42.6816C36.0725 42.8142 35.6318 43.2591 35.3795 43.814C35.1471 44.3251 35.0659 44.9505 34.9927 45.4855L35.9835 45.621ZM36.9967 43.6663C37.0236 43.6616 37.0518 43.6574 37.0813 43.6539L36.9634 42.6609C36.9157 42.6665 36.8688 42.6734 36.8227 42.6816L36.9967 43.6663ZM37.0813 43.6539C37.1299 43.6481 37.1858 43.6447 37.2498 43.6447V42.6447C37.1509 42.6447 37.0554 42.6499 36.9634 42.6609L37.0813 43.6539ZM36.6084 42.8769C36.7144 42.7205 36.8659 42.6891 36.9116 42.6826C36.941 42.6784 36.9632 42.6787 36.9747 42.6793C36.987 42.6799 36.9944 42.6812 36.9959 42.6814L36.8235 43.6665C36.8792 43.6762 36.9615 43.6856 37.0531 43.6725C37.137 43.6605 37.3157 43.6158 37.4363 43.4379L36.6084 42.8769ZM36.9959 42.6814C36.9984 42.6819 36.991 42.6807 36.9726 42.6746C36.955 42.6687 36.9316 42.6598 36.9027 42.6469C36.8447 42.621 36.7727 42.5829 36.6929 42.532C36.5321 42.4297 36.3557 42.2861 36.2054 42.1101C35.9087 41.7629 35.7386 41.3292 35.9092 40.807L34.9587 40.4964C34.649 41.4442 34.9948 42.2327 35.4451 42.7597C35.6682 43.0208 35.923 43.2273 36.1557 43.3755C36.3762 43.516 36.6188 43.6306 36.8235 43.6665L36.9959 42.6814ZM35.9092 40.807C35.969 40.6243 36.0401 40.5539 36.0878 40.5219C36.1394 40.4874 36.2242 40.4576 36.3764 40.4599C36.7132 40.4649 37.1565 40.6142 37.7328 40.8162L38.0636 39.8724C37.544 39.6903 36.9268 39.4679 36.3913 39.46C36.1074 39.4558 35.803 39.5092 35.5316 39.6909C35.2564 39.8751 35.0706 40.1538 34.9587 40.4964L35.9092 40.807ZM37.7328 40.8162C38.1425 40.9597 38.6076 41.1239 39.056 41.209C39.5028 41.2939 40.0048 41.3157 40.4652 41.1072L40.0528 40.1962C39.8658 40.2809 39.6054 40.2955 39.2426 40.2266C38.8815 40.158 38.4899 40.0219 38.0636 39.8724L37.7328 40.8162ZM37.2498 43.6447C37.837 43.6447 38.5719 43.9744 39.4313 44.5826L40.009 43.7663C39.1153 43.1338 38.1633 42.6447 37.2498 42.6447V43.6447ZM39.4313 44.5826C39.7796 44.8291 40.137 45.113 40.5002 45.4224L41.1487 44.6612C40.7699 44.3385 40.3883 44.0348 40.009 43.7663L39.4313 44.5826ZM40.5002 45.4224C41.2546 46.0651 42.0177 46.8036 42.7626 47.5248L43.4582 46.8063C42.7179 46.0897 41.9316 45.3282 41.1487 44.6612L40.5002 45.4224ZM42.7626 47.5248C43.5167 48.2548 44.2576 48.9726 44.9275 49.5231C45.2633 49.799 45.5924 50.0423 45.9064 50.2275C46.2158 50.41 46.5403 50.5541 46.8633 50.6002L47.0047 49.6103C46.866 49.5905 46.6714 49.5178 46.4144 49.3662C46.162 49.2173 45.8774 49.0093 45.5624 48.7505C44.9306 48.2313 44.2213 47.5451 43.4582 46.8063L42.7626 47.5248ZM47.2589 44.4812C46.416 45.387 44.0747 46.6283 41.1038 44.6271L40.5451 45.4565C43.9929 47.7789 46.8727 46.3641 47.9909 45.1624L47.2589 44.4812ZM41.1038 44.6271C40.7633 44.3978 40.413 44.125 40.0544 43.8026L39.3858 44.5463C39.7766 44.8976 40.1635 45.1994 40.5451 45.4565L41.1038 44.6271ZM31.5938 39.6422C30.3282 40.8068 29.4639 42.1292 29.0309 43.4086C28.5999 44.682 28.585 45.9538 29.0907 46.9693L29.9858 46.5236C29.6337 45.8164 29.6037 44.8355 29.9781 43.7292C30.3504 42.6289 31.112 41.4445 32.2709 40.3781L31.5938 39.6422ZM29.0907 46.9693C29.7994 48.3928 31.409 49.1056 33.6879 48.7846L33.5484 47.7944C31.5295 48.0787 30.4373 47.4305 29.9858 46.5236L29.0907 46.9693ZM29.892 46.3932C29.5216 46.0222 29.1356 45.8467 28.721 45.8434C28.3484 45.8404 28.007 45.9833 27.7665 46.079L28.136 47.0082C28.4175 46.8963 28.5716 46.8422 28.713 46.8433C28.8123 46.8441 28.9588 46.8739 29.1844 47.0998L29.892 46.3932ZM27.7665 46.079C27.3169 46.2578 27.0027 46.3712 26.559 46.1777C26.0577 45.9591 25.3199 45.3121 24.2504 43.5941L23.4015 44.1226C24.4906 45.8721 25.3635 46.7474 26.1593 47.0944C27.0127 47.4665 27.682 47.1888 28.136 47.0082L27.7665 46.079Z" fill="white"/>
<path d="M21.6268 41.6593C22.601 42.6117 24.9148 43.7143 23.8628 46.2858M23.8628 46.2858C23.0445 48.2858 18.6024 45.1429 18.0179 49.7143C17.8005 51.4142 19.6003 53.2151 21.5248 53.4326M23.8628 46.2858C28.5388 51.1429 22.8351 53.5806 21.5248 53.4326M21.5248 53.4326C20.9404 54.6693 22.9861 56.0001 25.3241 56.0001C27.662 56.0001 29.8537 55.303 29.8537 52.7316" stroke="white"/>
<path d="M18.8212 51.9501C18.9319 52.8551 18.7812 54.3604 16.6548 54.843C13.9968 55.4463 13 54.2397 13 52.4298C13 50.8053 18.1299 49.0101 14.1429 47.2002" stroke="white"/>
<path d="M18.0096 49.969C18.3344 48.3488 17.5981 46.7598 15 47.0298" stroke="white"/>
<path d="M17.7232 54.3608C17.3899 54.9164 17 56.1333 17 58" stroke="white"/>
<path d="M20 53C20 53.5556 20 56.1333 20 58" stroke="white"/>
<path d="M45.1188 53.7368C45.5223 54.2412 46.3293 56.2789 46.3293 57.9737" stroke="white"/>
<path d="M42.9999 53.4342C43.6052 53.9386 43.9078 56.2789 43.9078 57.9737" stroke="white"/>
<path d="M25.6525 50.1284C25.8471 51.6493 28.1607 53.8439 33.5329 52.7033C38.9051 51.5626 41.5594 48.202 42.2407 46.6812" stroke="white"/>
<path d="M36 58C36.0986 56.9655 38.1295 54.1517 41.9153 53.6552C46.6475 53.0345 46.3536 55.8763 49.356 53.356C50.8348 52.1146 49.6308 49.7364 49.1445 49.2003" stroke="white"/>
<path d="M35.2171 46.8961C34.4443 48.4924 35.1145 52.3083 37.2422 51.4368" stroke="white"/>
<path d="M41.9705 54C42.095 52.9881 41.8361 50.0476 41 49" stroke="white"/>
</svg>
