<svg width="21" height="21" viewBox="0 0 21 21" fill="none" xmlns="http://www.w3.org/2000/svg">
<mask id="path-1-inside-1_1728_931" fill="white">
<path d="M3 6.57272C3 6.57272 4.05469 5 10.5 5C16.9453 5 18 6.57272 18 6.57272V18.6C18 18.8209 17.8222 19 17.6013 19C16.6355 19 13.9908 19 10.5 19C7.00924 19 4.36449 19 3.3987 19C3.17779 19 3 18.8209 3 18.6V6.57272Z"/>
</mask>
<path d="M3 6.57272C3 6.57272 4.05469 5 10.5 5C16.9453 5 18 6.57272 18 6.57272V18.6C18 18.8209 17.8222 19 17.6013 19C16.6355 19 13.9908 19 10.5 19C7.00924 19 4.36449 19 3.3987 19C3.17779 19 3 18.8209 3 18.6V6.57272Z" fill="#646464"/>
<path d="M3 6.57272L2.16947 6.01576C2.05899 6.1805 2 6.37437 2 6.57272H3ZM18 6.57272H19C19 6.37437 18.941 6.1805 18.8305 6.01576L18 6.57272ZM17 6.57272V18.6H19V6.57272H17ZM4 18.6V6.57272H2V18.6H4ZM3 6.57272C3.83053 7.12969 3.82977 7.13083 3.82901 7.13196C3.82876 7.13233 3.828 7.13346 3.82749 7.1342C3.82649 7.13567 3.8255 7.13712 3.82453 7.13854C3.82257 7.14139 3.82067 7.14413 3.81881 7.14677C3.81511 7.15204 3.8116 7.1569 3.80833 7.16134C3.80177 7.17024 3.79613 7.17749 3.79154 7.18318C3.78234 7.19457 3.77747 7.19957 3.77809 7.19893C3.77921 7.19776 3.80318 7.17306 3.85969 7.13131C3.97274 7.0478 4.21955 6.89353 4.67811 6.72493C5.60144 6.38543 7.3502 6 10.5 6V4C7.20449 4 5.20324 4.40093 3.98791 4.8478C3.37713 5.07237 2.95744 5.31129 2.67131 5.52266C2.52824 5.62835 2.41946 5.72652 2.33772 5.81136C2.29692 5.85372 2.26309 5.89251 2.2353 5.92695C2.22141 5.94415 2.20906 5.96023 2.19812 5.97508C2.19265 5.9825 2.18754 5.98961 2.18276 5.9964C2.18038 5.99979 2.17808 6.0031 2.17586 6.00633C2.17476 6.00794 2.17367 6.00954 2.1726 6.01111C2.17207 6.01189 2.17128 6.01305 2.17102 6.01345C2.17024 6.0146 2.16947 6.01576 3 6.57272ZM10.5 6C13.6498 6 15.3986 6.38543 16.3219 6.72493C16.7805 6.89353 17.0273 7.0478 17.1403 7.13131C17.1968 7.17306 17.2208 7.19776 17.2219 7.19893C17.2225 7.19957 17.2177 7.19457 17.2085 7.18318C17.2039 7.17749 17.1982 7.17024 17.1917 7.16134C17.1884 7.1569 17.1849 7.15204 17.1812 7.14677C17.1793 7.14413 17.1774 7.14139 17.1755 7.13854C17.1745 7.13712 17.1735 7.13567 17.1725 7.1342C17.172 7.13346 17.1712 7.13233 17.171 7.13196C17.1702 7.13083 17.1695 7.12969 18 6.57272C18.8305 6.01576 18.8298 6.0146 18.829 6.01345C18.8287 6.01305 18.8279 6.01189 18.8274 6.01111C18.8263 6.00954 18.8252 6.00794 18.8241 6.00633C18.8219 6.0031 18.8196 5.99979 18.8172 5.9964C18.8125 5.98961 18.8074 5.9825 18.8019 5.97508C18.7909 5.96023 18.7786 5.94415 18.7647 5.92695C18.7369 5.89251 18.7031 5.85372 18.6623 5.81136C18.5805 5.72652 18.4718 5.62835 18.3287 5.52266C18.0426 5.31129 17.6229 5.07237 17.0121 4.8478C15.7968 4.40093 13.7955 4 10.5 4V6ZM17.6013 18C17.5994 18 17.5975 18 17.5956 18C17.5937 18 17.5918 18 17.5899 18C17.588 18 17.5861 18 17.5841 18C17.5822 18 17.5803 18 17.5784 18C17.5764 18 17.5745 18 17.5725 18C17.5706 18 17.5686 18 17.5667 18C17.5647 18 17.5627 18 17.5607 18C17.5588 18 17.5568 18 17.5548 18C17.5528 18 17.5508 18 17.5488 18C17.5468 18 17.5448 18 17.5428 18C17.5408 18 17.5388 18 17.5367 18C17.5347 18 17.5327 18 17.5306 18C17.5286 18 17.5266 18 17.5245 18C17.5224 18 17.5204 18 17.5183 18C17.5163 18 17.5142 18 17.5121 18C17.51 18 17.508 18 17.5059 18C17.5038 18 17.5017 18 17.4996 18C17.4975 18 17.4954 18 17.4932 18C17.4911 18 17.489 18 17.4869 18C17.4848 18 17.4826 18 17.4805 18C17.4783 18 17.4762 18 17.474 18C17.4719 18 17.4697 18 17.4676 18C17.4654 18 17.4632 18 17.4611 18C17.4589 18 17.4567 18 17.4545 18C17.4523 18 17.4501 18 17.4479 18C17.4457 18 17.4435 18 17.4413 18C17.4391 18 17.4368 18 17.4346 18C17.4324 18 17.4302 18 17.4279 18C17.4257 18 17.4234 18 17.4212 18C17.4189 18 17.4167 18 17.4144 18C17.4121 18 17.4099 18 17.4076 18C17.4053 18 17.403 18 17.4007 18C17.3985 18 17.3962 18 17.3939 18C17.3916 18 17.3892 18 17.3869 18C17.3846 18 17.3823 18 17.38 18C17.3776 18 17.3753 18 17.373 18C17.3706 18 17.3683 18 17.3659 18C17.3636 18 17.3612 18 17.3589 18C17.3565 18 17.3541 18 17.3517 18C17.3494 18 17.347 18 17.3446 18C17.3422 18 17.3398 18 17.3374 18C17.335 18 17.3326 18 17.3302 18C17.3278 18 17.3254 18 17.3229 18C17.3205 18 17.3181 18 17.3156 18C17.3132 18 17.3108 18 17.3083 18C17.3059 18 17.3034 18 17.3009 18C17.2985 18 17.296 18 17.2935 18C17.2911 18 17.2886 18 17.2861 18C17.2836 18 17.2811 18 17.2786 18C17.2761 18 17.2736 18 17.2711 18C17.2686 18 17.2661 18 17.2635 18C17.261 18 17.2585 18 17.256 18C17.2534 18 17.2509 18 17.2483 18C17.2458 18 17.2432 18 17.2407 18C17.2381 18 17.2355 18 17.233 18C17.2304 18 17.2278 18 17.2252 18C17.2226 18 17.2201 18 17.2175 18C17.2149 18 17.2123 18 17.2097 18C17.207 18 17.2044 18 17.2018 18C17.1992 18 17.1966 18 17.1939 18C17.1913 18 17.1887 18 17.186 18C17.1834 18 17.1807 18 17.1781 18C17.1754 18 17.1727 18 17.1701 18C17.1674 18 17.1647 18 17.1621 18C17.1594 18 17.1567 18 17.154 18C17.1513 18 17.1486 18 17.1459 18C17.1432 18 17.1405 18 17.1378 18C17.135 18 17.1323 18 17.1296 18C17.1269 18 17.1241 18 17.1214 18C17.1187 18 17.1159 18 17.1132 18C17.1104 18 17.1076 18 17.1049 18C17.1021 18 17.0993 18 17.0966 18C17.0938 18 17.091 18 17.0882 18C17.0854 18 17.0826 18 17.0798 18C17.077 18 17.0742 18 17.0714 18C17.0686 18 17.0658 18 17.063 18C17.0601 18 17.0573 18 17.0545 18C17.0516 18 17.0488 18 17.0459 18C17.0431 18 17.0402 18 17.0374 18C17.0345 18 17.0317 18 17.0288 18C17.0259 18 17.023 18 17.0202 18C17.0173 18 17.0144 18 17.0115 18C17.0086 18 17.0057 18 17.0028 18C16.9999 18 16.997 18 16.9941 18C16.9911 18 16.9882 18 16.9853 18C16.9823 18 16.9794 18 16.9765 18C16.9735 18 16.9706 18 16.9676 18C16.9647 18 16.9617 18 16.9587 18C16.9558 18 16.9528 18 16.9498 18C16.9469 18 16.9439 18 16.9409 18C16.9379 18 16.9349 18 16.9319 18C16.9289 18 16.9259 18 16.9229 18C16.9199 18 16.9169 18 16.9138 18C16.9108 18 16.9078 18 16.9047 18C16.9017 18 16.8987 18 16.8956 18C16.8926 18 16.8895 18 16.8865 18C16.8834 18 16.8803 18 16.8773 18C16.8742 18 16.8711 18 16.868 18C16.865 18 16.8619 18 16.8588 18C16.8557 18 16.8526 18 16.8495 18C16.8464 18 16.8433 18 16.8401 18C16.837 18 16.8339 18 16.8308 18C16.8276 18 16.8245 18 16.8214 18C16.8182 18 16.8151 18 16.8119 18C16.8088 18 16.8056 18 16.8025 18C16.7993 18 16.7961 18 16.793 18C16.7898 18 16.7866 18 16.7834 18C16.7802 18 16.777 18 16.7738 18C16.7706 18 16.7674 18 16.7642 18C16.761 18 16.7578 18 16.7546 18C16.7514 18 16.7481 18 16.7449 18C16.7417 18 16.7384 18 16.7352 18C16.732 18 16.7287 18 16.7254 18C16.7222 18 16.7189 18 16.7157 18C16.7124 18 16.7091 18 16.7059 18C16.7026 18 16.6993 18 16.696 18C16.6927 18 16.6894 18 16.6861 18C16.6828 18 16.6795 18 16.6762 18C16.6729 18 16.6696 18 16.6663 18C16.6629 18 16.6596 18 16.6563 18C16.6529 18 16.6496 18 16.6462 18C16.6429 18 16.6396 18 16.6362 18C16.6328 18 16.6295 18 16.6261 18C16.6227 18 16.6194 18 16.616 18C16.6126 18 16.6092 18 16.6058 18C16.6024 18 16.599 18 16.5956 18C16.5922 18 16.5888 18 16.5854 18C16.582 18 16.5786 18 16.5752 18C16.5717 18 16.5683 18 16.5649 18C16.5614 18 16.558 18 16.5546 18C16.5511 18 16.5477 18 16.5442 18C16.5407 18 16.5373 18 16.5338 18C16.5303 18 16.5269 18 16.5234 18C16.5199 18 16.5164 18 16.5129 18C16.5094 18 16.5059 18 16.5024 18C16.4989 18 16.4954 18 16.4919 18C16.4884 18 16.4849 18 16.4814 18C16.4778 18 16.4743 18 16.4708 18C16.4672 18 16.4637 18 16.4601 18C16.4566 18 16.453 18 16.4495 18C16.4459 18 16.4424 18 16.4388 18C16.4352 18 16.4316 18 16.4281 18C16.4245 18 16.4209 18 16.4173 18C16.4137 18 16.4101 18 16.4065 18C16.4029 18 16.3993 18 16.3957 18C16.3921 18 16.3885 18 16.3848 18C16.3812 18 16.3776 18 16.374 18C16.3703 18 16.3667 18 16.363 18C16.3594 18 16.3557 18 16.3521 18C16.3484 18 16.3448 18 16.3411 18C16.3374 18 16.3337 18 16.3301 18C16.3264 18 16.3227 18 16.319 18C16.3153 18 16.3116 18 16.3079 18C16.3042 18 16.3005 18 16.2968 18C16.2931 18 16.2894 18 16.2857 18C16.2819 18 16.2782 18 16.2745 18C16.2707 18 16.267 18 16.2633 18C16.2595 18 16.2558 18 16.252 18C16.2483 18 16.2445 18 16.2407 18C16.237 18 16.2332 18 16.2294 18C16.2256 18 16.2218 18 16.2181 18C16.2143 18 16.2105 18 16.2067 18C16.2029 18 16.1991 18 16.1953 18C16.1915 18 16.1876 18 16.1838 18C16.18 18 16.1762 18 16.1723 18C16.1685 18 16.1647 18 16.1608 18C16.157 18 16.1532 18 16.1493 18C16.1454 18 16.1416 18 16.1377 18C16.1339 18 16.13 18 16.1261 18C16.1222 18 16.1184 18 16.1145 18C16.1106 18 16.1067 18 16.1028 18C16.0989 18 16.095 18 16.0911 18C16.0872 18 16.0833 18 16.0794 18C16.0755 18 16.0715 18 16.0676 18C16.0637 18 16.0598 18 16.0558 18C16.0519 18 16.0479 18 16.044 18C16.04 18 16.0361 18 16.0321 18C16.0282 18 16.0242 18 16.0202 18C16.0163 18 16.0123 18 16.0083 18C16.0043 18 16.0003 18 15.9963 18C15.9924 18 15.9884 18 15.9844 18C15.9804 18 15.9764 18 15.9723 18C15.9683 18 15.9643 18 15.9603 18C15.9563 18 15.9522 18 15.9482 18C15.9442 18 15.9401 18 15.9361 18C15.932 18 15.928 18 15.9239 18C15.9199 18 15.9158 18 15.9118 18C15.9077 18 15.9036 18 15.8996 18C15.8955 18 15.8914 18 15.8873 18C15.8832 18 15.8791 18 15.875 18C15.8709 18 15.8668 18 15.8627 18C15.8586 18 15.8545 18 15.8504 18C15.8463 18 15.8422 18 15.838 18C15.8339 18 15.8298 18 15.8256 18C15.8215 18 15.8174 18 15.8132 18C15.8091 18 15.8049 18 15.8007 18C15.7966 18 15.7924 18 15.7883 18C15.7841 18 15.7799 18 15.7757 18C15.7716 18 15.7674 18 15.7632 18C15.759 18 15.7548 18 15.7506 18C15.7464 18 15.7422 18 15.738 18C15.7338 18 15.7296 18 15.7253 18C15.7211 18 15.7169 18 15.7127 18C15.7084 18 15.7042 18 15.6999 18C15.6957 18 15.6915 18 15.6872 18C15.683 18 15.6787 18 15.6744 18C15.6702 18 15.6659 18 15.6616 18C15.6574 18 15.6531 18 15.6488 18C15.6445 18 15.6402 18 15.6359 18C15.6317 18 15.6274 18 15.6231 18C15.6188 18 15.6144 18 15.6101 18C15.6058 18 15.6015 18 15.5972 18C15.5929 18 15.5885 18 15.5842 18C15.5799 18 15.5755 18 15.5712 18C15.5668 18 15.5625 18 15.5581 18C15.5538 18 15.5494 18 15.5451 18C15.5407 18 15.5363 18 15.532 18C15.5276 18 15.5232 18 15.5188 18C15.5144 18 15.51 18 15.5056 18C15.5013 18 15.4969 18 15.4925 18C15.488 18 15.4836 18 15.4792 18C15.4748 18 15.4704 18 15.466 18C15.4615 18 15.4571 18 15.4527 18C15.4482 18 15.4438 18 15.4394 18C15.4349 18 15.4305 18 15.426 18C15.4216 18 15.4171 18 15.4126 18C15.4082 18 15.4037 18 15.3992 18C15.3948 18 15.3903 18 15.3858 18C15.3813 18 15.3768 18 15.3723 18C15.3678 18 15.3633 18 15.3588 18C15.3543 18 15.3498 18 15.3453 18C15.3408 18 15.3363 18 15.3317 18C15.3272 18 15.3227 18 15.3182 18C15.3136 18 15.3091 18 15.3045 18C15.3 18 15.2954 18 15.2909 18C15.2863 18 15.2818 18 15.2772 18C15.2727 18 15.2681 18 15.2635 18C15.2589 18 15.2544 18 15.2498 18C15.2452 18 15.2406 18 15.236 18C15.2314 18 15.2268 18 15.2222 18C15.2176 18 15.213 18 15.2084 18C15.2038 18 15.1992 18 15.1945 18C15.1899 18 15.1853 18 15.1807 18C15.176 18 15.1714 18 15.1667 18C15.1621 18 15.1575 18 15.1528 18C15.1481 18 15.1435 18 15.1388 18C15.1342 18 15.1295 18 15.1248 18C15.1202 18 15.1155 18 15.1108 18C15.1061 18 15.1014 18 15.0967 18C15.092 18 15.0874 18 15.0827 18C15.078 18 15.0732 18 15.0685 18C15.0638 18 15.0591 18 15.0544 18C15.0497 18 15.0449 18 15.0402 18C15.0355 18 15.0307 18 15.026 18C15.0213 18 15.0165 18 15.0118 18C15.007 18 15.0023 18 14.9975 18C14.9928 18 14.988 18 14.9832 18C14.9785 18 14.9737 18 14.9689 18C14.9641 18 14.9593 18 14.9546 18C14.9498 18 14.945 18 14.9402 18C14.9354 18 14.9306 18 14.9258 18C14.921 18 14.9162 18 14.9113 18C14.9065 18 14.9017 18 14.8969 18C14.892 18 14.8872 18 14.8824 18C14.8775 18 14.8727 18 14.8679 18C14.863 18 14.8582 18 14.8533 18C14.8485 18 14.8436 18 14.8387 18C14.8339 18 14.829 18 14.8241 18C14.8193 18 14.8144 18 14.8095 18C14.8046 18 14.7997 18 14.7948 18C14.7899 18 14.785 18 14.7801 18C14.7752 18 14.7703 18 14.7654 18C14.7605 18 14.7556 18 14.7507 18C14.7457 18 14.7408 18 14.7359 18C14.731 18 14.726 18 14.7211 18C14.7161 18 14.7112 18 14.7063 18C14.7013 18 14.6964 18 14.6914 18C14.6864 18 14.6815 18 14.6765 18C14.6715 18 14.6666 18 14.6616 18C14.6566 18 14.6516 18 14.6466 18C14.6417 18 14.6367 18 14.6317 18C14.6267 18 14.6217 18 14.6167 18C14.6117 18 14.6067 18 14.6016 18C14.5966 18 14.5916 18 14.5866 18C14.5816 18 14.5765 18 14.5715 18C14.5665 18 14.5614 18 14.5564 18C14.5513 18 14.5463 18 14.5412 18C14.5362 18 14.5311 18 14.5261 18C14.521 18 14.516 18 14.5109 18C14.5058 18 14.5007 18 14.4957 18C14.4906 18 14.4855 18 14.4804 18C14.4753 18 14.4702 18 14.4651 18C14.46 18 14.4549 18 14.4498 18C14.4447 18 14.4396 18 14.4345 18C14.4294 18 14.4243 18 14.4191 18C14.414 18 14.4089 18 14.4037 18C14.3986 18 14.3935 18 14.3883 18C14.3832 18 14.378 18 14.3729 18C14.3677 18 14.3626 18 14.3574 18C14.3522 18 14.3471 18 14.3419 18C14.3367 18 14.3316 18 14.3264 18C14.3212 18 14.316 18 14.3108 18C14.3056 18 14.3004 18 14.2952 18C14.2901 18 14.2849 18 14.2796 18C14.2744 18 14.2692 18 14.264 18C14.2588 18 14.2536 18 14.2483 18C14.2431 18 14.2379 18 14.2327 18C14.2274 18 14.2222 18 14.2169 18C14.2117 18 14.2065 18 14.2012 18C14.196 18 14.1907 18 14.1854 18C14.1802 18 14.1749 18 14.1696 18C14.1644 18 14.1591 18 14.1538 18C14.1485 18 14.1433 18 14.138 18C14.1327 18 14.1274 18 14.1221 18C14.1168 18 14.1115 18 14.1062 18C14.1009 18 14.0956 18 14.0903 18C14.0849 18 14.0796 18 14.0743 18C14.069 18 14.0636 18 14.0583 18C14.053 18 14.0476 18 14.0423 18C14.037 18 14.0316 18 14.0263 18C14.0209 18 14.0156 18 14.0102 18C14.0048 18 13.9995 18 13.9941 18C13.9888 18 13.9834 18 13.978 18C13.9726 18 13.9672 18 13.9619 18C13.9565 18 13.9511 18 13.9457 18C13.9403 18 13.9349 18 13.9295 18C13.9241 18 13.9187 18 13.9133 18C13.9079 18 13.9024 18 13.897 18C13.8916 18 13.8862 18 13.8808 18C13.8753 18 13.8699 18 13.8645 18C13.859 18 13.8536 18 13.8481 18C13.8427 18 13.8372 18 13.8318 18C13.8263 18 13.8209 18 13.8154 18C13.8099 18 13.8045 18 13.799 18C13.7935 18 13.788 18 13.7826 18C13.7771 18 13.7716 18 13.7661 18C13.7606 18 13.7551 18 13.7496 18C13.7441 18 13.7386 18 13.7331 18C13.7276 18 13.7221 18 13.7166 18C13.7111 18 13.7056 18 13.7 18C13.6945 18 13.689 18 13.6834 18C13.6779 18 13.6724 18 13.6668 18C13.6613 18 13.6557 18 13.6502 18C13.6446 18 13.6391 18 13.6335 18C13.628 18 13.6224 18 13.6168 18C13.6113 18 13.6057 18 13.6001 18C13.5946 18 13.589 18 13.5834 18C13.5778 18 13.5722 18 13.5666 18C13.561 18 13.5554 18 13.5498 18C13.5442 18 13.5386 18 13.533 18C13.5274 18 13.5218 18 13.5162 18C13.5106 18 13.5049 18 13.4993 18C13.4937 18 13.4881 18 13.4824 18C13.4768 18 13.4711 18 13.4655 18C13.4599 18 13.4542 18 13.4486 18C13.4429 18 13.4373 18 13.4316 18C13.4259 18 13.4203 18 13.4146 18C13.4089 18 13.4033 18 13.3976 18C13.3919 18 13.3862 18 13.3805 18C13.3749 18 13.3692 18 13.3635 18C13.3578 18 13.3521 18 13.3464 18C13.3407 18 13.335 18 13.3293 18C13.3236 18 13.3178 18 13.3121 18C13.3064 18 13.3007 18 13.295 18C13.2892 18 13.2835 18 13.2778 18C13.272 18 13.2663 18 13.2605 18C13.2548 18 13.2491 18 13.2433 18C13.2376 18 13.2318 18 13.226 18C13.2203 18 13.2145 18 13.2087 18C13.203 18 13.1972 18 13.1914 18C13.1857 18 13.1799 18 13.1741 18C13.1683 18 13.1625 18 13.1567 18C13.1509 18 13.1451 18 13.1393 18C13.1335 18 13.1277 18 13.1219 18C13.1161 18 13.1103 18 13.1045 18C13.0987 18 13.0928 18 13.087 18C13.0812 18 13.0754 18 13.0695 18C13.0637 18 13.0579 18 13.052 18C13.0462 18 13.0403 18 13.0345 18C13.0286 18 13.0228 18 13.0169 18C13.0111 18 13.0052 18 12.9993 18C12.9935 18 12.9876 18 12.9817 18C12.9758 18 12.97 18 12.9641 18C12.9582 18 12.9523 18 12.9464 18C12.9405 18 12.9346 18 12.9287 18C12.9228 18 12.9169 18 12.911 18C12.9051 18 12.8992 18 12.8933 18C12.8874 18 12.8815 18 12.8756 18C12.8696 18 12.8637 18 12.8578 18C12.8518 18 12.8459 18 12.84 18C12.834 18 12.8281 18 12.8221 18C12.8162 18 12.8103 18 12.8043 18C12.7983 18 12.7924 18 12.7864 18C12.7805 18 12.7745 18 12.7685 18C12.7626 18 12.7566 18 12.7506 18C12.7446 18 12.7386 18 12.7327 18C12.7267 18 12.7207 18 12.7147 18C12.7087 18 12.7027 18 12.6967 18C12.6907 18 12.6847 18 12.6787 18C12.6727 18 12.6667 18 12.6606 18C12.6546 18 12.6486 18 12.6426 18C12.6366 18 12.6305 18 12.6245 18C12.6185 18 12.6124 18 12.6064 18C12.6003 18 12.5943 18 12.5883 18C12.5822 18 12.5761 18 12.5701 18C12.564 18 12.558 18 12.5519 18C12.5458 18 12.5398 18 12.5337 18C12.5276 18 12.5216 18 12.5155 18C12.5094 18 12.5033 18 12.4972 18C12.4911 18 12.4851 18 12.479 18C12.4729 18 12.4668 18 12.4607 18C12.4546 18 12.4485 18 12.4423 18C12.4362 18 12.4301 18 12.424 18C12.4179 18 12.4118 18 12.4056 18C12.3995 18 12.3934 18 12.3872 18C12.3811 18 12.375 18 12.3688 18C12.3627 18 12.3565 18 12.3504 18C12.3443 18 12.3381 18 12.3319 18C12.3258 18 12.3196 18 12.3135 18C12.3073 18 12.3011 18 12.295 18C12.2888 18 12.2826 18 12.2764 18C12.2703 18 12.2641 18 12.2579 18C12.2517 18 12.2455 18 12.2393 18C12.2331 18 12.2269 18 12.2207 18C12.2145 18 12.2083 18 12.2021 18C12.1959 18 12.1897 18 12.1835 18C12.1772 18 12.171 18 12.1648 18C12.1586 18 12.1523 18 12.1461 18C12.1399 18 12.1336 18 12.1274 18C12.1212 18 12.1149 18 12.1087 18C12.1024 18 12.0962 18 12.0899 18C12.0837 18 12.0774 18 12.0712 18C12.0649 18 12.0586 18 12.0524 18C12.0461 18 12.0398 18 12.0335 18C12.0273 18 12.021 18 12.0147 18C12.0084 18 12.0021 18 11.9958 18C11.9895 18 11.9832 18 11.9769 18C11.9706 18 11.9643 18 11.958 18C11.9517 18 11.9454 18 11.9391 18C11.9328 18 11.9265 18 11.9202 18C11.9138 18 11.9075 18 11.9012 18C11.8949 18 11.8885 18 11.8822 18C11.8759 18 11.8695 18 11.8632 18C11.8568 18 11.8505 18 11.8441 18C11.8378 18 11.8314 18 11.8251 18C11.8187 18 11.8123 18 11.806 18C11.7996 18 11.7933 18 11.7869 18C11.7805 18 11.7741 18 11.7678 18C11.7614 18 11.755 18 11.7486 18C11.7422 18 11.7358 18 11.7294 18C11.723 18 11.7166 18 11.7102 18C11.7038 18 11.6974 18 11.691 18C11.6846 18 11.6782 18 11.6718 18C11.6654 18 11.659 18 11.6525 18C11.6461 18 11.6397 18 11.6333 18C11.6268 18 11.6204 18 11.614 18C11.6075 18 11.6011 18 11.5946 18C11.5882 18 11.5817 18 11.5753 18C11.5688 18 11.5624 18 11.5559 18C11.5495 18 11.543 18 11.5365 18C11.5301 18 11.5236 18 11.5171 18C11.5107 18 11.5042 18 11.4977 18C11.4912 18 11.4847 18 11.4783 18C11.4718 18 11.4653 18 11.4588 18C11.4523 18 11.4458 18 11.4393 18C11.4328 18 11.4263 18 11.4198 18C11.4133 18 11.4068 18 11.4002 18C11.3937 18 11.3872 18 11.3807 18C11.3742 18 11.3676 18 11.3611 18C11.3546 18 11.3481 18 11.3415 18C11.335 18 11.3284 18 11.3219 18C11.3154 18 11.3088 18 11.3023 18C11.2957 18 11.2892 18 11.2826 18C11.276 18 11.2695 18 11.2629 18C11.2564 18 11.2498 18 11.2432 18C11.2366 18 11.2301 18 11.2235 18C11.2169 18 11.2103 18 11.2038 18C11.1972 18 11.1906 18 11.184 18C11.1774 18 11.1708 18 11.1642 18C11.1576 18 11.151 18 11.1444 18C11.1378 18 11.1312 18 11.1246 18C11.118 18 11.1113 18 11.1047 18C11.0981 18 11.0915 18 11.0849 18C11.0782 18 11.0716 18 11.065 18C11.0583 18 11.0517 18 11.0451 18C11.0384 18 11.0318 18 11.0251 18C11.0185 18 11.0118 18 11.0052 18C10.9985 18 10.9919 18 10.9852 18C10.9786 18 10.9719 18 10.9652 18C10.9586 18 10.9519 18 10.9452 18C10.9386 18 10.9319 18 10.9252 18C10.9185 18 10.9118 18 10.9052 18C10.8985 18 10.8918 18 10.8851 18C10.8784 18 10.8717 18 10.865 18C10.8583 18 10.8516 18 10.8449 18C10.8382 18 10.8315 18 10.8248 18C10.818 18 10.8113 18 10.8046 18C10.7979 18 10.7912 18 10.7844 18C10.7777 18 10.771 18 10.7642 18C10.7575 18 10.7508 18 10.744 18C10.7373 18 10.7306 18 10.7238 18C10.7171 18 10.7103 18 10.7036 18C10.6968 18 10.6901 18 10.6833 18C10.6765 18 10.6698 18 10.663 18C10.6562 18 10.6495 18 10.6427 18C10.6359 18 10.6292 18 10.6224 18C10.6156 18 10.6088 18 10.602 18C10.5952 18 10.5885 18 10.5817 18C10.5749 18 10.5681 18 10.5613 18C10.5545 18 10.5477 18 10.5409 18C10.5341 18 10.5273 18 10.5204 18C10.5136 18 10.5068 18 10.5 18V20C10.5068 20 10.5136 20 10.5204 20C10.5273 20 10.5341 20 10.5409 20C10.5477 20 10.5545 20 10.5613 20C10.5681 20 10.5749 20 10.5817 20C10.5885 20 10.5952 20 10.602 20C10.6088 20 10.6156 20 10.6224 20C10.6292 20 10.6359 20 10.6427 20C10.6495 20 10.6562 20 10.663 20C10.6698 20 10.6765 20 10.6833 20C10.6901 20 10.6968 20 10.7036 20C10.7103 20 10.7171 20 10.7238 20C10.7306 20 10.7373 20 10.744 20C10.7508 20 10.7575 20 10.7642 20C10.771 20 10.7777 20 10.7844 20C10.7912 20 10.7979 20 10.8046 20C10.8113 20 10.818 20 10.8248 20C10.8315 20 10.8382 20 10.8449 20C10.8516 20 10.8583 20 10.865 20C10.8717 20 10.8784 20 10.8851 20C10.8918 20 10.8985 20 10.9052 20C10.9118 20 10.9185 20 10.9252 20C10.9319 20 10.9386 20 10.9452 20C10.9519 20 10.9586 20 10.9652 20C10.9719 20 10.9786 20 10.9852 20C10.9919 20 10.9985 20 11.0052 20C11.0118 20 11.0185 20 11.0251 20C11.0318 20 11.0384 20 11.0451 20C11.0517 20 11.0583 20 11.065 20C11.0716 20 11.0782 20 11.0849 20C11.0915 20 11.0981 20 11.1047 20C11.1113 20 11.118 20 11.1246 20C11.1312 20 11.1378 20 11.1444 20C11.151 20 11.1576 20 11.1642 20C11.1708 20 11.1774 20 11.184 20C11.1906 20 11.1972 20 11.2038 20C11.2103 20 11.2169 20 11.2235 20C11.2301 20 11.2366 20 11.2432 20C11.2498 20 11.2564 20 11.2629 20C11.2695 20 11.276 20 11.2826 20C11.2892 20 11.2957 20 11.3023 20C11.3088 20 11.3154 20 11.3219 20C11.3284 20 11.335 20 11.3415 20C11.3481 20 11.3546 20 11.3611 20C11.3676 20 11.3742 20 11.3807 20C11.3872 20 11.3937 20 11.4002 20C11.4068 20 11.4133 20 11.4198 20C11.4263 20 11.4328 20 11.4393 20C11.4458 20 11.4523 20 11.4588 20C11.4653 20 11.4718 20 11.4783 20C11.4847 20 11.4912 20 11.4977 20C11.5042 20 11.5107 20 11.5171 20C11.5236 20 11.5301 20 11.5365 20C11.543 20 11.5495 20 11.5559 20C11.5624 20 11.5688 20 11.5753 20C11.5817 20 11.5882 20 11.5946 20C11.6011 20 11.6075 20 11.614 20C11.6204 20 11.6268 20 11.6333 20C11.6397 20 11.6461 20 11.6525 20C11.659 20 11.6654 20 11.6718 20C11.6782 20 11.6846 20 11.691 20C11.6974 20 11.7038 20 11.7102 20C11.7166 20 11.723 20 11.7294 20C11.7358 20 11.7422 20 11.7486 20C11.755 20 11.7614 20 11.7678 20C11.7741 20 11.7805 20 11.7869 20C11.7933 20 11.7996 20 11.806 20C11.8123 20 11.8187 20 11.8251 20C11.8314 20 11.8378 20 11.8441 20C11.8505 20 11.8568 20 11.8632 20C11.8695 20 11.8759 20 11.8822 20C11.8885 20 11.8949 20 11.9012 20C11.9075 20 11.9138 20 11.9202 20C11.9265 20 11.9328 20 11.9391 20C11.9454 20 11.9517 20 11.958 20C11.9643 20 11.9706 20 11.9769 20C11.9832 20 11.9895 20 11.9958 20C12.0021 20 12.0084 20 12.0147 20C12.021 20 12.0273 20 12.0335 20C12.0398 20 12.0461 20 12.0524 20C12.0586 20 12.0649 20 12.0712 20C12.0774 20 12.0837 20 12.0899 20C12.0962 20 12.1024 20 12.1087 20C12.1149 20 12.1212 20 12.1274 20C12.1336 20 12.1399 20 12.1461 20C12.1523 20 12.1586 20 12.1648 20C12.171 20 12.1772 20 12.1835 20C12.1897 20 12.1959 20 12.2021 20C12.2083 20 12.2145 20 12.2207 20C12.2269 20 12.2331 20 12.2393 20C12.2455 20 12.2517 20 12.2579 20C12.2641 20 12.2703 20 12.2764 20C12.2826 20 12.2888 20 12.295 20C12.3011 20 12.3073 20 12.3135 20C12.3196 20 12.3258 20 12.3319 20C12.3381 20 12.3443 20 12.3504 20C12.3565 20 12.3627 20 12.3688 20C12.375 20 12.3811 20 12.3872 20C12.3934 20 12.3995 20 12.4056 20C12.4118 20 12.4179 20 12.424 20C12.4301 20 12.4362 20 12.4423 20C12.4485 20 12.4546 20 12.4607 20C12.4668 20 12.4729 20 12.479 20C12.4851 20 12.4911 20 12.4972 20C12.5033 20 12.5094 20 12.5155 20C12.5216 20 12.5276 20 12.5337 20C12.5398 20 12.5458 20 12.5519 20C12.558 20 12.564 20 12.5701 20C12.5761 20 12.5822 20 12.5883 20C12.5943 20 12.6003 20 12.6064 20C12.6124 20 12.6185 20 12.6245 20C12.6305 20 12.6366 20 12.6426 20C12.6486 20 12.6546 20 12.6606 20C12.6667 20 12.6727 20 12.6787 20C12.6847 20 12.6907 20 12.6967 20C12.7027 20 12.7087 20 12.7147 20C12.7207 20 12.7267 20 12.7327 20C12.7386 20 12.7446 20 12.7506 20C12.7566 20 12.7626 20 12.7685 20C12.7745 20 12.7805 20 12.7864 20C12.7924 20 12.7983 20 12.8043 20C12.8103 20 12.8162 20 12.8221 20C12.8281 20 12.834 20 12.84 20C12.8459 20 12.8518 20 12.8578 20C12.8637 20 12.8696 20 12.8756 20C12.8815 20 12.8874 20 12.8933 20C12.8992 20 12.9051 20 12.911 20C12.9169 20 12.9228 20 12.9287 20C12.9346 20 12.9405 20 12.9464 20C12.9523 20 12.9582 20 12.9641 20C12.97 20 12.9758 20 12.9817 20C12.9876 20 12.9935 20 12.9993 20C13.0052 20 13.0111 20 13.0169 20C13.0228 20 13.0286 20 13.0345 20C13.0403 20 13.0462 20 13.052 20C13.0579 20 13.0637 20 13.0695 20C13.0754 20 13.0812 20 13.087 20C13.0928 20 13.0987 20 13.1045 20C13.1103 20 13.1161 20 13.1219 20C13.1277 20 13.1335 20 13.1393 20C13.1451 20 13.1509 20 13.1567 20C13.1625 20 13.1683 20 13.1741 20C13.1799 20 13.1857 20 13.1914 20C13.1972 20 13.203 20 13.2087 20C13.2145 20 13.2203 20 13.226 20C13.2318 20 13.2376 20 13.2433 20C13.2491 20 13.2548 20 13.2605 20C13.2663 20 13.272 20 13.2778 20C13.2835 20 13.2892 20 13.295 20C13.3007 20 13.3064 20 13.3121 20C13.3178 20 13.3236 20 13.3293 20C13.335 20 13.3407 20 13.3464 20C13.3521 20 13.3578 20 13.3635 20C13.3692 20 13.3749 20 13.3805 20C13.3862 20 13.3919 20 13.3976 20C13.4033 20 13.4089 20 13.4146 20C13.4203 20 13.4259 20 13.4316 20C13.4373 20 13.4429 20 13.4486 20C13.4542 20 13.4599 20 13.4655 20C13.4711 20 13.4768 20 13.4824 20C13.4881 20 13.4937 20 13.4993 20C13.5049 20 13.5106 20 13.5162 20C13.5218 20 13.5274 20 13.533 20C13.5386 20 13.5442 20 13.5498 20C13.5554 20 13.561 20 13.5666 20C13.5722 20 13.5778 20 13.5834 20C13.589 20 13.5946 20 13.6001 20C13.6057 20 13.6113 20 13.6168 20C13.6224 20 13.628 20 13.6335 20C13.6391 20 13.6446 20 13.6502 20C13.6557 20 13.6613 20 13.6668 20C13.6724 20 13.6779 20 13.6834 20C13.689 20 13.6945 20 13.7 20C13.7056 20 13.7111 20 13.7166 20C13.7221 20 13.7276 20 13.7331 20C13.7386 20 13.7441 20 13.7496 20C13.7551 20 13.7606 20 13.7661 20C13.7716 20 13.7771 20 13.7826 20C13.788 20 13.7935 20 13.799 20C13.8045 20 13.8099 20 13.8154 20C13.8209 20 13.8263 20 13.8318 20C13.8372 20 13.8427 20 13.8481 20C13.8536 20 13.859 20 13.8645 20C13.8699 20 13.8753 20 13.8808 20C13.8862 20 13.8916 20 13.897 20C13.9024 20 13.9079 20 13.9133 20C13.9187 20 13.9241 20 13.9295 20C13.9349 20 13.9403 20 13.9457 20C13.9511 20 13.9565 20 13.9619 20C13.9672 20 13.9726 20 13.978 20C13.9834 20 13.9888 20 13.9941 20C13.9995 20 14.0048 20 14.0102 20C14.0156 20 14.0209 20 14.0263 20C14.0316 20 14.037 20 14.0423 20C14.0476 20 14.053 20 14.0583 20C14.0636 20 14.069 20 14.0743 20C14.0796 20 14.0849 20 14.0903 20C14.0956 20 14.1009 20 14.1062 20C14.1115 20 14.1168 20 14.1221 20C14.1274 20 14.1327 20 14.138 20C14.1433 20 14.1485 20 14.1538 20C14.1591 20 14.1644 20 14.1696 20C14.1749 20 14.1802 20 14.1854 20C14.1907 20 14.196 20 14.2012 20C14.2065 20 14.2117 20 14.2169 20C14.2222 20 14.2274 20 14.2327 20C14.2379 20 14.2431 20 14.2483 20C14.2536 20 14.2588 20 14.264 20C14.2692 20 14.2744 20 14.2796 20C14.2849 20 14.2901 20 14.2952 20C14.3004 20 14.3056 20 14.3108 20C14.316 20 14.3212 20 14.3264 20C14.3316 20 14.3367 20 14.3419 20C14.3471 20 14.3522 20 14.3574 20C14.3626 20 14.3677 20 14.3729 20C14.378 20 14.3832 20 14.3883 20C14.3935 20 14.3986 20 14.4037 20C14.4089 20 14.414 20 14.4191 20C14.4243 20 14.4294 20 14.4345 20C14.4396 20 14.4447 20 14.4498 20C14.4549 20 14.46 20 14.4651 20C14.4702 20 14.4753 20 14.4804 20C14.4855 20 14.4906 20 14.4957 20C14.5007 20 14.5058 20 14.5109 20C14.516 20 14.521 20 14.5261 20C14.5311 20 14.5362 20 14.5412 20C14.5463 20 14.5513 20 14.5564 20C14.5614 20 14.5665 20 14.5715 20C14.5765 20 14.5816 20 14.5866 20C14.5916 20 14.5966 20 14.6016 20C14.6067 20 14.6117 20 14.6167 20C14.6217 20 14.6267 20 14.6317 20C14.6367 20 14.6417 20 14.6466 20C14.6516 20 14.6566 20 14.6616 20C14.6666 20 14.6715 20 14.6765 20C14.6815 20 14.6864 20 14.6914 20C14.6964 20 14.7013 20 14.7063 20C14.7112 20 14.7161 20 14.7211 20C14.726 20 14.731 20 14.7359 20C14.7408 20 14.7457 20 14.7507 20C14.7556 20 14.7605 20 14.7654 20C14.7703 20 14.7752 20 14.7801 20C14.785 20 14.7899 20 14.7948 20C14.7997 20 14.8046 20 14.8095 20C14.8144 20 14.8193 20 14.8241 20C14.829 20 14.8339 20 14.8387 20C14.8436 20 14.8485 20 14.8533 20C14.8582 20 14.863 20 14.8679 20C14.8727 20 14.8775 20 14.8824 20C14.8872 20 14.892 20 14.8969 20C14.9017 20 14.9065 20 14.9113 20C14.9162 20 14.921 20 14.9258 20C14.9306 20 14.9354 20 14.9402 20C14.945 20 14.9498 20 14.9546 20C14.9593 20 14.9641 20 14.9689 20C14.9737 20 14.9785 20 14.9832 20C14.988 20 14.9928 20 14.9975 20C15.0023 20 15.007 20 15.0118 20C15.0165 20 15.0213 20 15.026 20C15.0307 20 15.0355 20 15.0402 20C15.0449 20 15.0497 20 15.0544 20C15.0591 20 15.0638 20 15.0685 20C15.0732 20 15.078 20 15.0827 20C15.0874 20 15.092 20 15.0967 20C15.1014 20 15.1061 20 15.1108 20C15.1155 20 15.1202 20 15.1248 20C15.1295 20 15.1342 20 15.1388 20C15.1435 20 15.1481 20 15.1528 20C15.1575 20 15.1621 20 15.1667 20C15.1714 20 15.176 20 15.1807 20C15.1853 20 15.1899 20 15.1945 20C15.1992 20 15.2038 20 15.2084 20C15.213 20 15.2176 20 15.2222 20C15.2268 20 15.2314 20 15.236 20C15.2406 20 15.2452 20 15.2498 20C15.2544 20 15.2589 20 15.2635 20C15.2681 20 15.2727 20 15.2772 20C15.2818 20 15.2863 20 15.2909 20C15.2954 20 15.3 20 15.3045 20C15.3091 20 15.3136 20 15.3182 20C15.3227 20 15.3272 20 15.3317 20C15.3363 20 15.3408 20 15.3453 20C15.3498 20 15.3543 20 15.3588 20C15.3633 20 15.3678 20 15.3723 20C15.3768 20 15.3813 20 15.3858 20C15.3903 20 15.3948 20 15.3992 20C15.4037 20 15.4082 20 15.4126 20C15.4171 20 15.4216 20 15.426 20C15.4305 20 15.4349 20 15.4394 20C15.4438 20 15.4482 20 15.4527 20C15.4571 20 15.4615 20 15.466 20C15.4704 20 15.4748 20 15.4792 20C15.4836 20 15.488 20 15.4925 20C15.4969 20 15.5013 20 15.5056 20C15.51 20 15.5144 20 15.5188 20C15.5232 20 15.5276 20 15.532 20C15.5363 20 15.5407 20 15.5451 20C15.5494 20 15.5538 20 15.5581 20C15.5625 20 15.5668 20 15.5712 20C15.5755 20 15.5799 20 15.5842 20C15.5885 20 15.5929 20 15.5972 20C15.6015 20 15.6058 20 15.6101 20C15.6144 20 15.6188 20 15.6231 20C15.6274 20 15.6317 20 15.6359 20C15.6402 20 15.6445 20 15.6488 20C15.6531 20 15.6574 20 15.6616 20C15.6659 20 15.6702 20 15.6744 20C15.6787 20 15.683 20 15.6872 20C15.6915 20 15.6957 20 15.6999 20C15.7042 20 15.7084 20 15.7127 20C15.7169 20 15.7211 20 15.7253 20C15.7296 20 15.7338 20 15.738 20C15.7422 20 15.7464 20 15.7506 20C15.7548 20 15.759 20 15.7632 20C15.7674 20 15.7716 20 15.7757 20C15.7799 20 15.7841 20 15.7883 20C15.7924 20 15.7966 20 15.8007 20C15.8049 20 15.8091 20 15.8132 20C15.8174 20 15.8215 20 15.8256 20C15.8298 20 15.8339 20 15.838 20C15.8422 20 15.8463 20 15.8504 20C15.8545 20 15.8586 20 15.8627 20C15.8668 20 15.8709 20 15.875 20C15.8791 20 15.8832 20 15.8873 20C15.8914 20 15.8955 20 15.8996 20C15.9036 20 15.9077 20 15.9118 20C15.9158 20 15.9199 20 15.9239 20C15.928 20 15.932 20 15.9361 20C15.9401 20 15.9442 20 15.9482 20C15.9522 20 15.9563 20 15.9603 20C15.9643 20 15.9683 20 15.9723 20C15.9764 20 15.9804 20 15.9844 20C15.9884 20 15.9924 20 15.9963 20C16.0003 20 16.0043 20 16.0083 20C16.0123 20 16.0163 20 16.0202 20C16.0242 20 16.0282 20 16.0321 20C16.0361 20 16.04 20 16.044 20C16.0479 20 16.0519 20 16.0558 20C16.0598 20 16.0637 20 16.0676 20C16.0715 20 16.0755 20 16.0794 20C16.0833 20 16.0872 20 16.0911 20C16.095 20 16.0989 20 16.1028 20C16.1067 20 16.1106 20 16.1145 20C16.1184 20 16.1222 20 16.1261 20C16.13 20 16.1339 20 16.1377 20C16.1416 20 16.1454 20 16.1493 20C16.1532 20 16.157 20 16.1608 20C16.1647 20 16.1685 20 16.1723 20C16.1762 20 16.18 20 16.1838 20C16.1876 20 16.1915 20 16.1953 20C16.1991 20 16.2029 20 16.2067 20C16.2105 20 16.2143 20 16.2181 20C16.2218 20 16.2256 20 16.2294 20C16.2332 20 16.237 20 16.2407 20C16.2445 20 16.2483 20 16.252 20C16.2558 20 16.2595 20 16.2633 20C16.267 20 16.2707 20 16.2745 20C16.2782 20 16.2819 20 16.2857 20C16.2894 20 16.2931 20 16.2968 20C16.3005 20 16.3042 20 16.3079 20C16.3116 20 16.3153 20 16.319 20C16.3227 20 16.3264 20 16.3301 20C16.3337 20 16.3374 20 16.3411 20C16.3448 20 16.3484 20 16.3521 20C16.3557 20 16.3594 20 16.363 20C16.3667 20 16.3703 20 16.374 20C16.3776 20 16.3812 20 16.3848 20C16.3885 20 16.3921 20 16.3957 20C16.3993 20 16.4029 20 16.4065 20C16.4101 20 16.4137 20 16.4173 20C16.4209 20 16.4245 20 16.4281 20C16.4316 20 16.4352 20 16.4388 20C16.4424 20 16.4459 20 16.4495 20C16.453 20 16.4566 20 16.4601 20C16.4637 20 16.4672 20 16.4708 20C16.4743 20 16.4778 20 16.4814 20C16.4849 20 16.4884 20 16.4919 20C16.4954 20 16.4989 20 16.5024 20C16.5059 20 16.5094 20 16.5129 20C16.5164 20 16.5199 20 16.5234 20C16.5269 20 16.5303 20 16.5338 20C16.5373 20 16.5407 20 16.5442 20C16.5477 20 16.5511 20 16.5546 20C16.558 20 16.5614 20 16.5649 20C16.5683 20 16.5717 20 16.5752 20C16.5786 20 16.582 20 16.5854 20C16.5888 20 16.5922 20 16.5956 20C16.599 20 16.6024 20 16.6058 20C16.6092 20 16.6126 20 16.616 20C16.6194 20 16.6227 20 16.6261 20C16.6295 20 16.6328 20 16.6362 20C16.6396 20 16.6429 20 16.6462 20C16.6496 20 16.6529 20 16.6563 20C16.6596 20 16.6629 20 16.6663 20C16.6696 20 16.6729 20 16.6762 20C16.6795 20 16.6828 20 16.6861 20C16.6894 20 16.6927 20 16.696 20C16.6993 20 16.7026 20 16.7059 20C16.7091 20 16.7124 20 16.7157 20C16.7189 20 16.7222 20 16.7254 20C16.7287 20 16.732 20 16.7352 20C16.7384 20 16.7417 20 16.7449 20C16.7481 20 16.7514 20 16.7546 20C16.7578 20 16.761 20 16.7642 20C16.7674 20 16.7706 20 16.7738 20C16.777 20 16.7802 20 16.7834 20C16.7866 20 16.7898 20 16.793 20C16.7961 20 16.7993 20 16.8025 20C16.8056 20 16.8088 20 16.8119 20C16.8151 20 16.8182 20 16.8214 20C16.8245 20 16.8276 20 16.8308 20C16.8339 20 16.837 20 16.8401 20C16.8433 20 16.8464 20 16.8495 20C16.8526 20 16.8557 20 16.8588 20C16.8619 20 16.865 20 16.868 20C16.8711 20 16.8742 20 16.8773 20C16.8803 20 16.8834 20 16.8865 20C16.8895 20 16.8926 20 16.8956 20C16.8987 20 16.9017 20 16.9047 20C16.9078 20 16.9108 20 16.9138 20C16.9169 20 16.9199 20 16.9229 20C16.9259 20 16.9289 20 16.9319 20C16.9349 20 16.9379 20 16.9409 20C16.9439 20 16.9469 20 16.9498 20C16.9528 20 16.9558 20 16.9587 20C16.9617 20 16.9647 20 16.9676 20C16.9706 20 16.9735 20 16.9765 20C16.9794 20 16.9823 20 16.9853 20C16.9882 20 16.9911 20 16.9941 20C16.997 20 16.9999 20 17.0028 20C17.0057 20 17.0086 20 17.0115 20C17.0144 20 17.0173 20 17.0202 20C17.023 20 17.0259 20 17.0288 20C17.0317 20 17.0345 20 17.0374 20C17.0402 20 17.0431 20 17.0459 20C17.0488 20 17.0516 20 17.0545 20C17.0573 20 17.0601 20 17.063 20C17.0658 20 17.0686 20 17.0714 20C17.0742 20 17.077 20 17.0798 20C17.0826 20 17.0854 20 17.0882 20C17.091 20 17.0938 20 17.0966 20C17.0993 20 17.1021 20 17.1049 20C17.1076 20 17.1104 20 17.1132 20C17.1159 20 17.1187 20 17.1214 20C17.1241 20 17.1269 20 17.1296 20C17.1323 20 17.135 20 17.1378 20C17.1405 20 17.1432 20 17.1459 20C17.1486 20 17.1513 20 17.154 20C17.1567 20 17.1594 20 17.1621 20C17.1647 20 17.1674 20 17.1701 20C17.1727 20 17.1754 20 17.1781 20C17.1807 20 17.1834 20 17.186 20C17.1887 20 17.1913 20 17.1939 20C17.1966 20 17.1992 20 17.2018 20C17.2044 20 17.207 20 17.2097 20C17.2123 20 17.2149 20 17.2175 20C17.2201 20 17.2226 20 17.2252 20C17.2278 20 17.2304 20 17.233 20C17.2355 20 17.2381 20 17.2407 20C17.2432 20 17.2458 20 17.2483 20C17.2509 20 17.2534 20 17.256 20C17.2585 20 17.261 20 17.2635 20C17.2661 20 17.2686 20 17.2711 20C17.2736 20 17.2761 20 17.2786 20C17.2811 20 17.2836 20 17.2861 20C17.2886 20 17.2911 20 17.2935 20C17.296 20 17.2985 20 17.3009 20C17.3034 20 17.3059 20 17.3083 20C17.3108 20 17.3132 20 17.3156 20C17.3181 20 17.3205 20 17.3229 20C17.3254 20 17.3278 20 17.3302 20C17.3326 20 17.335 20 17.3374 20C17.3398 20 17.3422 20 17.3446 20C17.347 20 17.3494 20 17.3517 20C17.3541 20 17.3565 20 17.3589 20C17.3612 20 17.3636 20 17.3659 20C17.3683 20 17.3706 20 17.373 20C17.3753 20 17.3776 20 17.38 20C17.3823 20 17.3846 20 17.3869 20C17.3892 20 17.3916 20 17.3939 20C17.3962 20 17.3985 20 17.4007 20C17.403 20 17.4053 20 17.4076 20C17.4099 20 17.4121 20 17.4144 20C17.4167 20 17.4189 20 17.4212 20C17.4234 20 17.4257 20 17.4279 20C17.4302 20 17.4324 20 17.4346 20C17.4368 20 17.4391 20 17.4413 20C17.4435 20 17.4457 20 17.4479 20C17.4501 20 17.4523 20 17.4545 20C17.4567 20 17.4589 20 17.4611 20C17.4632 20 17.4654 20 17.4676 20C17.4697 20 17.4719 20 17.474 20C17.4762 20 17.4783 20 17.4805 20C17.4826 20 17.4848 20 17.4869 20C17.489 20 17.4911 20 17.4932 20C17.4954 20 17.4975 20 17.4996 20C17.5017 20 17.5038 20 17.5059 20C17.508 20 17.51 20 17.5121 20C17.5142 20 17.5163 20 17.5183 20C17.5204 20 17.5224 20 17.5245 20C17.5266 20 17.5286 20 17.5306 20C17.5327 20 17.5347 20 17.5367 20C17.5388 20 17.5408 20 17.5428 20C17.5448 20 17.5468 20 17.5488 20C17.5508 20 17.5528 20 17.5548 20C17.5568 20 17.5588 20 17.5607 20C17.5627 20 17.5647 20 17.5667 20C17.5686 20 17.5706 20 17.5725 20C17.5745 20 17.5764 20 17.5784 20C17.5803 20 17.5822 20 17.5841 20C17.5861 20 17.588 20 17.5899 20C17.5918 20 17.5937 20 17.5956 20C17.5975 20 17.5994 20 17.6013 20V18ZM10.5 18C10.4932 18 10.4864 18 10.4796 18C10.4727 18 10.4659 18 10.4591 18C10.4523 18 10.4455 18 10.4387 18C10.4319 18 10.4251 18 10.4183 18C10.4115 18 10.4048 18 10.398 18C10.3912 18 10.3844 18 10.3776 18C10.3708 18 10.3641 18 10.3573 18C10.3505 18 10.3438 18 10.337 18C10.3302 18 10.3235 18 10.3167 18C10.3099 18 10.3032 18 10.2964 18C10.2897 18 10.2829 18 10.2762 18C10.2694 18 10.2627 18 10.256 18C10.2492 18 10.2425 18 10.2358 18C10.229 18 10.2223 18 10.2156 18C10.2088 18 10.2021 18 10.1954 18C10.1887 18 10.182 18 10.1752 18C10.1685 18 10.1618 18 10.1551 18C10.1484 18 10.1417 18 10.135 18C10.1283 18 10.1216 18 10.1149 18C10.1082 18 10.1015 18 10.0948 18C10.0882 18 10.0815 18 10.0748 18C10.0681 18 10.0614 18 10.0548 18C10.0481 18 10.0414 18 10.0348 18C10.0281 18 10.0214 18 10.0148 18C10.0081 18 10.0015 18 9.99481 18C9.98815 18 9.9815 18 9.97486 18C9.96821 18 9.96157 18 9.95493 18C9.94829 18 9.94166 18 9.93502 18C9.92839 18 9.92176 18 9.91514 18C9.90851 18 9.90189 18 9.89527 18C9.88865 18 9.88204 18 9.87543 18C9.86881 18 9.86221 18 9.8556 18C9.84899 18 9.84239 18 9.8358 18C9.8292 18 9.8226 18 9.81601 18C9.80942 18 9.80283 18 9.79625 18C9.78966 18 9.78308 18 9.7765 18C9.76993 18 9.76335 18 9.75678 18C9.75021 18 9.74365 18 9.73708 18C9.73052 18 9.72396 18 9.7174 18C9.71084 18 9.70429 18 9.69774 18C9.69119 18 9.68465 18 9.6781 18C9.67156 18 9.66502 18 9.65848 18C9.65195 18 9.64542 18 9.63889 18C9.63236 18 9.62583 18 9.61931 18C9.61279 18 9.60627 18 9.59976 18C9.59324 18 9.58673 18 9.58022 18C9.57371 18 9.56721 18 9.56071 18C9.55421 18 9.54771 18 9.54122 18C9.53472 18 9.52823 18 9.52175 18C9.51526 18 9.50878 18 9.5023 18C9.49582 18 9.48934 18 9.48287 18C9.4764 18 9.46993 18 9.46346 18C9.457 18 9.45053 18 9.44408 18C9.43762 18 9.43116 18 9.42471 18C9.41826 18 9.41181 18 9.40537 18C9.39892 18 9.39248 18 9.38605 18C9.37961 18 9.37318 18 9.36675 18C9.36032 18 9.35389 18 9.34747 18C9.34104 18 9.33463 18 9.32821 18C9.32179 18 9.31538 18 9.30897 18C9.30257 18 9.29616 18 9.28976 18C9.28336 18 9.27696 18 9.27057 18C9.26417 18 9.25778 18 9.2514 18C9.24501 18 9.23863 18 9.23225 18C9.22587 18 9.21949 18 9.21312 18C9.20675 18 9.20038 18 9.19402 18C9.18765 18 9.18129 18 9.17493 18C9.16857 18 9.16222 18 9.15587 18C9.14952 18 9.14317 18 9.13683 18C9.13049 18 9.12415 18 9.11781 18C9.11148 18 9.10514 18 9.09882 18C9.09249 18 9.08616 18 9.07984 18C9.07352 18 9.0672 18 9.06089 18C9.05458 18 9.04827 18 9.04196 18C9.03565 18 9.02935 18 9.02305 18C9.01675 18 9.01046 18 9.00417 18C8.99788 18 8.99159 18 8.9853 18C8.97902 18 8.97274 18 8.96646 18C8.96019 18 8.95391 18 8.94764 18C8.94137 18 8.93511 18 8.92885 18C8.92259 18 8.91633 18 8.91007 18C8.90382 18 8.89757 18 8.89132 18C8.88507 18 8.87883 18 8.87259 18C8.86635 18 8.86012 18 8.85388 18C8.84765 18 8.84142 18 8.8352 18C8.82898 18 8.82275 18 8.81654 18C8.81032 18 8.80411 18 8.7979 18C8.79169 18 8.78548 18 8.77928 18C8.77308 18 8.76688 18 8.76069 18C8.75449 18 8.7483 18 8.74212 18C8.73593 18 8.72975 18 8.72357 18C8.71739 18 8.71121 18 8.70504 18C8.69887 18 8.6927 18 8.68654 18C8.68037 18 8.67421 18 8.66806 18C8.6619 18 8.65575 18 8.6496 18C8.64345 18 8.63731 18 8.63117 18C8.62502 18 8.61889 18 8.61275 18C8.60662 18 8.60049 18 8.59437 18C8.58824 18 8.58212 18 8.576 18C8.56988 18 8.56377 18 8.55766 18C8.55155 18 8.54544 18 8.53934 18C8.53323 18 8.52714 18 8.52104 18C8.51495 18 8.50885 18 8.50277 18C8.49668 18 8.4906 18 8.48452 18C8.47844 18 8.47236 18 8.46629 18C8.46022 18 8.45415 18 8.44809 18C8.44202 18 8.43596 18 8.42991 18C8.42385 18 8.4178 18 8.41175 18C8.4057 18 8.39966 18 8.39362 18C8.38758 18 8.38154 18 8.37551 18C8.36947 18 8.36344 18 8.35742 18C8.35139 18 8.34537 18 8.33936 18C8.33334 18 8.32733 18 8.32132 18C8.31531 18 8.3093 18 8.3033 18C8.2973 18 8.2913 18 8.28531 18C8.27931 18 8.27332 18 8.26734 18C8.26135 18 8.25537 18 8.24939 18C8.24342 18 8.23744 18 8.23147 18C8.2255 18 8.21954 18 8.21357 18C8.20761 18 8.20165 18 8.1957 18C8.18975 18 8.1838 18 8.17785 18C8.17191 18 8.16596 18 8.16002 18C8.15409 18 8.14815 18 8.14222 18C8.13629 18 8.13037 18 8.12444 18C8.11852 18 8.1126 18 8.10669 18C8.10078 18 8.09487 18 8.08896 18C8.08305 18 8.07715 18 8.07125 18C8.06536 18 8.05946 18 8.05357 18C8.04768 18 8.0418 18 8.03591 18C8.03003 18 8.02415 18 8.01828 18C8.01241 18 8.00654 18 8.00067 18C7.9948 18 7.98894 18 7.98308 18C7.97723 18 7.97137 18 7.96552 18C7.95967 18 7.95383 18 7.94799 18C7.94214 18 7.93631 18 7.93047 18C7.92464 18 7.91881 18 7.91299 18C7.90716 18 7.90134 18 7.89552 18C7.88971 18 7.88389 18 7.87808 18C7.87227 18 7.86647 18 7.86067 18C7.85487 18 7.84907 18 7.84328 18C7.83749 18 7.8317 18 7.82591 18C7.82013 18 7.81435 18 7.80857 18C7.8028 18 7.79702 18 7.79126 18C7.78549 18 7.77972 18 7.77396 18C7.7682 18 7.76245 18 7.7567 18C7.75095 18 7.7452 18 7.73945 18C7.73371 18 7.72797 18 7.72224 18C7.7165 18 7.71077 18 7.70504 18C7.69932 18 7.6936 18 7.68788 18C7.68216 18 7.67644 18 7.67073 18C7.66502 18 7.65932 18 7.65362 18C7.64791 18 7.64222 18 7.63652 18C7.63083 18 7.62514 18 7.61946 18C7.61377 18 7.60809 18 7.60241 18C7.59674 18 7.59106 18 7.5854 18C7.57973 18 7.57406 18 7.5684 18C7.56274 18 7.55709 18 7.55144 18C7.54578 18 7.54014 18 7.53449 18C7.52885 18 7.52321 18 7.51758 18C7.51194 18 7.50631 18 7.50069 18C7.49506 18 7.48944 18 7.48382 18C7.4782 18 7.47259 18 7.46698 18C7.46137 18 7.45576 18 7.45016 18C7.44456 18 7.43897 18 7.43337 18C7.42778 18 7.42219 18 7.41661 18C7.41103 18 7.40545 18 7.39987 18C7.39429 18 7.38872 18 7.38316 18C7.37759 18 7.37203 18 7.36647 18C7.36091 18 7.35536 18 7.34981 18C7.34426 18 7.33871 18 7.33317 18C7.32763 18 7.32209 18 7.31656 18C7.31103 18 7.3055 18 7.29997 18C7.29445 18 7.28893 18 7.28341 18C7.2779 18 7.27239 18 7.26688 18C7.26137 18 7.25587 18 7.25037 18C7.24487 18 7.23938 18 7.23389 18C7.2284 18 7.22292 18 7.21743 18C7.21195 18 7.20648 18 7.201 18C7.19553 18 7.19006 18 7.1846 18C7.17914 18 7.17368 18 7.16822 18C7.16277 18 7.15732 18 7.15187 18C7.14642 18 7.14098 18 7.13554 18C7.13011 18 7.12467 18 7.11925 18C7.11382 18 7.10839 18 7.10297 18C7.09755 18 7.09214 18 7.08672 18C7.08131 18 7.07591 18 7.0705 18C7.0651 18 7.0597 18 7.05431 18C7.04891 18 7.04352 18 7.03814 18C7.03275 18 7.02737 18 7.022 18C7.01662 18 7.01125 18 7.00588 18C7.00051 18 6.99515 18 6.98979 18C6.98443 18 6.97908 18 6.97373 18C6.96838 18 6.96303 18 6.95769 18C6.95235 18 6.94702 18 6.94168 18C6.93635 18 6.93102 18 6.9257 18C6.92038 18 6.91506 18 6.90974 18C6.90443 18 6.89912 18 6.89381 18C6.88851 18 6.88321 18 6.87791 18C6.87261 18 6.86732 18 6.86203 18C6.85675 18 6.85146 18 6.84619 18C6.84091 18 6.83563 18 6.83036 18C6.82509 18 6.81983 18 6.81457 18C6.80931 18 6.80405 18 6.7988 18C6.79355 18 6.7883 18 6.78306 18C6.77781 18 6.77257 18 6.76734 18C6.76211 18 6.75688 18 6.75165 18C6.74643 18 6.74121 18 6.73599 18C6.73077 18 6.72556 18 6.72036 18C6.71515 18 6.70995 18 6.70475 18C6.69955 18 6.69436 18 6.68917 18C6.68398 18 6.6788 18 6.67362 18C6.66844 18 6.66326 18 6.65809 18C6.65292 18 6.64775 18 6.64259 18C6.63743 18 6.63227 18 6.62712 18C6.62197 18 6.61682 18 6.61168 18C6.60654 18 6.6014 18 6.59626 18C6.59113 18 6.586 18 6.58087 18C6.57575 18 6.57063 18 6.56551 18C6.5604 18 6.55529 18 6.55018 18C6.54507 18 6.53997 18 6.53487 18C6.52977 18 6.52468 18 6.51959 18C6.51451 18 6.50942 18 6.50434 18C6.49926 18 6.49419 18 6.48912 18C6.48405 18 6.47898 18 6.47392 18C6.46886 18 6.46381 18 6.45875 18C6.4537 18 6.44866 18 6.44361 18C6.43857 18 6.43353 18 6.4285 18C6.42347 18 6.41844 18 6.41342 18C6.40839 18 6.40337 18 6.39836 18C6.39335 18 6.38834 18 6.38333 18C6.37833 18 6.37333 18 6.36833 18C6.36333 18 6.35834 18 6.35336 18C6.34837 18 6.34339 18 6.33841 18C6.33343 18 6.32846 18 6.32349 18C6.31853 18 6.31356 18 6.3086 18C6.30365 18 6.29869 18 6.29374 18C6.28879 18 6.28385 18 6.27891 18C6.27397 18 6.26904 18 6.26411 18C6.25918 18 6.25425 18 6.24933 18C6.24441 18 6.23949 18 6.23458 18C6.22967 18 6.22476 18 6.21986 18C6.21496 18 6.21006 18 6.20517 18C6.20028 18 6.19539 18 6.19051 18C6.18562 18 6.18075 18 6.17587 18C6.171 18 6.16613 18 6.16127 18C6.1564 18 6.15154 18 6.14669 18C6.14183 18 6.13698 18 6.13214 18C6.12729 18 6.12245 18 6.11762 18C6.11278 18 6.10795 18 6.10313 18C6.0983 18 6.09348 18 6.08866 18C6.08385 18 6.07903 18 6.07423 18C6.06942 18 6.06462 18 6.05982 18C6.05502 18 6.05023 18 6.04544 18C6.04066 18 6.03587 18 6.0311 18C6.02632 18 6.02154 18 6.01678 18C6.01201 18 6.00724 18 6.00249 18C5.99773 18 5.99297 18 5.98822 18C5.98347 18 5.97873 18 5.97399 18C5.96925 18 5.96452 18 5.95979 18C5.95506 18 5.95033 18 5.94561 18C5.94089 18 5.93618 18 5.93147 18C5.92675 18 5.92205 18 5.91735 18C5.91265 18 5.90795 18 5.90326 18C5.89857 18 5.89388 18 5.8892 18C5.88452 18 5.87984 18 5.87517 18C5.8705 18 5.86583 18 5.86117 18C5.85651 18 5.85185 18 5.8472 18C5.84255 18 5.8379 18 5.83326 18C5.82862 18 5.82398 18 5.81935 18C5.81471 18 5.81009 18 5.80546 18C5.80084 18 5.79622 18 5.79161 18C5.787 18 5.78239 18 5.77779 18C5.77318 18 5.76859 18 5.76399 18C5.7594 18 5.75481 18 5.75023 18C5.74564 18 5.74107 18 5.73649 18C5.73192 18 5.72735 18 5.72279 18C5.71822 18 5.71366 18 5.70911 18C5.70456 18 5.70001 18 5.69546 18C5.69092 18 5.68638 18 5.68185 18C5.67731 18 5.67278 18 5.66826 18C5.66373 18 5.65922 18 5.6547 18C5.65019 18 5.64568 18 5.64117 18C5.63667 18 5.63217 18 5.62768 18C5.62318 18 5.61869 18 5.61421 18C5.60972 18 5.60525 18 5.60077 18C5.5963 18 5.59183 18 5.58736 18C5.5829 18 5.57844 18 5.57399 18C5.56953 18 5.56508 18 5.56064 18C5.55619 18 5.55175 18 5.54732 18C5.54289 18 5.53846 18 5.53403 18C5.52961 18 5.52519 18 5.52078 18C5.51636 18 5.51195 18 5.50755 18C5.50314 18 5.49874 18 5.49435 18C5.48996 18 5.48557 18 5.48118 18C5.4768 18 5.47242 18 5.46805 18C5.46367 18 5.45931 18 5.45494 18C5.45058 18 5.44622 18 5.44187 18C5.43751 18 5.43316 18 5.42882 18C5.42448 18 5.42014 18 5.41581 18C5.41147 18 5.40715 18 5.40282 18C5.3985 18 5.39418 18 5.38987 18C5.38556 18 5.38125 18 5.37695 18C5.37264 18 5.36835 18 5.36405 18C5.35976 18 5.35547 18 5.35119 18C5.34691 18 5.34263 18 5.33836 18C5.33409 18 5.32982 18 5.32556 18C5.3213 18 5.31704 18 5.31279 18C5.30854 18 5.30429 18 5.30005 18C5.29581 18 5.29157 18 5.28734 18C5.28311 18 5.27889 18 5.27467 18C5.27044 18 5.26623 18 5.26202 18C5.25781 18 5.2536 18 5.2494 18C5.2452 18 5.24101 18 5.23682 18C5.23263 18 5.22845 18 5.22427 18C5.22009 18 5.21591 18 5.21174 18C5.20757 18 5.20341 18 5.19925 18C5.19509 18 5.19094 18 5.18679 18C5.18264 18 5.1785 18 5.17436 18C5.17023 18 5.16609 18 5.16197 18C5.15784 18 5.15372 18 5.1496 18C5.14548 18 5.14137 18 5.13726 18C5.13316 18 5.12906 18 5.12496 18C5.12086 18 5.11677 18 5.11269 18C5.1086 18 5.10452 18 5.10045 18C5.09637 18 5.0923 18 5.08824 18C5.08417 18 5.08011 18 5.07606 18C5.072 18 5.06796 18 5.06391 18C5.05987 18 5.05583 18 5.0518 18C5.04776 18 5.04374 18 5.03971 18C5.03569 18 5.03167 18 5.02766 18C5.02365 18 5.01964 18 5.01564 18C5.01164 18 5.00764 18 5.00365 18C4.99966 18 4.99568 18 4.9917 18C4.98771 18 4.98374 18 4.97977 18C4.9758 18 4.97184 18 4.96788 18C4.96392 18 4.95996 18 4.95602 18C4.95207 18 4.94812 18 4.94419 18C4.94025 18 4.93631 18 4.93239 18C4.92846 18 4.92454 18 4.92062 18C4.91671 18 4.91279 18 4.90889 18C4.90498 18 4.90108 18 4.89719 18C4.89329 18 4.8894 18 4.88552 18C4.88163 18 4.87775 18 4.87388 18C4.87001 18 4.86614 18 4.86227 18C4.85841 18 4.85455 18 4.8507 18C4.84685 18 4.843 18 4.83916 18C4.83532 18 4.83148 18 4.82765 18C4.82382 18 4.81999 18 4.81617 18C4.81235 18 4.80854 18 4.80473 18C4.80092 18 4.79712 18 4.79332 18C4.78952 18 4.78573 18 4.78194 18C4.77815 18 4.77437 18 4.77059 18C4.76681 18 4.76304 18 4.75928 18C4.75551 18 4.75175 18 4.74799 18C4.74424 18 4.74049 18 4.73674 18C4.733 18 4.72926 18 4.72553 18C4.72179 18 4.71807 18 4.71434 18C4.71062 18 4.7069 18 4.70319 18C4.69948 18 4.69577 18 4.69207 18C4.68837 18 4.68468 18 4.68099 18C4.6773 18 4.67361 18 4.66993 18C4.66625 18 4.66258 18 4.65891 18C4.65524 18 4.65158 18 4.64792 18C4.64427 18 4.64062 18 4.63697 18C4.63332 18 4.62968 18 4.62605 18C4.62241 18 4.61878 18 4.61516 18C4.61153 18 4.60792 18 4.6043 18C4.60069 18 4.59708 18 4.59348 18C4.58988 18 4.58628 18 4.58269 18C4.5791 18 4.57551 18 4.57193 18C4.56835 18 4.56478 18 4.56121 18C4.55764 18 4.55408 18 4.55052 18C4.54696 18 4.54341 18 4.53986 18C4.53631 18 4.53277 18 4.52924 18C4.5257 18 4.52217 18 4.51865 18C4.51512 18 4.5116 18 4.50809 18C4.50457 18 4.50107 18 4.49756 18C4.49406 18 4.49056 18 4.48707 18C4.48358 18 4.4801 18 4.47662 18C4.47314 18 4.46966 18 4.46619 18C4.46272 18 4.45926 18 4.4558 18C4.45234 18 4.44889 18 4.44545 18C4.442 18 4.43856 18 4.43512 18C4.43169 18 4.42826 18 4.42483 18C4.42141 18 4.41799 18 4.41458 18C4.41116 18 4.40776 18 4.40435 18C4.40095 18 4.39756 18 4.39417 18C4.39078 18 4.38739 18 4.38401 18C4.38063 18 4.37726 18 4.37389 18C4.37052 18 4.36716 18 4.3638 18C4.36045 18 4.3571 18 4.35375 18C4.35041 18 4.34707 18 4.34373 18C4.3404 18 4.33707 18 4.33375 18C4.33042 18 4.32711 18 4.32379 18C4.32048 18 4.31718 18 4.31388 18C4.31058 18 4.30728 18 4.30399 18C4.30071 18 4.29742 18 4.29415 18C4.29087 18 4.2876 18 4.28433 18C4.28106 18 4.2778 18 4.27455 18C4.2713 18 4.26805 18 4.2648 18C4.26156 18 4.25832 18 4.25509 18C4.25186 18 4.24863 18 4.24541 18C4.24219 18 4.23898 18 4.23577 18C4.23256 18 4.22936 18 4.22616 18C4.22296 18 4.21977 18 4.21659 18C4.2134 18 4.21022 18 4.20705 18C4.20387 18 4.2007 18 4.19754 18C4.19438 18 4.19122 18 4.18807 18C4.18492 18 4.18177 18 4.17863 18C4.17549 18 4.17236 18 4.16923 18C4.1661 18 4.16298 18 4.15986 18C4.15674 18 4.15363 18 4.15053 18C4.14742 18 4.14432 18 4.14123 18C4.13814 18 4.13505 18 4.13197 18C4.12888 18 4.12581 18 4.12274 18C4.11967 18 4.1166 18 4.11354 18C4.11049 18 4.10743 18 4.10439 18C4.10134 18 4.0983 18 4.09526 18C4.09223 18 4.0892 18 4.08617 18C4.08315 18 4.08013 18 4.07712 18C4.07411 18 4.0711 18 4.0681 18C4.0651 18 4.0621 18 4.05911 18C4.05613 18 4.05314 18 4.05017 18C4.04719 18 4.04422 18 4.04125 18C4.03829 18 4.03533 18 4.03237 18C4.02942 18 4.02647 18 4.02353 18C4.02059 18 4.01765 18 4.01472 18C4.01179 18 4.00887 18 4.00595 18C4.00303 18 4.00012 18 3.99721 18C3.9943 18 3.9914 18 3.98851 18C3.98561 18 3.98272 18 3.97984 18C3.97696 18 3.97408 18 3.97121 18C3.96834 18 3.96547 18 3.96261 18C3.95975 18 3.9569 18 3.95405 18C3.9512 18 3.94836 18 3.94553 18C3.94269 18 3.93986 18 3.93704 18C3.93421 18 3.93139 18 3.92858 18C3.92577 18 3.92296 18 3.92016 18C3.91736 18 3.91457 18 3.91178 18C3.90899 18 3.90621 18 3.90343 18C3.90066 18 3.89789 18 3.89512 18C3.89236 18 3.8896 18 3.88685 18C3.88409 18 3.88135 18 3.87861 18C3.87587 18 3.87313 18 3.8704 18C3.86767 18 3.86495 18 3.86223 18C3.85952 18 3.85681 18 3.8541 18C3.8514 18 3.8487 18 3.84601 18C3.84331 18 3.84063 18 3.83795 18C3.83527 18 3.83259 18 3.82992 18C3.82725 18 3.82459 18 3.82193 18C3.81928 18 3.81663 18 3.81398 18C3.81134 18 3.8087 18 3.80607 18C3.80343 18 3.80081 18 3.79819 18C3.79557 18 3.79295 18 3.79034 18C3.78774 18 3.78513 18 3.78254 18C3.77994 18 3.77735 18 3.77477 18C3.77218 18 3.7696 18 3.76703 18C3.76446 18 3.76189 18 3.75933 18C3.75677 18 3.75422 18 3.75167 18C3.74913 18 3.74658 18 3.74405 18C3.74151 18 3.73898 18 3.73646 18C3.73394 18 3.73142 18 3.72891 18C3.7264 18 3.72389 18 3.72139 18C3.71889 18 3.7164 18 3.71391 18C3.71143 18 3.70895 18 3.70647 18C3.704 18 3.70153 18 3.69906 18C3.6966 18 3.69415 18 3.6917 18C3.68925 18 3.6868 18 3.68436 18C3.68193 18 3.67949 18 3.67707 18C3.67464 18 3.67222 18 3.66981 18C3.6674 18 3.66499 18 3.66259 18C3.66019 18 3.65779 18 3.6554 18C3.65302 18 3.65063 18 3.64826 18C3.64588 18 3.64351 18 3.64115 18C3.63878 18 3.63642 18 3.63407 18C3.63172 18 3.62937 18 3.62703 18C3.6247 18 3.62236 18 3.62004 18C3.61771 18 3.61539 18 3.61307 18C3.61076 18 3.60845 18 3.60615 18C3.60384 18 3.60155 18 3.59926 18C3.59697 18 3.59469 18 3.59241 18C3.59013 18 3.58786 18 3.58559 18C3.58333 18 3.58107 18 3.57882 18C3.57657 18 3.57432 18 3.57208 18C3.56984 18 3.56761 18 3.56538 18C3.56315 18 3.56093 18 3.55871 18C3.5565 18 3.55429 18 3.55209 18C3.54988 18 3.54769 18 3.5455 18C3.54331 18 3.54112 18 3.53895 18C3.53677 18 3.5346 18 3.53243 18C3.53027 18 3.52811 18 3.52596 18C3.5238 18 3.52166 18 3.51952 18C3.51738 18 3.51524 18 3.51312 18C3.51099 18 3.50887 18 3.50675 18C3.50464 18 3.50253 18 3.50043 18C3.49832 18 3.49623 18 3.49414 18C3.49205 18 3.48997 18 3.48789 18C3.48581 18 3.48374 18 3.48168 18C3.47961 18 3.47755 18 3.4755 18C3.47345 18 3.4714 18 3.46937 18C3.46733 18 3.46529 18 3.46327 18C3.46124 18 3.45922 18 3.45721 18C3.45519 18 3.45319 18 3.45118 18C3.44918 18 3.44719 18 3.4452 18C3.44321 18 3.44123 18 3.43925 18C3.43728 18 3.43531 18 3.43335 18C3.43138 18 3.42943 18 3.42748 18C3.42553 18 3.42358 18 3.42164 18C3.41971 18 3.41778 18 3.41585 18C3.41393 18 3.41201 18 3.4101 18C3.40818 18 3.40628 18 3.40438 18C3.40248 18 3.40059 18 3.3987 18V20C3.40059 20 3.40248 20 3.40438 20C3.40628 20 3.40818 20 3.4101 20C3.41201 20 3.41393 20 3.41585 20C3.41778 20 3.41971 20 3.42164 20C3.42358 20 3.42553 20 3.42748 20C3.42943 20 3.43138 20 3.43335 20C3.43531 20 3.43728 20 3.43925 20C3.44123 20 3.44321 20 3.4452 20C3.44719 20 3.44918 20 3.45118 20C3.45319 20 3.45519 20 3.45721 20C3.45922 20 3.46124 20 3.46327 20C3.46529 20 3.46733 20 3.46937 20C3.4714 20 3.47345 20 3.4755 20C3.47755 20 3.47961 20 3.48168 20C3.48374 20 3.48581 20 3.48789 20C3.48997 20 3.49205 20 3.49414 20C3.49623 20 3.49832 20 3.50043 20C3.50253 20 3.50464 20 3.50675 20C3.50887 20 3.51099 20 3.51312 20C3.51524 20 3.51738 20 3.51952 20C3.52166 20 3.5238 20 3.52596 20C3.52811 20 3.53027 20 3.53243 20C3.5346 20 3.53677 20 3.53895 20C3.54112 20 3.54331 20 3.5455 20C3.54769 20 3.54988 20 3.55209 20C3.55429 20 3.5565 20 3.55871 20C3.56093 20 3.56315 20 3.56538 20C3.56761 20 3.56984 20 3.57208 20C3.57432 20 3.57657 20 3.57882 20C3.58107 20 3.58333 20 3.58559 20C3.58786 20 3.59013 20 3.59241 20C3.59469 20 3.59697 20 3.59926 20C3.60155 20 3.60384 20 3.60615 20C3.60845 20 3.61076 20 3.61307 20C3.61539 20 3.61771 20 3.62004 20C3.62236 20 3.6247 20 3.62703 20C3.62937 20 3.63172 20 3.63407 20C3.63642 20 3.63878 20 3.64115 20C3.64351 20 3.64588 20 3.64826 20C3.65063 20 3.65302 20 3.6554 20C3.65779 20 3.66019 20 3.66259 20C3.66499 20 3.6674 20 3.66981 20C3.67222 20 3.67464 20 3.67707 20C3.67949 20 3.68193 20 3.68436 20C3.6868 20 3.68925 20 3.6917 20C3.69415 20 3.6966 20 3.69906 20C3.70153 20 3.704 20 3.70647 20C3.70895 20 3.71143 20 3.71391 20C3.7164 20 3.71889 20 3.72139 20C3.72389 20 3.7264 20 3.72891 20C3.73142 20 3.73394 20 3.73646 20C3.73898 20 3.74151 20 3.74405 20C3.74658 20 3.74913 20 3.75167 20C3.75422 20 3.75677 20 3.75933 20C3.76189 20 3.76446 20 3.76703 20C3.7696 20 3.77218 20 3.77477 20C3.77735 20 3.77994 20 3.78254 20C3.78513 20 3.78774 20 3.79034 20C3.79295 20 3.79557 20 3.79819 20C3.80081 20 3.80343 20 3.80607 20C3.8087 20 3.81134 20 3.81398 20C3.81663 20 3.81928 20 3.82193 20C3.82459 20 3.82725 20 3.82992 20C3.83259 20 3.83527 20 3.83795 20C3.84063 20 3.84331 20 3.84601 20C3.8487 20 3.8514 20 3.8541 20C3.85681 20 3.85952 20 3.86223 20C3.86495 20 3.86767 20 3.8704 20C3.87313 20 3.87587 20 3.87861 20C3.88135 20 3.88409 20 3.88685 20C3.8896 20 3.89236 20 3.89512 20C3.89789 20 3.90066 20 3.90343 20C3.90621 20 3.90899 20 3.91178 20C3.91457 20 3.91736 20 3.92016 20C3.92296 20 3.92577 20 3.92858 20C3.93139 20 3.93421 20 3.93704 20C3.93986 20 3.94269 20 3.94553 20C3.94836 20 3.9512 20 3.95405 20C3.9569 20 3.95975 20 3.96261 20C3.96547 20 3.96834 20 3.97121 20C3.97408 20 3.97696 20 3.97984 20C3.98272 20 3.98561 20 3.98851 20C3.9914 20 3.9943 20 3.99721 20C4.00012 20 4.00303 20 4.00595 20C4.00887 20 4.01179 20 4.01472 20C4.01765 20 4.02059 20 4.02353 20C4.02647 20 4.02942 20 4.03237 20C4.03533 20 4.03829 20 4.04125 20C4.04422 20 4.04719 20 4.05017 20C4.05314 20 4.05613 20 4.05911 20C4.0621 20 4.0651 20 4.0681 20C4.0711 20 4.07411 20 4.07712 20C4.08013 20 4.08315 20 4.08617 20C4.0892 20 4.09223 20 4.09526 20C4.0983 20 4.10134 20 4.10439 20C4.10743 20 4.11049 20 4.11354 20C4.1166 20 4.11967 20 4.12274 20C4.12581 20 4.12888 20 4.13197 20C4.13505 20 4.13814 20 4.14123 20C4.14432 20 4.14742 20 4.15053 20C4.15363 20 4.15674 20 4.15986 20C4.16298 20 4.1661 20 4.16923 20C4.17236 20 4.17549 20 4.17863 20C4.18177 20 4.18492 20 4.18807 20C4.19122 20 4.19438 20 4.19754 20C4.2007 20 4.20387 20 4.20705 20C4.21022 20 4.2134 20 4.21659 20C4.21977 20 4.22296 20 4.22616 20C4.22936 20 4.23256 20 4.23577 20C4.23898 20 4.24219 20 4.24541 20C4.24863 20 4.25186 20 4.25509 20C4.25832 20 4.26156 20 4.2648 20C4.26805 20 4.2713 20 4.27455 20C4.2778 20 4.28106 20 4.28433 20C4.2876 20 4.29087 20 4.29415 20C4.29742 20 4.30071 20 4.30399 20C4.30728 20 4.31058 20 4.31388 20C4.31718 20 4.32048 20 4.32379 20C4.32711 20 4.33042 20 4.33375 20C4.33707 20 4.3404 20 4.34373 20C4.34707 20 4.35041 20 4.35375 20C4.3571 20 4.36045 20 4.3638 20C4.36716 20 4.37052 20 4.37389 20C4.37726 20 4.38063 20 4.38401 20C4.38739 20 4.39078 20 4.39417 20C4.39756 20 4.40095 20 4.40435 20C4.40776 20 4.41116 20 4.41458 20C4.41799 20 4.42141 20 4.42483 20C4.42826 20 4.43169 20 4.43512 20C4.43856 20 4.442 20 4.44545 20C4.44889 20 4.45234 20 4.4558 20C4.45926 20 4.46272 20 4.46619 20C4.46966 20 4.47314 20 4.47662 20C4.4801 20 4.48358 20 4.48707 20C4.49056 20 4.49406 20 4.49756 20C4.50107 20 4.50457 20 4.50809 20C4.5116 20 4.51512 20 4.51865 20C4.52217 20 4.5257 20 4.52924 20C4.53277 20 4.53631 20 4.53986 20C4.54341 20 4.54696 20 4.55052 20C4.55408 20 4.55764 20 4.56121 20C4.56478 20 4.56835 20 4.57193 20C4.57551 20 4.5791 20 4.58269 20C4.58628 20 4.58988 20 4.59348 20C4.59708 20 4.60069 20 4.6043 20C4.60792 20 4.61153 20 4.61516 20C4.61878 20 4.62241 20 4.62605 20C4.62968 20 4.63332 20 4.63697 20C4.64062 20 4.64427 20 4.64792 20C4.65158 20 4.65524 20 4.65891 20C4.66258 20 4.66625 20 4.66993 20C4.67361 20 4.6773 20 4.68099 20C4.68468 20 4.68837 20 4.69207 20C4.69577 20 4.69948 20 4.70319 20C4.7069 20 4.71062 20 4.71434 20C4.71807 20 4.72179 20 4.72553 20C4.72926 20 4.733 20 4.73674 20C4.74049 20 4.74424 20 4.74799 20C4.75175 20 4.75551 20 4.75928 20C4.76304 20 4.76681 20 4.77059 20C4.77437 20 4.77815 20 4.78194 20C4.78573 20 4.78952 20 4.79332 20C4.79712 20 4.80092 20 4.80473 20C4.80854 20 4.81235 20 4.81617 20C4.81999 20 4.82382 20 4.82765 20C4.83148 20 4.83532 20 4.83916 20C4.843 20 4.84685 20 4.8507 20C4.85455 20 4.85841 20 4.86227 20C4.86614 20 4.87001 20 4.87388 20C4.87775 20 4.88163 20 4.88552 20C4.8894 20 4.89329 20 4.89719 20C4.90108 20 4.90498 20 4.90889 20C4.91279 20 4.91671 20 4.92062 20C4.92454 20 4.92846 20 4.93239 20C4.93631 20 4.94025 20 4.94419 20C4.94812 20 4.95207 20 4.95602 20C4.95996 20 4.96392 20 4.96788 20C4.97184 20 4.9758 20 4.97977 20C4.98374 20 4.98771 20 4.9917 20C4.99568 20 4.99966 20 5.00365 20C5.00764 20 5.01164 20 5.01564 20C5.01964 20 5.02365 20 5.02766 20C5.03167 20 5.03569 20 5.03971 20C5.04374 20 5.04776 20 5.0518 20C5.05583 20 5.05987 20 5.06391 20C5.06796 20 5.072 20 5.07606 20C5.08011 20 5.08417 20 5.08824 20C5.0923 20 5.09637 20 5.10045 20C5.10452 20 5.1086 20 5.11269 20C5.11677 20 5.12086 20 5.12496 20C5.12906 20 5.13316 20 5.13726 20C5.14137 20 5.14548 20 5.1496 20C5.15372 20 5.15784 20 5.16197 20C5.16609 20 5.17023 20 5.17436 20C5.1785 20 5.18264 20 5.18679 20C5.19094 20 5.19509 20 5.19925 20C5.20341 20 5.20757 20 5.21174 20C5.21591 20 5.22009 20 5.22427 20C5.22845 20 5.23263 20 5.23682 20C5.24101 20 5.2452 20 5.2494 20C5.2536 20 5.25781 20 5.26202 20C5.26623 20 5.27044 20 5.27467 20C5.27889 20 5.28311 20 5.28734 20C5.29157 20 5.29581 20 5.30005 20C5.30429 20 5.30854 20 5.31279 20C5.31704 20 5.3213 20 5.32556 20C5.32982 20 5.33409 20 5.33836 20C5.34263 20 5.34691 20 5.35119 20C5.35547 20 5.35976 20 5.36405 20C5.36835 20 5.37264 20 5.37695 20C5.38125 20 5.38556 20 5.38987 20C5.39418 20 5.3985 20 5.40282 20C5.40715 20 5.41147 20 5.41581 20C5.42014 20 5.42448 20 5.42882 20C5.43316 20 5.43751 20 5.44187 20C5.44622 20 5.45058 20 5.45494 20C5.45931 20 5.46367 20 5.46805 20C5.47242 20 5.4768 20 5.48118 20C5.48557 20 5.48996 20 5.49435 20C5.49874 20 5.50314 20 5.50755 20C5.51195 20 5.51636 20 5.52078 20C5.52519 20 5.52961 20 5.53403 20C5.53846 20 5.54289 20 5.54732 20C5.55175 20 5.55619 20 5.56064 20C5.56508 20 5.56953 20 5.57399 20C5.57844 20 5.5829 20 5.58736 20C5.59183 20 5.5963 20 5.60077 20C5.60525 20 5.60972 20 5.61421 20C5.61869 20 5.62318 20 5.62768 20C5.63217 20 5.63667 20 5.64117 20C5.64568 20 5.65019 20 5.6547 20C5.65922 20 5.66373 20 5.66826 20C5.67278 20 5.67731 20 5.68185 20C5.68638 20 5.69092 20 5.69546 20C5.70001 20 5.70456 20 5.70911 20C5.71366 20 5.71822 20 5.72279 20C5.72735 20 5.73192 20 5.73649 20C5.74107 20 5.74564 20 5.75023 20C5.75481 20 5.7594 20 5.76399 20C5.76859 20 5.77318 20 5.77779 20C5.78239 20 5.787 20 5.79161 20C5.79622 20 5.80084 20 5.80546 20C5.81009 20 5.81471 20 5.81935 20C5.82398 20 5.82862 20 5.83326 20C5.8379 20 5.84255 20 5.8472 20C5.85185 20 5.85651 20 5.86117 20C5.86583 20 5.8705 20 5.87517 20C5.87984 20 5.88452 20 5.8892 20C5.89388 20 5.89857 20 5.90326 20C5.90795 20 5.91265 20 5.91735 20C5.92205 20 5.92675 20 5.93147 20C5.93618 20 5.94089 20 5.94561 20C5.95033 20 5.95506 20 5.95979 20C5.96452 20 5.96925 20 5.97399 20C5.97873 20 5.98347 20 5.98822 20C5.99297 20 5.99773 20 6.00249 20C6.00724 20 6.01201 20 6.01678 20C6.02154 20 6.02632 20 6.0311 20C6.03587 20 6.04066 20 6.04544 20C6.05023 20 6.05502 20 6.05982 20C6.06462 20 6.06942 20 6.07423 20C6.07903 20 6.08385 20 6.08866 20C6.09348 20 6.0983 20 6.10313 20C6.10795 20 6.11278 20 6.11762 20C6.12245 20 6.12729 20 6.13214 20C6.13698 20 6.14183 20 6.14669 20C6.15154 20 6.1564 20 6.16127 20C6.16613 20 6.171 20 6.17587 20C6.18075 20 6.18562 20 6.19051 20C6.19539 20 6.20028 20 6.20517 20C6.21006 20 6.21496 20 6.21986 20C6.22476 20 6.22967 20 6.23458 20C6.23949 20 6.24441 20 6.24933 20C6.25425 20 6.25918 20 6.26411 20C6.26904 20 6.27397 20 6.27891 20C6.28385 20 6.28879 20 6.29374 20C6.29869 20 6.30365 20 6.3086 20C6.31356 20 6.31853 20 6.32349 20C6.32846 20 6.33343 20 6.33841 20C6.34339 20 6.34837 20 6.35336 20C6.35834 20 6.36333 20 6.36833 20C6.37333 20 6.37833 20 6.38333 20C6.38834 20 6.39335 20 6.39836 20C6.40337 20 6.40839 20 6.41342 20C6.41844 20 6.42347 20 6.4285 20C6.43353 20 6.43857 20 6.44361 20C6.44866 20 6.4537 20 6.45875 20C6.46381 20 6.46886 20 6.47392 20C6.47898 20 6.48405 20 6.48912 20C6.49419 20 6.49926 20 6.50434 20C6.50942 20 6.51451 20 6.51959 20C6.52468 20 6.52977 20 6.53487 20C6.53997 20 6.54507 20 6.55018 20C6.55529 20 6.5604 20 6.56551 20C6.57063 20 6.57575 20 6.58087 20C6.586 20 6.59113 20 6.59626 20C6.6014 20 6.60654 20 6.61168 20C6.61682 20 6.62197 20 6.62712 20C6.63227 20 6.63743 20 6.64259 20C6.64775 20 6.65292 20 6.65809 20C6.66326 20 6.66844 20 6.67362 20C6.6788 20 6.68398 20 6.68917 20C6.69436 20 6.69955 20 6.70475 20C6.70995 20 6.71515 20 6.72036 20C6.72556 20 6.73077 20 6.73599 20C6.74121 20 6.74643 20 6.75165 20C6.75688 20 6.76211 20 6.76734 20C6.77257 20 6.77781 20 6.78306 20C6.7883 20 6.79355 20 6.7988 20C6.80405 20 6.80931 20 6.81457 20C6.81983 20 6.82509 20 6.83036 20C6.83563 20 6.84091 20 6.84619 20C6.85146 20 6.85675 20 6.86203 20C6.86732 20 6.87261 20 6.87791 20C6.88321 20 6.88851 20 6.89381 20C6.89912 20 6.90443 20 6.90974 20C6.91506 20 6.92038 20 6.9257 20C6.93102 20 6.93635 20 6.94168 20C6.94702 20 6.95235 20 6.95769 20C6.96303 20 6.96838 20 6.97373 20C6.97908 20 6.98443 20 6.98979 20C6.99515 20 7.00051 20 7.00588 20C7.01125 20 7.01662 20 7.022 20C7.02737 20 7.03275 20 7.03814 20C7.04352 20 7.04891 20 7.05431 20C7.0597 20 7.0651 20 7.0705 20C7.07591 20 7.08131 20 7.08672 20C7.09214 20 7.09755 20 7.10297 20C7.10839 20 7.11382 20 7.11925 20C7.12467 20 7.13011 20 7.13554 20C7.14098 20 7.14642 20 7.15187 20C7.15732 20 7.16277 20 7.16822 20C7.17368 20 7.17914 20 7.1846 20C7.19006 20 7.19553 20 7.201 20C7.20648 20 7.21195 20 7.21743 20C7.22292 20 7.2284 20 7.23389 20C7.23938 20 7.24487 20 7.25037 20C7.25587 20 7.26137 20 7.26688 20C7.27239 20 7.2779 20 7.28341 20C7.28893 20 7.29445 20 7.29997 20C7.3055 20 7.31103 20 7.31656 20C7.32209 20 7.32763 20 7.33317 20C7.33871 20 7.34426 20 7.34981 20C7.35536 20 7.36091 20 7.36647 20C7.37203 20 7.37759 20 7.38316 20C7.38872 20 7.39429 20 7.39987 20C7.40545 20 7.41103 20 7.41661 20C7.42219 20 7.42778 20 7.43337 20C7.43897 20 7.44456 20 7.45016 20C7.45576 20 7.46137 20 7.46698 20C7.47259 20 7.4782 20 7.48382 20C7.48944 20 7.49506 20 7.50069 20C7.50631 20 7.51194 20 7.51758 20C7.52321 20 7.52885 20 7.53449 20C7.54014 20 7.54578 20 7.55144 20C7.55709 20 7.56274 20 7.5684 20C7.57406 20 7.57973 20 7.5854 20C7.59106 20 7.59674 20 7.60241 20C7.60809 20 7.61377 20 7.61946 20C7.62514 20 7.63083 20 7.63652 20C7.64222 20 7.64791 20 7.65362 20C7.65932 20 7.66502 20 7.67073 20C7.67644 20 7.68216 20 7.68788 20C7.6936 20 7.69932 20 7.70504 20C7.71077 20 7.7165 20 7.72224 20C7.72797 20 7.73371 20 7.73945 20C7.7452 20 7.75095 20 7.7567 20C7.76245 20 7.7682 20 7.77396 20C7.77972 20 7.78549 20 7.79126 20C7.79702 20 7.8028 20 7.80857 20C7.81435 20 7.82013 20 7.82591 20C7.8317 20 7.83749 20 7.84328 20C7.84907 20 7.85487 20 7.86067 20C7.86647 20 7.87227 20 7.87808 20C7.88389 20 7.88971 20 7.89552 20C7.90134 20 7.90716 20 7.91299 20C7.91881 20 7.92464 20 7.93047 20C7.93631 20 7.94214 20 7.94799 20C7.95383 20 7.95967 20 7.96552 20C7.97137 20 7.97723 20 7.98308 20C7.98894 20 7.9948 20 8.00067 20C8.00654 20 8.01241 20 8.01828 20C8.02415 20 8.03003 20 8.03591 20C8.0418 20 8.04768 20 8.05357 20C8.05946 20 8.06536 20 8.07125 20C8.07715 20 8.08305 20 8.08896 20C8.09487 20 8.10078 20 8.10669 20C8.1126 20 8.11852 20 8.12444 20C8.13037 20 8.13629 20 8.14222 20C8.14815 20 8.15409 20 8.16002 20C8.16596 20 8.17191 20 8.17785 20C8.1838 20 8.18975 20 8.1957 20C8.20165 20 8.20761 20 8.21357 20C8.21954 20 8.2255 20 8.23147 20C8.23744 20 8.24342 20 8.24939 20C8.25537 20 8.26135 20 8.26734 20C8.27332 20 8.27931 20 8.28531 20C8.2913 20 8.2973 20 8.3033 20C8.3093 20 8.31531 20 8.32132 20C8.32733 20 8.33334 20 8.33936 20C8.34537 20 8.35139 20 8.35742 20C8.36344 20 8.36947 20 8.37551 20C8.38154 20 8.38758 20 8.39362 20C8.39966 20 8.4057 20 8.41175 20C8.4178 20 8.42385 20 8.42991 20C8.43596 20 8.44202 20 8.44809 20C8.45415 20 8.46022 20 8.46629 20C8.47236 20 8.47844 20 8.48452 20C8.4906 20 8.49668 20 8.50277 20C8.50885 20 8.51495 20 8.52104 20C8.52714 20 8.53323 20 8.53934 20C8.54544 20 8.55155 20 8.55766 20C8.56377 20 8.56988 20 8.576 20C8.58212 20 8.58824 20 8.59437 20C8.60049 20 8.60662 20 8.61275 20C8.61889 20 8.62502 20 8.63117 20C8.63731 20 8.64345 20 8.6496 20C8.65575 20 8.6619 20 8.66806 20C8.67421 20 8.68037 20 8.68654 20C8.6927 20 8.69887 20 8.70504 20C8.71121 20 8.71739 20 8.72357 20C8.72975 20 8.73593 20 8.74212 20C8.7483 20 8.75449 20 8.76069 20C8.76688 20 8.77308 20 8.77928 20C8.78548 20 8.79169 20 8.7979 20C8.80411 20 8.81032 20 8.81654 20C8.82275 20 8.82898 20 8.8352 20C8.84142 20 8.84765 20 8.85388 20C8.86012 20 8.86635 20 8.87259 20C8.87883 20 8.88507 20 8.89132 20C8.89757 20 8.90382 20 8.91007 20C8.91633 20 8.92259 20 8.92885 20C8.93511 20 8.94137 20 8.94764 20C8.95391 20 8.96019 20 8.96646 20C8.97274 20 8.97902 20 8.9853 20C8.99159 20 8.99788 20 9.00417 20C9.01046 20 9.01675 20 9.02305 20C9.02935 20 9.03565 20 9.04196 20C9.04827 20 9.05458 20 9.06089 20C9.0672 20 9.07352 20 9.07984 20C9.08616 20 9.09249 20 9.09882 20C9.10514 20 9.11148 20 9.11781 20C9.12415 20 9.13049 20 9.13683 20C9.14317 20 9.14952 20 9.15587 20C9.16222 20 9.16857 20 9.17493 20C9.18129 20 9.18765 20 9.19402 20C9.20038 20 9.20675 20 9.21312 20C9.21949 20 9.22587 20 9.23225 20C9.23863 20 9.24501 20 9.2514 20C9.25778 20 9.26417 20 9.27057 20C9.27696 20 9.28336 20 9.28976 20C9.29616 20 9.30257 20 9.30897 20C9.31538 20 9.32179 20 9.32821 20C9.33463 20 9.34104 20 9.34747 20C9.35389 20 9.36032 20 9.36675 20C9.37318 20 9.37961 20 9.38605 20C9.39248 20 9.39892 20 9.40537 20C9.41181 20 9.41826 20 9.42471 20C9.43116 20 9.43762 20 9.44408 20C9.45053 20 9.457 20 9.46346 20C9.46993 20 9.4764 20 9.48287 20C9.48934 20 9.49582 20 9.5023 20C9.50878 20 9.51526 20 9.52175 20C9.52823 20 9.53472 20 9.54122 20C9.54771 20 9.55421 20 9.56071 20C9.56721 20 9.57371 20 9.58022 20C9.58673 20 9.59324 20 9.59976 20C9.60627 20 9.61279 20 9.61931 20C9.62583 20 9.63236 20 9.63889 20C9.64542 20 9.65195 20 9.65848 20C9.66502 20 9.67156 20 9.6781 20C9.68465 20 9.69119 20 9.69774 20C9.70429 20 9.71084 20 9.7174 20C9.72396 20 9.73052 20 9.73708 20C9.74365 20 9.75021 20 9.75678 20C9.76335 20 9.76993 20 9.7765 20C9.78308 20 9.78966 20 9.79625 20C9.80283 20 9.80942 20 9.81601 20C9.8226 20 9.8292 20 9.8358 20C9.84239 20 9.84899 20 9.8556 20C9.86221 20 9.86881 20 9.87543 20C9.88204 20 9.88865 20 9.89527 20C9.90189 20 9.90851 20 9.91514 20C9.92176 20 9.92839 20 9.93502 20C9.94166 20 9.94829 20 9.95493 20C9.96157 20 9.96821 20 9.97486 20C9.9815 20 9.98815 20 9.99481 20C10.0015 20 10.0081 20 10.0148 20C10.0214 20 10.0281 20 10.0348 20C10.0414 20 10.0481 20 10.0548 20C10.0614 20 10.0681 20 10.0748 20C10.0815 20 10.0882 20 10.0948 20C10.1015 20 10.1082 20 10.1149 20C10.1216 20 10.1283 20 10.135 20C10.1417 20 10.1484 20 10.1551 20C10.1618 20 10.1685 20 10.1752 20C10.182 20 10.1887 20 10.1954 20C10.2021 20 10.2088 20 10.2156 20C10.2223 20 10.229 20 10.2358 20C10.2425 20 10.2492 20 10.256 20C10.2627 20 10.2694 20 10.2762 20C10.2829 20 10.2897 20 10.2964 20C10.3032 20 10.3099 20 10.3167 20C10.3235 20 10.3302 20 10.337 20C10.3438 20 10.3505 20 10.3573 20C10.3641 20 10.3708 20 10.3776 20C10.3844 20 10.3912 20 10.398 20C10.4048 20 10.4115 20 10.4183 20C10.4251 20 10.4319 20 10.4387 20C10.4455 20 10.4523 20 10.4591 20C10.4659 20 10.4727 20 10.4796 20C10.4864 20 10.4932 20 10.5 20V18ZM2 18.6C2 19.369 2.62127 20 3.3987 20V18C3.7343 18 4 18.2729 4 18.6H2ZM17 18.6C17 18.2729 17.2657 18 17.6013 18V20C18.3787 20 19 19.369 19 18.6H17Z" fill="white" mask="url(#path-1-inside-1_1728_931)"/>
<rect x="1.5" y="18.5" width="18" height="2" fill="#646464" stroke="white"/>
<rect x="9.5" y="15.5" width="2" height="3" fill="#646464" stroke="white"/>
<rect x="6.25" y="15.25" width="0.5" height="3.5" fill="#646464" stroke="white" stroke-width="0.5"/>
<rect x="14.25" y="15.25" width="0.5" height="3.5" fill="#646464" stroke="white" stroke-width="0.5"/>
<rect x="9.5" y="9.5" width="2" height="3" fill="#646464" stroke="white"/>
</svg>
