<svg width="21" height="21" viewBox="0 0 21 21" fill="none" xmlns="http://www.w3.org/2000/svg">
<path d="M20.5053 18.9675C20.5053 18.9675 20.505 18.9684 20.5041 18.9702C20.5047 18.9684 20.5052 18.9675 20.5053 18.9675ZM20.446 18.9629C20.4618 18.9776 20.4736 18.99 20.4823 19C20.4736 19.01 20.4618 19.0224 20.446 19.0371C20.3622 19.1151 20.2107 19.214 19.9695 19.3226C19.4904 19.5384 18.7656 19.745 17.8311 19.923C15.9701 20.2775 13.378 20.5 10.5 20.5C7.62204 20.5 5.02985 20.2775 3.16893 19.923C2.23436 19.745 1.50962 19.5384 1.03045 19.3226C0.789254 19.214 0.637756 19.1151 0.553993 19.0371C0.538198 19.0224 0.526429 19.01 0.517731 19C0.526429 18.99 0.538198 18.9776 0.553993 18.9629C0.637756 18.8849 0.789254 18.786 1.03045 18.6774C1.50962 18.4616 2.23436 18.255 3.16893 18.077C5.02985 17.7225 7.62204 17.5 10.5 17.5C13.378 17.5 15.9701 17.7225 17.8311 18.077C18.7656 18.255 19.4904 18.4616 19.9695 18.6774C20.2107 18.786 20.3622 18.8849 20.446 18.9629ZM0.494735 18.9675C0.494809 18.9675 0.495264 18.9684 0.495878 18.9702C0.494968 18.9684 0.494661 18.9675 0.494735 18.9675ZM0.494735 19.0325C0.494661 19.0325 0.494969 19.0316 0.495879 19.0298C0.495265 19.0316 0.494809 19.0325 0.494735 19.0325ZM20.5041 19.0298C20.505 19.0316 20.5053 19.0325 20.5053 19.0325C20.5052 19.0324 20.5047 19.0316 20.5041 19.0298Z" fill="#646464" stroke="white"/>
<path d="M10.4286 10.0087C13.2857 9.75505 16 15.0826 16 18C16 18 12.6131 18.5051 10.4286 18.5C8.29961 18.495 5 18 5 18C5 13.1799 7.06089 10.3078 10.4286 10.0087Z" fill="#646464"/>
<path d="M16 18L16.0738 18.4945C16.3187 18.458 16.5 18.2477 16.5 18H16ZM10.4286 10.0087L10.3843 9.5107L10.4286 10.0087ZM5 18H4.5C4.5 18.2475 4.68106 18.4577 4.92582 18.4945L5 18ZM10.4286 18.5L10.4274 19L10.4286 18.5ZM16.5 18C16.5 16.4217 15.7793 14.2695 14.7103 12.5511C14.1723 11.6863 13.5283 10.9018 12.811 10.3451C12.0947 9.78909 11.2667 9.43236 10.3843 9.5107L10.4728 10.5068C11.019 10.4583 11.6017 10.6724 12.1979 11.1351C12.7932 11.5971 13.3634 12.2792 13.8612 13.0793C14.8635 14.6905 15.5 16.6608 15.5 18H16.5ZM10.3843 9.5107C8.55403 9.67322 7.06143 10.5432 6.03975 12.0252C5.02814 13.4925 4.5 15.5255 4.5 18H5.5C5.5 15.6544 6.00231 13.8413 6.86306 12.5928C7.71374 11.3588 8.93543 10.6433 10.4728 10.5068L10.3843 9.5107ZM5 18C4.92582 18.4945 4.92585 18.4945 4.9259 18.4945C4.92593 18.4945 4.926 18.4945 4.92606 18.4945C4.92619 18.4945 4.92637 18.4945 4.9266 18.4946C4.92706 18.4947 4.92772 18.4948 4.92858 18.4949C4.9303 18.4951 4.93281 18.4955 4.93609 18.496C4.94264 18.497 4.95229 18.4984 4.9649 18.5003C4.99011 18.504 5.02714 18.5094 5.07491 18.5162C5.17043 18.5299 5.30891 18.5495 5.4816 18.5729C5.82688 18.6197 6.30948 18.6822 6.85929 18.7449C7.9537 18.8697 9.33373 18.9974 10.4274 19L10.4297 18C9.39445 17.9976 8.0602 17.8753 6.97256 17.7513C6.43135 17.6896 5.95599 17.6281 5.61606 17.582C5.44614 17.5589 5.31021 17.5397 5.21697 17.5264C5.17035 17.5197 5.13442 17.5144 5.11025 17.5109C5.09817 17.5091 5.08903 17.5077 5.08298 17.5068C5.07995 17.5064 5.07769 17.5061 5.07622 17.5058C5.07548 17.5057 5.07494 17.5056 5.0746 17.5056C5.07443 17.5056 5.07431 17.5056 5.07424 17.5055C5.07421 17.5055 5.07419 17.5055 5.07417 17.5055C5.07417 17.5055 5.07418 17.5055 5 18ZM10.4274 19C11.5496 19.0026 12.966 18.8748 14.0892 18.7488C14.6535 18.6855 15.1489 18.622 15.5033 18.5744C15.6805 18.5506 15.8227 18.5307 15.9207 18.5167C15.9698 18.5097 16.0078 18.5042 16.0336 18.5004C16.0466 18.4985 16.0565 18.4971 16.0632 18.4961C16.0666 18.4956 16.0692 18.4952 16.0709 18.495C16.0718 18.4948 16.0725 18.4947 16.0729 18.4946C16.0732 18.4946 16.0734 18.4946 16.0735 18.4946C16.0736 18.4946 16.0736 18.4945 16.0737 18.4945C16.0737 18.4945 16.0738 18.4945 16 18C15.9262 17.5055 15.9263 17.5055 15.9263 17.5055C15.9262 17.5055 15.9262 17.5055 15.9262 17.5055C15.9261 17.5055 15.926 17.5055 15.9258 17.5055C15.9255 17.5056 15.9249 17.5057 15.9242 17.5058C15.9226 17.506 15.9203 17.5063 15.9172 17.5068C15.911 17.5077 15.9016 17.5091 15.8892 17.5109C15.8644 17.5145 15.8275 17.5199 15.7797 17.5267C15.684 17.5403 15.5444 17.5599 15.37 17.5833C15.0211 17.6302 14.5332 17.6927 13.9777 17.755C12.8614 17.8803 11.492 18.0025 10.4297 18L10.4274 19Z" fill="white"/>
<path d="M10 10C11.5 11.5 12.5 15.5 12 18.5" stroke="white"/>
<path d="M7 18.5C7.5 17.6667 8 15 11.5 14.5" stroke="white"/>
</svg>
