<svg width="21" height="21" viewBox="0 0 21 21" fill="none" xmlns="http://www.w3.org/2000/svg">
<path d="M8.17827 15.308L8.10366 15.527M8.10366 15.527L6.75 19.5H14L14.2585 15L8.10366 15.527Z" stroke="white" stroke-linejoin="round"/>
<path d="M10.5166 0.536516C10.3169 0.345846 10.0004 0.353206 9.80971 0.552955C9.61904 0.752705 9.6264 1.0692 9.82615 1.25987L10.5166 0.536516ZM9.82615 1.25987C9.94677 1.37501 10.0576 1.57077 10.1357 1.89077C10.2135 2.20943 10.2501 2.61489 10.2501 3.10635H11.2501C11.2501 2.57509 11.2115 2.08101 11.1072 1.65355C11.0031 1.22743 10.8246 0.830468 10.5166 0.536516L9.82615 1.25987Z" fill="white"/>
<path d="M8.03175 1.7182C7.89928 1.9605 7.9883 2.2643 8.23059 2.39678C8.47289 2.52925 8.77669 2.44023 8.90917 2.19793L8.03175 1.7182ZM8.90917 2.19793C9.02995 1.97702 9.19951 1.75582 9.39927 1.61831C9.58223 1.49235 9.78717 1.43535 10.0493 1.51179L10.3293 0.551771C9.73617 0.378832 9.22381 0.525048 8.83223 0.794618C8.45743 1.05263 8.19519 1.41927 8.03175 1.7182L8.90917 2.19793Z" fill="white"/>
<path d="M12.4679 0.762245C12.6463 0.973054 12.62 1.28854 12.4091 1.46691C12.1983 1.64527 11.8828 1.61897 11.7045 1.40817L12.4679 0.762245ZM11.7045 1.40817C11.6065 1.29238 11.4253 1.21015 11.1537 1.1985C10.8853 1.187 10.6062 1.25022 10.4212 1.33354L10.0104 0.421803C10.3335 0.276237 10.7677 0.181034 11.1966 0.19942C11.6222 0.21767 12.1222 0.353648 12.4679 0.762245L11.7045 1.40817Z" fill="white"/>
<path d="M14.1726 12.2194C13.8974 8.60575 12.6131 5.24694 11.8486 3.56753C11.8486 3.56753 11.6391 3.18755 10.9383 3.25893C9.95309 3.35928 10.0444 3.88025 10.0444 3.88025C10.0444 3.88025 10.1466 7.65032 9.7923 10.0144C9.42225 12.4835 7.51074 15.4993 7.51074 15.4993C7.51074 15.4993 9.92838 16.2471 11.1222 16.2491C12.3029 16.2511 14.4911 15.5536 14.4911 15.5536C14.5012 15.4484 14.392 15.0996 14.1726 12.2194Z" fill="#646464" stroke="white" stroke-linejoin="round"/>
<path d="M14.5 15.5C14.5 15.5096 14.4964 15.581 14.3519 15.7072C14.2085 15.8323 13.9721 15.9678 13.6367 16.0916C12.9698 16.3378 12.0153 16.5 10.9365 16.5C9.85755 16.5 8.93786 16.3377 8.30665 16.0942C7.98953 15.9718 7.77056 15.8387 7.63928 15.7171C7.50938 15.5967 7.5 15.523 7.5 15.5C7.5 15.477 7.50938 15.4033 7.63928 15.2829C7.77056 15.1613 7.98953 15.0282 8.30665 14.9058C8.93786 14.6623 9.85755 14.5 10.9365 14.5C12.0153 14.5 12.9698 14.6622 13.6367 14.9084C13.9721 15.0322 14.2085 15.1677 14.3519 15.2928C14.4964 15.419 14.5 15.4904 14.5 15.5Z" fill="#646464" stroke="white"/>
<path d="M14.2266 12.9734C14.2266 12.5592 13.3789 11.6573 11.885 11.6573C10.3911 11.6573 9.43457 12.1081 9.18457 12.3581" stroke="white"/>
<path d="M13.6431 9.19434C13.3931 8.94434 12.6553 8.44434 11.6378 8.44434C10.6202 8.44434 9.94988 8.94434 9.76807 9.19434" stroke="white"/>
<rect x="10.5" y="15" width="0.5" height="1" fill="#646464"/>
<path d="M12.8491 5.9516C12.4741 5.5766 11.9741 5.4516 11.3848 5.5766C10.8608 5.68776 10.25 6.0766 10 6.3266" stroke="white"/>
<rect x="6.5" y="18.5" width="8" height="2" fill="#646464" stroke="white"/>
</svg>
