<svg width="21" height="21" viewBox="0 0 21 21" fill="none" xmlns="http://www.w3.org/2000/svg">
<mask id="path-1-inside-1_1728_665" fill="white">
<path fill-rule="evenodd" clip-rule="evenodd" d="M13.0753 6.55028C13.6946 6.07112 14.0753 5.41958 14.0753 4.70175C14.0753 3.22997 12.4746 2.03687 10.5 2.03687C8.52539 2.03687 6.92466 3.22997 6.92466 4.70175C6.92466 5.40488 7.29002 6.04442 7.88695 6.52064C7.74568 7.63088 7.19886 11.0695 5.57141 14.0158C3.59998 17.5849 2.53571 19.5042 2 19.9999C2 19.9999 5.57142 20.9999 10.5 20.9999C15.4286 20.9999 19 19.9999 19 19.9999C18.4643 19.5042 17.4 17.5849 15.4285 14.0158C13.6525 10.8004 13.1344 7.91839 13.0753 6.55028Z"/>
</mask>
<path fill-rule="evenodd" clip-rule="evenodd" d="M13.0753 6.55028C13.6946 6.07112 14.0753 5.41958 14.0753 4.70175C14.0753 3.22997 12.4746 2.03687 10.5 2.03687C8.52539 2.03687 6.92466 3.22997 6.92466 4.70175C6.92466 5.40488 7.29002 6.04442 7.88695 6.52064C7.74568 7.63088 7.19886 11.0695 5.57141 14.0158C3.59998 17.5849 2.53571 19.5042 2 19.9999C2 19.9999 5.57142 20.9999 10.5 20.9999C15.4286 20.9999 19 19.9999 19 19.9999C18.4643 19.5042 17.4 17.5849 15.4285 14.0158C13.6525 10.8004 13.1344 7.91839 13.0753 6.55028Z" fill="#646464"/>
<path d="M13.0753 6.55028L12.4633 5.7594L12.0539 6.07622L12.0763 6.59345L13.0753 6.55028ZM7.88695 6.52064L8.87895 6.64686L8.94989 6.08938L8.51058 5.73892L7.88695 6.52064ZM5.57141 14.0158L4.69607 13.5323L5.57141 14.0158ZM2 19.9999L1.32083 19.2659L0.0080812 20.4806L1.73037 20.9629L2 19.9999ZM19 19.9999L19.2696 20.9629L20.9919 20.4807L19.6792 19.2659L19 19.9999ZM15.4285 14.0158L14.5532 14.4993L15.4285 14.0158ZM13.0753 4.70175C13.0753 5.04168 12.8976 5.4234 12.4633 5.7594L13.6873 7.34115C14.4915 6.71885 15.0753 5.79747 15.0753 4.70175H13.0753ZM10.5 3.03687C11.2933 3.03687 11.9726 3.27782 12.4305 3.61918C12.8884 3.96047 13.0753 4.35388 13.0753 4.70175H15.0753C15.0753 3.57784 14.4619 2.63881 13.6258 2.01561C12.7897 1.39246 11.6813 1.03687 10.5 1.03687V3.03687ZM7.92466 4.70175C7.92466 4.35388 8.11157 3.96047 8.56946 3.61918C9.02744 3.27782 9.7067 3.03687 10.5 3.03687V1.03687C9.3187 1.03687 8.21028 1.39246 7.37424 2.01561C6.53812 2.63881 5.92466 3.57784 5.92466 4.70175H7.92466ZM8.51058 5.73892C8.09518 5.40752 7.92466 5.03522 7.92466 4.70175H5.92466C5.92466 5.77455 6.48485 6.68132 7.26332 7.30235L8.51058 5.73892ZM6.44675 14.4993C8.16831 11.3826 8.73351 7.78986 8.87895 6.64686L6.89495 6.39441C6.75784 7.47191 6.22941 10.7563 4.69607 13.5323L6.44675 14.4993ZM2.67917 20.7339C2.90315 20.5267 3.12353 20.2318 3.33596 19.9167C3.55905 19.5858 3.81609 19.1672 4.10989 18.6663C4.69741 17.6646 5.46358 16.2792 6.44675 14.4993L4.69607 13.5323C3.70782 15.3214 2.95614 16.6803 2.38474 17.6544C2.09908 18.1415 1.86639 18.5187 1.67765 18.7987C1.47826 19.0944 1.36471 19.2253 1.32083 19.2659L2.67917 20.7339ZM10.5 19.9999C8.10168 19.9999 6.03246 19.7565 4.56523 19.5134C3.83229 19.3919 3.25143 19.2709 2.85701 19.1811C2.65985 19.1362 2.50943 19.0992 2.41006 19.0739C2.36039 19.0612 2.32348 19.0515 2.29989 19.0452C2.2881 19.042 2.27963 19.0397 2.27457 19.0383C2.27203 19.0376 2.27035 19.0372 2.26952 19.0369C2.26911 19.0368 2.26891 19.0368 2.26893 19.0368C2.26894 19.0368 2.269 19.0368 2.26912 19.0368C2.26917 19.0368 2.2693 19.0369 2.26933 19.0369C2.26947 19.0369 2.26963 19.037 2 19.9999C1.73037 20.9629 1.73055 20.9629 1.73075 20.963C1.73083 20.963 1.73104 20.9631 1.73121 20.9631C1.73154 20.9632 1.73193 20.9633 1.73238 20.9634C1.73326 20.9637 1.73437 20.964 1.73569 20.9644C1.73834 20.9651 1.74185 20.9661 1.74622 20.9673C1.75497 20.9697 1.76716 20.973 1.78273 20.9771C1.81386 20.9855 1.8585 20.9972 1.91611 21.0119C2.0313 21.0413 2.19841 21.0824 2.41308 21.1312C2.84232 21.2289 3.46235 21.3579 4.23833 21.4865C5.78896 21.7434 7.96973 21.9999 10.5 21.9999V19.9999ZM19 19.9999C18.7304 19.037 18.7305 19.0369 18.7307 19.0369C18.7307 19.0369 18.7308 19.0368 18.7309 19.0368C18.731 19.0368 18.7311 19.0368 18.7311 19.0368C18.7311 19.0368 18.7309 19.0368 18.7305 19.0369C18.7297 19.0372 18.728 19.0376 18.7254 19.0383C18.7204 19.0397 18.7119 19.042 18.7001 19.0452C18.6765 19.0515 18.6396 19.0612 18.5899 19.0739C18.4906 19.0992 18.3402 19.1362 18.143 19.1811C17.7486 19.2709 17.1677 19.3919 16.4348 19.5134C14.9675 19.7565 12.8983 19.9999 10.5 19.9999V21.9999C13.0303 21.9999 15.211 21.7434 16.7617 21.4865C17.5376 21.3579 18.1577 21.2289 18.5869 21.1312C18.8016 21.0824 18.9687 21.0413 19.0839 21.0119C19.1415 20.9972 19.1861 20.9855 19.2173 20.9771C19.2328 20.973 19.245 20.9697 19.2538 20.9673C19.2582 20.9661 19.2617 20.9651 19.2643 20.9644C19.2656 20.964 19.2667 20.9637 19.2676 20.9634C19.2681 20.9633 19.2685 20.9632 19.2688 20.9631C19.269 20.9631 19.2692 20.963 19.2692 20.963C19.2694 20.9629 19.2696 20.9629 19 19.9999ZM14.5532 14.4993C15.5364 16.2792 16.3026 17.6646 16.8901 18.6663C17.1839 19.1672 17.4409 19.5858 17.664 19.9167C17.8765 20.2318 18.0969 20.5267 18.3208 20.7339L19.6792 19.2659C19.6353 19.2253 19.5217 19.0944 19.3223 18.7986C19.1336 18.5187 18.9009 18.1415 18.6152 17.6544C18.0438 16.6802 17.2921 15.3214 16.3039 13.5323L14.5532 14.4993ZM12.0763 6.59345C12.1419 8.11145 12.7003 11.1448 14.5532 14.4993L16.3039 13.5323C14.6047 10.456 14.127 7.72532 14.0744 6.5071L12.0763 6.59345Z" fill="white" mask="url(#path-1-inside-1_1728_665)"/>
<path d="M9.95 7.09558C9.10429 16.2806 7.08829 19.5918 6.75 20M11.2433 7.09559C12.089 16.2806 13.9117 19.3932 14.25 19.8015" stroke="white" stroke-linecap="round"/>
<path d="M8.5 6.5C11.4 6.5 10.4 6.59375 12.5 6.5" stroke="white"/>
</svg>
