<svg width="105" height="105" viewBox="0 0 105 105" fill="none" xmlns="http://www.w3.org/2000/svg">
<mask id="path-1-inside-1_0_6" fill="white">
<path fill-rule="evenodd" clip-rule="evenodd" d="M65.22 32.8739C68.2784 30.4652 70.1591 27.1898 70.1591 23.5813C70.1591 16.1825 62.2529 10.1847 52.5 10.1847C42.7471 10.1847 34.8409 16.1825 34.8409 23.5813C34.8409 27.116 36.6455 30.3311 39.5939 32.725C38.8961 38.3064 36.1952 55.5923 28.1571 70.4037C18.4199 88.3458 10.6937 97.8152 8.04773 100.307C8.04773 100.307 28.1571 103 52.5 103C76.8429 103 96.9523 100.307 96.9523 100.307C94.3063 97.8152 86.5801 88.3458 76.8429 70.4037C68.0707 54.2397 65.512 39.7515 65.22 32.8739Z"/>
</mask>
<path fill-rule="evenodd" clip-rule="evenodd" d="M65.22 32.8739C68.2784 30.4652 70.1591 27.1898 70.1591 23.5813C70.1591 16.1825 62.2529 10.1847 52.5 10.1847C42.7471 10.1847 34.8409 16.1825 34.8409 23.5813C34.8409 27.116 36.6455 30.3311 39.5939 32.725C38.8961 38.3064 36.1952 55.5923 28.1571 70.4037C18.4199 88.3458 10.6937 97.8152 8.04773 100.307C8.04773 100.307 28.1571 103 52.5 103C76.8429 103 96.9523 100.307 96.9523 100.307C94.3063 97.8152 86.5801 88.3458 76.8429 70.4037C68.0707 54.2397 65.512 39.7515 65.22 32.8739Z" fill="#646464"/>
<path d="M65.22 32.8739L63.9825 31.3027L63.1784 31.936L63.2218 32.9587L65.22 32.8739ZM39.5939 32.725L41.5784 32.9732L41.7161 31.8719L40.8545 31.1724L39.5939 32.725ZM28.1571 70.4037L26.3993 69.4497L28.1571 70.4037ZM8.04773 100.307L6.67653 98.8512L3.61789 101.732L7.78227 102.289L8.04773 100.307ZM96.9523 100.307L97.2178 102.289L101.382 101.732L98.3235 98.8512L96.9523 100.307ZM76.8429 70.4037L78.6007 69.4497L76.8429 70.4037ZM68.1591 23.5813C68.1591 26.4489 66.6699 29.1862 63.9825 31.3027L66.4574 34.4451C69.8869 31.7441 72.1591 27.9308 72.1591 23.5813H68.1591ZM52.5 12.1847C56.9802 12.1847 60.9609 13.5647 63.7781 15.7018C66.5939 17.838 68.1591 20.6427 68.1591 23.5813H72.1591C72.1591 19.1211 69.7712 15.2276 66.1957 12.5151C62.6215 9.80364 57.7727 8.18469 52.5 8.18469V12.1847ZM36.8409 23.5813C36.8409 20.6427 38.4061 17.838 41.2219 15.7018C44.0391 13.5647 48.0199 12.1847 52.5 12.1847V8.18469C47.2273 8.18469 42.3785 9.80364 38.8043 12.5151C35.2288 15.2276 32.8409 19.1211 32.8409 23.5813H36.8409ZM40.8545 31.1724C38.2698 29.0737 36.8409 26.3912 36.8409 23.5813H32.8409C32.8409 27.8409 35.0211 31.5884 38.3332 34.2777L40.8545 31.1724ZM29.9149 71.3577C38.1364 56.2085 40.8727 38.6181 41.5784 32.9732L37.6093 32.4769C36.9195 37.9947 34.2541 54.9762 26.3993 69.4497L29.9149 71.3577ZM9.41893 101.763C12.2898 99.0593 20.1358 89.3771 29.9149 71.3577L26.3993 69.4497C16.7041 87.3144 9.09762 96.571 6.67653 98.8512L9.41893 101.763ZM52.5 101C40.3987 101 29.3433 100.331 21.3115 99.6605C17.297 99.3256 14.0411 98.9909 11.7917 98.7402C10.667 98.6149 9.79413 98.5106 9.20401 98.4379C8.90895 98.4015 8.68461 98.373 8.53484 98.3537C8.45996 98.3441 8.40372 98.3368 8.36662 98.3319C8.34807 98.3295 8.3343 98.3276 8.32537 98.3264C8.32091 98.3259 8.31766 98.3254 8.31562 98.3251C8.31461 98.325 8.31389 98.3249 8.31349 98.3249C8.31328 98.3248 8.31321 98.3248 8.31311 98.3248C8.31311 98.3248 8.31318 98.3248 8.04773 100.307C7.78227 102.289 7.78251 102.289 7.78281 102.29C7.78302 102.29 7.7834 102.29 7.78381 102.29C7.78463 102.29 7.78576 102.29 7.78719 102.29C7.79005 102.29 7.79413 102.291 7.79942 102.292C7.81002 102.293 7.82546 102.295 7.8457 102.298C7.88618 102.303 7.94583 102.311 8.02418 102.321C8.18087 102.341 8.41233 102.371 8.71469 102.408C9.31939 102.482 10.2077 102.588 11.3487 102.716C13.6304 102.97 16.9234 103.308 20.979 103.647C29.0877 104.323 40.2584 105 52.5 105V101ZM96.9523 100.307C96.6868 98.3248 96.6869 98.3248 96.6869 98.3248C96.6868 98.3248 96.6867 98.3248 96.6865 98.3249C96.6861 98.3249 96.6854 98.325 96.6844 98.3251C96.6824 98.3254 96.6791 98.3259 96.6747 98.3264C96.6657 98.3276 96.652 98.3295 96.6334 98.3319C96.5963 98.3368 96.5401 98.3441 96.4652 98.3537C96.3154 98.373 96.0911 98.4015 95.796 98.4379C95.2059 98.5106 94.333 98.6149 93.2084 98.7402C90.9589 98.9909 87.703 99.3256 83.6885 99.6605C75.6567 100.331 64.6013 101 52.5 101V105C64.7416 105 75.9123 104.323 84.021 103.647C88.0767 103.308 91.3696 102.97 93.6513 102.716C94.7923 102.588 95.6806 102.482 96.2853 102.408C96.5877 102.371 96.8192 102.341 96.9758 102.321C97.0542 102.311 97.1138 102.303 97.1543 102.298C97.1746 102.295 97.19 102.293 97.2006 102.292C97.2059 102.291 97.21 102.29 97.2128 102.29C97.2143 102.29 97.2154 102.29 97.2162 102.29C97.2166 102.29 97.217 102.29 97.2172 102.29C97.2175 102.289 97.2178 102.289 96.9523 100.307ZM75.0851 71.3577C84.8643 89.3771 92.7103 99.0593 95.5811 101.763L98.3235 98.8512C95.9024 96.571 88.2959 87.3144 78.6007 69.4497L75.0851 71.3577ZM63.2218 32.9587C63.5263 40.1304 66.1629 54.9173 75.0851 71.3577L78.6007 69.4497C69.9785 53.5621 67.4977 39.3725 67.2182 32.7891L63.2218 32.9587Z" fill="white" mask="url(#path-1-inside-1_0_6)"/>
<path d="M49.5 36C45.2714 82.2653 35.1914 98.9438 33.5 101M55.5 33C59.7286 79.2653 69.3086 97.9438 71 100" stroke="white" stroke-width="2" stroke-linecap="round"/>
<path d="M72 100.5C78.5 96 86 86.5 86 86.5" stroke="white" stroke-width="2"/>
<path d="M52.5 102C65 93 79.5 77 79.5 77" stroke="white" stroke-width="2"/>
<path d="M34.5 99.5C44.6667 94.8333 64 82 75 69.5" stroke="white" stroke-width="2"/>
<path d="M12 97.5C23 94.5 50.4 83.3 72 62.5" stroke="white" stroke-width="2"/>
<path d="M19 87.5C30 85 61 66 69.5 56.5" stroke="white" stroke-width="2"/>
<path d="M26.5 76C37 71.1667 58.6 59.6 67 50" stroke="white" stroke-width="2"/>
<path d="M32 64.5C39.6667 61.3333 59.1 51.5 65.5 43.5" stroke="white" stroke-width="2"/>
<path d="M35.5 55.5C42 52.8333 60.9 43.5 64.5 37.5" stroke="white" stroke-width="2"/>
<path d="M38.5 47C42.8333 45.8333 58.4 40.1 64 32.5" stroke="white" stroke-width="2"/>
<path d="M39.5 37C54 37 56.5 29.5 67 29" stroke="white" stroke-width="2"/>
<path d="M40.5 34.5C43.2265 31.8047 50.0513 28.1171 56 26.5C61.9487 24.8828 66.5171 25.8262 68.5 26.5" stroke="white" stroke-width="2"/>
<path d="M40.5 31.9999C40.5 31.9999 48 22.6388 53.5 20.5C62.5 17 69 21.9999 69 21.9999" stroke="white" stroke-width="2"/>
<path d="M37.5 28.5C40.5 22 45.0562 17.1614 51 15C56.5 13 64.5 12.6071 66.5 17" stroke="white" stroke-width="2"/>
</svg>
