<svg width="64" height="65" viewBox="0 0 64 65" fill="none" xmlns="http://www.w3.org/2000/svg">
<g clip-path="url(#clip0_3449_9850)">
<path d="M32 64.5C49.6731 64.5 64 50.1731 64 32.5C64 14.8269 49.6731 0.5 32 0.5C14.3269 0.5 0 14.8269 0 32.5C0 50.1731 14.3269 64.5 32 64.5Z" fill="black" fill-opacity="0.02"/>
<path d="M32 62.6181C48.6335 62.6181 62.1176 49.134 62.1176 32.5005C62.1176 15.8669 48.6335 2.38281 32 2.38281C15.3665 2.38281 1.88235 15.8669 1.88235 32.5005C1.88235 49.134 15.3665 62.6181 32 62.6181Z" fill="black" fill-opacity="0.02"/>
<path d="M32 60.7352C47.5939 60.7352 60.2353 48.0939 60.2353 32.4999C60.2353 16.906 47.5939 4.26465 32 4.26465C16.4061 4.26465 3.76471 16.906 3.76471 32.4999C3.76471 48.0939 16.4061 60.7352 32 60.7352Z" fill="black" fill-opacity="0.02"/>
<path d="M32 58.8533C46.5543 58.8533 58.3529 47.0547 58.3529 32.5004C58.3529 17.9461 46.5543 6.14746 32 6.14746C17.4457 6.14746 5.64706 17.9461 5.64706 32.5004C5.64706 47.0547 17.4457 58.8533 32 58.8533Z" fill="black" fill-opacity="0.02"/>
<path d="M32 56.9705C45.5147 56.9705 56.4706 46.0146 56.4706 32.4999C56.4706 18.9852 45.5147 8.0293 32 8.0293C18.4853 8.0293 7.52941 18.9852 7.52941 32.4999C7.52941 46.0146 18.4853 56.9705 32 56.9705Z" fill="#C4C4C4"/>
<path fill-rule="evenodd" clip-rule="evenodd" d="M23.5294 21.2056C23.5294 20.166 24.3721 19.3232 25.4118 19.3232H38.5882C39.6279 19.3232 40.4706 20.166 40.4706 21.2056V43.7938C40.4706 44.8335 39.6279 45.6762 38.5882 45.6762H36.7059V41.9115H37.1765C37.9562 41.9115 38.5882 41.2794 38.5882 40.4997C38.5882 39.72 37.9562 39.0879 37.1765 39.0879H26.8235C26.0439 39.0879 25.4118 39.72 25.4118 40.4997C25.4118 41.2794 26.0439 41.9115 26.8235 41.9115H27.2941V45.6762H25.4118C24.3721 45.6762 23.5294 44.8335 23.5294 43.7938V21.2056ZM28.2353 23.0879H33.4118C35.491 23.0879 37.1765 24.7735 37.1765 26.8527C37.1765 28.9318 35.491 30.6174 33.4118 30.6174H30.5882V34.3821H28.2353V23.0879ZM33.4475 25.4409H30.5882V28.2644H33.4475C34.2131 28.2644 34.8392 27.6542 34.8588 26.8889C34.8792 26.0952 34.2414 25.4409 33.4475 25.4409ZM34.8235 40.9703H29.1765V47.5585H34.8235V40.9703Z" fill="white"/>
</g>
<defs>
<clipPath id="clip0_3449_9850">
<rect width="64" height="64" fill="white" transform="translate(0 0.5)"/>
</clipPath>
</defs>
</svg>
