<svg width="64" height="65" viewBox="0 0 64 65" fill="none" xmlns="http://www.w3.org/2000/svg">
<path d="M32 62.5C48.5685 62.5 62 49.0685 62 32.5C62 15.9315 48.5685 2.5 32 2.5C15.4315 2.5 2 15.9315 2 32.5C2 49.0685 15.4315 62.5 32 62.5Z" fill="black" fill-opacity="0.02"/>
<path d="M32 61.5C48.0163 61.5 61 48.5163 61 32.5C61 16.4837 48.0163 3.5 32 3.5C15.9837 3.5 3 16.4837 3 32.5C3 48.5163 15.9837 61.5 32 61.5Z" fill="black" fill-opacity="0.02"/>
<path d="M32 60.5C47.464 60.5 60 47.964 60 32.5C60 17.036 47.464 4.5 32 4.5C16.536 4.5 4 17.036 4 32.5C4 47.964 16.536 60.5 32 60.5Z" fill="black" fill-opacity="0.02"/>
<path d="M32 59.5C46.9117 59.5 59 47.4117 59 32.5C59 17.5883 46.9117 5.5 32 5.5C17.0883 5.5 5 17.5883 5 32.5C5 47.4117 17.0883 59.5 32 59.5Z" fill="black" fill-opacity="0.02"/>
<path d="M32 58.5C46.3594 58.5 58 46.8594 58 32.5C58 18.1406 46.3594 6.5 32 6.5C17.6406 6.5 6 18.1406 6 32.5C6 46.8594 17.6406 58.5 32 58.5Z" fill="#C4C4C4"/>
<path fill-rule="evenodd" clip-rule="evenodd" d="M28.2003 24.501C29.5929 24.501 30.929 25.0623 31.9134 26.0623L36.0108 30.5237H43.0837L48.7501 24.501H54.0001L47.7973 35.0023C46.7446 36.7863 44.9308 37.969 42.8951 38.1983L25.6357 40.1463C23.6538 40.3703 21.6798 39.6676 20.2702 38.2343L17.0102 35.5029L17.01 35.5L14 35.5004V32.5004H17.0102L20.9409 26.8756C21.9161 25.3916 23.5554 24.501 25.3102 24.501H28.2003Z" fill="white"/>
<path fill-rule="evenodd" clip-rule="evenodd" d="M12 40.5H15V27.5H12V40.5Z" fill="white"/>
<path fill-rule="evenodd" clip-rule="evenodd" d="M28.4399 26.4893C29.1369 26.4893 29.8049 26.7706 30.2971 27.2706L35.0629 32.5001H19.5277L22.385 27.7426C22.8654 26.9626 23.7067 26.4893 24.611 26.4893H28.4399Z" fill="#C4C4C4"/>
</svg>
