<svg width="64" height="65" viewBox="0 0 64 65" fill="none" xmlns="http://www.w3.org/2000/svg">
<g clip-path="url(#clip0_3449_9271)">
<path d="M32 64.5C49.6731 64.5 64 50.1731 64 32.5C64 14.8269 49.6731 0.5 32 0.5C14.3269 0.5 0 14.8269 0 32.5C0 50.1731 14.3269 64.5 32 64.5Z" fill="black" fill-opacity="0.02"/>
<path d="M32 62.8996C48.7894 62.8996 62.4 49.2891 62.4 32.4996C62.4 15.7102 48.7894 2.09961 32 2.09961C15.2105 2.09961 1.59998 15.7102 1.59998 32.4996C1.59998 49.2891 15.2105 62.8996 32 62.8996Z" fill="black" fill-opacity="0.02"/>
<path d="M32 61.3002C47.9058 61.3002 60.8 48.406 60.8 32.5002C60.8 16.5944 47.9058 3.7002 32 3.7002C16.0942 3.7002 3.20001 16.5944 3.20001 32.5002C3.20001 48.406 16.0942 61.3002 32 61.3002Z" fill="black" fill-opacity="0.02"/>
<path d="M32 59.6998C47.0221 59.6998 59.2 47.5219 59.2 32.4998C59.2 17.4777 47.0221 5.2998 32 5.2998C16.9778 5.2998 4.79999 17.4777 4.79999 32.4998C4.79999 47.5219 16.9778 59.6998 32 59.6998Z" fill="black" fill-opacity="0.02"/>
<path d="M32 58.1004C46.1385 58.1004 57.6 46.6389 57.6 32.5004C57.6 18.3619 46.1385 6.90039 32 6.90039C17.8615 6.90039 6.40002 18.3619 6.40002 32.5004C6.40002 46.6389 17.8615 58.1004 32 58.1004Z" fill="#C4C4C4"/>
<path fill-rule="evenodd" clip-rule="evenodd" d="M25.1455 22.3179L24.8 23.7H20.8C19.4745 23.7 18.4 24.7745 18.4 26.1V40.5C18.4 41.8255 19.4745 42.9 20.8 42.9H43.2C44.5255 42.9 45.6 41.8255 45.6 40.5V26.1C45.6 24.7745 44.5255 23.7 43.2 23.7H39.2L38.8545 22.3179C38.5874 21.2495 37.6275 20.5 36.5262 20.5H27.4739C26.3726 20.5 25.4127 21.2495 25.1455 22.3179ZM32 39.7C35.5347 39.7 38.4 36.8346 38.4 33.3C38.4 29.7654 35.5347 26.9 32 26.9C28.4654 26.9 25.6 29.7654 25.6 33.3C25.6 36.8346 28.4654 39.7 32 39.7Z" fill="white"/>
</g>
<defs>
<clipPath id="clip0_3449_9271">
<rect width="64" height="64" fill="white" transform="translate(0 0.5)"/>
</clipPath>
</defs>
</svg>
