<svg width="64" height="65" viewBox="0 0 64 65" fill="none" xmlns="http://www.w3.org/2000/svg">
<path d="M32 62.5C48.5685 62.5 62 49.0685 62 32.5C62 15.9315 48.5685 2.5 32 2.5C15.4315 2.5 2 15.9315 2 32.5C2 49.0685 15.4315 62.5 32 62.5Z" fill="black" fill-opacity="0.02"/>
<path d="M32 61.5C48.0163 61.5 61 48.5163 61 32.5C61 16.4837 48.0163 3.5 32 3.5C15.9837 3.5 3 16.4837 3 32.5C3 48.5163 15.9837 61.5 32 61.5Z" fill="black" fill-opacity="0.02"/>
<path d="M32 60.5C47.464 60.5 60 47.964 60 32.5C60 17.036 47.464 4.5 32 4.5C16.536 4.5 4 17.036 4 32.5C4 47.964 16.536 60.5 32 60.5Z" fill="black" fill-opacity="0.02"/>
<path d="M32 59.5C46.9117 59.5 59 47.4117 59 32.5C59 17.5883 46.9117 5.5 32 5.5C17.0883 5.5 5 17.5883 5 32.5C5 47.4117 17.0883 59.5 32 59.5Z" fill="black" fill-opacity="0.02"/>
<path d="M32 58.5C46.3594 58.5 58 46.8594 58 32.5C58 18.1406 46.3594 6.5 32 6.5C17.6406 6.5 6 18.1406 6 32.5C6 46.8594 17.6406 58.5 32 58.5Z" fill="#C4C4C4"/>
<path fill-rule="evenodd" clip-rule="evenodd" d="M24.2 39.6426C21.3296 39.6426 19 42.0746 19 45.0712C19 48.0677 21.3296 50.4997 24.2 50.4997C27.0704 50.4997 29.4 48.0677 29.4 45.0712C29.4 42.0746 27.0704 39.6426 24.2 39.6426ZM24.2 42.3569C25.6352 42.3569 26.8 43.5729 26.8 45.0712C26.8 46.5694 25.6352 47.7854 24.2 47.7854C22.7648 47.7854 21.6 46.5694 21.6 45.0712C21.6 43.5729 22.7648 42.3569 24.2 42.3569Z" fill="white"/>
<path fill-rule="evenodd" clip-rule="evenodd" d="M39.8 39.6426C36.9296 39.6426 34.6 42.0746 34.6 45.0712C34.6 48.0677 36.9296 50.4997 39.8 50.4997C42.6704 50.4997 45 48.0677 45 45.0712C45 42.0746 42.6704 39.6426 39.8 39.6426ZM39.8 42.3569C41.2352 42.3569 42.4 43.5729 42.4 45.0712C42.4 46.5694 41.2352 47.7854 39.8 47.7854C38.3648 47.7854 37.2 46.5694 37.2 45.0712C37.2 43.5729 38.3648 42.3569 39.8 42.3569Z" fill="white"/>
<path fill-rule="evenodd" clip-rule="evenodd" d="M26.8 45.0714L39.8 12.5L42.4 20.6429L37.2 36.9286H33.3L28.893 47.4139L26.8 45.0714Z" fill="white"/>
<path fill-rule="evenodd" clip-rule="evenodd" d="M37.2 45.0714L24.2 12.5L21.6 20.6429L26.8 36.9286H30.7L35.107 47.4139L37.2 45.0714Z" fill="white"/>
</svg>
