<svg width="64" height="65" viewBox="0 0 64 65" fill="none" xmlns="http://www.w3.org/2000/svg">
<path d="M32 62.5C48.5685 62.5 62 49.0685 62 32.5C62 15.9315 48.5685 2.5 32 2.5C15.4315 2.5 2 15.9315 2 32.5C2 49.0685 15.4315 62.5 32 62.5Z" fill="black" fill-opacity="0.02"/>
<path d="M32 61.5C48.0163 61.5 61 48.5163 61 32.5C61 16.4837 48.0163 3.5 32 3.5C15.9837 3.5 3 16.4837 3 32.5C3 48.5163 15.9837 61.5 32 61.5Z" fill="black" fill-opacity="0.02"/>
<path d="M32 60.5C47.464 60.5 60 47.964 60 32.5C60 17.036 47.464 4.5 32 4.5C16.536 4.5 4 17.036 4 32.5C4 47.964 16.536 60.5 32 60.5Z" fill="black" fill-opacity="0.02"/>
<path d="M32 59.5C46.9117 59.5 59 47.4117 59 32.5C59 17.5883 46.9117 5.5 32 5.5C17.0883 5.5 5 17.5883 5 32.5C5 47.4117 17.0883 59.5 32 59.5Z" fill="black" fill-opacity="0.02"/>
<path d="M32 58.5C46.3594 58.5 58 46.8594 58 32.5C58 18.1406 46.3594 6.5 32 6.5C17.6406 6.5 6 18.1406 6 32.5C6 46.8594 17.6406 58.5 32 58.5Z" fill="#C4C4C4"/>
<path fill-rule="evenodd" clip-rule="evenodd" d="M39 22.5C39 26.3652 35.8652 29.5 32 29.5C28.1348 29.5 25 26.3652 25 22.5C25 18.6348 28.1348 15.5 32 15.5C35.8652 15.5 39 18.6348 39 22.5Z" fill="white"/>
<path fill-rule="evenodd" clip-rule="evenodd" d="M46 31.5C46 35.3652 42.8652 38.5 39 38.5C35.1348 38.5 32 35.3652 32 31.5C32 27.6348 35.1348 24.5 39 24.5C42.8652 24.5 46 27.6348 46 31.5Z" fill="white"/>
<path fill-rule="evenodd" clip-rule="evenodd" d="M32 31.5C32 35.3652 28.8652 38.5 25 38.5C21.1348 38.5 18 35.3652 18 31.5C18 27.6348 21.1348 24.5 25 24.5C28.8652 24.5 32 27.6348 32 31.5Z" fill="white"/>
<path fill-rule="evenodd" clip-rule="evenodd" d="M37.5 48.5H27.5C26.12 48.5 25 49.396 25 50.5H40C40 49.396 38.88 48.5 37.5 48.5Z" fill="white"/>
<path fill-rule="evenodd" clip-rule="evenodd" d="M30 50.5H34V27.5H30V50.5Z" fill="white"/>
</svg>
