<svg width="64" height="65" viewBox="0 0 64 65" fill="none" xmlns="http://www.w3.org/2000/svg">
<g clip-path="url(#clip0_3449_9983)">
<g filter="url(#filter0_d_3449_9983)">
<path d="M32 58.935C46.5995 58.935 58.4348 47.0997 58.4348 32.5002C58.4348 17.9007 46.5995 6.06543 32 6.06543C17.4005 6.06543 5.56525 17.9007 5.56525 32.5002C5.56525 47.0997 17.4005 58.935 32 58.935Z" fill="#C4C4C4"/>
</g>
<path fill-rule="evenodd" clip-rule="evenodd" d="M22.2609 17.8913C22.2609 15.9704 23.8181 14.4131 25.7391 14.4131H38.2608C40.1818 14.4131 41.7391 15.9704 41.7391 17.8913V19.9783H22.2609V17.8913ZM13.913 26.2392C13.913 24.3182 15.4703 22.7609 17.3913 22.7609H46.6087C48.5296 22.7609 50.0869 24.3182 50.0869 26.2392V35.9783C50.0869 37.8993 48.5296 39.4566 46.6087 39.4566H44.5217V36.674C44.5217 35.1372 43.2759 33.8913 41.7391 33.8913H22.2609C20.7241 33.8913 19.4782 35.1372 19.4782 36.674V39.4566H17.3913C15.4703 39.4566 13.913 37.8993 13.913 35.9783V26.2392ZM16.6956 26.2392C16.6956 25.855 17.0071 25.5435 17.3913 25.5435H21.5652C21.9494 25.5435 22.2609 25.855 22.2609 26.2392V27.6305C22.2609 28.0147 21.9494 28.3261 21.5652 28.3261H17.3913C17.0071 28.3261 16.6956 28.0147 16.6956 27.6305V26.2392ZM41.7391 36.674H22.2609V50.587H41.7391V36.674Z" fill="white"/>
</g>
<defs>
<filter id="filter0_d_3449_9983" x="-1.43475" y="-0.93457" width="66.8696" height="66.8691" filterUnits="userSpaceOnUse" color-interpolation-filters="sRGB">
<feFlood flood-opacity="0" result="BackgroundImageFix"/>
<feColorMatrix in="SourceAlpha" type="matrix" values="0 0 0 0 0 0 0 0 0 0 0 0 0 0 0 0 0 0 127 0" result="hardAlpha"/>
<feOffset/>
<feGaussianBlur stdDeviation="3.5"/>
<feColorMatrix type="matrix" values="0 0 0 0 0 0 0 0 0 0 0 0 0 0 0 0 0 0 0.15 0"/>
<feBlend mode="normal" in2="BackgroundImageFix" result="effect1_dropShadow_3449_9983"/>
<feBlend mode="normal" in="SourceGraphic" in2="effect1_dropShadow_3449_9983" result="shape"/>
</filter>
<clipPath id="clip0_3449_9983">
<rect width="64" height="64" fill="white" transform="translate(0 0.5)"/>
</clipPath>
</defs>
</svg>
