<svg width="64" height="65" viewBox="0 0 64 65" fill="none" xmlns="http://www.w3.org/2000/svg">
<path d="M32 62.5C48.5685 62.5 62 49.0685 62 32.5C62 15.9315 48.5685 2.5 32 2.5C15.4315 2.5 2 15.9315 2 32.5C2 49.0685 15.4315 62.5 32 62.5Z" fill="black" fill-opacity="0.02"/>
<path d="M32 61.5C48.0163 61.5 61 48.5163 61 32.5C61 16.4837 48.0163 3.5 32 3.5C15.9837 3.5 3 16.4837 3 32.5C3 48.5163 15.9837 61.5 32 61.5Z" fill="black" fill-opacity="0.02"/>
<path d="M32 60.5C47.464 60.5 60 47.964 60 32.5C60 17.036 47.464 4.5 32 4.5C16.536 4.5 4 17.036 4 32.5C4 47.964 16.536 60.5 32 60.5Z" fill="black" fill-opacity="0.02"/>
<path d="M32 59.5C46.9117 59.5 59 47.4117 59 32.5C59 17.5883 46.9117 5.5 32 5.5C17.0883 5.5 5 17.5883 5 32.5C5 47.4117 17.0883 59.5 32 59.5Z" fill="black" fill-opacity="0.02"/>
<path d="M32 58.5C46.3594 58.5 58 46.8594 58 32.5C58 18.1406 46.3594 6.5 32 6.5C17.6406 6.5 6 18.1406 6 32.5C6 46.8594 17.6406 58.5 32 58.5Z" fill="#C4C4C4"/>
<path fill-rule="evenodd" clip-rule="evenodd" d="M42 27.9762C42 33.0225 37.5225 37.5 32.4762 37.5C26.4775 37.5 22 33.0225 22 27.9762C22 21.9775 26.4775 17.5 32.4762 17.5C37.5225 17.5 42 21.9775 42 27.9762Z" fill="white"/>
<path fill-rule="evenodd" clip-rule="evenodd" d="M41 18.5C43.7587 20.6862 45 23.6552 45 27.5C45 35.0142 39.4698 40.5 32 40.5C28.0213 40.5 24.402 38.9315 22 35.5L20 37.5C22.8995 41.2701 27.2871 43.5 32 43.5C40.9263 43.5 48 36.4645 48 27.5C48 23.3534 46.1473 19.3571 43 16.5L41 18.5Z" fill="white"/>
<path fill-rule="evenodd" clip-rule="evenodd" d="M37 46.5H27C25.1947 46.5 24 48.292 24 50.5H40C40 48.292 38.8053 46.5 37 46.5Z" fill="white"/>
<path fill-rule="evenodd" clip-rule="evenodd" d="M30 50.5H34V42.5H30V50.5Z" fill="white"/>
</svg>
