<svg width="116" height="116" viewBox="0 0 116 116" fill="none" xmlns="http://www.w3.org/2000/svg">
<g clip-path="url(#clip0_17_19)">
<mask id="mask0_17_19" style="mask-type:luminance" maskUnits="userSpaceOnUse" x="0" y="0" width="116" height="116">
<path d="M116 0H0V116H116V0Z" fill="white"/>
</mask>
<g mask="url(#mask0_17_19)">
<mask id="mask1_17_19" style="mask-type:luminance" maskUnits="userSpaceOnUse" x="0" y="0" width="116" height="116">
<path d="M116 0H0V116H116V0Z" fill="white"/>
</mask>
<g mask="url(#mask1_17_19)">
<path d="M58 116C90.0325 116 116 90.0325 116 58C116 25.9675 90.0325 0 58 0C25.9675 0 0 25.9675 0 58C0 90.0325 25.9675 116 58 116Z" fill="black" fill-opacity="0.02"/>
<path d="M58 114C88.9279 114 114 88.9279 114 58C114 27.0721 88.9279 2 58 2C27.0721 2 2 27.0721 2 58C2 88.9279 27.0721 114 58 114Z" fill="black" fill-opacity="0.02"/>
<path d="M58 112C87.8234 112 112 87.8234 112 58C112 28.1766 87.8234 4 58 4C28.1766 4 4 28.1766 4 58C4 87.8234 28.1766 112 58 112Z" fill="black" fill-opacity="0.02"/>
<path d="M58 110C86.7188 110 110 86.7188 110 58C110 29.2812 86.7188 6 58 6C29.2812 6 6 29.2812 6 58C6 86.7188 29.2812 110 58 110Z" fill="black" fill-opacity="0.02"/>
<path d="M58 108C85.6142 108 108 85.6142 108 58C108 30.3858 85.6142 8 58 8C30.3858 8 8 30.3858 8 58C8 85.6142 30.3858 108 58 108Z" fill="#F7B21B"/>
</g>
<path fill-rule="evenodd" clip-rule="evenodd" d="M40.0083 76C35.2483 76 33.0083 73.76 33.0083 69V66L39.0083 58V35L58.0083 26V42C58.0083 52.045 65.6945 60 76.0083 60C80.5688 60 83.0083 63.24 83.0083 67V69C83.0083 73.76 80.7683 76 76.0083 76H40.0083Z" fill="white"/>
<path fill-rule="evenodd" clip-rule="evenodd" d="M41.4253 83.0389C41.4253 85.5242 39.4262 87.5389 36.9601 87.5389C34.494 87.5389 32.4949 85.5242 32.4949 83.0389C32.4949 80.5537 34.494 78.5389 36.9601 78.5389C39.4262 78.5389 41.4253 80.5537 41.4253 83.0389ZM53.0347 83.0389C53.0347 85.5242 51.0355 87.5389 48.5695 87.5389C46.1034 87.5389 44.1042 85.5242 44.1042 83.0389C44.1042 80.5537 46.1034 78.5389 48.5695 78.5389C51.0355 78.5389 53.0347 80.5537 53.0347 83.0389ZM66.4305 87.5389C68.8966 87.5389 70.8958 85.5242 70.8958 83.0389C70.8958 80.5537 68.8966 78.5389 66.4305 78.5389C63.9645 78.5389 61.9653 80.5537 61.9653 83.0389C61.9653 85.5242 63.9645 87.5389 66.4305 87.5389ZM82.5051 83.0389C82.5051 85.5242 80.506 87.5389 78.0399 87.5389C75.5739 87.5389 73.5747 85.5242 73.5747 83.0389C73.5747 80.5537 75.5739 78.5389 78.0399 78.5389C80.506 78.5389 82.5051 80.5537 82.5051 83.0389Z" fill="white"/>
</g>
</g>
<defs>
<clipPath id="clip0_17_19">
<rect width="116" height="116" fill="white"/>
</clipPath>
</defs>
</svg>
