<svg width="14" height="14" viewBox="0 0 14 14" fill="none" xmlns="http://www.w3.org/2000/svg">
<path fill-rule="evenodd" clip-rule="evenodd" d="M4 6C2.896 6 2 5.104 2 4C2 2.896 2.896 2 4 2H6V4C6 5.104 5.104 6 4 6Z" stroke="white" stroke-width="2"/>
<path fill-rule="evenodd" clip-rule="evenodd" d="M11 6C9.896 6 9 5.104 9 4V2H11C12.104 2 13 2.896 13 4C13 5.104 12.104 6 11 6Z" stroke="white" stroke-width="2"/>
<path fill-rule="evenodd" clip-rule="evenodd" d="M5 2V12H6V4H7V12H8V4H9V12H10V2H5Z" stroke="white" stroke-width="2"/>
<path fill-rule="evenodd" clip-rule="evenodd" d="M4 6C2.896 6 2 5.104 2 4C2 2.896 2.896 2 4 2H6V4C6 5.104 5.104 6 4 6Z" fill="#7A7A79"/>
<path fill-rule="evenodd" clip-rule="evenodd" d="M11 6C9.896 6 9 5.104 9 4V2H11C12.104 2 13 2.896 13 4C13 5.104 12.104 6 11 6Z" fill="#7A7A79"/>
<path fill-rule="evenodd" clip-rule="evenodd" d="M5 2V12H6V4H7V12H8V4H9V12H10V2H5Z" fill="#7A7A79"/>
</svg>
