<svg width="64" height="65" viewBox="0 0 64 65" fill="none" xmlns="http://www.w3.org/2000/svg">
<path d="M32 62.5C48.5685 62.5 62 49.0685 62 32.5C62 15.9315 48.5685 2.5 32 2.5C15.4315 2.5 2 15.9315 2 32.5C2 49.0685 15.4315 62.5 32 62.5Z" fill="black" fill-opacity="0.02"/>
<path d="M32 61.5C48.0163 61.5 61 48.5163 61 32.5C61 16.4837 48.0163 3.5 32 3.5C15.9837 3.5 3 16.4837 3 32.5C3 48.5163 15.9837 61.5 32 61.5Z" fill="black" fill-opacity="0.02"/>
<path d="M32 60.5C47.464 60.5 60 47.964 60 32.5C60 17.036 47.464 4.5 32 4.5C16.536 4.5 4 17.036 4 32.5C4 47.964 16.536 60.5 32 60.5Z" fill="black" fill-opacity="0.02"/>
<path d="M32 59.5C46.9117 59.5 59 47.4117 59 32.5C59 17.5883 46.9117 5.5 32 5.5C17.0883 5.5 5 17.5883 5 32.5C5 47.4117 17.0883 59.5 32 59.5Z" fill="black" fill-opacity="0.02"/>
<path d="M32 58.5C46.3594 58.5 58 46.8594 58 32.5C58 18.1406 46.3594 6.5 32 6.5C17.6406 6.5 6 18.1406 6 32.5C6 46.8594 17.6406 58.5 32 58.5Z" fill="#C4C4C4"/>
<path fill-rule="evenodd" clip-rule="evenodd" d="M38.4286 45.3571C30.6179 45.3571 24.2857 39.025 24.2857 31.2143C24.2857 23.4036 30.6179 17.0714 38.4286 17.0714C39.6744 17.0714 40.8753 17.2489 42.026 17.551C39.1601 15.625 35.7119 14.5 32 14.5C21.7143 14.5 14 22.2143 14 32.5C14 42.7857 21.7143 50.5 32 50.5C38.2614 50.5 43.772 47.2999 46.9966 42.4476C44.6167 44.2656 41.6544 45.3571 38.4286 45.3571Z" fill="white"/>
<path fill-rule="evenodd" clip-rule="evenodd" d="M42.2857 21.8848L44.6694 26.7152L50 27.4892L46.1429 31.2499L47.0532 36.5586L42.2857 34.0515L37.5183 36.5586L38.4286 31.2499L34.5714 27.4892L39.902 26.7152L42.2857 21.8848Z" fill="white"/>
</svg>
