<svg width="64" height="65" viewBox="0 0 64 65" fill="none" xmlns="http://www.w3.org/2000/svg">
<path d="M32 62.5C48.5685 62.5 62 49.0685 62 32.5C62 15.9315 48.5685 2.5 32 2.5C15.4315 2.5 2 15.9315 2 32.5C2 49.0685 15.4315 62.5 32 62.5Z" fill="black" fill-opacity="0.02"/>
<path d="M32 61.5C48.0163 61.5 61 48.5163 61 32.5C61 16.4837 48.0163 3.5 32 3.5C15.9837 3.5 3 16.4837 3 32.5C3 48.5163 15.9837 61.5 32 61.5Z" fill="black" fill-opacity="0.02"/>
<path d="M32 60.5C47.464 60.5 60 47.964 60 32.5C60 17.036 47.464 4.5 32 4.5C16.536 4.5 4 17.036 4 32.5C4 47.964 16.536 60.5 32 60.5Z" fill="black" fill-opacity="0.02"/>
<path d="M32 59.5C46.9117 59.5 59 47.4117 59 32.5C59 17.5883 46.9117 5.5 32 5.5C17.0883 5.5 5 17.5883 5 32.5C5 47.4117 17.0883 59.5 32 59.5Z" fill="black" fill-opacity="0.02"/>
<path d="M32 58.5C46.3594 58.5 58 46.8594 58 32.5C58 18.1406 46.3594 6.5 32 6.5C17.6406 6.5 6 18.1406 6 32.5C6 46.8594 17.6406 58.5 32 58.5Z" fill="#C4C4C4"/>
<path fill-rule="evenodd" clip-rule="evenodd" d="M25.5714 37.6663C25.5714 35.5491 23.8447 33.833 21.7143 33.833C19.5839 33.833 17.8571 35.5491 17.8571 37.6663C17.8571 39.7836 19.5839 41.4997 21.7143 41.4997C23.8447 41.4997 25.5714 39.7836 25.5714 37.6663Z" fill="white"/>
<path fill-rule="evenodd" clip-rule="evenodd" d="M46.1429 37.6663C46.1429 35.5491 44.4162 33.833 42.2857 33.833C40.1553 33.833 38.4286 35.5491 38.4286 37.6663C38.4286 39.7836 40.1553 41.4997 42.2857 41.4997C44.4162 41.4997 46.1429 39.7836 46.1429 37.6663Z" fill="white"/>
<path fill-rule="evenodd" clip-rule="evenodd" d="M19.334 27.7976C16.184 28.8416 13.9994 31.9485 13.9994 35.2477V37.3893H16.2468C16.2468 34.5667 18.896 32.2781 21.7361 32.2781C24.5776 32.2781 26.9922 34.5667 26.9922 37.3893L34.3644 37.4919H37.032C37.032 34.6693 39.4449 32.2781 42.2851 32.2781C45.1265 32.2781 47.4279 34.5667 47.4279 37.3893H49.9994V27.5396H41.9664V24.5039H39.0864L31.9994 32.5H28.9491V27.5396L26.0293 24.5039L19.334 27.7976Z" fill="white"/>
<path fill-rule="evenodd" clip-rule="evenodd" d="M25.8571 22.0553L27.6581 20.0967L32.9754 25.2609L31 27.1664L25.8571 22.0553Z" fill="white"/>
</svg>
