<svg width="64" height="65" viewBox="0 0 64 65" fill="none" xmlns="http://www.w3.org/2000/svg">
<path d="M32 62.5C48.5685 62.5 62 49.0685 62 32.5C62 15.9315 48.5685 2.5 32 2.5C15.4315 2.5 2 15.9315 2 32.5C2 49.0685 15.4315 62.5 32 62.5Z" fill="black" fill-opacity="0.02"/>
<path d="M32 61.5C48.0163 61.5 61 48.5163 61 32.5C61 16.4837 48.0163 3.5 32 3.5C15.9837 3.5 3 16.4837 3 32.5C3 48.5163 15.9837 61.5 32 61.5Z" fill="black" fill-opacity="0.02"/>
<path d="M32 60.5C47.464 60.5 60 47.964 60 32.5C60 17.036 47.464 4.5 32 4.5C16.536 4.5 4 17.036 4 32.5C4 47.964 16.536 60.5 32 60.5Z" fill="black" fill-opacity="0.02"/>
<path d="M32 59.5C46.9117 59.5 59 47.4117 59 32.5C59 17.5883 46.9117 5.5 32 5.5C17.0883 5.5 5 17.5883 5 32.5C5 47.4117 17.0883 59.5 32 59.5Z" fill="black" fill-opacity="0.02"/>
<path d="M32 58.5C46.3594 58.5 58 46.8594 58 32.5C58 18.1406 46.3594 6.5 32 6.5C17.6406 6.5 6 18.1406 6 32.5C6 46.8594 17.6406 58.5 32 58.5Z" fill="#C4C4C4"/>
<path fill-rule="evenodd" clip-rule="evenodd" d="M25 17.5C25 19.7093 23.2093 21.5 21 21.5C18.7907 21.5 17 19.7093 17 17.5C17 15.2907 18.7907 13.5 21 13.5C23.2093 13.5 25 15.2907 25 17.5Z" fill="white"/>
<path fill-rule="evenodd" clip-rule="evenodd" d="M23.734 22.8601L25.2027 21.2865C26.1815 20.2378 27.768 20.2378 28.7467 21.2865L37 30.1293L31.9874 35.5L23.734 26.6572C22.7553 25.6085 22.7553 23.9087 23.734 22.8601Z" fill="white"/>
<path fill-rule="evenodd" clip-rule="evenodd" d="M14 43.5H50V38.5H14V43.5Z" fill="white"/>
<path fill-rule="evenodd" clip-rule="evenodd" d="M19 43.5H14V48.5H15.237C16.617 48.5 19 46.1836 19 44.8036V43.5Z" fill="white"/>
<path fill-rule="evenodd" clip-rule="evenodd" d="M50 43.5H45V44.7634C45 46.1434 47.4201 48.5 48.8001 48.5H50V43.5Z" fill="white"/>
<path fill-rule="evenodd" clip-rule="evenodd" d="M32 35.5H50V30.5H32V35.5Z" fill="white"/>
<path fill-rule="evenodd" clip-rule="evenodd" d="M24 40.5L13 28.1667L15.5 24.5L28.9848 38.6337L24 40.5Z" fill="white"/>
</svg>
