<svg width="64" height="65" viewBox="0 0 64 65" fill="none" xmlns="http://www.w3.org/2000/svg">
<path d="M32 62.5C48.5685 62.5 62 49.0685 62 32.5C62 15.9315 48.5685 2.5 32 2.5C15.4315 2.5 2 15.9315 2 32.5C2 49.0685 15.4315 62.5 32 62.5Z" fill="black" fill-opacity="0.02"/>
<path d="M32 61.5C48.0163 61.5 61 48.5163 61 32.5C61 16.4837 48.0163 3.5 32 3.5C15.9837 3.5 3 16.4837 3 32.5C3 48.5163 15.9837 61.5 32 61.5Z" fill="black" fill-opacity="0.02"/>
<path d="M32 60.5C47.464 60.5 60 47.964 60 32.5C60 17.036 47.464 4.5 32 4.5C16.536 4.5 4 17.036 4 32.5C4 47.964 16.536 60.5 32 60.5Z" fill="black" fill-opacity="0.02"/>
<path d="M32 59.5C46.9117 59.5 59 47.4117 59 32.5C59 17.5883 46.9117 5.5 32 5.5C17.0883 5.5 5 17.5883 5 32.5C5 47.4117 17.0883 59.5 32 59.5Z" fill="black" fill-opacity="0.02"/>
<path d="M32 58.5C46.3594 58.5 58 46.8594 58 32.5C58 18.1406 46.3594 6.5 32 6.5C17.6406 6.5 6 18.1406 6 32.5C6 46.8594 17.6406 58.5 32 58.5Z" fill="#C4C4C4"/>
<path fill-rule="evenodd" clip-rule="evenodd" d="M22 23.5H25V15.5H22V23.5Z" fill="white"/>
<path fill-rule="evenodd" clip-rule="evenodd" d="M31 23.5H34V15.5H31V23.5Z" fill="white"/>
<path fill-rule="evenodd" clip-rule="evenodd" d="M31.8571 39.5H24.1429C21.304 39.5 19 37.1107 19 34.1667V23.5H37V34.1667C37 37.1107 34.696 39.5 31.8571 39.5Z" fill="white"/>
<path fill-rule="evenodd" clip-rule="evenodd" d="M42.4009 23.5V42.0714C41.6294 44.5704 40.1246 46.1656 37.8 46.9085H34.2C31.8754 46.1656 30.3642 44.5704 29.5927 42.0714V39.0431L27 38.3571V42.0714C27 46.0082 30.4534 49.5 34.2 49.5H37.8C41.5466 49.5 45 46.0082 45 42.0714V23.5H42.4009Z" fill="white"/>
</svg>
