<svg width="64" height="65" viewBox="0 0 64 65" fill="none" xmlns="http://www.w3.org/2000/svg">
<g clip-path="url(#clip0_3449_10119)">
<g filter="url(#filter0_d_3449_10119)">
<path d="M32 58.935C46.5995 58.935 58.4348 47.0997 58.4348 32.5002C58.4348 17.9007 46.5995 6.06543 32 6.06543C17.4005 6.06543 5.56522 17.9007 5.56522 32.5002C5.56522 47.0997 17.4005 58.935 32 58.935Z" fill="#C4C4C4"/>
</g>
<path fill-rule="evenodd" clip-rule="evenodd" d="M23.6522 24.1525C25.9574 24.1525 27.8261 22.2838 27.8261 19.9786C27.8261 17.6734 25.9574 15.8047 23.6522 15.8047C21.347 15.8047 19.4783 17.6734 19.4783 19.9786C19.4783 22.2838 21.347 24.1525 23.6522 24.1525ZM40.3478 24.1525C42.653 24.1525 44.5217 22.2838 44.5217 19.9786C44.5217 17.6734 42.653 15.8047 40.3478 15.8047C38.0426 15.8047 36.1739 17.6734 36.1739 19.9786C36.1739 22.2838 38.0426 24.1525 40.3478 24.1525ZM20.4744 47.6152L15.9526 29.5282C15.6233 28.2111 16.6196 26.9351 17.9773 26.9351H29.327C30.6848 26.9351 31.681 28.2111 31.3517 29.5282L26.83 47.6152C26.5977 48.5442 25.7629 49.196 24.8053 49.196H22.499C21.5414 49.196 20.7066 48.5442 20.4744 47.6152ZM32.6483 46.6029L37.17 28.5159C37.4022 27.5869 38.237 26.9351 39.1946 26.9351H41.5009C42.4586 26.9351 43.2934 27.5869 43.5256 28.5159L48.0474 46.6029C48.3766 47.92 47.3805 49.196 46.0227 49.196H34.6729C33.3152 49.196 32.319 47.92 32.6483 46.6029Z" fill="white"/>
</g>
<defs>
<filter id="filter0_d_3449_10119" x="-1.43478" y="-0.93457" width="66.8696" height="66.8691" filterUnits="userSpaceOnUse" color-interpolation-filters="sRGB">
<feFlood flood-opacity="0" result="BackgroundImageFix"/>
<feColorMatrix in="SourceAlpha" type="matrix" values="0 0 0 0 0 0 0 0 0 0 0 0 0 0 0 0 0 0 127 0" result="hardAlpha"/>
<feOffset/>
<feGaussianBlur stdDeviation="3.5"/>
<feColorMatrix type="matrix" values="0 0 0 0 0 0 0 0 0 0 0 0 0 0 0 0 0 0 0.15 0"/>
<feBlend mode="normal" in2="BackgroundImageFix" result="effect1_dropShadow_3449_10119"/>
<feBlend mode="normal" in="SourceGraphic" in2="effect1_dropShadow_3449_10119" result="shape"/>
</filter>
<clipPath id="clip0_3449_10119">
<rect width="64" height="64" fill="white" transform="translate(0 0.5)"/>
</clipPath>
</defs>
</svg>
