<svg width="64" height="65" viewBox="0 0 64 65" fill="none" xmlns="http://www.w3.org/2000/svg">
<path d="M32 62.5C48.5685 62.5 62 49.0685 62 32.5C62 15.9315 48.5685 2.5 32 2.5C15.4315 2.5 2 15.9315 2 32.5C2 49.0685 15.4315 62.5 32 62.5Z" fill="black" fill-opacity="0.02"/>
<path d="M32 61.5C48.0163 61.5 61 48.5163 61 32.5C61 16.4837 48.0163 3.5 32 3.5C15.9837 3.5 3 16.4837 3 32.5C3 48.5163 15.9837 61.5 32 61.5Z" fill="black" fill-opacity="0.02"/>
<path d="M32 60.5C47.464 60.5 60 47.964 60 32.5C60 17.036 47.464 4.5 32 4.5C16.536 4.5 4 17.036 4 32.5C4 47.964 16.536 60.5 32 60.5Z" fill="black" fill-opacity="0.02"/>
<path d="M32 59.5C46.9117 59.5 59 47.4117 59 32.5C59 17.5883 46.9117 5.5 32 5.5C17.0883 5.5 5 17.5883 5 32.5C5 47.4117 17.0883 59.5 32 59.5Z" fill="black" fill-opacity="0.02"/>
<path d="M32 58.5C46.3594 58.5 58 46.8594 58 32.5C58 18.1406 46.3594 6.5 32 6.5C17.6406 6.5 6 18.1406 6 32.5C6 46.8594 17.6406 58.5 32 58.5Z" fill="#C4C4C4"/>
<path fill-rule="evenodd" clip-rule="evenodd" d="M28.9862 15.5C23.7862 15.5 21 18.4938 21 18.4938V28.7L23.9974 28.4841V20.5011H34V28.7L36.9723 28.4841V18.4938C36.9723 18.4938 34 15.5 28.8 15.5H28.9862Z" fill="white"/>
<path fill-rule="evenodd" clip-rule="evenodd" d="M36.9875 28.5076V31.537H38.9804V42.4391L41.9938 44.5395H44.0123L47 41.5056V23.498H45.0183H41.9938V26.4603L44.0123 28.5076V41.5056H41.9938L41.8 31.3395L38.9804 28.5076H36.9875Z" fill="white"/>
<path fill-rule="evenodd" clip-rule="evenodd" d="M21 47.5005H37V27.4619H21V47.5005Z" fill="white"/>
<path fill-rule="evenodd" clip-rule="evenodd" d="M40.8389 18.5156H43.9924L47 23.4205H43.9924L40.8389 18.5156Z" fill="white"/>
</svg>
