<svg width="64" height="65" viewBox="0 0 64 65" fill="none" xmlns="http://www.w3.org/2000/svg">
<g clip-path="url(#clip0_3449_9987)">
<g filter="url(#filter0_d_3449_9987)">
<path d="M32 58.935C46.5995 58.935 58.4348 47.0997 58.4348 32.5002C58.4348 17.9007 46.5995 6.06543 32 6.06543C17.4005 6.06543 5.56525 17.9007 5.56525 32.5002C5.56525 47.0997 17.4005 58.935 32 58.935Z" fill="#C4C4C4"/>
</g>
<path fill-rule="evenodd" clip-rule="evenodd" d="M30.6087 21.3696C30.6087 25.2116 28.4285 28.3261 25.7391 28.3261C23.0497 28.3261 20.8696 25.2116 20.8696 21.3696C20.8696 17.5277 23.0497 14.4131 25.7391 14.4131C28.4285 14.4131 30.6087 17.5277 30.6087 21.3696ZM19.7169 40.6092L25.7886 34.5375C27.0931 33.233 28.8626 32.5 30.7075 32.5H33.2924C35.1374 32.5 36.9069 33.233 38.2114 34.5375L44.2831 40.6092C45.3267 41.6528 45.913 43.0684 45.913 44.5444V45.0218C45.913 48.0954 43.4214 50.587 40.3478 50.587H37.7407C36.719 50.587 35.7203 50.2846 34.8703 49.7179C33.1322 48.5592 30.8678 48.5592 29.1297 49.7179C28.2797 50.2846 27.281 50.587 26.2593 50.587H23.6522C20.5786 50.587 18.087 48.0954 18.087 45.0218V44.5444C18.087 43.0684 18.6733 41.6528 19.7169 40.6092ZM38.2609 28.3261C40.9503 28.3261 43.1304 25.2116 43.1304 21.3696C43.1304 17.5277 40.9503 14.4131 38.2609 14.4131C35.5715 14.4131 33.3913 17.5277 33.3913 21.3696C33.3913 25.2116 35.5715 28.3261 38.2609 28.3261ZM52.8696 31.1087C52.8696 34.9507 50.6894 38.0653 48 38.0653C45.3106 38.0653 43.1304 34.9507 43.1304 31.1087C43.1304 27.2668 45.3106 24.1522 48 24.1522C50.6894 24.1522 52.8696 27.2668 52.8696 31.1087ZM16 38.0653C18.6894 38.0653 20.8696 34.9507 20.8696 31.1087C20.8696 27.2668 18.6894 24.1522 16 24.1522C13.3106 24.1522 11.1304 27.2668 11.1304 31.1087C11.1304 34.9507 13.3106 38.0653 16 38.0653Z" fill="white"/>
</g>
<defs>
<filter id="filter0_d_3449_9987" x="-1.43475" y="-0.93457" width="66.8696" height="66.8691" filterUnits="userSpaceOnUse" color-interpolation-filters="sRGB">
<feFlood flood-opacity="0" result="BackgroundImageFix"/>
<feColorMatrix in="SourceAlpha" type="matrix" values="0 0 0 0 0 0 0 0 0 0 0 0 0 0 0 0 0 0 127 0" result="hardAlpha"/>
<feOffset/>
<feGaussianBlur stdDeviation="3.5"/>
<feColorMatrix type="matrix" values="0 0 0 0 0 0 0 0 0 0 0 0 0 0 0 0 0 0 0.15 0"/>
<feBlend mode="normal" in2="BackgroundImageFix" result="effect1_dropShadow_3449_9987"/>
<feBlend mode="normal" in="SourceGraphic" in2="effect1_dropShadow_3449_9987" result="shape"/>
</filter>
<clipPath id="clip0_3449_9987">
<rect width="64" height="64" fill="white" transform="translate(0 0.5)"/>
</clipPath>
</defs>
</svg>
