<svg width="64" height="65" viewBox="0 0 64 65" fill="none" xmlns="http://www.w3.org/2000/svg">
<g clip-path="url(#clip0_3449_9491)">
<g filter="url(#filter0_d_3449_9491)">
<path d="M32 58.935C46.5995 58.935 58.4348 47.0997 58.4348 32.5002C58.4348 17.9007 46.5995 6.06543 32 6.06543C17.4005 6.06543 5.56525 17.9007 5.56525 32.5002C5.56525 47.0997 17.4005 58.935 32 58.935Z" fill="#C4C4C4"/>
</g>
<path fill-rule="evenodd" clip-rule="evenodd" d="M19.4783 17.1957C21.3334 16.2682 25.0435 14.4131 32 14.4131C38.9565 14.4131 43.2464 16.2682 44.5218 17.1957V42.4541C43.8493 42.2795 43.1197 42.1093 42.3474 41.9492C39.4058 41.3396 35.706 40.8479 32 40.8479C28.2874 40.8479 24.7275 41.3412 21.8557 41.9523C21.0169 42.1307 20.2185 42.3232 19.4783 42.5218V17.1957ZM38.9565 25.5435V22.7609H25.0435V25.5435H38.9565ZM36.1739 28.3261V31.1087H27.8261V28.3261H36.1739ZM32 43.6305C25.0435 43.6305 18.5508 45.4856 16.6957 46.4131V47.8044H47.3044V46.4131C46.029 45.4856 38.9565 43.6305 32 43.6305Z" fill="white"/>
</g>
<defs>
<filter id="filter0_d_3449_9491" x="-1.43475" y="-0.93457" width="66.8696" height="66.8691" filterUnits="userSpaceOnUse" color-interpolation-filters="sRGB">
<feFlood flood-opacity="0" result="BackgroundImageFix"/>
<feColorMatrix in="SourceAlpha" type="matrix" values="0 0 0 0 0 0 0 0 0 0 0 0 0 0 0 0 0 0 127 0" result="hardAlpha"/>
<feOffset/>
<feGaussianBlur stdDeviation="3.5"/>
<feColorMatrix type="matrix" values="0 0 0 0 0 0 0 0 0 0 0 0 0 0 0 0 0 0 0.15 0"/>
<feBlend mode="normal" in2="BackgroundImageFix" result="effect1_dropShadow_3449_9491"/>
<feBlend mode="normal" in="SourceGraphic" in2="effect1_dropShadow_3449_9491" result="shape"/>
</filter>
<clipPath id="clip0_3449_9491">
<rect width="64" height="64" fill="white" transform="translate(0 0.5)"/>
</clipPath>
</defs>
</svg>
