<svg width="64" height="65" viewBox="0 0 64 65" fill="none" xmlns="http://www.w3.org/2000/svg">
<path d="M32 62.5C48.5685 62.5 62 49.0685 62 32.5C62 15.9315 48.5685 2.5 32 2.5C15.4315 2.5 2 15.9315 2 32.5C2 49.0685 15.4315 62.5 32 62.5Z" fill="black" fill-opacity="0.02"/>
<path d="M32 61.5C48.0163 61.5 61 48.5163 61 32.5C61 16.4837 48.0163 3.5 32 3.5C15.9837 3.5 3 16.4837 3 32.5C3 48.5163 15.9837 61.5 32 61.5Z" fill="black" fill-opacity="0.02"/>
<path d="M32 60.5C47.464 60.5 60 47.964 60 32.5C60 17.036 47.464 4.5 32 4.5C16.536 4.5 4 17.036 4 32.5C4 47.964 16.536 60.5 32 60.5Z" fill="black" fill-opacity="0.02"/>
<path d="M32 59.5C46.9117 59.5 59 47.4117 59 32.5C59 17.5883 46.9117 5.5 32 5.5C17.0883 5.5 5 17.5883 5 32.5C5 47.4117 17.0883 59.5 32 59.5Z" fill="black" fill-opacity="0.02"/>
<path d="M32 58.5C46.3594 58.5 58 46.8594 58 32.5C58 18.1406 46.3594 6.5 32 6.5C17.6406 6.5 6 18.1406 6 32.5C6 46.8594 17.6406 58.5 32 58.5Z" fill="#C4C4C4"/>
<path fill-rule="evenodd" clip-rule="evenodd" d="M28.5 40.5C26.0149 40.5 24 42.5149 24 45C24 47.4851 26.0149 49.5 28.5 49.5C30.9851 49.5 33 47.4851 33 45C33 42.5149 30.9851 40.5 28.5 40.5ZM28.5 43.5C29.3273 43.5 30 44.1727 30 45C30 45.8273 29.3273 46.5 28.5 46.5C27.6727 46.5 27 45.8273 27 45C27 44.1727 27.6727 43.5 28.5 43.5Z" fill="white"/>
<path fill-rule="evenodd" clip-rule="evenodd" d="M40.5 40.5C38.0149 40.5 36 42.5149 36 45C36 47.4851 38.0149 49.5 40.5 49.5C42.9851 49.5 45 47.4851 45 45C45 42.5149 42.9851 40.5 40.5 40.5ZM40.5 43.5C41.3273 43.5 42 44.1727 42 45C42 45.8273 41.3273 46.5 40.5 46.5C39.6727 46.5 39 45.8273 39 45C39 44.1727 39.6727 43.5 40.5 43.5Z" fill="white"/>
<path fill-rule="evenodd" clip-rule="evenodd" d="M28.5436 38.5C25.8066 38.5 23.47 36.4968 23.0206 33.7655L21.0004 21.5H49.0004L46.9788 33.7655C46.5294 36.4968 44.1928 38.5 41.4558 38.5H28.5436Z" fill="white"/>
<path fill-rule="evenodd" clip-rule="evenodd" d="M21 21.5H24C24 18.1865 21.612 15.5 19 15.5H16V18.5H19C20.1373 18.5 21.3333 19.8455 21 21.5Z" fill="white"/>
</svg>
