<svg width="64" height="65" viewBox="0 0 64 65" fill="none" xmlns="http://www.w3.org/2000/svg">
<path d="M32 62.5C48.5685 62.5 62 49.0685 62 32.5C62 15.9315 48.5685 2.5 32 2.5C15.4315 2.5 2 15.9315 2 32.5C2 49.0685 15.4315 62.5 32 62.5Z" fill="black" fill-opacity="0.02"/>
<path d="M32 61.5C48.0163 61.5 61 48.5163 61 32.5C61 16.4837 48.0163 3.5 32 3.5C15.9837 3.5 3 16.4837 3 32.5C3 48.5163 15.9837 61.5 32 61.5Z" fill="black" fill-opacity="0.02"/>
<path d="M32 60.5C47.464 60.5 60 47.964 60 32.5C60 17.036 47.464 4.5 32 4.5C16.536 4.5 4 17.036 4 32.5C4 47.964 16.536 60.5 32 60.5Z" fill="black" fill-opacity="0.02"/>
<path d="M32 59.5C46.9117 59.5 59 47.4117 59 32.5C59 17.5883 46.9117 5.5 32 5.5C17.0883 5.5 5 17.5883 5 32.5C5 47.4117 17.0883 59.5 32 59.5Z" fill="black" fill-opacity="0.02"/>
<path d="M32 58.5C46.3594 58.5 58 46.8594 58 32.5C58 18.1406 46.3594 6.5 32 6.5C17.6406 6.5 6 18.1406 6 32.5C6 46.8594 17.6406 58.5 32 58.5Z" fill="#C4C4C4"/>
<path fill-rule="evenodd" clip-rule="evenodd" d="M40.0909 40.2139C37.179 40.2139 34.8182 42.5166 34.8182 45.3567C34.8182 48.1969 37.179 50.4996 40.0909 50.4996C43.0028 50.4996 45.3636 48.1969 45.3636 45.3567C45.3636 42.5166 43.0028 40.2139 40.0909 40.2139ZM40.0909 42.7853C41.5449 42.7853 42.7273 43.9386 42.7273 45.3567C42.7273 46.7749 41.5449 47.9282 40.0909 47.9282C38.6369 47.9282 37.4545 46.7749 37.4545 45.3567C37.4545 43.9386 38.6369 42.7853 40.0909 42.7853Z" fill="white"/>
<path fill-rule="evenodd" clip-rule="evenodd" d="M38.0876 42.4094H42.0626V24.5381H38.0876V42.4094Z" fill="white"/>
<path fill-rule="evenodd" clip-rule="evenodd" d="M47.4903 19.5435L44.3833 22.574C43.5252 23.411 42.1345 23.411 41.275 22.574L39.7222 21.0594C38.8641 20.2224 38.8641 18.866 39.7222 18.029L42.8292 14.9985C42.9346 14.8957 43.0678 14.8443 43.1851 14.7671C42.6183 14.6115 42.029 14.501 41.4095 14.501C37.7687 14.501 34.8186 17.3784 34.8186 20.9295C34.8186 24.4794 37.7687 27.3581 41.4095 27.3581C45.049 27.3581 48.0004 24.4794 48.0004 20.9295C48.0004 20.324 47.887 19.7505 47.7275 19.1951C47.6471 19.3121 47.5944 19.4407 47.4903 19.5435Z" fill="white"/>
<path fill-rule="evenodd" clip-rule="evenodd" d="M26.0602 50.5H21.6364L19 47.9273V35.5884H22.0047V24.5288L19 21.5232L22.9545 14.5H25.0901L29.0549 21.5232L26.0602 24.5288V35.5884H29.0549V47.5726L26.0602 50.5Z" fill="white"/>
</svg>
