<svg width="64" height="65" viewBox="0 0 64 65" fill="none" xmlns="http://www.w3.org/2000/svg">
<g clip-path="url(#clip0_3449_9808)">
<g filter="url(#filter0_d_3449_9808)">
<path d="M32 58.935C46.5995 58.935 58.4348 47.0997 58.4348 32.5002C58.4348 17.9007 46.5995 6.06543 32 6.06543C17.4005 6.06543 5.56525 17.9007 5.56525 32.5002C5.56525 47.0997 17.4005 58.935 32 58.935Z" fill="#C4C4C4"/>
</g>
<path fill-rule="evenodd" clip-rule="evenodd" d="M19.4783 24.1518H44.5218V17.1953H19.4783V24.1518ZM44.5218 43.491C44.5218 45.8718 42.6518 47.804 40.3478 47.804H23.6522C21.3482 47.804 19.4783 45.8718 19.4783 43.491V26.2388H44.5218V43.491ZM32 44.3257C36.2266 44.3257 39.6522 40.9001 39.6522 36.6736C39.6522 32.447 36.2266 29.0214 32 29.0214C27.7734 29.0214 24.3478 32.447 24.3478 36.6736C24.3478 40.9001 27.7734 44.3257 32 44.3257ZM37.5652 36.5177C37.5652 39.6777 35.0739 42.2388 32 42.2388C28.9261 42.2388 26.4348 39.6777 26.4348 36.5177C28.5283 37.6509 29.9557 36.701 31.3445 35.7769C33.0741 34.6259 34.7437 33.515 37.5652 36.5177ZM28.5217 22.0649H22.2609V19.2823H28.5217V22.0649Z" fill="white"/>
</g>
<defs>
<filter id="filter0_d_3449_9808" x="-1.43475" y="-0.93457" width="66.8696" height="66.8691" filterUnits="userSpaceOnUse" color-interpolation-filters="sRGB">
<feFlood flood-opacity="0" result="BackgroundImageFix"/>
<feColorMatrix in="SourceAlpha" type="matrix" values="0 0 0 0 0 0 0 0 0 0 0 0 0 0 0 0 0 0 127 0" result="hardAlpha"/>
<feOffset/>
<feGaussianBlur stdDeviation="3.5"/>
<feColorMatrix type="matrix" values="0 0 0 0 0 0 0 0 0 0 0 0 0 0 0 0 0 0 0.15 0"/>
<feBlend mode="normal" in2="BackgroundImageFix" result="effect1_dropShadow_3449_9808"/>
<feBlend mode="normal" in="SourceGraphic" in2="effect1_dropShadow_3449_9808" result="shape"/>
</filter>
<clipPath id="clip0_3449_9808">
<rect width="64" height="64" fill="white" transform="translate(0 0.5)"/>
</clipPath>
</defs>
</svg>
