<svg width="14" height="14" viewBox="0 0 14 14" fill="none" xmlns="http://www.w3.org/2000/svg">
<path d="M8.5559 0.945412L9.30213 2.06475L10.6447 2.15133C11.1958 2.18688 11.6138 2.66248 11.5783 3.21362L11.5266 4.01473L12.2462 4.37054C12.7413 4.61533 12.9442 5.2151 12.6994 5.71018L12.1031 6.91617L12.6994 8.12208C12.9441 8.61715 12.7412 9.21693 12.2462 9.46171L11.5266 9.81752L11.5782 10.6187C11.6138 11.1698 11.1958 11.6454 10.6447 11.681L9.30212 11.7676L8.55589 12.8869C8.24954 13.3464 7.62867 13.4706 7.16914 13.1642L6.50119 12.7189L5.83324 13.1642C5.37372 13.4706 4.75285 13.3464 4.44649 12.8869L3.70024 11.7675L2.35776 11.6809C1.80662 11.6454 1.38865 11.1698 1.4242 10.6187L1.47586 9.81749L0.756248 9.46168C0.261175 9.21689 0.0582782 8.61712 0.303065 8.12205L0.899314 6.91615L0.303031 5.7102C0.0582444 5.21512 0.261142 4.61535 0.756214 4.37056L1.47583 4.01475L1.42416 3.21364C1.38862 2.6625 1.80659 2.18689 2.35773 2.15135L3.70026 2.06477L4.4465 0.945402C4.75285 0.485878 5.37372 0.361704 5.83325 0.668057L6.5012 1.11335L7.16915 0.668057C7.62868 0.361704 8.24955 0.485878 8.5559 0.945412Z" fill="white"/>
<path fill-rule="evenodd" clip-rule="evenodd" d="M4.72363 2.33229L6.00098 3.18386V6.05026L3.5186 4.61706L3.4198 3.08506L2.42187 3.14942L2.51644 4.61581L1.19922 5.26711L1.64245 6.16352L3.0186 5.48308L5.50096 6.91627L3.01864 8.34944L1.64248 7.669L1.19926 8.56541L2.51648 9.21671L2.42191 10.6831L3.41983 10.7475L3.51864 9.21547L6.00098 7.78228V10.6487L4.72363 11.5003L5.27833 12.3323L6.50098 11.5172L7.72363 12.3323L8.27833 11.5003L7.00098 10.6487V7.78231L9.48331 9.21548L9.58211 10.7475L10.5801 10.6832L10.4855 9.21674L11.8027 8.56544L11.3595 7.66903L9.98332 8.34946L7.50096 6.91627L9.98335 5.48306L11.3595 6.1635L11.8028 5.26709L10.4855 4.61579L10.5801 3.1494L9.58215 3.08504L9.48335 4.61704L7.00098 6.05023V3.18386L8.27833 2.33229L7.72363 1.50024L6.50098 2.31534L5.27833 1.50024L4.72363 2.33229Z" fill="#7A7A79"/>
</svg>
