<svg width="64" height="65" viewBox="0 0 64 65" fill="none" xmlns="http://www.w3.org/2000/svg">
<g clip-path="url(#clip0_3449_9812)">
<g filter="url(#filter0_d_3449_9812)">
<path d="M32 58.935C46.5995 58.935 58.4348 47.0997 58.4348 32.5002C58.4348 17.9007 46.5995 6.06543 32 6.06543C17.4005 6.06543 5.56525 17.9007 5.56525 32.5002C5.56525 47.0997 17.4005 58.935 32 58.935Z" fill="#C4C4C4"/>
</g>
<path fill-rule="evenodd" clip-rule="evenodd" d="M16 29.7174V26.2391L19.4783 16.5H44.5217L48 26.2391V29.7174C48 31.6384 46.4427 33.1957 44.5217 33.1957C42.6008 33.1957 41.0435 31.6384 41.0435 29.7174C41.0435 29.3332 40.732 29.0217 40.3478 29.0217C39.9636 29.0217 39.6522 29.3332 39.6522 29.7174C39.6522 31.6384 38.0949 33.1957 36.1739 33.1957C34.2529 33.1957 32.6957 31.6384 32.6957 29.7174C32.6957 29.3332 32.3842 29.0217 32 29.0217C31.6158 29.0217 31.3043 29.3332 31.3043 29.7174C31.3043 31.6384 29.7471 33.1957 27.8261 33.1957C25.9051 33.1957 24.3478 31.6384 24.3478 29.7174C24.3478 29.3332 24.0364 29.0217 23.6522 29.0217C23.268 29.0217 22.9565 29.3332 22.9565 29.7174C22.9565 31.6384 21.3992 33.1957 19.4783 33.1957C17.5573 33.1957 16 31.6384 16 29.7174ZM19.4783 24.8478C19.4783 24.4636 19.7897 24.1522 20.1739 24.1522H43.8261C44.2103 24.1522 44.5217 24.4636 44.5217 24.8478C44.5217 25.232 44.2103 25.5435 43.8261 25.5435H20.1739C19.7897 25.5435 19.4783 25.232 19.4783 24.8478ZM19.4783 48.5V35.2826C20.4919 35.2826 21.4423 35.0116 22.2609 34.5381V40.1522H41.7391V34.5381C42.5577 35.0116 43.5081 35.2826 44.5217 35.2826V48.5H19.4783Z" fill="white"/>
</g>
<defs>
<filter id="filter0_d_3449_9812" x="-1.43475" y="-0.93457" width="66.8696" height="66.8691" filterUnits="userSpaceOnUse" color-interpolation-filters="sRGB">
<feFlood flood-opacity="0" result="BackgroundImageFix"/>
<feColorMatrix in="SourceAlpha" type="matrix" values="0 0 0 0 0 0 0 0 0 0 0 0 0 0 0 0 0 0 127 0" result="hardAlpha"/>
<feOffset/>
<feGaussianBlur stdDeviation="3.5"/>
<feColorMatrix type="matrix" values="0 0 0 0 0 0 0 0 0 0 0 0 0 0 0 0 0 0 0.15 0"/>
<feBlend mode="normal" in2="BackgroundImageFix" result="effect1_dropShadow_3449_9812"/>
<feBlend mode="normal" in="SourceGraphic" in2="effect1_dropShadow_3449_9812" result="shape"/>
</filter>
<clipPath id="clip0_3449_9812">
<rect width="64" height="64" fill="white" transform="translate(0 0.5)"/>
</clipPath>
</defs>
</svg>
