<svg width="64" height="65" viewBox="0 0 64 65" fill="none" xmlns="http://www.w3.org/2000/svg">
<path d="M32 62.5C48.5685 62.5 62 49.0685 62 32.5C62 15.9315 48.5685 2.5 32 2.5C15.4315 2.5 2 15.9315 2 32.5C2 49.0685 15.4315 62.5 32 62.5Z" fill="black" fill-opacity="0.02"/>
<path d="M32 61.5C48.0163 61.5 61 48.5163 61 32.5C61 16.4837 48.0163 3.5 32 3.5C15.9837 3.5 3 16.4837 3 32.5C3 48.5163 15.9837 61.5 32 61.5Z" fill="black" fill-opacity="0.02"/>
<path d="M32 60.5C47.464 60.5 60 47.964 60 32.5C60 17.036 47.464 4.5 32 4.5C16.536 4.5 4 17.036 4 32.5C4 47.964 16.536 60.5 32 60.5Z" fill="black" fill-opacity="0.02"/>
<path d="M32 59.5C46.9117 59.5 59 47.4117 59 32.5C59 17.5883 46.9117 5.5 32 5.5C17.0883 5.5 5 17.5883 5 32.5C5 47.4117 17.0883 59.5 32 59.5Z" fill="black" fill-opacity="0.02"/>
<path d="M32 58.5C46.3594 58.5 58 46.8594 58 32.5C58 18.1406 46.3594 6.5 32 6.5C17.6406 6.5 6 18.1406 6 32.5C6 46.8594 17.6406 58.5 32 58.5Z" fill="#C4C4C4"/>
<path fill-rule="evenodd" clip-rule="evenodd" d="M44.8571 41.5C42.3243 43.972 35.744 45.5 32 45.5C28.256 45.5 21.6757 43.972 19.1429 41.5H14C16.5714 46.8333 24.2857 49.5 32 49.5C39.7143 49.5 47.4286 46.8333 50 41.5H44.8571Z" fill="white"/>
<path fill-rule="evenodd" clip-rule="evenodd" d="M14 26.5V23.5L19 18.5V15.5C29.5 15.5 29.0667 25.4599 29.0667 26.5H40C42.6866 26.0455 45 28.4063 45 31.5V44.5H40V41.5C39.8333 38.9518 37.52 36.5909 35 36.5H30C26.6467 36.5909 24.3333 38.9518 24 41.5V44.5H19V26.5H14Z" fill="white"/>
</svg>
