<svg width="64" height="65" viewBox="0 0 64 65" fill="none" xmlns="http://www.w3.org/2000/svg">
<g clip-path="url(#clip0_3449_9447)">
<path d="M32 64.5C49.6731 64.5 64 50.1731 64 32.5C64 14.8269 49.6731 0.5 32 0.5C14.3269 0.5 0 14.8269 0 32.5C0 50.1731 14.3269 64.5 32 64.5Z" fill="black" fill-opacity="0.02"/>
<path d="M32 63.109C48.9047 63.109 62.6087 49.405 62.6087 32.5003C62.6087 15.5956 48.9047 1.8916 32 1.8916C15.0953 1.8916 1.3913 15.5956 1.3913 32.5003C1.3913 49.405 15.0953 63.109 32 63.109Z" fill="black" fill-opacity="0.02"/>
<path d="M32 61.717C48.1363 61.717 61.2174 48.6359 61.2174 32.4996C61.2174 16.3633 48.1363 3.28223 32 3.28223C15.8637 3.28223 2.78259 16.3633 2.78259 32.4996C2.78259 48.6359 15.8637 61.717 32 61.717Z" fill="black" fill-opacity="0.02"/>
<path d="M32 60.326C47.3679 60.326 59.8261 47.8678 59.8261 32.4999C59.8261 17.132 47.3679 4.67383 32 4.67383C16.6321 4.67383 4.17389 17.132 4.17389 32.4999C4.17389 47.8678 16.6321 60.326 32 60.326Z" fill="black" fill-opacity="0.02"/>
<path d="M32 58.935C46.5995 58.935 58.4348 47.0997 58.4348 32.5002C58.4348 17.9007 46.5995 6.06543 32 6.06543C17.4005 6.06543 5.56525 17.9007 5.56525 32.5002C5.56525 47.0997 17.4005 58.935 32 58.935Z" fill="#C4C4C4"/>
<path fill-rule="evenodd" clip-rule="evenodd" d="M18.087 22.7612H45.9131L43.4803 16.6793C43.269 16.1511 42.7574 15.8047 42.1885 15.8047H21.8116C21.2427 15.8047 20.731 16.1511 20.5197 16.6793L18.087 22.7612ZM18.087 46.4134C18.087 47.1818 18.7099 47.8047 19.4783 47.8047H44.5218C45.2902 47.8047 45.9131 47.1818 45.9131 46.4134V25.5438H18.087V46.4134ZM26.4348 19.2829C26.4348 18.8987 26.7462 18.5873 27.1305 18.5873H36.8696C37.2538 18.5873 37.5652 18.8987 37.5652 19.2829C37.5652 19.6672 37.2538 19.9786 36.8696 19.9786H27.1305C26.7462 19.9786 26.4348 19.6672 26.4348 19.2829ZM32 44.3264L25.3568 38.7904C24.2767 37.8903 23.6522 36.557 23.6522 35.1509V34.7127C23.6522 32.3383 25.5771 30.4134 27.9515 30.4134C29.5801 30.4134 31.0687 31.3335 31.797 32.79L32 33.196L32.203 32.79C32.9313 31.3335 34.42 30.4134 36.0485 30.4134C38.423 30.4134 40.3478 32.3383 40.3478 34.7127V35.1509C40.3478 36.557 39.7234 37.8903 38.6432 38.7904L32 44.3264Z" fill="white"/>
</g>
<defs>
<clipPath id="clip0_3449_9447">
<rect width="64" height="64" fill="white" transform="translate(0 0.5)"/>
</clipPath>
</defs>
</svg>
