<svg width="64" height="65" viewBox="0 0 64 65" fill="none" xmlns="http://www.w3.org/2000/svg">
<g clip-path="url(#clip0_3449_9890)">
<path d="M32 64.5C49.6731 64.5 64 50.1731 64 32.5C64 14.8269 49.6731 0.5 32 0.5C14.3269 0.5 0 14.8269 0 32.5C0 50.1731 14.3269 64.5 32 64.5Z" fill="black" fill-opacity="0.02"/>
<path d="M32 63.109C48.9047 63.109 62.6087 49.405 62.6087 32.5003C62.6087 15.5956 48.9047 1.8916 32 1.8916C15.0953 1.8916 1.3913 15.5956 1.3913 32.5003C1.3913 49.405 15.0953 63.109 32 63.109Z" fill="black" fill-opacity="0.02"/>
<path d="M32 61.717C48.1363 61.717 61.2174 48.6359 61.2174 32.4996C61.2174 16.3633 48.1363 3.28223 32 3.28223C15.8637 3.28223 2.78262 16.3633 2.78262 32.4996C2.78262 48.6359 15.8637 61.717 32 61.717Z" fill="black" fill-opacity="0.02"/>
<path d="M32 60.326C47.3679 60.326 59.8261 47.8678 59.8261 32.4999C59.8261 17.132 47.3679 4.67383 32 4.67383C16.6321 4.67383 4.17392 17.132 4.17392 32.4999C4.17392 47.8678 16.6321 60.326 32 60.326Z" fill="black" fill-opacity="0.02"/>
<path d="M32 58.935C46.5995 58.935 58.4348 47.0997 58.4348 32.5002C58.4348 17.9007 46.5995 6.06543 32 6.06543C17.4005 6.06543 5.56522 17.9007 5.56522 32.5002C5.56522 47.0997 17.4005 58.935 32 58.935Z" fill="#C4C4C4"/>
<path fill-rule="evenodd" clip-rule="evenodd" d="M25.7391 15.8047L14.6087 21.3699V46.4134H23.6522V40.8482H27.8261V46.4134H36.8696V21.3699L25.7391 15.8047ZM39.6522 46.4134H50.7826V32.5003L39.6522 29.7177V46.4134ZM19.4783 32.5003H23.6522V36.6743H19.4783V32.5003ZM32 32.5003H27.8261V36.6743H32V32.5003ZM19.4783 24.1525H23.6522V28.3264H19.4783V24.1525ZM32 24.1525H27.8261V28.3264H32V24.1525Z" fill="white"/>
</g>
<defs>
<clipPath id="clip0_3449_9890">
<rect width="64" height="64" fill="white" transform="translate(0 0.5)"/>
</clipPath>
</defs>
</svg>
