<svg width="64" height="65" viewBox="0 0 64 65" fill="none" xmlns="http://www.w3.org/2000/svg">
<g clip-path="url(#clip0_3449_10062)">
<g filter="url(#filter0_d_3449_10062)">
<path d="M32 58.935C46.5995 58.935 58.4348 47.0997 58.4348 32.5002C58.4348 17.9007 46.5995 6.06543 32 6.06543C17.4005 6.06543 5.56525 17.9007 5.56525 32.5002C5.56525 47.0997 17.4005 58.935 32 58.935Z" fill="#C4C4C4"/>
</g>
<path fill-rule="evenodd" clip-rule="evenodd" d="M36.7665 51.0381C35.6208 52.2979 34.0142 53.37 32 53.37C29.9858 53.37 28.3791 52.2979 27.2334 51.0381C26.0885 49.779 25.1852 48.1123 24.4838 46.2887C24.4247 46.1349 24.3665 45.9788 24.3095 45.8208C24.144 45.8504 23.9799 45.8781 23.817 45.9038C21.8871 46.2081 19.992 46.2592 18.3292 45.8972C16.6652 45.5349 14.9335 44.6796 13.9264 42.9352C12.9193 41.1909 13.0444 39.2634 13.5626 37.6414C14.0806 36.0203 15.0723 34.4046 16.3009 32.8854C16.4046 32.7573 16.5106 32.6289 16.619 32.5004C16.5106 32.3719 16.4046 32.2437 16.3008 32.1155C15.0723 30.5962 14.0806 28.9806 13.5626 27.3595C13.0444 25.7374 12.9193 23.81 13.9264 22.0656C14.9335 20.3213 16.6652 19.4659 18.3292 19.1037C19.992 18.7417 21.8871 18.7927 23.817 19.0971C23.9799 19.1228 24.144 19.1504 24.3095 19.1801C24.3665 19.022 24.4247 18.866 24.4838 18.7121C25.1852 16.8885 26.0885 15.2218 27.2334 13.9628C28.3791 12.7029 29.9858 11.6309 32 11.6309C34.0142 11.6309 35.6208 12.7029 36.7665 13.9628C37.9114 15.2218 38.8147 16.8885 39.5162 18.7121C39.5753 18.866 39.6334 19.022 39.6905 19.1801C39.8559 19.1504 40.0201 19.1228 40.1829 19.0971C42.1129 18.7927 44.008 18.7417 45.6708 19.1037C47.3347 19.4659 49.0665 20.3213 50.0736 22.0656C51.0807 23.81 50.9556 25.7374 50.4373 27.3595C49.9194 28.9806 48.9276 30.5962 47.699 32.1155C47.5954 32.2437 47.4894 32.3719 47.381 32.5004C47.4894 32.6289 47.5954 32.7572 47.699 32.8854C48.9276 34.4046 49.9194 36.0203 50.4373 37.6414C50.9555 39.2634 51.0807 41.1909 50.0736 42.9352C49.0665 44.6796 47.3347 45.5349 45.6708 45.8972C44.008 46.2592 42.1129 46.2081 40.1829 45.9038C40.0201 45.8781 39.8559 45.8504 39.6905 45.8208C39.6334 45.9788 39.5753 46.1349 39.5162 46.2887C38.8147 48.1123 37.9114 49.779 36.7665 51.0381ZM16.3362 41.5439C15.3656 39.8627 16.2782 37.3088 18.5347 34.5488C20.8427 36.7971 23.7898 39.0061 27.1304 40.9348C27.623 41.2192 28.1166 41.4931 28.6101 41.7563C22.6798 43.9084 17.7379 43.9717 16.3362 41.5439ZM35.4782 38.525C34.312 39.1983 33.1472 39.8054 32 40.3438C30.8528 39.8054 29.688 39.1983 28.5217 38.525C27.3555 37.8516 26.2473 37.1465 25.2074 36.4221C25.1001 35.1594 25.0435 33.8471 25.0435 32.5004C25.0435 31.1538 25.1001 29.8414 25.2074 28.5788C26.2473 27.8544 27.3555 27.1493 28.5217 26.4759C29.688 25.8025 30.8528 25.1955 32 24.6571C33.1472 25.1955 34.312 25.8025 35.4782 26.4759C36.6445 27.1493 37.7527 27.8544 38.7925 28.5788C38.8999 29.8414 38.9565 31.1538 38.9565 32.5004C38.9565 33.8471 38.8999 35.1594 38.7925 36.4221C37.7527 37.1464 36.6445 37.8516 35.4782 38.525ZM22.2608 32.5004C22.2608 33.0693 22.2704 33.6336 22.2892 34.1927C17.4604 30.1329 14.9345 25.8848 16.3362 23.4569C17.3068 21.7758 19.9749 21.2892 23.4933 21.8633C22.7003 24.9863 22.2608 28.643 22.2608 32.5004ZM41.7391 32.5004C41.7391 31.9317 41.7296 31.3672 41.7107 30.8082C46.5396 34.8679 49.0654 39.1161 47.6638 41.5439C46.6931 43.2251 44.025 43.7117 40.5066 43.1375C41.2997 40.0146 41.7391 36.3578 41.7391 32.5004ZM47.6638 23.4569C48.6343 25.1381 47.7217 27.6921 45.4653 30.452C43.1573 28.2038 40.2101 25.9948 36.8695 24.0661C36.377 23.7817 35.8833 23.5077 35.3898 23.2446C41.3201 21.0925 46.262 21.0291 47.6638 23.4569ZM38.3209 40.064C37.2195 46.2759 34.8034 50.5874 32 50.5874C30.0588 50.5874 28.3032 48.52 27.0414 45.1859C30.1423 44.3113 33.529 42.8634 36.8695 40.9348C37.3621 40.6503 37.8462 40.3598 38.3209 40.064ZM36.9586 19.8149C33.8576 20.6896 30.471 22.1374 27.1304 24.0661C26.6378 24.3505 26.1538 24.641 25.6791 24.9368C26.7805 18.725 29.1966 14.4135 32 14.4135C33.9412 14.4135 35.6967 16.4808 36.9586 19.8149ZM32.2038 36.7634C34.5582 36.7634 36.4668 34.8548 36.4668 32.5004C36.4668 30.1461 34.5582 28.2375 32.2038 28.2375C29.8494 28.2375 27.9408 30.1461 27.9408 32.5004C27.9408 34.8548 29.8494 36.7634 32.2038 36.7634Z" fill="white"/>
</g>
<defs>
<filter id="filter0_d_3449_10062" x="-1.43475" y="-0.93457" width="66.8696" height="66.8691" filterUnits="userSpaceOnUse" color-interpolation-filters="sRGB">
<feFlood flood-opacity="0" result="BackgroundImageFix"/>
<feColorMatrix in="SourceAlpha" type="matrix" values="0 0 0 0 0 0 0 0 0 0 0 0 0 0 0 0 0 0 127 0" result="hardAlpha"/>
<feOffset/>
<feGaussianBlur stdDeviation="3.5"/>
<feColorMatrix type="matrix" values="0 0 0 0 0 0 0 0 0 0 0 0 0 0 0 0 0 0 0.15 0"/>
<feBlend mode="normal" in2="BackgroundImageFix" result="effect1_dropShadow_3449_10062"/>
<feBlend mode="normal" in="SourceGraphic" in2="effect1_dropShadow_3449_10062" result="shape"/>
</filter>
<clipPath id="clip0_3449_10062">
<rect width="64" height="64" fill="white" transform="translate(0 0.5)"/>
</clipPath>
</defs>
</svg>
