<svg width="64" height="65" viewBox="0 0 64 65" fill="none" xmlns="http://www.w3.org/2000/svg">
<g clip-path="url(#clip0_3449_9391)">
<g filter="url(#filter0_d_3449_9391)">
<path d="M32 58.935C46.5995 58.935 58.4348 47.0997 58.4348 32.5002C58.4348 17.9007 46.5995 6.06543 32 6.06543C17.4005 6.06543 5.56525 17.9007 5.56525 32.5002C5.56525 47.0997 17.4005 58.935 32 58.935Z" fill="#C4C4C4"/>
</g>
<path fill-rule="evenodd" clip-rule="evenodd" d="M31.3043 11.6309H38.9565L37.5652 13.7178L38.9565 15.8048H32.6956V18.5874C35.126 23.448 45.5163 28.3087 49.9621 30.3885C50.6065 30.6899 51.126 30.933 51.4782 31.1091V33.8917C51.4782 35.4285 50.2324 36.6743 48.6956 36.6743C47.1589 36.6743 45.913 35.4285 45.913 33.8917C45.913 35.4285 44.6672 36.6743 43.1304 36.6743C41.5937 36.6743 40.3478 35.4285 40.3478 33.8917C40.3478 35.4285 39.102 36.6743 37.5652 36.6743C36.0284 36.6743 34.7826 35.4285 34.7826 33.8917C34.7826 35.4285 33.5368 36.6743 32 36.6743C30.4632 36.6743 29.2174 35.4285 29.2174 33.8917C29.2174 35.4285 27.9715 36.6743 26.4348 36.6743C24.898 36.6743 23.6522 35.4285 23.6522 33.8917C23.6522 35.4285 22.4063 36.6743 20.8696 36.6743C19.3328 36.6743 18.0869 35.4285 18.0869 33.8917C18.0869 35.4285 16.8411 36.6743 15.3043 36.6743C13.7676 36.6743 12.5217 35.4285 12.5217 33.8917V31.1091C12.874 30.933 13.3935 30.6899 14.0379 30.3885C18.4837 28.3087 28.874 23.448 31.3043 18.5874V11.6309ZM15.3043 38.7613C16.3389 38.7613 17.2982 38.4386 18.0869 37.8885C18.8757 38.4386 19.835 38.7613 20.8696 38.7613C21.9041 38.7613 22.8634 38.4386 23.6522 37.8885C24.4409 38.4386 25.4002 38.7613 26.4348 38.7613C27.4693 38.7613 28.4286 38.4386 29.2174 37.8885C30.0061 38.4386 30.9654 38.7613 32 38.7613C33.0346 38.7613 33.9939 38.4386 34.7826 37.8885C35.5713 38.4386 36.5306 38.7613 37.5652 38.7613C38.5998 38.7613 39.5591 38.4386 40.3478 37.8885C41.1365 38.4386 42.0958 38.7613 43.1304 38.7613C44.165 38.7613 45.1243 38.4386 45.913 37.8885C46.7018 38.4386 47.6611 38.7613 48.6956 38.7613C48.8592 38.7613 49.0209 38.7532 49.1802 38.7375L50.0869 47.8048H36.1739V45.7178C36.1739 43.4126 34.3052 41.5439 32 41.5439C29.6948 41.5439 27.8261 43.4126 27.8261 45.7178V47.8048H13.913L14.8197 38.7375C14.9791 38.7532 15.1408 38.7613 15.3043 38.7613Z" fill="white"/>
</g>
<defs>
<filter id="filter0_d_3449_9391" x="-1.43475" y="-0.93457" width="66.8696" height="66.8691" filterUnits="userSpaceOnUse" color-interpolation-filters="sRGB">
<feFlood flood-opacity="0" result="BackgroundImageFix"/>
<feColorMatrix in="SourceAlpha" type="matrix" values="0 0 0 0 0 0 0 0 0 0 0 0 0 0 0 0 0 0 127 0" result="hardAlpha"/>
<feOffset/>
<feGaussianBlur stdDeviation="3.5"/>
<feColorMatrix type="matrix" values="0 0 0 0 0 0 0 0 0 0 0 0 0 0 0 0 0 0 0.15 0"/>
<feBlend mode="normal" in2="BackgroundImageFix" result="effect1_dropShadow_3449_9391"/>
<feBlend mode="normal" in="SourceGraphic" in2="effect1_dropShadow_3449_9391" result="shape"/>
</filter>
<clipPath id="clip0_3449_9391">
<rect width="64" height="64" fill="white" transform="translate(0 0.5)"/>
</clipPath>
</defs>
</svg>
