<svg width="64" height="65" viewBox="0 0 64 65" fill="none" xmlns="http://www.w3.org/2000/svg">
<g clip-path="url(#clip0_3449_10115)">
<g filter="url(#filter0_d_3449_10115)">
<path d="M32 58.935C46.5995 58.935 58.4348 47.0997 58.4348 32.5002C58.4348 17.9007 46.5995 6.06543 32 6.06543C17.4005 6.06543 5.56525 17.9007 5.56525 32.5002C5.56525 47.0997 17.4005 58.935 32 58.935Z" fill="#C4C4C4"/>
</g>
<path fill-rule="evenodd" clip-rule="evenodd" d="M29.2174 14.4131H32H34.7826C43.235 14.4131 50.0869 21.2651 50.0869 29.7174V35.0849C50.0869 38.7749 48.6211 42.3137 46.0119 44.9229L41.5004 49.4344C38.9807 51.9541 35.5633 53.3696 32 53.3696C28.4366 53.3696 25.0193 51.9541 22.4996 49.4344L17.9881 44.9229C15.3788 42.3137 13.913 38.7749 13.913 35.0849V29.7174C13.913 21.2651 20.765 14.4131 29.2174 14.4131ZM27.8266 22.0653H32H36.1739C40.0159 22.0653 43.1304 25.1798 43.1304 29.0218V30.6024C43.1304 32.2628 42.4708 33.8553 41.2967 35.0294L39.6522 36.674V38.7609C39.6522 40.2977 38.4063 41.5435 36.8695 41.5435H36.1739H35.647C35.3703 41.5435 35.1049 41.4336 34.9092 41.2379L33.2596 39.5882L34.4944 38.3534C34.6789 38.1689 34.7826 37.9187 34.7826 37.6577C34.7826 37.1144 34.3421 36.674 33.7988 36.674H30.2012C29.6579 36.674 29.2174 37.1144 29.2174 37.6577C29.2174 37.9187 29.321 38.1689 29.5055 38.3534L30.7404 39.5882L29.0908 41.2379C28.8951 41.4336 28.6297 41.5435 28.353 41.5435H27.8261H27.1304C25.5937 41.5435 24.3478 40.2977 24.3478 38.7609V36.674L22.7033 35.0294C21.5292 33.8553 20.8695 32.2628 20.8695 30.6024V29.0218C20.8695 25.1798 23.9846 22.0653 27.8266 22.0653ZM27.8261 43.6305C27.8261 45.1672 29.0719 46.4131 30.6087 46.4131H33.3913C34.928 46.4131 36.1739 45.1672 36.1739 43.6305H35.647C34.8168 43.6305 34.0206 43.3007 33.4335 42.7136L32 41.2801L30.5665 42.7136C29.9794 43.3007 29.1831 43.6305 28.353 43.6305H27.8261ZM25.3913 27.6305H27.8261C29.3628 27.6305 30.6087 28.8763 30.6087 30.4131V31.1087C30.6087 31.8772 29.9858 32.5 29.2174 32.5C28.449 32.5 27.8261 31.8772 27.8261 31.1087H25.3913C24.4308 31.1087 23.6522 30.3301 23.6522 29.3696C23.6522 28.4091 24.4308 27.6305 25.3913 27.6305ZM36.1739 27.6305H38.6087C39.5692 27.6305 40.3478 28.4091 40.3478 29.3696C40.3478 30.3301 39.5692 31.1087 38.6087 31.1087H36.1739C36.1739 31.8772 35.551 32.5 34.7826 32.5C34.0142 32.5 33.3913 31.8772 33.3913 31.1087V30.4131C33.3913 28.8763 34.6371 27.6305 36.1739 27.6305Z" fill="white"/>
</g>
<defs>
<filter id="filter0_d_3449_10115" x="-1.43475" y="-0.93457" width="66.8696" height="66.8691" filterUnits="userSpaceOnUse" color-interpolation-filters="sRGB">
<feFlood flood-opacity="0" result="BackgroundImageFix"/>
<feColorMatrix in="SourceAlpha" type="matrix" values="0 0 0 0 0 0 0 0 0 0 0 0 0 0 0 0 0 0 127 0" result="hardAlpha"/>
<feOffset/>
<feGaussianBlur stdDeviation="3.5"/>
<feColorMatrix type="matrix" values="0 0 0 0 0 0 0 0 0 0 0 0 0 0 0 0 0 0 0.15 0"/>
<feBlend mode="normal" in2="BackgroundImageFix" result="effect1_dropShadow_3449_10115"/>
<feBlend mode="normal" in="SourceGraphic" in2="effect1_dropShadow_3449_10115" result="shape"/>
</filter>
<clipPath id="clip0_3449_10115">
<rect width="64" height="64" fill="white" transform="translate(0 0.5)"/>
</clipPath>
</defs>
</svg>
