<svg width="64" height="65" viewBox="0 0 64 65" fill="none" xmlns="http://www.w3.org/2000/svg">
<g clip-path="url(#clip0_3449_9868)">
<g filter="url(#filter0_d_3449_9868)">
<path d="M32 58.935C46.5995 58.935 58.4348 47.0997 58.4348 32.5002C58.4348 17.9007 46.5995 6.06543 32 6.06543C17.4005 6.06543 5.56525 17.9007 5.56525 32.5002C5.56525 47.0997 17.4005 58.935 32 58.935Z" fill="#C4C4C4"/>
</g>
<path fill-rule="evenodd" clip-rule="evenodd" d="M34.087 25.5433C34.087 24.4997 34.6945 22.9221 35.8995 21.2735C37.0768 19.6629 38.5768 18.3273 39.8898 17.6708L38.0232 13.9375C35.9667 14.9658 33.9885 16.8149 32.5299 18.8103C31.0991 20.7678 29.9131 23.2172 29.9131 25.5433V25.5591V25.5751V25.5911V25.6072V25.6235V25.6398V25.6562V25.6727V25.6894V25.7061V25.7229V25.7398V25.7568V25.7739V25.7911V25.8084V25.8258V25.8432V25.8608V25.8784V25.8962V25.914V25.9319V25.95V25.968V25.9863V26.0046V26.0229V26.0414V26.0599V26.0786V26.0973V26.1161V26.135V26.154V26.173V26.1922V26.2114V26.2307V26.2501V26.2696V26.2892V26.3088V26.3286V26.3484V26.3683V26.3883V26.4084V26.4285V26.4487V26.469V26.4894V26.5099V26.5304V26.5511V26.5717V26.5925V26.6134V26.6343V26.6553V26.6764V26.6976V26.7188V26.7401V26.7615V26.7829V26.8044V26.8261V26.8478V26.8695V26.8913V26.9132V26.9351V26.9572V26.9793V27.0015V27.0238V27.046V27.0684V27.0909V27.1134V27.136V27.1586V27.1814V27.2042V27.227V27.25V27.2729V27.296V27.3191V27.3328C29.0074 26.2821 27.9052 25.315 26.5666 24.5026C24.9525 23.5232 23.047 22.8004 20.8114 22.406C19.7698 22.1853 18.631 22.065 17.3913 22.065H16.7301H16.6957H13.9131C13.9131 29.6675 19.4063 37.27 29.7104 37.3684C29.9008 38.8097 29.9131 40.0576 29.9131 40.8476V51.9781H34.087V47.7917C42.2646 47.4995 50.087 42.083 50.087 33.8911H46.6087C39.8145 33.8911 35.6401 36.6758 34.0845 40.2677C34.0783 39.6885 34.0571 38.9351 33.9835 38.065H34.087V38.0485V38.0319V38.0152V37.9984V37.9815V37.9646V37.9475V37.9303V37.9131V37.8957V37.8783V37.8608V37.8431V37.8254V37.8076V37.7897V37.7717V37.7536V37.7354V37.7172V37.6988V37.6804V37.6619V37.6432V37.6246V37.6058V37.5869V37.568V37.5489V37.5298V37.5106V37.4912V37.4719V37.4524V37.4329V37.4133V37.3935V37.3737V37.3538V37.3339V37.3138V37.2937V37.2735V37.2532V37.2329V37.2124V37.1919V37.1713V37.1506V37.1298V37.109V37.0881V37.0671V37.0461V37.0249V37.0037V36.9824V36.9611V36.9397V36.9181V36.8965V36.8749V36.8531V36.8313V36.8094V36.7875V36.7655V36.7434V36.7212V36.699V36.6767V36.6544V36.6319V36.6094V36.5868V36.5642V36.5415V36.5187V36.4959V36.4729V36.45V36.427V36.4039V36.3807V36.3575V36.3342V36.3108V36.2873V36.2639V36.2403V36.2167V36.193V36.1693V36.1455V36.1216V36.0977V36.0738V36.0497V36.0256V36.0015V35.9773V35.953V35.9287V35.9043V35.8798V35.8553V35.8308V35.8062V35.7815V35.7568V35.732V35.7072V35.6823V35.6574V35.6324V35.6073V35.5823V35.5571V35.5319V35.5067V35.4814V35.456V35.4306V35.4052V35.3797V35.3542V35.3286V35.3029V35.2773V35.2515V35.2258V35.1999V35.174V35.1481V35.1222V35.0962V35.0701V35.044V35.0178V34.9917V34.9655V34.9392V34.9129V34.8865V34.8601V34.8337V34.8072V34.7807V34.7541V34.7276V34.7009V34.6743V34.6476V34.6208V34.594V34.5671V34.5403V34.5134V34.4864V34.4595V34.4325V34.4055V34.3783V34.3513V34.3241V34.2969V34.2697V34.2425V34.2152V34.1879V34.1606V34.1332V34.1058V34.0784V34.0509V34.0234V33.9959V33.9683V33.9408V33.9132V33.8855V33.8578V33.8302V33.8025V33.7747V33.747V33.7192V33.6914V33.6635V33.6357V33.6078V33.5799V33.5519V33.5239V33.496V33.468V33.44V33.4119V33.3838V33.3557V33.3276V33.2995V33.2713V33.2432V33.215V33.1868V33.1586V33.1303V33.1021V33.0738V33.0455V33.0172V32.9889V32.9606V32.9323V32.9039V32.8755V32.8471V32.8188V32.7903V32.7618V32.7335V32.705V32.6765V32.648V32.6196V32.5911V32.5625V32.534V32.5055V32.477V32.4485V32.4199V32.3913V32.3628V32.3342V32.3056V32.277V32.2485V32.2199V32.1913V32.1627V32.1341V32.1055V32.0768V32.0482V32.0197V31.991V31.9624V31.9337V31.9052V31.8765V31.8479V31.8192V31.7906V31.762V31.7334V31.7048V31.6761V31.6476V31.619V31.5903V31.5617V31.5331V31.5045V31.4759V31.4473V31.4188V31.3902V31.3616V31.333V31.3045V31.2759V31.2474V31.2188V31.1903V31.1618V31.1333V31.1048V31.0764V31.0478V31.0194V30.9909V30.9625V30.934V30.9056V30.8772V30.8488V30.8204V30.7921V30.7637V30.7354V30.7071V30.6788V30.6505V30.6222V30.5939V30.5657V30.5375V30.5093V30.4811V30.4529V30.4247V30.3966V30.3685V30.3404V30.3124V30.2843V30.2562V30.2283V30.2003V30.1724V30.1444V30.1165V30.0886V30.0607V30.0329V30.005V29.9772V29.9495V29.9217V29.894V29.8663V29.8386V29.811V29.7833V29.7558V29.7282V29.7007V29.6732V29.6457V29.6183V29.5909V29.5635V29.5362V29.5088V29.4816V29.4543V29.4271V29.3999V29.3728V29.3456V29.3186V29.2915V29.2645V29.2375V29.2105V29.1837V29.1568V29.1299V29.1031V29.0764V29.0496V29.023V28.9964V28.9697V28.9431V28.9166V28.8901V28.8637V28.8373V28.811V28.7846V28.7583V28.7321V28.7059V28.6798V28.6536V28.6276V28.6016V28.5756V28.5497V28.5238V28.4979V28.4721V28.4464V28.4207V28.395V28.3694V28.3439V28.3184V28.2929V28.2675V28.2421V28.2168V28.1916V28.1664V28.1412V28.1161V28.091V28.0661V28.0411V28.0162V27.9913V27.9666V27.9419V27.9172V27.8926V27.868V27.8434V27.819V27.7946V27.7703V27.746V27.7218V27.6976V27.6735V27.6494V27.6254V27.6015V27.5776V27.5538V27.5301V27.5064V27.4828V27.4592V27.4357V27.4123V27.3889V27.3656V27.3423V27.3191V27.296V27.2729V27.25V27.227V27.2042V27.1814V27.1586V27.136V27.1134V27.0909V27.0684V27.046V27.0238V27.0015V26.9793V26.9572V26.9351V26.9132V26.8913V26.8695V26.8478V26.8261V26.8044V26.7829V26.7615V26.7401V26.7188V26.6976V26.6764V26.6553V26.6343V26.6134V26.5925V26.5717V26.5511V26.5304V26.5099V26.4894V26.469V26.4487V26.4285V26.4084V26.3883V26.3683V26.3484V26.3286V26.3088V26.2892V26.2696V26.2501V26.2307V26.2114V26.1922V26.173V26.154V26.135V26.1161V26.0973V26.0786V26.0599V26.0414V26.0229V26.0046V25.9863V25.968V25.95V25.9319V25.914V25.8962V25.8784V25.8608V25.8432V25.8258V25.8084V25.7911V25.7739V25.7568V25.7398V25.7229V25.7061V25.6894V25.6727V25.6562V25.6398V25.6235V25.6072V25.5911V25.5751V25.5591V25.5433Z" fill="white"/>
</g>
<defs>
<filter id="filter0_d_3449_9868" x="-1.43475" y="-0.93457" width="66.8696" height="66.8691" filterUnits="userSpaceOnUse" color-interpolation-filters="sRGB">
<feFlood flood-opacity="0" result="BackgroundImageFix"/>
<feColorMatrix in="SourceAlpha" type="matrix" values="0 0 0 0 0 0 0 0 0 0 0 0 0 0 0 0 0 0 127 0" result="hardAlpha"/>
<feOffset/>
<feGaussianBlur stdDeviation="3.5"/>
<feColorMatrix type="matrix" values="0 0 0 0 0 0 0 0 0 0 0 0 0 0 0 0 0 0 0.15 0"/>
<feBlend mode="normal" in2="BackgroundImageFix" result="effect1_dropShadow_3449_9868"/>
<feBlend mode="normal" in="SourceGraphic" in2="effect1_dropShadow_3449_9868" result="shape"/>
</filter>
<clipPath id="clip0_3449_9868">
<rect width="64" height="64" fill="white" transform="translate(0 0.5)"/>
</clipPath>
</defs>
</svg>
