<svg width="64" height="65" viewBox="0 0 64 65" fill="none" xmlns="http://www.w3.org/2000/svg">
<g clip-path="url(#clip0_3449_9979)">
<g filter="url(#filter0_d_3449_9979)">
<path d="M32 58.935C46.5995 58.935 58.4348 47.0997 58.4348 32.5002C58.4348 17.9007 46.5995 6.06543 32 6.06543C17.4005 6.06543 5.56522 17.9007 5.56522 32.5002C5.56522 47.0997 17.4005 58.935 32 58.935Z" fill="#C4C4C4"/>
</g>
<path fill-rule="evenodd" clip-rule="evenodd" d="M32.8696 14.4126C32.8696 15.35 33.0326 16.1494 33.2445 16.573C33.7282 17.5407 33.913 18.8283 33.913 19.9778C33.913 21.1273 33.7283 22.415 33.2444 23.3827L30.7556 22.1382C30.9674 21.7146 31.1304 20.9153 31.1304 19.9778C31.1304 19.0404 30.9674 18.2411 30.7556 17.8174C30.2718 16.8498 30.087 15.5622 30.087 14.4126C30.087 13.263 30.2717 11.9755 30.7556 11.0078L33.2445 12.2522C33.0326 12.6758 32.8696 13.4752 32.8696 14.4126ZM26.0834 17.6622C25.9084 17.4653 25.7392 17.0487 25.7391 16.4996C25.7391 15.9504 25.9083 15.5339 26.0833 15.3369L24.0036 13.4883C23.2511 14.3348 22.9565 15.4835 22.9565 16.4996C22.9566 17.5156 23.2511 18.6642 24.0035 19.5108C24.1786 19.7078 24.3478 20.1244 24.3478 20.6736C24.3478 21.2226 24.1786 21.6392 24.0036 21.8361L26.0833 23.6848C26.8359 22.8382 27.1304 21.6896 27.1304 20.6734C27.1304 19.6573 26.8358 18.5088 26.0834 17.6622ZM27.8261 25.543H36.1739V45.0213H27.8261V25.543ZM38.9565 45.0213V25.543H47.3043L46.9069 28.3257H52.8696V31.1083H46.5093L44.5217 45.0213H38.9565ZM25.0435 25.543H16.6957L17.0931 28.3257H11.1304V31.1083H17.4907L19.4783 45.0213H25.0435V25.543ZM44.5217 47.8039H19.4783V50.5865H44.5217V47.8039ZM39.9965 17.6622C39.8214 17.4653 39.6522 17.0487 39.6522 16.4996C39.6522 15.9504 39.8214 15.5339 39.9964 15.3369L37.9167 13.4883C37.1641 14.3348 36.8696 15.4835 36.8696 16.4996C36.8696 17.5156 37.1642 18.6642 37.9166 19.5108C38.0916 19.7078 38.2609 20.1244 38.2609 20.6736C38.2609 21.2226 38.0917 21.6392 37.9167 21.8361L39.9963 23.6848C40.7489 22.8382 41.0435 21.6896 41.0435 20.6734C41.0435 19.6573 40.7488 18.5088 39.9965 17.6622Z" fill="white"/>
</g>
<defs>
<filter id="filter0_d_3449_9979" x="-1.43478" y="-0.93457" width="66.8696" height="66.8691" filterUnits="userSpaceOnUse" color-interpolation-filters="sRGB">
<feFlood flood-opacity="0" result="BackgroundImageFix"/>
<feColorMatrix in="SourceAlpha" type="matrix" values="0 0 0 0 0 0 0 0 0 0 0 0 0 0 0 0 0 0 127 0" result="hardAlpha"/>
<feOffset/>
<feGaussianBlur stdDeviation="3.5"/>
<feColorMatrix type="matrix" values="0 0 0 0 0 0 0 0 0 0 0 0 0 0 0 0 0 0 0.15 0"/>
<feBlend mode="normal" in2="BackgroundImageFix" result="effect1_dropShadow_3449_9979"/>
<feBlend mode="normal" in="SourceGraphic" in2="effect1_dropShadow_3449_9979" result="shape"/>
</filter>
<clipPath id="clip0_3449_9979">
<rect width="64" height="64" fill="white" transform="translate(0 0.5)"/>
</clipPath>
</defs>
</svg>
