<svg width="64" height="65" viewBox="0 0 64 65" fill="none" xmlns="http://www.w3.org/2000/svg">
<path d="M32 62.5C48.5685 62.5 62 49.0685 62 32.5C62 15.9315 48.5685 2.5 32 2.5C15.4315 2.5 2 15.9315 2 32.5C2 49.0685 15.4315 62.5 32 62.5Z" fill="black" fill-opacity="0.02"/>
<path d="M32 61.5C48.0163 61.5 61 48.5163 61 32.5C61 16.4837 48.0163 3.5 32 3.5C15.9837 3.5 3 16.4837 3 32.5C3 48.5163 15.9837 61.5 32 61.5Z" fill="black" fill-opacity="0.02"/>
<path d="M32 60.5C47.464 60.5 60 47.964 60 32.5C60 17.036 47.464 4.5 32 4.5C16.536 4.5 4 17.036 4 32.5C4 47.964 16.536 60.5 32 60.5Z" fill="black" fill-opacity="0.02"/>
<path d="M32 59.5C46.9117 59.5 59 47.4117 59 32.5C59 17.5883 46.9117 5.5 32 5.5C17.0883 5.5 5 17.5883 5 32.5C5 47.4117 17.0883 59.5 32 59.5Z" fill="black" fill-opacity="0.02"/>
<path d="M32 58.5C46.3594 58.5 58 46.8594 58 32.5C58 18.1406 46.3594 6.5 32 6.5C17.6406 6.5 6 18.1406 6 32.5C6 46.8594 17.6406 58.5 32 58.5Z" fill="#C4C4C4"/>
<path fill-rule="evenodd" clip-rule="evenodd" d="M32 27.3574C29.1598 27.3574 26.8571 29.6601 26.8571 32.5003C26.8571 35.3404 29.1598 37.6431 32 37.6431C34.8401 37.6431 37.1428 35.3404 37.1428 32.5003C37.1428 29.6601 34.8401 27.3574 32 27.3574ZM32 29.9289C33.4181 29.9289 34.5714 31.0821 34.5714 32.5003C34.5714 33.9184 33.4181 35.0717 32 35.0717C30.5818 35.0717 29.4285 33.9184 29.4285 32.5003C29.4285 31.0821 30.5818 29.9289 32 29.9289Z" fill="white"/>
<path fill-rule="evenodd" clip-rule="evenodd" d="M32 17.0713C23.4796 17.0713 16.5714 23.9794 16.5714 32.4999C16.5714 41.0203 23.4796 47.9284 32 47.9284C40.5204 47.9284 47.4286 41.0203 47.4286 32.4999C47.4286 23.9794 40.5204 17.0713 32 17.0713ZM32 19.6427C39.0894 19.6427 44.8571 25.4104 44.8571 32.4999C44.8571 39.5893 39.0894 45.357 32 45.357C24.9106 45.357 19.1428 39.5893 19.1428 32.4999C19.1428 25.4104 24.9106 19.6427 32 19.6427Z" fill="white"/>
<path fill-rule="evenodd" clip-rule="evenodd" d="M32 19.6429C30.5806 19.6429 29.4286 18.4909 29.4286 17.0714C29.4286 15.652 30.5806 14.5 32 14.5C33.4194 14.5 34.5714 15.652 34.5714 17.0714C34.5714 18.4909 33.4194 19.6429 32 19.6429Z" fill="white"/>
<path fill-rule="evenodd" clip-rule="evenodd" d="M21.7143 24.7854C20.2949 24.7854 19.1429 23.6334 19.1429 22.214C19.1429 20.7946 20.2949 19.6426 21.7143 19.6426C23.1337 19.6426 24.2857 20.7946 24.2857 22.214C24.2857 23.6334 23.1337 24.7854 21.7143 24.7854Z" fill="white"/>
<path fill-rule="evenodd" clip-rule="evenodd" d="M42.2857 24.7854C40.8663 24.7854 39.7143 23.6334 39.7143 22.214C39.7143 20.7946 40.8663 19.6426 42.2857 19.6426C43.7052 19.6426 44.8572 20.7946 44.8572 22.214C44.8572 23.6334 43.7052 24.7854 42.2857 24.7854Z" fill="white"/>
<path fill-rule="evenodd" clip-rule="evenodd" d="M21.7143 45.3567C20.2949 45.3567 19.1429 44.2047 19.1429 42.7853C19.1429 41.3659 20.2949 40.2139 21.7143 40.2139C23.1337 40.2139 24.2857 41.3659 24.2857 42.7853C24.2857 44.2047 23.1337 45.3567 21.7143 45.3567Z" fill="white"/>
<path fill-rule="evenodd" clip-rule="evenodd" d="M42.2857 45.3567C40.8663 45.3567 39.7143 44.2047 39.7143 42.7853C39.7143 41.3659 40.8663 40.2139 42.2857 40.2139C43.7052 40.2139 44.8572 41.3659 44.8572 42.7853C44.8572 44.2047 43.7052 45.3567 42.2857 45.3567Z" fill="white"/>
<path fill-rule="evenodd" clip-rule="evenodd" d="M47.4285 35.0716C48.848 35.0716 50 33.9196 50 32.5001C50 31.0807 48.848 29.9287 47.4285 29.9287C46.0091 29.9287 44.8571 31.0807 44.8571 32.5001C44.8571 33.9196 46.0091 35.0716 47.4285 35.0716Z" fill="white"/>
<path fill-rule="evenodd" clip-rule="evenodd" d="M32 45.3574C30.5806 45.3574 29.4286 46.5094 29.4286 47.9288C29.4286 49.3483 30.5806 50.5003 32 50.5003C33.4194 50.5003 34.5714 49.3483 34.5714 47.9288C34.5714 46.5094 33.4194 45.3574 32 45.3574Z" fill="white"/>
<path fill-rule="evenodd" clip-rule="evenodd" d="M16.5714 35.0716C15.152 35.0716 14 33.9196 14 32.5001C14 31.0807 15.152 29.9287 16.5714 29.9287C17.9909 29.9287 19.1429 31.0807 19.1429 32.5001C19.1429 33.9196 17.9909 35.0716 16.5714 35.0716Z" fill="white"/>
<path fill-rule="evenodd" clip-rule="evenodd" d="M16.5714 33.7853H29.4286V31.2139H16.5714V33.7853Z" fill="white"/>
<path fill-rule="evenodd" clip-rule="evenodd" d="M34.5714 33.7853H47.4286V31.2139H34.5714V33.7853Z" fill="white"/>
<path fill-rule="evenodd" clip-rule="evenodd" d="M30.7143 29.9284H33.2857V17.0713H30.7143V29.9284Z" fill="white"/>
<path fill-rule="evenodd" clip-rule="evenodd" d="M30.7143 47.9284H33.2857V35.0713H30.7143V47.9284Z" fill="white"/>
<path fill-rule="evenodd" clip-rule="evenodd" d="M42.0006 20.6816L32.9094 29.7729L34.7274 31.5909L43.8186 22.4996L42.0006 20.6816Z" fill="white"/>
<path fill-rule="evenodd" clip-rule="evenodd" d="M29.2729 33.4092L20.1816 42.5005L21.9996 44.3185L31.0909 35.2272L29.2729 33.4092Z" fill="white"/>
<path fill-rule="evenodd" clip-rule="evenodd" d="M43.8188 42.5005L34.7275 33.4092L32.9095 35.2272L42.0008 44.3185L43.8188 42.5005Z" fill="white"/>
<path fill-rule="evenodd" clip-rule="evenodd" d="M31.091 29.7729L21.9997 20.6816L20.1817 22.4996L29.273 31.5909L31.091 29.7729Z" fill="white"/>
</svg>
