<svg width="60" height="60" viewBox="0 0 60 60" fill="none" xmlns="http://www.w3.org/2000/svg">
<path fill-rule="evenodd" clip-rule="evenodd" d="M25 15.5C25 19.0896 22.0896 22 18.5 22C14.9104 22 12 19.0896 12 15.5C12 11.9104 14.9104 9 18.5 9C22.0896 9 25 11.9104 25 15.5Z" stroke="white" stroke-width="5"/>
<path fill-rule="evenodd" clip-rule="evenodd" d="M48 15.5C48 19.0896 45.0896 22 41.5 22C37.9104 22 35 19.0896 35 15.5C35 11.9104 37.9104 9 41.5 9C45.0896 9 48 11.9104 48 15.5Z" stroke="white" stroke-width="5"/>
<path fill-rule="evenodd" clip-rule="evenodd" d="M26.2089 51H10.7912C7.3746 51 5.06018 47.4607 6.37291 44.2497L15.6274 25H22.0076L30.6272 44.2497C31.94 47.4607 29.6239 51 26.2089 51Z" stroke="white" stroke-width="5"/>
<path fill-rule="evenodd" clip-rule="evenodd" d="M33.7912 25H49.209C52.624 25 54.94 28.5392 53.6272 31.7502L45.0076 51H38.6274L29.3729 31.7502C28.0602 28.5392 30.3746 25 33.7912 25Z" stroke="white" stroke-width="5"/>
<path fill-rule="evenodd" clip-rule="evenodd" d="M25 15.5C25 19.0896 22.0896 22 18.5 22C14.9104 22 12 19.0896 12 15.5C12 11.9104 14.9104 9 18.5 9C22.0896 9 25 11.9104 25 15.5Z" fill="#7A7A79"/>
<path fill-rule="evenodd" clip-rule="evenodd" d="M48 15.5C48 19.0896 45.0896 22 41.5 22C37.9104 22 35 19.0896 35 15.5C35 11.9104 37.9104 9 41.5 9C45.0896 9 48 11.9104 48 15.5Z" fill="#7A7A79"/>
<path fill-rule="evenodd" clip-rule="evenodd" d="M26.2089 51H10.7912C7.3746 51 5.06018 47.4607 6.37291 44.2497L15.6274 25H22.0076L30.6272 44.2497C31.94 47.4607 29.6239 51 26.2089 51Z" fill="#7A7A79"/>
<path fill-rule="evenodd" clip-rule="evenodd" d="M33.7912 25H49.209C52.624 25 54.94 28.5392 53.6272 31.7502L45.0076 51H38.6274L29.3729 31.7502C28.0602 28.5392 30.3746 25 33.7912 25Z" fill="#7A7A79"/>
</svg>
