<svg width="20" height="36" viewBox="0 0 20 36" fill="none" xmlns="http://www.w3.org/2000/svg">
<path d="M3 1L6.5 15.5L8.5748 13.4252C9.0589 14.5927 9.48417 16.0646 9.84571 17.7518C10.3907 20.2954 10.7589 23.1674 11.006 25.8858C11.2527 28.5992 11.3763 31.1317 11.4382 32.9875C11.4691 33.9145 11.4845 34.6708 11.4922 35.1939C11.496 35.4555 11.4979 35.6586 11.4989 35.7956C11.4994 35.8641 11.4996 35.916 11.4997 35.9504L11.4998 35.9887V35.9997L12.9998 36C14.4998 36 14.4998 35.9995 14.4998 35.9995V35.9837L14.4997 35.9402C14.4996 35.9024 14.4993 35.8469 14.4988 35.7747C14.4978 35.6305 14.4958 35.4195 14.4919 35.1498C14.4839 34.6105 14.4681 33.8355 14.4365 32.8875C14.3734 30.9933 14.247 28.4008 13.9937 25.6142C13.7408 22.8326 13.359 19.8296 12.7791 17.1232C12.3094 14.931 11.6871 12.8194 10.8328 11.1672L13 9L3 1Z" fill="#E0E0E0"/>
</svg>
