<svg width="20" height="36" viewBox="0 0 20 36" fill="none" xmlns="http://www.w3.org/2000/svg">
<path d="M10 6C8.48866 6 7.23997 6.38229 6.24918 7.07584C5.26743 7.76306 4.64388 8.6821 4.2494 9.58942C3.49899 11.3154 3.4997 13.1977 3.49999 13.9578L3.5 19H0L5 32L10 19H6.5V14C6.5 13.2306 6.5153 11.9018 7.0006 10.7856C7.23112 10.2554 7.54507 9.83069 7.96957 9.53354C8.38503 9.24271 9.01134 9 10 9C11.0204 9 11.6622 9.2272 12.0781 9.49522C12.4934 9.76288 12.7913 10.1407 13.0095 10.6207C13.4796 11.6551 13.5 12.9547 13.5 14V35.9991C13.5 35.9991 13.5 36 15 36C16.5 36 16.5 35.9998 16.5 35.9998V13.9289C16.5005 12.951 16.5015 11.0533 15.7405 9.37929C15.3337 8.48433 14.6941 7.61212 13.7032 6.97351C12.7128 6.3353 11.4796 6 10 6Z" fill="#E0E0E0"/>
</svg>
