<svg width="20" height="36" viewBox="0 0 20 36" fill="none" xmlns="http://www.w3.org/2000/svg">
<path d="M16.9998 1L13.4998 15.5L11.425 13.4252C10.9409 14.5927 10.5156 16.0646 10.1541 17.7518C9.6091 20.2954 9.24094 23.1674 8.99382 25.8858C8.74716 28.5992 8.62352 31.1317 8.56167 32.9875C8.53076 33.9145 8.51534 34.6708 8.50765 35.1939C8.5038 35.4555 8.50189 35.6586 8.50094 35.7956C8.50047 35.8641 8.50023 35.916 8.50011 35.9504L8.50001 35.9887L8.5 35.9997L7 36C5.5 36 5.5 35.9995 5.5 35.9995L5.50002 35.9837L5.50013 35.9402C5.50026 35.9024 5.50051 35.8469 5.50101 35.7747C5.50201 35.6305 5.50401 35.4195 5.50797 35.1498C5.51591 34.6105 5.53173 33.8355 5.56333 32.8875C5.62647 30.9933 5.75282 28.4008 6.00614 25.6142C6.259 22.8326 6.6408 19.8296 7.22072 17.1232C7.69047 14.931 8.31274 12.8194 9.16705 11.1672L6.99984 9L16.9998 1Z" fill="#E0E0E0"/>
</svg>
