<svg width="36" height="36" viewBox="0 0 36 36" fill="none" xmlns="http://www.w3.org/2000/svg">
<path  fill-rule="evenodd" clip-rule="evenodd" d="M27.2173 1.8653C27.5159 1.43976 28.1464 1.43976 28.4451 1.86529L33.8358 9.54628C34.2132 10.0839 33.7661 10.8125 33.1159 10.7196L29.8313 10.2504V19.8835C29.9004 20.2483 29.9366 20.6246 29.9366 21.0094V33.0128C29.9366 34.1174 29.0412 35.0128 27.9366 35.0128C27.5314 35.0128 27.1543 34.8923 26.8393 34.6852C26.2371 34.3405 25.8313 33.6917 25.8313 32.9482V20.3652C25.5642 19.5752 24.8188 19.0094 23.9419 19.0094L9.15911 19.0094L9.62853 22.2954C9.72142 22.9456 8.99285 23.3926 8.45522 23.0153L0.774228 17.6246C0.348691 17.3259 0.348696 16.6954 0.774237 16.3968L8.45523 11.0062C8.99287 10.6289 9.72143 11.0759 9.62854 11.7261L9.1595 15.0094L23.9419 15.0094C24.6024 15.0094 25.2376 15.1161 25.8313 15.313V10.2504L22.5467 10.7196C21.8965 10.8125 21.4494 10.0839 21.8267 9.5463L27.2173 1.8653Z" fill="#eee"/>
<path fill-rule="evenodd" clip-rule="evenodd" d="M17.9266 25.5676V23C17.9266 20.7909 19.7175 19 21.9266 19C24.1358 19 25.9266 20.7909 25.9266 23V32.8646C25.9266 33.9692 26.8221 34.8646 27.9266 34.8646C29.0312 34.8646 29.9266 33.9692 29.9266 32.8646V23C29.9266 18.5817 26.3449 15 21.9266 15C17.5083 15 13.9266 18.5817 13.9266 23V25.5771L10.6086 25.1031C9.95837 25.0102 9.51131 25.7388 9.88864 26.2765L15.2794 33.9574C15.578 34.383 16.2085 34.383 16.5072 33.9574L21.8978 26.2764C22.2751 25.7388 21.828 25.0102 21.1778 25.1031L17.9266 25.5676Z" fill="#eee"/>
</svg>
