<svg width="26" height="36" viewBox="0 0 26 36" fill="none" xmlns="http://www.w3.org/2000/svg">
<path  fill-rule="evenodd" clip-rule="evenodd" d="M18.4885 1.86529C18.1898 1.43976 17.5593 1.43976 17.2607 1.8653L11.8701 9.5463C11.4928 10.0839 11.9398 10.8125 12.59 10.7196L15.8839 10.249V33C15.8839 34.1045 16.7794 35 17.8839 35C18.9885 35 19.8839 34.1045 19.8839 33V10.2517L23.1592 10.7196C23.8095 10.8125 24.2565 10.0839 23.8792 9.54628L18.4885 1.86529Z" fill="#eee"/>
<path fill-rule="evenodd" clip-rule="evenodd" d="M0.774315 20.6152C0.348778 20.3165 0.348783 19.686 0.774324 19.3874L8.45532 13.9968C8.99295 13.6195 9.72151 14.0665 9.62862 14.7167L9.15959 18L13.9375 18C17.2519 18 19.9365 20.687 19.9365 24V33.0034C19.9365 34.108 19.0411 35.0034 17.9365 35.0034C16.832 35.0034 15.9365 34.108 15.9365 33.0034V24C15.9365 22.8948 15.0414 22 13.9375 22L9.1592 22L9.62862 25.286C9.72151 25.9362 8.99294 26.3832 8.45531 26.0059L0.774315 20.6152Z" fill="#eee"/>
</svg>
