<svg width="36" height="36" viewBox="0 0 36 36" fill="none" xmlns="http://www.w3.org/2000/svg">
<path  fill-rule="evenodd" clip-rule="evenodd" d="M27.2172 1.8653C27.5158 1.43976 28.1463 1.43976 28.445 1.86529L33.8357 9.54628C34.2131 10.0839 33.766 10.8125 33.1158 10.7196L29.8312 10.2504V21.7606C29.894 22.1645 29.9266 22.5785 29.9266 23V31.8646C29.9266 32.0781 29.8932 32.2838 29.8312 32.4768V32.9482C29.8312 34.0527 28.9358 34.9482 27.8312 34.9482C26.7266 34.9482 25.8312 34.0527 25.8312 32.9482V22.1275C25.4331 20.338 23.8361 19 21.9266 19C19.7175 19 17.9266 20.7909 17.9266 23V25.5676L21.1778 25.1031C21.828 25.0102 22.2751 25.7388 21.8978 26.2764L16.5072 33.9574C16.2085 34.383 15.578 34.383 15.2794 33.9574L9.88864 26.2765C9.51131 25.7388 9.95837 25.0102 10.6086 25.1031L13.9266 25.5771V23C13.9266 18.5817 17.5083 15 21.9266 15C23.3446 15 24.6763 15.3689 25.8312 16.0159V10.2504L22.5466 10.7196C21.8964 10.8125 21.4493 10.0839 21.8266 9.5463L27.2172 1.8653Z" fill="#eee"/>
<path fill-rule="evenodd" clip-rule="evenodd" d="M0.774126 17.6246C0.348589 17.3259 0.348595 16.6954 0.774136 16.3968L8.45513 11.0062C8.99277 10.6289 9.72132 11.0759 9.62844 11.7261L9.1594 15.0094L23.9418 15.0094C27.2589 15.0094 29.9365 17.6991 29.9365 21.0094V33.0128C29.9365 34.1174 29.0411 35.0128 27.9365 35.0128C26.832 35.0128 25.9365 34.1174 25.9365 33.0128V21.0094C25.9365 19.9014 25.0429 19.0094 23.9418 19.0094L9.15901 19.0094L9.62843 22.2954C9.72132 22.9456 8.99275 23.3926 8.45512 23.0153L0.774126 17.6246Z" fill="#eee"/>
</svg>
