<svg width="32" height="36" viewBox="0 0 32 36" fill="none" xmlns="http://www.w3.org/2000/svg">
<path fill-rule="evenodd" clip-rule="evenodd" d="M31.0291 8.61516C31.4546 8.31651 31.4546 7.68601 31.0291 7.38736L23.3481 1.99678C22.8105 1.61947 22.0819 2.06653 22.1748 2.71675L22.6438 6.00002L19.8825 6.00002C16.5686 6.00002 13.8828 8.68651 13.8828 12V33.0034C13.8828 34.108 14.7782 35.0034 15.8828 35.0034C16.9874 35.0034 17.8828 34.108 17.8828 33.0034V12C17.8828 10.8953 18.7781 10 19.8825 10L22.6442 10L22.1748 13.286C22.0819 13.9362 22.8105 14.3832 23.3481 14.0059L31.0291 8.61516Z" fill="#eee"/>
<path  fill-rule="evenodd" clip-rule="evenodd" d="M0.749224 8.61516C0.323687 8.31651 0.323692 7.68601 0.749233 7.38736L8.43023 1.99678C8.96786 1.61947 9.69642 2.06653 9.60353 2.71675L9.13449 6.00002L11.8958 6.00002C15.2097 6.00002 17.8955 8.68651 17.8955 12V33.0034C17.8955 34.108 17.0001 35.0034 15.8955 35.0034C14.7909 35.0034 13.8955 34.108 13.8955 33.0034V12C13.8955 10.8953 13.0002 10 11.8958 10L9.13411 10L9.60353 13.286C9.69642 13.9362 8.96785 14.3832 8.43021 14.0059L0.749224 8.61516Z" fill="#eee"/>
</svg>
