<svg width="30" height="36" viewBox="0 0 30 36" fill="none" xmlns="http://www.w3.org/2000/svg">
<path fill-rule="evenodd" clip-rule="evenodd" d="M1.84224 19.6152C1.4167 19.3165 1.41671 18.686 1.84225 18.3874L9.52325 12.9968C10.0609 12.6195 10.7894 13.0665 10.6965 13.7167L10.2275 17L13.8726 17C17.187 17 19.8716 19.687 19.8716 23V33.0034C19.8716 34.108 18.9762 35.0034 17.8716 35.0034C16.767 35.0034 15.8716 34.108 15.8716 33.0034V23C15.8716 21.8948 14.9765 21 13.8726 21L10.2271 21L10.6965 24.286C10.7894 24.9362 10.0609 25.3832 9.52323 25.0059L1.84224 19.6152Z" fill="#eee"/>
<path  fill-rule="evenodd" clip-rule="evenodd" d="M29.044 1.72356C28.9981 1.20571 28.4521 0.890464 27.9807 1.10967L19.4718 5.06632C18.8762 5.34326 18.8991 6.19774 19.5087 6.44241L22.2452 7.54081L16.6776 17.054C16.1396 17.9733 15.856 19.0194 15.856 20.0846V33.0036C15.856 34.1081 16.7514 35.0036 17.856 35.0036C18.9605 35.0036 19.856 34.1081 19.856 33.0036V20.0846C19.856 19.7295 19.9505 19.3808 20.1298 19.0744L25.7621 9.4508L28.6619 11.727C29.1785 12.1326 29.93 11.7251 29.872 11.0709L29.044 1.72356Z" fill="#eee"/>
</svg>
