<svg width="36" height="36" viewBox="0 0 36 36" fill="none" xmlns="http://www.w3.org/2000/svg">
<path  fill-rule="evenodd" clip-rule="evenodd" d="M28.4451 1.86529C28.1464 1.43976 27.5159 1.43976 27.2173 1.8653L21.8267 9.5463C21.4494 10.0839 21.8965 10.8125 22.5467 10.7196L25.8313 10.2504V15.313C25.2376 15.1161 24.6024 15.0094 23.9419 15.0094H22.3183C22.1885 15.0032 22.0579 15 21.9266 15C21.7953 15 21.6647 15.0032 21.535 15.0094L9.1595 15.0094L9.62854 11.7261C9.72142 11.0759 8.99287 10.6289 8.45523 11.0062L0.774237 16.3968C0.348696 16.6954 0.348691 17.3259 0.774228 17.6246L8.45522 23.0153C8.99285 23.3926 9.72142 22.9456 9.62853 22.2953L9.15911 19.0094H14.9914C14.3141 20.184 13.9266 21.5467 13.9266 23V25.5771L10.6086 25.1031C9.95837 25.0102 9.51131 25.7388 9.88864 26.2765L15.2794 33.9574C15.578 34.383 16.2085 34.383 16.5072 33.9574L21.8978 26.2764C22.2751 25.7388 21.828 25.0102 21.1778 25.1031L17.9266 25.5676V23C17.9266 20.8839 19.5699 19.1515 21.65 19.0094H22.2033C23.989 19.1314 25.4527 20.4253 25.8313 22.128V32.9482C25.8313 33.6917 26.2371 34.3405 26.8393 34.6852C27.1543 34.8923 27.5314 35.0128 27.9366 35.0128C29.0412 35.0128 29.9366 34.1174 29.9366 33.0128V21.0094C29.9366 20.6246 29.9004 20.2483 29.8313 19.8835V10.2504L33.1159 10.7196C33.7661 10.8125 34.2132 10.0839 33.8358 9.54628L28.4451 1.86529Z" fill="#eee"/>
</svg>
