<svg width="32" height="36" viewBox="0 0 32 36" fill="none" xmlns="http://www.w3.org/2000/svg">
<path  fill-rule="evenodd" clip-rule="evenodd" d="M0.749334 7.38736C0.323793 7.68601 0.323788 8.31651 0.749325 8.61516L8.43032 14.0059C8.96795 14.3832 9.69652 13.9362 9.60363 13.286L9.13421 10L11.8959 10C12.934 10 13.7873 10.791 13.8861 11.8034C13.884 11.8687 13.8829 11.9342 13.8829 12V33.0034C13.8829 34.108 14.7783 35.0034 15.8829 35.0034C15.885 35.0034 15.8871 35.0034 15.8893 35.0034C15.8914 35.0034 15.8935 35.0034 15.8956 35.0034C17.0002 35.0034 17.8956 34.108 17.8956 33.0034V12C17.8956 11.9342 17.8946 11.8687 17.8925 11.8035C17.9912 10.791 18.8445 10 19.8826 10L22.6443 10L22.1749 13.286C22.082 13.9362 22.8106 14.3832 23.3482 14.0059L31.0292 8.61516C31.4547 8.31651 31.4547 7.68601 31.0292 7.38736L23.3482 1.99678C22.8106 1.61947 22.082 2.06653 22.1749 2.71675L22.6439 6.00002L19.8826 6.00002C18.349 6.00002 16.9499 6.57538 15.8893 7.52198C14.8286 6.57538 13.4295 6.00002 11.8959 6.00002L9.13459 6.00002L9.60363 2.71675C9.69652 2.06653 8.96796 1.61947 8.43033 1.99678L0.749334 7.38736Z" fill="#eee"/>
</svg>
