<svg width="24" height="36" viewBox="0 0 24 36" fill="none" xmlns="http://www.w3.org/2000/svg">
<path  fill-rule="evenodd" clip-rule="evenodd" d="M10.0428 24.766V24.1985C10.0428 21.9893 11.8337 20.1985 14.0428 20.1985C16.252 20.1985 18.0428 21.9893 18.0428 24.1985V33.0631C18.0428 34.1676 18.9383 35.0631 20.0428 35.0631C21.1474 35.0631 22.0428 34.1676 22.0428 33.0631V24.1985C22.0428 19.7802 18.4611 16.1985 14.0428 16.1985C9.62455 16.1985 6.04282 19.7802 6.04282 24.1985V24.7757L2.72432 24.3016C2.07409 24.2087 1.62703 24.9373 2.00436 25.4749L7.39511 33.1559C7.69376 33.5815 8.32426 33.5815 8.62291 33.1559L14.0135 25.4749C14.3908 24.9373 13.9437 24.2087 13.2935 24.3016L10.0428 24.766Z" fill="#eee"/>
<path fill-rule="evenodd" clip-rule="evenodd" d="M4.842 8.61516C4.41646 8.31651 4.41647 7.68601 4.84201 7.38736L12.523 1.99678C13.0606 1.61947 13.7892 2.06653 13.6963 2.71675L13.2308 5.97542L15.994 5.97542C19.3079 5.97542 21.9937 8.66191 21.9937 11.9754V32.9788C21.9937 34.0834 21.0982 34.9789 19.9937 34.9789C18.8891 34.9789 17.9937 34.0834 17.9937 32.9788V11.9754C17.9937 10.8707 17.0983 9.97542 15.994 9.97542L13.2234 9.97542L13.6963 13.286C13.7892 13.9362 13.0606 14.3832 12.523 14.0059L4.842 8.61516Z" fill="#eee"/>
</svg>
