<svg width="36" height="36" viewBox="0 0 36 36" fill="none" xmlns="http://www.w3.org/2000/svg">
<path fill-rule="evenodd" clip-rule="evenodd" d="M18.4885 1.86529C18.1898 1.43976 17.5593 1.43976 17.2607 1.8653L11.8701 9.5463C11.4928 10.0839 11.9398 10.8125 12.59 10.7196L15.8839 10.249V33C15.8839 34.1045 16.7794 35 17.8839 35C18.9885 35 19.8839 34.1045 19.8839 33V10.2517L23.1592 10.7196C23.8095 10.8125 24.2565 10.0839 23.8792 9.54628L18.4885 1.86529Z" fill="#eee"/>
<path  fill-rule="evenodd" clip-rule="evenodd" d="M33.1827 19.3873C33.6082 19.686 33.6082 20.3164 33.1827 20.6151L25.5017 26.0059C24.964 26.3832 24.2355 25.9361 24.3284 25.2859L24.7978 21.9999L21.8374 21.9999C20.8713 21.9999 20.0652 22.6851 19.8789 23.597C19.8878 23.7302 19.8923 23.8646 19.8923 24V33.0034C19.8923 34.108 18.9968 35.0034 17.8923 35.0034C17.8827 35.0034 17.8731 35.0033 17.8635 35.0032C17.8551 35.0033 17.8468 35.0034 17.8384 35.0034C16.7338 35.0034 15.8384 34.1079 15.8384 33.0034V23.9999C15.8384 23.8645 15.8429 23.7302 15.8517 23.597C15.6654 22.6852 14.8593 22 13.8933 22L10.9489 22L11.421 25.3045C11.5139 25.9547 10.7853 26.4018 10.2477 26.0245L2.56672 20.6339C2.14118 20.3352 2.14117 19.7047 2.56671 19.4061L10.2477 14.0153C10.7853 13.638 11.5139 14.0851 11.421 14.7353L10.9546 18L13.8933 18C15.4169 18 16.8075 18.5678 17.8653 19.5033C18.9231 18.5678 20.3137 17.9999 21.8374 17.9999L24.7974 17.9999L24.3284 14.7167C24.2355 14.0665 24.964 13.6194 25.5017 13.9967L33.1827 19.3873Z" fill="#eee"/>
</svg>
