<svg width="26" height="36" viewBox="0 0 26 36" fill="none" xmlns="http://www.w3.org/2000/svg">
<path  fill-rule="evenodd" clip-rule="evenodd" d="M17.2606 1.8653C17.5592 1.43976 18.1897 1.43976 18.4884 1.86529L23.8791 9.54628C24.2564 10.0839 23.8094 10.8125 23.1592 10.7196L19.8838 10.2517V23.202C19.9185 23.4631 19.9364 23.7294 19.9364 24V33.0034C19.9364 34.108 19.041 35.0034 17.9364 35.0034C17.8829 35.0034 17.8299 35.0013 17.7775 34.9972C16.7224 34.9419 15.8838 34.0689 15.8838 33V23.5421C15.677 22.6578 14.884 22 13.9375 22H9.15911L9.62853 25.2859C9.72142 25.9362 8.99285 26.3832 8.45522 26.0059L0.774227 20.6152C0.34869 20.3165 0.348696 19.686 0.774237 19.3874L8.45523 13.9968C8.99287 13.6195 9.72143 14.0665 9.62854 14.7167L9.1595 18L13.9375 18C14.6188 18 15.2736 18.1136 15.8838 18.3228V10.249L12.59 10.7196C11.9397 10.8125 11.4927 10.0839 11.87 9.5463L17.2606 1.8653Z" fill="#eee"/>
</svg>
