<svg width="36" height="36" viewBox="0 0 36 36" fill="none" xmlns="http://www.w3.org/2000/svg">
<path fill-rule="evenodd" clip-rule="evenodd" d="M28.5612 1.86529C28.2626 1.43976 27.6321 1.43976 27.3334 1.8653L21.9428 9.5463C21.5655 10.0839 22.0126 10.8125 22.6628 10.7196L25.9474 10.2504V32.9482C25.9474 34.0527 26.8428 34.9482 27.9474 34.9482C29.052 34.9482 29.9474 34.0527 29.9474 32.9482V10.2504L33.232 10.7196C33.8822 10.8125 34.3293 10.0839 33.952 9.54628L28.5612 1.86529Z" fill="#eee"/>
<path  fill-rule="evenodd" clip-rule="evenodd" d="M0.890448 16.3968C0.464907 16.6954 0.464901 17.3259 0.890439 17.6246L8.57143 23.0153C9.10906 23.3926 9.83763 22.9456 9.74474 22.2953L9.27532 19.0094H15.1077C14.4303 20.184 14.0428 21.5467 14.0428 23V25.5771L10.7248 25.1031C10.0746 25.0102 9.62752 25.7388 10.0048 26.2765L15.3956 33.9574C15.6943 34.383 16.3247 34.383 16.6234 33.9574L22.014 26.2764C22.3913 25.7388 21.9442 25.0102 21.294 25.1031L18.0428 25.5676V23C18.0428 20.8839 19.6861 19.1515 21.7662 19.0094H22.3195C24.3996 19.1515 26.0428 20.8839 26.0428 23V31.8646C26.0428 31.9325 26.0462 31.9996 26.0528 32.0658V33.0128C26.0528 34.1174 26.9483 35.0128 28.0528 35.0128C29.1574 35.0128 30.0528 34.1174 30.0528 33.0128V21.0094C30.0528 17.6991 27.3752 15.0094 24.0581 15.0094H22.4345C22.3047 15.0032 22.1741 15 22.0428 15C21.9115 15 21.781 15.0032 21.6512 15.0094L9.27571 15.0094L9.74475 11.7261C9.83764 11.0759 9.10908 10.6289 8.57144 11.0062L0.890448 16.3968Z" fill="#eee"/>
</svg>
