<svg width="30" height="36" viewBox="0 0 30 36" fill="none" xmlns="http://www.w3.org/2000/svg">
<path  fill-rule="evenodd" clip-rule="evenodd" d="M27.9806 1.10967C28.452 0.890464 28.998 1.20571 29.0439 1.72356L29.8719 11.0709C29.9299 11.7251 29.1784 12.1326 28.6617 11.727L25.7619 9.4508L20.1297 19.0744C19.9503 19.3808 19.8558 19.7295 19.8558 20.0846V22.5636C19.8662 22.7077 19.8714 22.8533 19.8714 23V33.0034C19.8714 34.1056 18.9799 34.9996 17.8786 35.0034C17.8762 35.0034 17.8738 35.0034 17.8714 35.0034C16.7669 35.0034 15.8714 34.108 15.8714 33.0034V23C15.8714 22.9149 15.8661 22.831 15.8558 22.7486C15.7323 21.7622 14.8913 21 13.8725 21L10.227 21L10.6964 24.286C10.7893 24.9362 10.0607 25.3832 9.52309 25.0059L1.8421 19.6152C1.41656 19.3165 1.41657 18.686 1.84211 18.3874L9.5231 12.9968C10.0607 12.6195 10.7893 13.0665 10.6964 13.7167L10.2274 17L13.8725 17C14.7802 17 15.6407 17.2016 16.4117 17.5623C16.4919 17.3892 16.5806 17.2195 16.6775 17.054L22.2451 7.54081L19.5085 6.44241C18.899 6.19774 18.8761 5.34326 19.4717 5.06632L27.9806 1.10967Z" fill="#eee"/>
</svg>
