<svg width="36" height="36" viewBox="0 0 36 36" fill="none" xmlns="http://www.w3.org/2000/svg">
<path  fill-rule="evenodd" clip-rule="evenodd" d="M33.1827 20.6151C33.6082 20.3164 33.6082 19.686 33.1827 19.3873L25.5017 13.9967C24.964 13.6194 24.2355 14.0665 24.3284 14.7167L24.7974 17.9999L21.8374 17.9999C18.523 17.9999 15.8384 20.6869 15.8384 23.9999V33.0034C15.8384 34.1079 16.7338 35.0034 17.8384 35.0034C18.9429 35.0034 19.8384 34.1079 19.8384 33.0034V23.9999C19.8384 22.8947 20.7335 21.9999 21.8374 21.9999L24.7978 21.9999L24.3284 25.2859C24.2355 25.9361 24.964 26.3832 25.5017 26.0059L33.1827 20.6151Z" fill="#eee"/>
<path  fill-rule="evenodd" clip-rule="evenodd" d="M18.4885 1.86529C18.1898 1.43976 17.5593 1.43976 17.2607 1.8653L11.8701 9.5463C11.4928 10.0839 11.9398 10.8125 12.59 10.7196L15.8839 10.249V33C15.8839 34.1045 16.7794 35 17.8839 35C18.9885 35 19.8839 34.1045 19.8839 33V10.2517L23.1592 10.7196C23.8095 10.8125 24.2565 10.0839 23.8792 9.54628L18.4885 1.86529Z" fill="#eee"/>
<path fill-rule="evenodd" clip-rule="evenodd" d="M2.56671 19.4061C2.14117 19.7047 2.14118 20.3352 2.56672 20.6339L10.2477 26.0245C10.7853 26.4018 11.5139 25.9547 11.421 25.3045L10.9489 22L13.8933 22C14.9972 22 15.8923 22.8947 15.8923 24V33.0034C15.8923 34.108 16.7877 35.0034 17.8923 35.0034C18.9968 35.0034 19.8923 34.108 19.8923 33.0034V24C19.8923 20.6869 17.2076 18 13.8933 18L10.9546 18L11.421 14.7353C11.5139 14.0851 10.7853 13.638 10.2477 14.0153L2.56671 19.4061Z" fill="#eee"/>
</svg>
