<svg width="24" height="36" viewBox="0 0 24 36" fill="none" xmlns="http://www.w3.org/2000/svg">
<path fill-rule="evenodd" clip-rule="evenodd" d="M1.8857 21.6152C1.46016 21.3165 1.46017 20.686 1.88571 20.3874L9.5667 14.9968C10.1043 14.6195 10.8329 15.0665 10.74 15.7167L10.271 19L15.9164 19C19.231 19 21.915 21.6872 21.915 25V33.0034C21.915 34.108 21.0196 35.0034 19.915 35.0034C18.8105 35.0034 17.915 34.108 17.915 33.0034V25C17.915 23.8946 17.0201 23 15.9164 23L10.2706 23L10.74 26.286C10.8329 26.9362 10.1043 27.3832 9.56669 27.0059L1.8857 21.6152Z" fill="#eee"/>
<path  fill-rule="evenodd" clip-rule="evenodd" d="M8.65521 1.72356C8.70108 1.20571 9.24711 0.890464 9.71852 1.10967L18.2274 5.06632C18.823 5.34326 18.8001 6.19774 18.1905 6.44241L15.454 7.54081L21.0216 17.054C21.5597 17.9733 21.8433 19.0194 21.8433 20.0846V33.0036C21.8433 34.1081 20.9478 35.0036 19.8433 35.0036C18.7387 35.0036 17.8433 34.1081 17.8433 33.0036V20.0846C17.8433 19.7295 17.7487 19.3808 17.5694 19.0744L11.9372 9.4508L9.03734 11.727C8.52067 12.1326 7.76922 11.7251 7.82718 11.0709L8.65521 1.72356Z" fill="#eee"/>
</svg>
