<svg width="20" height="36" viewBox="0 0 20 36" fill="none" xmlns="http://www.w3.org/2000/svg">
<path fill-rule="evenodd" clip-rule="evenodd" d="M18.0142 14.9893H18.4231C18.7399 14.9893 19.008 15.2574 18.9836 15.5742V18.4619C18.9836 18.7787 18.7277 19.0468 18.3987 19.0468L18.0162 19.0468L18.0284 27.6246C18.0284 27.8318 17.8578 28.0024 17.6506 28.0024H15.3553C15.1481 28.0024 14.9776 27.8318 14.9776 27.6246V26.0053H5.03327V27.6246C5.03327 27.8318 4.86267 28.0024 4.65553 28.0024H2.34051C2.13337 28.0024 1.96279 27.8318 1.96279 27.6246V25.3583V19.0468H1.5502C1.2334 19.0468 0.965332 18.7909 0.965332 18.4619V15.5742C0.965332 15.2574 1.22122 14.9893 1.5502 14.9893H1.96279L1.93844 10.7692C1.93844 9.79445 2.73043 9.00244 3.70518 9.00244H16.1473C17.122 9.00244 18.002 9.79445 18.002 10.7692L18.0142 14.9893ZM14.9376 12.0619H5.0674V17.9602H14.9376V12.0619ZM4.94626 21H6.93664V22.9904H4.94626V21ZM12.9463 21H14.9366V22.9904H12.9463V21Z" fill="#eee"/>
</svg>
