<svg width="20" height="36" viewBox="0 0 20 36" fill="none" xmlns="http://www.w3.org/2000/svg">
<path fill-rule="evenodd" clip-rule="evenodd" d="M16.1592 25.4114H16.4769C16.723 25.4114 16.9313 25.6089 16.9124 25.8424V27.9702C16.9124 28.2036 16.7136 28.4011 16.458 28.4011L16.1608 28.4011L16.1702 34.7217C16.1702 34.8743 16.0377 35 15.8768 35H14.0934C13.9325 35 13.8 34.8743 13.8 34.7217V33.5285H6.07404V34.7217C6.07404 34.8743 5.9415 35 5.78057 35H3.98198C3.82105 35 3.68852 34.8743 3.68852 34.7217V33.0518V28.4011H3.36797C3.12185 28.4011 2.91357 28.2126 2.91357 27.9702V25.8424C2.91357 25.6089 3.11238 25.4114 3.36797 25.4114H3.68852L3.6696 22.3018C3.6696 21.5836 4.28491 21 5.04223 21H14.7088C15.4661 21 16.1497 21.5836 16.1497 22.3018L16.1592 25.4114ZM13.769 23.2543H6.10056V27.6005H13.769V23.2543ZM6.00615 29.8404H7.55252V31.307H6.00615V29.8404ZM12.2221 29.8404H13.7685V31.307H12.2221V29.8404Z" fill="#eee"/>
<path fill-rule="evenodd" clip-rule="evenodd" d="M18 9C18 13.4183 14.4183 17 10 17C5.58172 17 2 13.4183 2 9C2 4.58172 5.58172 1 10 1C14.4183 1 18 4.58172 18 9ZM5.17604 7.40001H14.776V10.6H5.17604V7.40001Z" fill="#eee"/>
</svg>
