<svg width="20" height="36" viewBox="0 0 20 36" fill="none" xmlns="http://www.w3.org/2000/svg">
<path fill-rule="evenodd" clip-rule="evenodd" d="M17.1379 24.0416H17.501C17.7823 24.0416 18.0203 24.2673 17.9986 24.5341V26.9658C17.9986 27.2326 17.7714 27.4584 17.4793 27.4584L17.1396 27.4584L17.1504 34.6818C17.1504 34.8563 16.999 34.9999 16.8151 34.9999H14.777C14.5931 34.9999 14.4416 34.8563 14.4416 34.6818V33.3182H5.61197V34.6818C5.61197 34.8563 5.46049 34.9999 5.27657 34.9999H3.22103C3.03712 34.9999 2.88566 34.8563 2.88566 34.6818V32.7734V27.4584H2.51931C2.23802 27.4584 2 27.2429 2 26.9658V24.5341C2 24.2673 2.22721 24.0416 2.51931 24.0416H2.88566L2.86403 20.4878C2.86403 19.667 3.56725 19 4.43274 19H15.4802C16.3457 19 17.1271 19.667 17.1271 20.4878L17.1379 24.0416ZM14.4061 21.5764H5.64227V26.5434H14.4061V21.5764ZM5.53468 29.1032H7.30196V30.7793H5.53468V29.1032ZM12.638 29.1032H14.4053V30.7793H12.638V29.1032Z" fill="#eee"/>
<path fill-rule="evenodd" clip-rule="evenodd" d="M1.67342 8.55991C1.28619 8.28815 1.2862 7.71441 1.67343 7.44264L8.66298 2.53733C9.15222 2.19398 9.81519 2.60079 9.73066 3.19248L9.32959 6H12C15.3137 6 18 8.68629 18 12V15C18 15.5523 17.5523 16 17 16H15C14.4477 16 14 15.5523 14 15V12C14 10.8954 13.1046 10 12 10H9.3292L9.73066 12.8102C9.81518 13.4019 9.1522 13.8087 8.66297 13.4654L1.67342 8.55991Z" fill="#eee"/>
</svg>
