<svg width="20" height="36" viewBox="0 0 20 36" fill="none" xmlns="http://www.w3.org/2000/svg">
<path fill-rule="evenodd" clip-rule="evenodd" d="M17.1379 24.0416H17.501C17.7823 24.0416 18.0203 24.2673 17.9986 24.5341V26.9658C17.9986 27.2326 17.7714 27.4584 17.4793 27.4584L17.1396 27.4584L17.1504 34.6818C17.1504 34.8563 16.999 34.9999 16.8151 34.9999H14.777C14.5931 34.9999 14.4416 34.8563 14.4416 34.6818V33.3182H5.61197V34.6818C5.61197 34.8563 5.46049 34.9999 5.27657 34.9999H3.22103C3.03712 34.9999 2.88566 34.8563 2.88566 34.6818V32.7734V27.4584H2.51931C2.23802 27.4584 2 27.2429 2 26.9658V24.5341C2 24.2673 2.22721 24.0416 2.51931 24.0416H2.88566L2.86403 20.4878C2.86403 19.667 3.56725 19 4.43274 19H15.4802C16.3457 19 17.1271 19.667 17.1271 20.4878L17.1379 24.0416ZM14.4061 21.5764H5.64227V26.5434H14.4061V21.5764ZM5.53468 29.1032H7.30196V30.7793H5.53468V29.1032ZM12.638 29.1032H14.4053V30.7793H12.638V29.1032Z" fill="#eee"/>
<path fill-rule="evenodd" clip-rule="evenodd" d="M18.3266 8.55993C18.7138 8.28816 18.7138 7.71442 18.3266 7.44266L11.337 2.53734C10.8478 2.19399 10.1848 2.60081 10.2693 3.1925L10.6704 6.00002H8C4.68629 6.00002 2 8.68631 2 12V15C2 15.5523 2.44772 16 3 16H5C5.55228 16 6 15.5523 6 15V12C6 10.8954 6.89543 10 8 10H10.6708L10.2693 12.8103C10.1848 13.4019 10.8478 13.8088 11.337 13.4654L18.3266 8.55993Z" fill="#eee"/>
</svg>
