<svg width="20" height="36" viewBox="0 0 20 36" fill="none" xmlns="http://www.w3.org/2000/svg">
<g >
<path fill-rule="evenodd" clip-rule="evenodd" d="M3.53859 2.74412C3.44887 2.23204 3.8947 1.78622 4.40678 1.87595L13.6498 3.49551C14.2968 3.60888 14.4958 4.44016 13.9703 4.83426L11.316 6.82502L16.3868 11.8958C16.7773 12.2863 16.7773 12.9195 16.3868 13.31L14.9726 14.7243C14.5821 15.1148 13.9489 15.1148 13.5584 14.7243L8.48756 9.65344L6.49678 12.3078C6.10268 12.8333 5.27139 12.6342 5.15804 11.9872L3.53859 2.74412Z" fill="#eee"/>
<path fill-rule="evenodd" clip-rule="evenodd" d="M17.1379 24.0416H17.501C17.7823 24.0416 18.0203 24.2673 17.9986 24.5341V26.9658C17.9986 27.2326 17.7714 27.4584 17.4793 27.4584L17.1396 27.4584L17.1504 34.6818C17.1504 34.8563 16.999 34.9999 16.8151 34.9999H14.777C14.5931 34.9999 14.4416 34.8563 14.4416 34.6818V33.3182H5.61197V34.6818C5.61197 34.8563 5.46049 34.9999 5.27657 34.9999H3.22103C3.03712 34.9999 2.88566 34.8563 2.88566 34.6818V32.7734V27.4584H2.51931C2.23802 27.4584 2 27.2429 2 26.9658V24.5341C2 24.2673 2.22721 24.0416 2.51931 24.0416H2.88566L2.86403 20.4878C2.86403 19.667 3.56725 19 4.43274 19H15.4802C16.3457 19 17.1271 19.667 17.1271 20.4878L17.1379 24.0416ZM14.4061 21.5764H5.64227V26.5434H14.4061V21.5764ZM5.53464 29.1032H7.30192V30.7793H5.53464V29.1032ZM12.638 29.1032H14.4053V30.7793H12.638V29.1032Z" fill="#eee"/>
</g>
</svg>
