<svg width="20" height="36" viewBox="0 0 20 36" fill="none" xmlns="http://www.w3.org/2000/svg">
<g >
<path fill-rule="evenodd" clip-rule="evenodd" d="M17.0514 24.0416H17.4145C17.6958 24.0416 17.9338 24.2673 17.9122 24.5341V26.9659C17.9122 27.2327 17.685 27.4584 17.3929 27.4584L17.0532 27.4584L17.064 34.6819C17.064 34.8564 16.9126 35 16.7286 35H14.6906C14.5066 35 14.3552 34.8564 14.3552 34.6819V33.3183H5.52554V34.6819C5.52554 34.8564 5.37406 35 5.19014 35H3.13461C2.95069 35 2.79923 34.8564 2.79923 34.6819V32.7735V27.4584H2.43289C2.1516 27.4584 1.91357 27.2429 1.91357 26.9659V24.5341C1.91357 24.2673 2.14078 24.0416 2.43289 24.0416H2.79923L2.77761 20.4878C2.77761 19.667 3.48082 19 4.34632 19H15.3938C16.2593 19 17.0406 19.667 17.0406 20.4878L17.0514 24.0416ZM14.3197 21.5764H5.55584V26.5434H14.3197V21.5764ZM5.44824 29.1033H7.21552V30.7794H5.44824V29.1033ZM12.5516 29.1033H14.3189V30.7794H12.5516V29.1033Z" fill="#eee"/>
<path fill-rule="evenodd" clip-rule="evenodd" d="M10.6045 1.87473C10.3058 1.4492 9.67535 1.4492 9.3767 1.87474L3.98612 9.55574C3.60881 10.0934 4.05587 10.8219 4.70609 10.729L8 10.2585V16C8 16.5523 8.44772 17 9 17H11C11.5523 17 12 16.5523 12 16V10.2611L15.2753 10.729C15.9255 10.8219 16.3726 10.0934 15.9953 9.55572L10.6045 1.87473Z" fill="#eee"/>
</g>
</svg>
