<svg width="24" height="36" viewBox="0 0 24 36" fill="none" xmlns="http://www.w3.org/2000/svg">
<path fill-rule="evenodd" clip-rule="evenodd" d="M19.6191 16H17.6191C17.0669 16 16.6191 15.5523 16.6191 15V9C16.6191 6.79086 14.8283 5 12.6191 5C10.53 5 8.81494 6.60158 8.63477 8.64391L11.2543 8.26969C11.8377 8.18634 12.2389 8.84011 11.9003 9.32255L7.0631 16.2151C6.79511 16.5969 6.22934 16.5969 5.96134 16.2151L1.12397 9.32257C0.785372 8.84012 1.18654 8.18634 1.77002 8.2697L4.62552 8.67763C4.7947 4.40881 8.30883 1 12.6191 1C17.0374 1 20.6191 4.58172 20.6191 9V15C20.6191 15.5523 20.1714 16 19.6191 16Z" fill="#eee"/>
<path fill-rule="evenodd" clip-rule="evenodd" d="M19.1379 24.0416H19.501C19.7823 24.0416 20.0203 24.2673 19.9986 24.5341V26.9659C19.9986 27.2327 19.7714 27.4584 19.4793 27.4584L19.1396 27.4584L19.1504 34.6819C19.1504 34.8564 18.999 35 18.8151 35H16.777C16.5931 35 16.4416 34.8564 16.4416 34.6819V33.3183H7.61197V34.6819C7.61197 34.8564 7.46049 35 7.27657 35H5.22103C5.03712 35 4.88566 34.8564 4.88566 34.6819V32.7735V27.4584H4.51931C4.23802 27.4584 4 27.2429 4 26.9659V24.5341C4 24.2673 4.22721 24.0416 4.51931 24.0416H4.88566L4.86403 20.4878C4.86403 19.667 5.56725 19 6.43274 19H17.4802C18.3457 19 19.1271 19.667 19.1271 20.4878L19.1379 24.0416ZM16.4061 21.5764H7.64227V26.5434H16.4061V21.5764ZM7.25562 28.7348H9.13335V30.5156H7.25562V28.7348ZM14.8029 28.7348H16.6806V30.5156H14.8029V28.7348Z" fill="#eee"/>
</svg>
