<svg width="24" height="36" viewBox="0 0 24 36" fill="none" xmlns="http://www.w3.org/2000/svg">
<path  fill-rule="evenodd" clip-rule="evenodd" d="M20.0291 8.61516C20.4546 8.31651 20.4546 7.68601 20.0291 7.38736L12.3481 1.99678C11.8105 1.61947 11.0819 2.06653 11.1748 2.71675L11.6403 5.97542L8.87714 5.97542C5.56324 5.97542 2.87744 8.66191 2.87744 11.9754V32.9788C2.87744 34.0834 3.77287 34.9789 4.87744 34.9789C5.98201 34.9789 6.87744 34.0834 6.87744 32.9788V11.9754C6.87744 10.8707 7.77277 9.97542 8.87714 9.97542L11.6477 9.97542L11.1748 13.286C11.0819 13.9362 11.8105 14.3832 12.3481 14.0059L20.0291 8.61516Z" fill="#eee"/>
<path fill-rule="evenodd" clip-rule="evenodd" d="M8.86754 17.0764C6.20091 15.5209 2.85205 17.4444 2.85205 20.5315V33.0529C2.85205 34.1575 3.74748 35.0529 4.85205 35.0529C5.95662 35.0529 6.85205 34.1575 6.85205 33.0529V21.4021C6.85205 21.0162 7.27066 20.7757 7.60399 20.9702L12.1167 23.6026L10.0198 26.274C9.61422 26.7907 10.0216 27.5422 10.6759 27.4842L20.0232 26.6562C20.5411 26.6103 20.8563 26.0643 20.6371 25.5929L16.6805 17.084C16.4035 16.4884 15.549 16.5113 15.3044 17.1208L14.0976 20.1273L8.86754 17.0764Z" fill="#eee"/>
</svg>
