<svg width="36" height="36" viewBox="0 0 36 36" fill="none" xmlns="http://www.w3.org/2000/svg">
<path fill-rule="evenodd" clip-rule="evenodd" d="M8.92639 13.1985V9.19849C8.92639 6.98935 10.7172 5.19849 12.9264 5.19849C15.1355 5.19849 16.9264 6.98935 16.9264 9.19849V33.0631C16.9264 34.1676 17.8218 35.0631 18.9264 35.0631C20.031 35.0631 20.9264 34.1676 20.9264 33.0631V9.19849C20.9264 4.78021 17.3447 1.19849 12.9264 1.19849C8.50811 1.19849 4.92639 4.78021 4.92639 9.19849V13.1985C4.92639 13.4037 4.95731 13.6018 5.01474 13.7882L1.6086 13.3016C0.958368 13.2087 0.511308 13.9373 0.888635 14.4749L6.27939 22.1559C6.57804 22.5814 7.20854 22.5814 7.50718 22.1559L12.8978 14.4749C13.2751 13.9373 12.828 13.2087 12.1778 13.3016L8.84106 13.7783C8.89655 13.5947 8.92639 13.4001 8.92639 13.1985Z" fill="#eee"/>
<path  fill-rule="evenodd" clip-rule="evenodd" d="M34.0291 8.61516C34.4546 8.31651 34.4546 7.68601 34.0291 7.38736L26.3481 1.99678C25.8105 1.61947 25.0819 2.06653 25.1748 2.71675L25.6403 5.97542L22.8771 5.97542C19.5632 5.97542 16.8774 8.66191 16.8774 11.9754V32.9788C16.8774 34.0834 17.7729 34.9789 18.8774 34.9789C19.982 34.9789 20.8774 34.0834 20.8774 32.9788V11.9754C20.8774 10.8707 21.7728 9.97542 22.8771 9.97542L25.6477 9.97542L25.1748 13.286C25.0819 13.9362 25.8105 14.3832 26.3481 14.0059L34.0291 8.61516Z" fill="#eee"/>
</svg>
