<svg width="24" height="36" viewBox="0 0 24 36" fill="none" xmlns="http://www.w3.org/2000/svg">
<path fill-rule="evenodd" clip-rule="evenodd" d="M1.80255 8.5938C1.37701 8.29515 1.37702 7.66465 1.80256 7.366L9.48355 1.97542C10.0212 1.5981 10.7497 2.04516 10.6569 2.69539L10.1848 6.00002H14.8434C19.2616 6.00002 22.8434 9.58174 22.8434 14C22.8434 18.4183 19.2616 22 14.8434 22H12.8434C11.7388 22 10.8434 22.8955 10.8434 24V33C10.8434 34.1046 9.94793 35 8.84336 35C7.73879 35 6.84336 34.1046 6.84336 33V24C6.84336 20.6863 9.52965 18 12.8434 18H14.8434C17.0525 18 18.8434 16.2092 18.8434 14C18.8434 11.7909 17.0525 10 14.8434 10H10.1905L10.6569 13.2646C10.7497 13.9148 10.0212 14.3619 9.48354 13.9845L1.80255 8.5938Z" fill="#eee"/>
</svg>
