<svg width="20" height="36" viewBox="0 0 20 36" fill="none" xmlns="http://www.w3.org/2000/svg">
<path  fill-rule="evenodd" clip-rule="evenodd" d="M19.0291 8.61516C19.4546 8.31651 19.4546 7.68601 19.0291 7.38736L11.3481 1.99678C10.8105 1.61947 10.0819 2.06653 10.1748 2.71675L10.6403 5.97542L7.87714 5.97542C4.56324 5.97542 1.87744 8.66191 1.87744 11.9754V32.9788C1.87744 34.0834 2.77287 34.9789 3.87744 34.9789C4.98201 34.9789 5.87744 34.0834 5.87744 32.9788V11.9754C5.87744 10.8707 6.77277 9.97542 7.87714 9.97542L10.6477 9.97542L10.1748 13.286C10.0819 13.9362 10.8105 14.3832 11.3481 14.0059L19.0291 8.61516Z" fill="#eee"/>
</svg>
