<svg width="26" height="36" viewBox="0 0 26 36" fill="none" xmlns="http://www.w3.org/2000/svg">
<path  fill-rule="evenodd" clip-rule="evenodd" d="M17.2259 1.86529C17.5246 1.43976 18.1551 1.43976 18.4537 1.8653L23.8443 9.5463C24.2216 10.0839 23.7745 10.8125 23.1243 10.7196L19.8397 10.2504V32.9482C19.8397 34.0527 18.9443 34.9482 17.8397 34.9482C16.7351 34.9482 15.8397 34.0527 15.8397 32.9482V10.2504L12.5551 10.7196C11.9049 10.8125 11.4578 10.0839 11.8352 9.54628L17.2259 1.86529Z" fill="#eee"/>
<path fill-rule="evenodd" clip-rule="evenodd" d="M13.838 14.1831C16.5047 12.6276 19.8535 14.5511 19.8535 17.6382V33.0579C19.8535 34.1625 18.9581 35.0579 17.8535 35.0579C16.7489 35.0579 15.8535 34.1625 15.8535 33.0579V18.5087C15.8535 18.1229 15.4349 17.8824 15.1016 18.0769L10.6463 20.6758L12.6858 23.274C13.0913 23.7907 12.6839 24.5422 12.0296 24.4842L2.68234 23.6562C2.16449 23.6103 1.84925 23.0643 2.06845 22.5929L6.0251 14.084C6.30205 13.4884 7.15652 13.5113 7.40119 14.1208L8.64265 17.2138L13.838 14.1831Z" fill="#eee"/>
</svg>
