<svg width="24" height="36" viewBox="0 0 24 36" fill="none" xmlns="http://www.w3.org/2000/svg">
<path  fill-rule="evenodd" clip-rule="evenodd" d="M22.2647 5.74299C22.2647 2.53899 18.6858 0.635315 16.029 2.42611L7.97465 7.85505L6.51957 4.98318C6.2227 4.39727 5.36948 4.44895 5.1455 5.0664L1.9455 13.8877C1.76822 14.3765 2.12985 14.8929 2.64973 14.8935L12.0336 14.9037C12.6905 14.9044 13.0309 14.1203 12.5818 13.641L10.2462 11.1477L17.4852 6.26837C17.8173 6.04452 18.2647 6.28248 18.2647 6.68298V17.2457C17.0971 16.5793 15.7454 16.1985 14.3047 16.1985C9.88646 16.1985 6.30474 19.7802 6.30474 24.1985V24.7757L2.98623 24.3016C2.336 24.2087 1.88894 24.9373 2.26627 25.4749L7.65702 33.1559C7.95567 33.5815 8.58617 33.5815 8.88482 33.1559L14.2754 25.4749C14.6527 24.9373 14.2057 24.2087 13.5554 24.3016L10.3047 24.766V24.1985C10.3047 21.9893 12.0956 20.1985 14.3047 20.1985C16.321 20.1985 17.9888 21.6903 18.2647 23.6303V33.0129C18.2647 33.496 18.436 33.9392 18.7212 34.2848C19.0869 34.7582 19.6602 35.0631 20.3047 35.0631C21.4093 35.0631 22.3047 34.1676 22.3047 33.0631V24.1985C22.3047 23.9266 22.2912 23.658 22.2647 23.3931V5.74299Z" fill="#eee"/>
</svg>
