<svg width="36" height="36" viewBox="0 0 36 36" fill="none" xmlns="http://www.w3.org/2000/svg">
<path fill-rule="evenodd" clip-rule="evenodd" d="M2.04439 19.7472C1.55924 19.5603 1.40671 18.9485 1.74736 18.5558L7.8961 11.4672C8.32648 10.971 9.14156 11.2285 9.20873 11.8819L9.55121 15.2132L21.365 12.3007C25.7774 11.2129 30.0405 14.5527 30.0405 19.0972V32.7183C30.0405 33.8229 29.1451 34.7183 28.0405 34.7183C26.936 34.7183 26.0405 33.8229 26.0405 32.7183V19.0972C26.0405 17.1496 24.2135 15.7182 22.3224 16.1844L10.5274 19.0923L11.7656 22.1372C12.0131 22.7456 11.4143 23.3556 10.8014 23.1196L2.04439 19.7472Z" fill="#eee"/>
<path  fill-rule="evenodd" clip-rule="evenodd" d="M27.4236 1.8653C27.7222 1.43976 28.3527 1.43976 28.6514 1.86529L34.0421 9.54628C34.4195 10.0839 33.9724 10.8125 33.3222 10.7196L30.0376 10.2504V32.9482C30.0376 33.571 29.7529 34.1274 29.3065 34.4942C28.9557 34.7981 28.498 34.9821 27.9974 34.9821C26.8928 34.9821 25.9974 34.0866 25.9974 32.9821V19.2079C25.9974 17.5511 24.6543 16.2079 22.9974 16.2079C21.3406 16.2079 19.9974 17.5511 19.9974 19.2079V24.2079C19.9974 24.4095 19.9676 24.6042 19.9121 24.7877L23.2481 24.3111C23.8983 24.2182 24.3454 24.9467 23.9681 25.4844L18.5775 33.1654C18.2788 33.5909 17.6484 33.5909 17.3497 33.1654L11.9589 25.4844C11.5816 24.9468 12.0287 24.2182 12.6789 24.3111L16.0858 24.7978C16.0284 24.6113 15.9974 24.4132 15.9974 24.2079V19.2079C15.9974 15.3419 19.1314 12.2079 22.9974 12.2079C24.0869 12.2079 25.1182 12.4568 26.0376 12.9008V10.2504L22.753 10.7196C22.1028 10.8125 21.6557 10.0839 22.033 9.5463L27.4236 1.8653Z" fill="#eee"/>
</svg>
