<svg width="26" height="36" viewBox="0 0 26 36" fill="none" xmlns="http://www.w3.org/2000/svg">
<path  fill-rule="evenodd" clip-rule="evenodd" d="M18.4539 1.8653C18.1553 1.43976 17.5248 1.43976 17.2261 1.86529L11.8354 9.54628C11.458 10.0839 11.9051 10.8125 12.5553 10.7196L15.8399 10.2504V13.6322C15.1709 13.6335 14.4845 13.8061 13.8382 14.1831L8.64285 17.2138L7.40139 14.1208C7.15673 13.5113 6.30225 13.4884 6.0253 14.084L2.06865 22.5929C1.84945 23.0643 2.16469 23.6103 2.68254 23.6562L12.0299 24.4842C12.6841 24.5422 13.0915 23.7907 12.686 23.274L10.6465 20.6758L15.1018 18.0769C15.3994 17.9033 15.7649 18.0763 15.8399 18.39V32.9482C15.8399 33.0526 15.8479 33.1551 15.8633 33.2552C15.9624 34.2672 16.8157 35.0579 17.8537 35.0579C18.9583 35.0579 19.8537 34.1625 19.8537 33.0579V17.6382C19.8537 17.5229 19.849 17.4092 19.8399 17.2972V10.2504L23.1245 10.7196C23.7747 10.8125 24.2218 10.0839 23.8445 9.5463L18.4539 1.8653Z" fill="#eee"/>
</svg>
