<svg width="24" height="36" viewBox="0 0 24 36" fill="none" xmlns="http://www.w3.org/2000/svg">
<path fill-rule="evenodd" clip-rule="evenodd" d="M16.0289 2.42611C18.6858 0.635315 22.2646 2.53899 22.2646 5.74299V33.0129C22.2646 34.1175 21.3692 35.0129 20.2646 35.0129C19.1601 35.0129 18.2646 34.1175 18.2646 33.0129V6.68298C18.2646 6.28248 17.8173 6.04452 17.4852 6.26837L10.2462 11.1477L12.5818 13.641C13.0308 14.1203 12.6904 14.9044 12.0336 14.9037L2.64968 14.8935C2.1298 14.8929 1.76817 14.3765 1.94546 13.8877L5.14545 5.0664C5.36943 4.44895 6.22266 4.39727 6.51952 4.98318L7.9746 7.85505L16.0289 2.42611Z" fill="#eee"/>
<path  fill-rule="evenodd" clip-rule="evenodd" d="M10.3047 24.766V24.1985C10.3047 21.9893 12.0955 20.1985 14.3047 20.1985C16.5138 20.1985 18.3047 21.9893 18.3047 24.1985V33.0631C18.3047 34.1676 19.2001 35.0631 20.3047 35.0631C21.4093 35.0631 22.3047 34.1676 22.3047 33.0631V24.1985C22.3047 19.7802 18.723 16.1985 14.3047 16.1985C9.88641 16.1985 6.30469 19.7802 6.30469 24.1985V24.7757L2.98618 24.3016C2.33595 24.2087 1.88889 24.9373 2.26622 25.4749L7.65697 33.1559C7.95563 33.5815 8.58612 33.5815 8.88477 33.1559L14.2754 25.4749C14.6527 24.9373 14.2056 24.2087 13.5554 24.3016L10.3047 24.766Z" fill="#eee"/>
</svg>
