<svg width="25" height="36" viewBox="0 0 25 36" fill="none" xmlns="http://www.w3.org/2000/svg">
<path  fill-rule="evenodd" clip-rule="evenodd" d="M10.8947 1.08831C10.4233 0.869102 9.87727 1.18435 9.8314 1.7022L9.00336 11.0495C8.94541 11.7038 9.69686 12.1112 10.2135 11.7056L13.1133 9.42944L17.1777 16.374C17.0642 16.427 16.9516 16.4859 16.8402 16.5509L11.6101 19.6018L10.4033 16.5953C10.1587 15.9858 9.3042 15.9629 9.02725 16.5585L5.07061 25.0673C4.8514 25.5388 5.16665 26.0848 5.6845 26.1307L15.0318 26.9587C15.6861 27.0166 16.0935 26.2652 15.6879 25.7485L13.591 23.0771L18.1037 20.4447C18.4371 20.2502 18.8557 20.4906 18.8557 20.8765V32.5274C18.8557 32.8512 18.9326 33.157 19.0692 33.4275C19.2716 34.3177 20.0679 34.9822 21.0194 34.9822C22.124 34.9822 23.0194 34.0868 23.0194 32.9822V20.0632C23.0194 18.998 22.7359 17.952 22.1978 17.0326L16.6302 7.51945L19.3667 6.42105C19.9763 6.17638 19.9992 5.3219 19.4036 5.04495L10.8947 1.08831Z" fill="#eee"/>
</svg>
