<svg width="36" height="36" viewBox="0 0 36 36" fill="none" xmlns="http://www.w3.org/2000/svg">
<path  fill-rule="evenodd" clip-rule="evenodd" d="M27.4234 1.8653C27.7221 1.43976 28.3526 1.43976 28.6512 1.86529L34.042 9.54628C34.4193 10.0839 33.9722 10.8125 33.322 10.7196L30.0374 10.2504V18.8913C30.0394 18.9596 30.0404 19.0283 30.0404 19.0973V32.7183C30.0404 32.755 30.0394 32.7914 30.0374 32.8275V32.9482C30.0374 34.0527 29.142 34.9482 28.0374 34.9482C26.9329 34.9482 26.0374 34.0527 26.0374 32.9482V18.9625C25.9555 17.0842 24.1694 15.7291 22.3223 16.1845L10.5272 19.0923L11.7655 22.1372C12.0129 22.7456 11.4141 23.3557 10.8012 23.1196L2.04421 19.7472C1.55907 19.5604 1.40654 18.9486 1.74719 18.5559L7.89593 11.4672C8.32631 10.971 9.14138 11.2286 9.20856 11.8819L9.55104 15.2132L21.3648 12.3008C23.015 11.8939 24.6442 12.1064 26.0374 12.7694V10.2504L22.7528 10.7196C22.1026 10.8125 21.6555 10.0839 22.0328 9.5463L27.4234 1.8653Z" fill="#eee"/>
<path fill-rule="evenodd" clip-rule="evenodd" d="M19.9974 24.2079V19.2079C19.9974 17.551 21.3406 16.2079 22.9974 16.2079C24.6543 16.2079 25.9974 17.551 25.9974 19.2079L25.9974 32.982C25.9974 34.0866 26.8928 34.982 27.9974 34.982C29.102 34.982 29.9974 34.0866 29.9974 32.982V19.2079C29.9974 15.3419 26.8634 12.2079 22.9974 12.2079C19.1314 12.2079 15.9974 15.3419 15.9974 19.2079V24.2079C15.9974 24.4132 16.0284 24.6113 16.0858 24.7978L12.6789 24.3111C12.0287 24.2182 11.5816 24.9467 11.9589 25.4844L17.3497 33.1654C17.6484 33.5909 18.2788 33.5909 18.5775 33.1654L23.9681 25.4844C24.3454 24.9467 23.8983 24.2182 23.2481 24.3111L19.9121 24.7876C19.9676 24.6041 19.9974 24.4095 19.9974 24.2079Z" fill="#eee"/>
</svg>
