<svg width="34" height="36" viewBox="0 0 34 36" fill="none" xmlns="http://www.w3.org/2000/svg">
<path fill-rule="evenodd" clip-rule="evenodd" d="M12.84 17.0764C15.5066 15.5209 18.8555 17.4444 18.8555 20.5315V33.0529C18.8555 34.1575 17.96 35.0529 16.8555 35.0529C15.7509 35.0529 14.8555 34.1575 14.8555 33.0529V21.4021C14.8555 21.0162 14.4369 20.7757 14.1035 20.9702L9.5908 23.6026L11.6877 26.274C12.0933 26.7907 11.6859 27.5422 11.0316 27.4842L1.6843 26.6562C1.16644 26.6103 0.8512 26.0643 1.0704 25.5929L5.02705 17.084C5.304 16.4884 6.15848 16.5113 6.40315 17.1208L7.6099 20.1273L12.84 17.0764Z" fill="#eee"/>
<path  fill-rule="evenodd" clip-rule="evenodd" d="M31.2323 2.50682C31.322 1.99474 30.8762 1.54892 30.3641 1.63864L21.1211 3.25821C20.4742 3.37157 20.2751 4.20286 20.8006 4.59695L23.6247 6.71502C23.4202 6.82225 23.231 6.96695 23.0676 7.14859L16.9457 13.9506C15.6236 15.4196 14.8921 17.326 14.8921 19.3023V33.0034C14.8921 34.1079 15.7875 35.0034 16.8921 35.0034C17.9967 35.0034 18.8921 34.1079 18.8921 33.0034V19.3023C18.8921 18.3142 19.2579 17.361 19.9189 16.6265L26.0407 9.82444C26.1461 9.70734 26.2351 9.58122 26.3079 9.44888L28.2741 12.0705C28.6682 12.596 29.4995 12.3969 29.6129 11.7499L31.2323 2.50682Z" fill="#eee"/>
</svg>
