<svg width="36" height="36" viewBox="0 0 36 36" fill="none" xmlns="http://www.w3.org/2000/svg">
<path fill-rule="evenodd" clip-rule="evenodd" d="M13.9845 16.5509C16.6511 14.9954 20 16.9189 20 20.006V32.5274C20 33.6319 19.1046 34.5274 18 34.5274C16.8954 34.5274 16 33.6319 16 32.5274V20.8765C16 20.4906 15.5814 20.2502 15.2481 20.4447L10.7353 23.0771L12.8323 25.7485C13.2378 26.2652 12.8304 27.0166 12.1761 26.9587L2.82883 26.1307C2.31097 26.0848 1.99573 25.5388 2.21494 25.0673L6.17158 16.5585C6.44853 15.9629 7.30301 15.9858 7.54768 16.5953L8.75443 19.6018L13.9845 16.5509Z" fill="#eee"/>
<path  fill-rule="evenodd" clip-rule="evenodd" d="M33.1517 8.61516C33.5772 8.31651 33.5772 7.68601 33.1516 7.38736L25.4707 1.99678C24.933 1.61947 24.2045 2.06653 24.2973 2.71675L24.7629 5.97542L21.9997 5.97542C18.6858 5.97542 16 8.66191 16 11.9754V32.9788C16 34.0834 16.8954 34.9788 18 34.9788C19.1046 34.9788 20 34.0834 20 32.9788V11.9754C20 10.8707 20.8953 9.97542 21.9997 9.97542L24.7703 9.97542L24.2974 13.286C24.2045 13.9362 24.933 14.3832 25.4707 14.0059L33.1517 8.61516Z" fill="#eee"/>
</svg>
