<svg width="36" height="36" viewBox="0 0 36 36" fill="none" xmlns="http://www.w3.org/2000/svg">
<path fill-rule="evenodd" clip-rule="evenodd" d="M34.1517 8.61516C34.5772 8.31651 34.5772 7.68601 34.1516 7.38736L26.4707 1.99678C25.933 1.61947 25.2045 2.06653 25.2973 2.71675L25.7629 5.97542H22.9997C19.6858 5.97542 17 8.66191 17 11.9754V32.9788C17 34.0834 17.8954 34.9788 19 34.9788C20.1046 34.9788 21 34.0834 21 32.9788V11.9754C21 10.8707 21.8953 9.97542 22.9997 9.97542L25.7703 9.97542L25.2974 13.286C25.2045 13.9362 25.933 14.3832 26.4707 14.0059L34.1517 8.61516Z" fill="#eee"/>
<path  fill-rule="evenodd" clip-rule="evenodd" d="M14.9923 17.0764C17.659 15.5209 21.0078 17.4444 21.0078 20.5315V33.0529C21.0078 34.1575 20.1124 35.0529 19.0078 35.0529C17.9032 35.0529 17.0078 34.1575 17.0078 33.0529V21.4021C17.0078 21.0162 16.5892 20.7757 16.2559 20.9702L11.7431 23.6026L13.8401 26.274C14.2456 26.7907 13.8382 27.5422 13.1839 27.4842L3.83664 26.6562C3.31879 26.6103 3.00354 26.0643 3.22275 25.5929L7.1794 17.084C7.45634 16.4884 8.31082 16.5113 8.55549 17.1208L9.76225 20.1273L14.9923 17.0764Z" fill="#eee"/>
</svg>
