<svg width="24" height="36" viewBox="0 0 24 36" fill="none" xmlns="http://www.w3.org/2000/svg">
<path  fill-rule="evenodd" clip-rule="evenodd" d="M16.0289 2.42611C18.6858 0.635315 22.2646 2.53899 22.2646 5.74299V33.0129C22.2646 34.1175 21.3692 35.0129 20.2646 35.0129C19.1601 35.0129 18.2646 34.1175 18.2646 33.0129V6.68298C18.2646 6.28248 17.8173 6.04452 17.4852 6.26837L10.2462 11.1477L12.5818 13.641C13.0308 14.1203 12.6904 14.9044 12.0336 14.9037L2.64968 14.8935C2.1298 14.8929 1.76817 14.3765 1.94546 13.8877L5.14545 5.0664C5.36943 4.44895 6.22266 4.39727 6.51952 4.98318L7.9746 7.85505L16.0289 2.42611Z" fill="#eee"/>
<path fill-rule="evenodd" clip-rule="evenodd" d="M10.3045 24.766V24.1985C10.3045 21.9893 12.0954 20.1985 14.3045 20.1985C16.5137 20.1985 18.3045 21.9893 18.3045 24.1985V33.0631C18.3045 34.1676 19.2 35.0631 20.3045 35.0631C21.4091 35.0631 22.3045 34.1676 22.3045 33.0631V24.1985C22.3045 19.7802 18.7228 16.1985 14.3045 16.1985C9.88627 16.1985 6.30454 19.7802 6.30454 24.1985V24.7757L2.98604 24.3016C2.33581 24.2087 1.88875 24.9373 2.26608 25.4749L7.65683 33.1559C7.95548 33.5815 8.58598 33.5815 8.88462 33.1559L14.2752 25.4749C14.6525 24.9373 14.2055 24.2087 13.5552 24.3016L10.3045 24.766Z" fill="#eee"/>
</svg>
