<svg width="24" height="36" viewBox="0 0 24 36" fill="none" xmlns="http://www.w3.org/2000/svg">
<path fill-rule="evenodd" clip-rule="evenodd" d="M3.75069 8.61516C3.32515 8.31651 3.32516 7.68601 3.7507 7.38736L11.4317 1.99678C11.9693 1.61947 12.6979 2.06653 12.605 2.71675L12.1395 5.97542L14.9026 5.97542C18.2165 5.97542 20.9023 8.66191 20.9023 11.9754V32.9788C20.9023 34.0834 20.0069 34.9789 18.9023 34.9789C17.7978 34.9789 16.9023 34.0834 16.9023 32.9788V11.9754C16.9023 10.8707 16.007 9.97542 14.9026 9.97542L12.1321 9.97542L12.605 13.286C12.6979 13.9362 11.9693 14.3832 11.4317 14.0059L3.75069 8.61516Z" fill="#eee"/>
<path  fill-rule="evenodd" clip-rule="evenodd" d="M14.9123 17.0764C17.5789 15.5209 20.9277 17.4444 20.9277 20.5315V33.0529C20.9277 34.1575 20.0323 35.0529 18.9277 35.0529C17.8232 35.0529 16.9277 34.1575 16.9277 33.0529V21.4021C16.9277 21.0162 16.5091 20.7757 16.1758 20.9702L11.6631 23.6026L13.76 26.274C14.1656 26.7907 13.7581 27.5422 13.1039 27.4842L3.75656 26.6562C3.23871 26.6103 2.92347 26.0643 3.14267 25.5929L7.09932 17.084C7.37626 16.4884 8.23074 16.5113 8.47541 17.1208L9.68217 20.1273L14.9123 17.0764Z" fill="#eee"/>
</svg>
