<svg width="25" height="36" viewBox="0 0 25 36" fill="none" xmlns="http://www.w3.org/2000/svg">
<path fill-rule="evenodd" clip-rule="evenodd" d="M9.83099 1.7022C9.87686 1.18435 10.4229 0.869102 10.8943 1.08831L19.4032 5.04495C19.9988 5.3219 19.9759 6.17638 19.3663 6.42105L16.6298 7.51945L22.1974 17.0326C22.7354 17.952 23.019 18.998 23.019 20.0632V32.9822C23.019 34.0868 22.1236 34.9822 21.019 34.9822C19.9145 34.9822 19.019 34.0868 19.019 32.9822V20.0632C19.019 19.7082 18.9245 19.3595 18.7452 19.053L13.1129 9.42944L10.2131 11.7056C9.69645 12.1112 8.945 11.7038 9.00296 11.0495L9.83099 1.7022Z" fill="#eee"/>
<path  fill-rule="evenodd" clip-rule="evenodd" d="M16.84 16.5509C19.5066 14.9954 22.8555 16.9189 22.8555 20.006V32.5274C22.8555 33.6319 21.96 34.5274 20.8555 34.5274C19.7509 34.5274 18.8555 33.6319 18.8555 32.5274V20.8765C18.8555 20.4906 18.4369 20.2502 18.1035 20.4447L13.5908 23.0771L15.6877 25.7485C16.0933 26.2652 15.6859 27.0166 15.0316 26.9587L5.6843 26.1307C5.16644 26.0848 4.8512 25.5388 5.0704 25.0673L9.02705 16.5585C9.304 15.9629 10.1585 15.9858 10.4031 16.5953L11.6099 19.6018L16.84 16.5509Z" fill="#eee"/>
</svg>
