<svg width="25" height="36" viewBox="0 0 25 36" fill="none" xmlns="http://www.w3.org/2000/svg">
<path  fill-rule="evenodd" clip-rule="evenodd" d="M9.83099 1.6845C9.87686 1.16665 10.4229 0.851402 10.8943 1.07061L19.4032 5.02725C19.9988 5.3042 19.9759 6.15868 19.3663 6.40335L16.6298 7.50175L22.1974 17.0149C22.7354 17.9343 23.019 18.9803 23.019 20.0455V32.9645C23.019 34.0691 22.1236 34.9645 21.019 34.9645C19.9145 34.9645 19.019 34.0691 19.019 32.9645V20.0455C19.019 19.6905 18.9245 19.3418 18.7452 19.0353L13.1129 9.41174L10.2131 11.6879C9.69645 12.0935 8.945 11.6861 9.00296 11.0318L9.83099 1.6845Z" fill="#eee"/>
<path fill-rule="evenodd" clip-rule="evenodd" d="M16.84 16.5509C19.5066 14.9954 22.8555 16.9189 22.8555 20.006V32.5274C22.8555 33.6319 21.96 34.5274 20.8555 34.5274C19.7509 34.5274 18.8555 33.6319 18.8555 32.5274V20.8765C18.8555 20.4906 18.4369 20.2502 18.1035 20.4447L13.5908 23.0771L15.6877 25.7485C16.0933 26.2652 15.6859 27.0166 15.0316 26.9587L5.6843 26.1307C5.16644 26.0848 4.8512 25.5388 5.0704 25.0673L9.02705 16.5585C9.304 15.9629 10.1585 15.9858 10.4031 16.5953L11.6099 19.6018L16.84 16.5509Z" fill="#eee"/>
</svg>
