<svg width="20" height="36" viewBox="0 0 20 36" fill="none" xmlns="http://www.w3.org/2000/svg">
<path fill-rule="evenodd" clip-rule="evenodd" d="M7.76873 3.20426C5.27385 0.603828 0.882324 2.36979 0.882324 5.9735V33.0034C0.882324 34.108 1.77775 35.0034 2.88232 35.0034C3.98689 35.0034 4.88232 34.108 4.88232 33.0034V7.21242C4.88232 6.76256 5.43001 6.54152 5.74226 6.86537L11.0751 12.3963L8.38786 14.4117C7.86239 14.8058 8.06145 15.6371 8.70843 15.7505L17.9515 17.3699C18.4636 17.4596 18.9094 17.0138 18.8197 16.5017L17.2002 7.25871C17.0868 6.61174 16.2555 6.41269 15.8614 6.93815L13.8959 9.55889L7.76873 3.20426Z" fill="#eee"/>
</svg>
