<svg width="36" height="36" viewBox="0 0 36 36" fill="none" xmlns="http://www.w3.org/2000/svg">
<path fill-rule="evenodd" clip-rule="evenodd" d="M28.6515 1.86529C28.3529 1.43976 27.7224 1.43976 27.4237 1.8653L22.0332 9.5463C21.6558 10.0839 22.1029 10.8125 22.7531 10.7196L26.0377 10.2504V32.9482C26.0377 34.0527 26.9332 34.9482 28.0377 34.9482C29.1423 34.9482 30.0377 34.0527 30.0377 32.9482V10.2504L33.3223 10.7196C33.9726 10.8125 34.4196 10.0839 34.0423 9.54628L28.6515 1.86529Z" fill="#eee"/>
<path  fill-rule="evenodd" clip-rule="evenodd" d="M1.74719 18.522C1.40654 18.9147 1.55907 19.5265 2.04422 19.7133L10.8012 23.0858C11.4141 23.3218 12.0129 22.7118 11.7655 22.1033L10.5272 19.0584L16.1594 17.67C16.0533 18.1545 15.9974 18.6577 15.9974 19.1741V24.1741C15.9974 24.3794 16.0283 24.5775 16.0858 24.7639L12.6789 24.2772C12.0287 24.1843 11.5816 24.9129 11.9589 25.4505L17.3497 33.1315C17.6483 33.5571 18.2788 33.5571 18.5775 33.1315L23.968 25.4505C24.3454 24.9129 23.8983 24.1843 23.2481 24.2772L19.9121 24.7538C19.9676 24.5703 19.9974 24.3757 19.9974 24.1741V19.1741C19.9974 17.5172 21.3405 16.1741 22.9974 16.1741C24.6542 16.1741 25.9974 17.5172 25.9974 19.1741V32.9482C25.9974 34.0528 26.8928 34.9482 27.9974 34.9482C29.0374 34.9482 29.892 34.1544 29.9884 33.1396C30.0224 32.9934 30.0404 32.841 30.0404 32.6845V19.0634C30.0404 14.5189 25.7773 11.1791 21.3648 12.2669L9.55104 15.1793L9.20856 11.8481C9.14139 11.1947 8.32631 10.9372 7.89593 11.4334L1.74719 18.522Z" fill="#eee"/>
</svg>
