<svg width="40" height="36" viewBox="0 0 40 36" fill="none" xmlns="http://www.w3.org/2000/svg">
<path  fill-rule="evenodd" clip-rule="evenodd" d="M17.9849 5.74299C17.9849 2.53899 21.5637 0.635315 24.2206 2.42611L32.2749 7.85505L33.73 4.98318C34.0269 4.39727 34.8801 4.44895 35.1041 5.0664L38.3041 13.8877C38.4813 14.3765 38.1197 14.8929 37.5998 14.8935L28.2159 14.9037C27.5591 14.9044 27.2187 14.1203 27.6678 13.641L30.0033 11.1477L22.7643 6.26837C22.4322 6.04452 21.9849 6.28248 21.9849 6.68298V24.0049C21.9864 24.0692 21.9872 24.1338 21.9872 24.1985V33.0631C21.9872 34.1676 21.0917 35.0631 19.9872 35.0631C18.9053 35.0631 18.0241 34.2041 17.9883 33.131C17.986 33.092 17.9849 33.0526 17.9849 33.0129V24.0617C17.9127 21.9159 16.1505 20.1985 13.9872 20.1985C11.778 20.1985 9.98716 21.9893 9.98716 24.1985V24.766L13.2379 24.3016C13.8881 24.2087 14.3351 24.9373 13.9578 25.4749L8.56724 33.1559C8.26859 33.5815 7.6381 33.5815 7.33944 33.1559L1.94869 25.4749C1.57137 24.9373 2.01843 24.2087 2.66866 24.3016L5.98716 24.7757V24.1985C5.98716 19.7802 9.56888 16.1985 13.9872 16.1985C15.4434 16.1985 16.8087 16.5876 17.9849 17.2674V5.74299Z" fill="#eee"/>
</svg>
