<svg width="36" height="36" viewBox="0 0 36 36" fill="none" xmlns="http://www.w3.org/2000/svg">
<path  fill-rule="evenodd" clip-rule="evenodd" d="M33.1516 7.38736C33.5772 7.68601 33.5772 8.31651 33.1516 8.61516L25.4707 14.0059C24.933 14.3832 24.2044 13.9362 24.2973 13.286L24.7703 9.97542L21.9997 9.97542C20.8953 9.97542 20 10.8707 20 11.9754V32.9788C20 32.99 19.9999 33.0011 19.9997 33.0122V33.0529C19.9997 34.1575 19.1043 35.0529 17.9997 35.0529C16.8951 35.0529 15.9997 34.1575 15.9997 33.0529V21.4021C15.9997 21.0162 15.5811 20.7757 15.2478 20.9702L10.735 23.6026L12.832 26.274C13.2375 26.7907 12.8301 27.5422 12.1758 27.4842L2.82854 26.6562C2.31069 26.6103 1.99545 26.0643 2.21465 25.5929L6.1713 17.084C6.44824 16.4884 7.30272 16.5113 7.54739 17.1208L8.75415 20.1273L13.9842 17.0764C14.635 16.6968 15.3265 16.5244 16 16.5255V11.9754C16 8.66191 18.6858 5.97542 21.9997 5.97542L24.7629 5.97542L24.2973 2.71675C24.2044 2.06653 24.933 1.61947 25.4706 1.99678L33.1516 7.38736Z" fill="#eee"/>
</svg>
