<svg width="40" height="36" viewBox="0 0 40 36" fill="none" xmlns="http://www.w3.org/2000/svg">
<path fill-rule="evenodd" clip-rule="evenodd" d="M24.2206 2.42611C21.5637 0.635315 17.9849 2.53899 17.9849 5.74299V33.0129C17.9849 34.1175 18.8803 35.0129 19.9849 35.0129C21.0894 35.0129 21.9849 34.1175 21.9849 33.0129V6.68298C21.9849 6.28248 22.4322 6.04452 22.7643 6.26837L30.0033 11.1477L27.6678 13.641C27.2187 14.1203 27.5591 14.9044 28.2159 14.9037L37.5998 14.8935C38.1197 14.8929 38.4813 14.3765 38.3041 13.8877L35.1041 5.0664C34.8801 4.44895 34.0269 4.39727 33.73 4.98318L32.2749 7.85505L24.2206 2.42611Z" fill="#eee"/>
<path  fill-rule="evenodd" clip-rule="evenodd" d="M9.98716 24.766V24.1985C9.98716 21.9893 11.778 20.1985 13.9872 20.1985C16.1963 20.1985 17.9872 21.9893 17.9872 24.1985V33.0631C17.9872 34.1676 18.8826 35.0631 19.9872 35.0631C21.0917 35.0631 21.9872 34.1676 21.9872 33.0631V24.1985C21.9872 19.7802 18.4054 16.1985 13.9872 16.1985C9.56888 16.1985 5.98716 19.7802 5.98716 24.1985V24.7757L2.66866 24.3016C2.01843 24.2087 1.57137 24.9373 1.94869 25.4749L7.33944 33.1559C7.6381 33.5815 8.26859 33.5815 8.56724 33.1559L13.9578 25.4749C14.3351 24.9373 13.8881 24.2087 13.2379 24.3016L9.98716 24.766Z" fill="#eee"/>
</svg>
