<svg width="24" height="36" viewBox="0 0 24 36" fill="none" xmlns="http://www.w3.org/2000/svg">
<path fill-rule="evenodd" clip-rule="evenodd" d="M15.1881 1.7022C15.1422 1.18435 14.5962 0.869102 14.1247 1.08831L5.61587 5.04495C5.02028 5.3219 5.04317 6.17638 5.65272 6.42105L8.38924 7.51945L2.82165 17.0326C2.2836 17.952 2 18.998 2 20.0632V32.9822C2 34.0868 2.89543 34.9822 4 34.9822C5.10457 34.9822 6 34.0868 6 32.9822V20.0632C6 19.7082 6.09453 19.3595 6.27388 19.053L11.9061 9.42944L14.8059 11.7056C15.3226 12.1112 16.074 11.7038 16.0161 11.0495L15.1881 1.7022Z" fill="#eee"/>
<path  fill-rule="evenodd" clip-rule="evenodd" d="M8.01548 17.0764C5.34886 15.5209 2 17.4444 2 20.5315V33.0529C2 34.1575 2.89543 35.0529 4 35.0529C5.10457 35.0529 6 34.1575 6 33.0529V21.4021C6 21.0162 6.41861 20.7757 6.75194 20.9702L11.2647 23.6026L9.16773 26.274C8.76217 26.7907 9.1696 27.5422 9.82387 27.4842L19.1712 26.6562C19.689 26.6103 20.0043 26.0643 19.7851 25.5929L15.8284 17.084C15.5515 16.4884 14.697 16.5113 14.4523 17.1208L13.2456 20.1273L8.01548 17.0764Z" fill="#eee"/>
</svg>
