<svg width="34" height="36" viewBox="0 0 34 36" fill="none" xmlns="http://www.w3.org/2000/svg">
<path  fill-rule="evenodd" clip-rule="evenodd" d="M19.8675 17.0764C17.2009 15.5209 13.8521 17.4444 13.8521 20.5315V33.0529C13.8521 34.1575 14.7475 35.0529 15.8521 35.0529C16.9566 35.0529 17.8521 34.1575 17.8521 33.0529V21.4021C17.8521 21.0162 18.2707 20.7757 18.604 20.9702L23.1167 23.6026L21.0198 26.274C20.6142 26.7907 21.0216 27.5422 21.6759 27.4842L31.0232 26.6562C31.5411 26.6103 31.8563 26.0643 31.6371 25.5929L27.6805 17.084C27.4035 16.4884 26.549 16.5113 26.3044 17.1208L25.0976 20.1273L19.8675 17.0764Z" fill="#eee"/>
<path fill-rule="evenodd" clip-rule="evenodd" d="M1.59678 2.50682C1.50706 1.99474 1.95289 1.54892 2.46496 1.63864L11.708 3.25821C12.3549 3.37157 12.554 4.20286 12.0285 4.59695L9.20444 6.71502C9.40887 6.82225 9.59806 6.96695 9.76153 7.14859L15.8834 13.9506C17.2055 15.4196 17.937 17.326 17.937 19.3023V33.0034C17.937 34.1079 17.0416 35.0034 15.937 35.0034C14.8324 35.0034 13.937 34.1079 13.937 33.0034V19.3023C13.937 18.3142 13.5712 17.361 12.9102 16.6265L6.78835 9.82444C6.68296 9.70734 6.59395 9.58122 6.52118 9.44888L4.55497 12.0705C4.16087 12.596 3.32957 12.3969 3.21622 11.7499L1.59678 2.50682Z" fill="#eee"/>
</svg>
