<svg width="32" height="36" viewBox="0 0 32 36" fill="none" xmlns="http://www.w3.org/2000/svg">
<path  fill-rule="evenodd" clip-rule="evenodd" d="M28.3616 1.48778C28.8121 1.22832 29.3835 1.49477 29.4744 2.00666L31.1139 11.2462C31.2287 11.893 30.5156 12.3643 29.9656 12.0053L26.984 10.0594L21.1939 22.0338C21.0627 22.3053 20.9945 22.6029 20.9945 22.9045V32.9916C20.9945 33.0127 20.9942 33.0337 20.9935 33.0547V33.063C20.9935 34.1676 20.0981 35.063 18.9935 35.063C17.8889 35.063 16.9935 34.1676 16.9935 33.063V24.1984C16.9935 21.9893 15.2026 20.1984 12.9935 20.1984C10.7844 20.1984 8.99351 21.9893 8.99351 24.1984V24.766L12.2442 24.3016C12.8944 24.2087 13.3415 24.9372 12.9642 25.4749L7.57359 33.1559C7.27494 33.5814 6.64445 33.5814 6.34579 33.1559L0.955041 25.4749C0.577714 24.9373 1.02477 24.2087 1.675 24.3016L4.99351 24.7757V24.1984C4.99351 19.7802 8.57523 16.1984 12.9935 16.1984C15.1306 16.1984 17.0721 17.0365 18.5071 18.4018L23.3284 8.43072L20.3866 7.53861C19.758 7.348 19.6608 6.49877 20.23 6.17097L28.3616 1.48778Z" fill="#eee"/>
</svg>
