<svg width="30" height="36" viewBox="0 0 30 36" fill="none" xmlns="http://www.w3.org/2000/svg">
<path  fill-rule="evenodd" clip-rule="evenodd" d="M0.712986 2.51622C0.623266 2.00414 1.0691 1.55831 1.58118 1.64804L10.8242 3.26761C11.4711 3.38097 11.6702 4.21226 11.1447 4.60635L8.32065 6.72442C8.52508 6.83165 8.71427 6.97635 8.87774 7.15799L14.9996 13.96C16.3217 15.429 17.0532 17.3354 17.0532 19.3117V33.0128C17.0532 34.1173 16.1578 35.0128 15.0532 35.0128C13.9487 35.0128 13.0532 34.1173 13.0532 33.0128V19.3117C13.0532 18.3236 12.6874 17.3704 12.0264 16.6359L5.90456 9.83384C5.79917 9.71674 5.71016 9.59062 5.6374 9.45828L3.67118 12.0799C3.27708 12.6054 2.44578 12.4063 2.33243 11.7593L0.712986 2.51622Z" fill="#eee"/>
<path fill-rule="evenodd" clip-rule="evenodd" d="M29.3588 2.51622C29.4485 2.00414 29.0027 1.55831 28.4906 1.64804L19.2476 3.26761C18.6006 3.38097 18.4016 4.21226 18.927 4.60635L21.7511 6.72442C21.5467 6.83165 21.3575 6.97635 21.194 7.15799L15.0722 13.96C13.7501 15.429 13.0186 17.3354 13.0186 19.3117V33.0128C13.0186 34.1173 13.914 35.0128 15.0186 35.0128C16.1231 35.0128 17.0186 34.1173 17.0186 33.0128V19.3117C17.0186 18.3236 17.3843 17.3704 18.0454 16.6359L24.1672 9.83384C24.2726 9.71674 24.3616 9.59062 24.4344 9.45828L26.4006 12.0799C26.7947 12.6054 27.626 12.4063 27.7393 11.7593L29.3588 2.51622Z" fill="#eee"/>
</svg>
