<svg width="28" height="36" viewBox="0 0 28 36" fill="none" xmlns="http://www.w3.org/2000/svg">
<path fill-rule="evenodd" clip-rule="evenodd" d="M9.96973 24.6511V24.0836C9.96973 21.8745 11.7606 20.0836 13.9697 20.0836C16.1789 20.0836 17.9697 21.8745 17.9697 24.0836V32.9482C17.9697 34.0528 18.8652 34.9482 19.9697 34.9482C21.0743 34.9482 21.9697 34.0528 21.9697 32.9482V24.0836C21.9697 19.6653 18.388 16.0836 13.9697 16.0836C9.55145 16.0836 5.96973 19.6653 5.96973 24.0836V24.6607L2.65157 24.1867C2.00134 24.0938 1.55428 24.8224 1.9316 25.36L7.32235 33.041C7.62101 33.4666 8.2515 33.4666 8.55015 33.041L13.9407 25.36C14.318 24.8224 13.871 24.0938 13.2208 24.1867L9.96973 24.6511Z" fill="#eee"/>
<path  fill-rule="evenodd" clip-rule="evenodd" d="M19.3916 1.8653C19.6903 1.43976 20.3208 1.43976 20.6194 1.86529L26.0102 9.54628C26.3875 10.0839 25.9404 10.8125 25.2902 10.7196L22.0056 10.2504V22.9429C22.0124 23.0594 22.0159 23.1763 22.0159 23.2937V32.9917C22.0159 34.0963 21.1204 34.9917 20.0159 34.9917C19.0618 34.9917 18.2638 34.3237 18.064 33.4299C18.0259 33.2756 18.0056 33.1142 18.0056 32.9482V23.0914C17.9556 22.5989 17.7241 22.1397 17.3522 21.8057L6.24653 11.8317L4.20071 14.5595C3.80661 15.085 2.97532 14.8859 2.86197 14.2389L1.24252 4.9958C1.1528 4.48372 1.59863 4.0379 2.11071 4.12762L11.3537 5.74719C12.0007 5.86056 12.1997 6.69184 11.6743 7.08594L9.09914 9.01729L18.0056 17.0161V10.2504L14.721 10.7196C14.0708 10.8125 13.6237 10.0839 14.001 9.5463L19.3916 1.8653Z" fill="#eee"/>
</svg>
