<svg width="28" height="36" viewBox="0 0 28 36" fill="none" xmlns="http://www.w3.org/2000/svg">
<path fill-rule="evenodd" clip-rule="evenodd" d="M1.24228 4.99572C1.15256 4.48364 1.59839 4.03782 2.11047 4.12755L11.3535 5.74711C12.0004 5.86048 12.1995 6.69176 11.674 7.08586L8.93015 9.14377L20.2464 20.3972C21.3789 21.5233 22.0156 23.0545 22.0156 24.6516V32.9916C22.0156 34.0962 21.1202 34.9916 20.0156 34.9916C18.9111 34.9916 18.0156 34.0962 18.0156 32.9916V24.6516C18.0156 24.1192 17.8034 23.6088 17.4259 23.2334L6.12414 11.9945L4.20047 14.5594C3.80638 15.0849 2.97508 14.8858 2.86173 14.2388L1.24228 4.99572Z" fill="#eee"/>
<path  fill-rule="evenodd" clip-rule="evenodd" d="M19.3915 1.8653C19.6902 1.43976 20.3207 1.43976 20.6193 1.86529L26.0101 9.54628C26.3874 10.0839 25.9403 10.8125 25.2901 10.7196L22.0055 10.2504V32.9482C22.0055 34.0527 21.1101 34.9482 20.0055 34.9482C20.0004 34.9482 19.9953 34.9481 19.9901 34.9481C19.9834 34.9482 19.9767 34.9482 19.97 34.9482C18.8654 34.9482 17.97 34.0528 17.97 32.9482V25.0836C17.97 22.8745 16.1791 21.0836 13.97 21.0836C11.9081 21.0836 10.2106 22.6437 9.99343 24.6478L13.2208 24.1868C13.871 24.0939 14.318 24.8224 13.9407 25.3601L8.55015 33.041C8.2515 33.4666 7.62101 33.4666 7.32235 33.0411L1.9316 25.3601C1.55428 24.8224 2.00134 24.0939 2.65157 24.1868L5.98086 24.6624C6.19991 20.4399 9.69299 17.0836 13.97 17.0836C15.4418 17.0836 16.8208 17.4811 18.0055 18.1746V10.2504L14.7209 10.7196C14.0707 10.8125 13.6236 10.0839 14.0009 9.5463L19.3915 1.8653Z" fill="#eee"/>
</svg>
