<svg width="24" height="36" viewBox="0 0 24 36" fill="none" xmlns="http://www.w3.org/2000/svg">
<path  fill-rule="evenodd" clip-rule="evenodd" d="M16.1881 1.7022C16.1422 1.18435 15.5962 0.869102 15.1247 1.08831L6.61587 5.04495C6.02028 5.3219 6.04317 6.17638 6.65272 6.42105L9.38924 7.51945L3.82165 17.0326C3.2836 17.952 3 18.998 3 20.0632V32.9822C3 34.0868 3.89543 34.9822 5 34.9822C6.10457 34.9822 7 34.0868 7 32.9822V20.0632C7 19.7082 7.09453 19.3595 7.27388 19.053L12.9061 9.42944L15.8059 11.7056C16.3226 12.1112 17.074 11.7038 17.0161 11.0495L16.1881 1.7022Z" fill="#eee"/>
<path fill-rule="evenodd" clip-rule="evenodd" d="M9.01548 17.0764C6.34886 15.5209 3 17.4444 3 20.5315V33.0529C3 34.1575 3.89543 35.0529 5 35.0529C6.10457 35.0529 7 34.1575 7 33.0529V21.4021C7 21.0162 7.41861 20.7757 7.75194 20.9702L12.2647 23.6026L10.1677 26.274C9.76217 26.7907 10.1696 27.5422 10.8239 27.4842L20.1712 26.6562C20.689 26.6103 21.0043 26.0643 20.7851 25.5929L16.8284 17.084C16.5515 16.4884 15.697 16.5113 15.4523 17.1208L14.2456 20.1273L9.01548 17.0764Z" fill="#eee"/>
</svg>
