<svg width="24" height="36" viewBox="0 0 24 36" fill="none" xmlns="http://www.w3.org/2000/svg">
<path  fill-rule="evenodd" clip-rule="evenodd" d="M14.1247 1.08831C14.5962 0.869102 15.1422 1.18435 15.1881 1.7022L16.0161 11.0495C16.074 11.7038 15.3226 12.1112 14.8059 11.7056L11.9061 9.42944L7.56413 16.8484C7.71623 16.9139 7.86692 16.9898 8.01548 17.0764L13.2456 20.1273L14.4523 17.1208C14.697 16.5113 15.5515 16.4884 15.8284 17.084L19.7851 25.5929C20.0043 26.0643 19.689 26.6103 19.1712 26.6562L9.82387 27.4842C9.1696 27.5422 8.76217 26.7907 9.16773 26.274L11.2647 23.6026L6.75194 20.9702C6.41861 20.7757 6 21.0162 6 21.4021V32.9822V33.0529C6 34.1575 5.10457 35.0529 4 35.0529C2.89543 35.0529 2 34.1575 2 33.0529V32.9822V20.5315V20.0632C2 18.998 2.2836 17.952 2.82165 17.0326L8.38924 7.51945L5.65272 6.42105C5.04317 6.17638 5.02028 5.3219 5.61587 5.04495L14.1247 1.08831Z" fill="#eee"/>
</svg>
