<svg width="24" height="36" viewBox="0 0 24 36" fill="none" xmlns="http://www.w3.org/2000/svg">
<path fill-rule="evenodd" clip-rule="evenodd" d="M10.0428 24.766V24.1985C10.0428 21.9893 11.8337 20.1985 14.0428 20.1985C16.252 20.1985 18.0428 21.9893 18.0428 24.1985V33.0631C18.0428 34.1676 18.9383 35.0631 20.0428 35.0631C21.1474 35.0631 22.0428 34.1676 22.0428 33.0631V24.1985C22.0428 19.7802 18.4611 16.1985 14.0428 16.1985C9.62455 16.1985 6.04282 19.7802 6.04282 24.1985V24.7757L2.72432 24.3016C2.07409 24.2087 1.62703 24.9373 2.00436 25.4749L7.39511 33.1559C7.69376 33.5815 8.32426 33.5815 8.62291 33.1559L14.0135 25.4749C14.3908 24.9373 13.9437 24.2087 13.2935 24.3016L10.0428 24.766Z" fill="#eee"/>
<path  fill-rule="evenodd" clip-rule="evenodd" d="M9.47763 2.00666C9.56846 1.49477 10.1399 1.22832 10.5904 1.48778L18.7221 6.17097C19.2912 6.49877 19.194 7.348 18.5654 7.53861L15.6236 8.43072L21.3592 20.2926C21.753 21.107 21.9575 21.9999 21.9575 22.9045V32.9916C21.9575 34.0961 21.0621 34.9916 19.9575 34.9916C18.853 34.9916 17.9575 34.0962 17.9575 32.9916V22.9045C17.9575 22.6029 17.8893 22.3053 17.7581 22.0338L11.9681 10.0594L8.98645 12.0053C8.4364 12.3643 7.72332 11.893 7.83808 11.2462L9.47763 2.00666Z" fill="#eee"/>
</svg>
