<svg width="24" height="36" viewBox="0 0 24 36" fill="none" xmlns="http://www.w3.org/2000/svg">
<path fill-rule="evenodd" clip-rule="evenodd" d="M17.4885 1.86529C17.1898 1.43976 16.5593 1.43976 16.2607 1.8653L10.8701 9.5463C10.4928 10.0839 10.9398 10.8125 11.59 10.7196L14.8747 10.2504V32.9482C14.8747 34.0527 15.7701 34.9482 16.8747 34.9482C17.9792 34.9482 18.8747 34.0527 18.8747 32.9482V10.2504L22.1592 10.7196C22.8095 10.8125 23.2565 10.0839 22.8792 9.54628L17.4885 1.86529Z" fill="#eee"/>
<path  fill-rule="evenodd" clip-rule="evenodd" d="M0.149597 15.0136C-0.0696011 14.5422 0.245651 13.9962 0.763504 13.9503L10.1107 13.1224C10.765 13.0645 11.1724 13.8159 10.7669 14.3326L8.67225 17.0011L15.866 21.1118C17.7354 22.18 18.8892 24.1681 18.8892 26.3212V33.0034C18.8892 34.1079 17.9937 35.0034 16.8892 35.0034C15.7846 35.0034 14.8892 34.1079 14.8892 33.0034V26.3212C14.8892 25.6035 14.5046 24.9408 13.8814 24.5847L6.69049 20.4756L5.48225 23.4858C5.23759 24.0953 4.3831 24.1182 4.10615 23.5226L0.149597 15.0136Z" fill="#eee"/>
</svg>
