<svg width="30" height="36" viewBox="0 0 30 36" fill="none" xmlns="http://www.w3.org/2000/svg">
<path fill-rule="evenodd" clip-rule="evenodd" d="M28.857 19.6152C29.2825 19.3165 29.2825 18.686 28.857 18.3874L21.176 12.9968C20.6383 12.6195 19.9098 13.0665 20.0027 13.7167L20.4717 17L16.8266 17C13.5122 17 10.8276 19.687 10.8276 23V33.0034C10.8276 34.108 11.7231 35.0034 12.8276 35.0034C13.9322 35.0034 14.8276 34.108 14.8276 33.0034V23C14.8276 21.8948 15.7227 21 16.8266 21L20.4721 21L20.0027 24.286C19.9098 24.9362 20.6384 25.3832 21.176 25.0059L28.857 19.6152Z" fill="#eee"/>
<path  fill-rule="evenodd" clip-rule="evenodd" d="M1.65521 1.72356C1.70108 1.20571 2.24711 0.890464 2.71852 1.10967L11.2274 5.06632C11.823 5.34326 11.8001 6.19774 11.1905 6.44241L8.45402 7.54081L14.0216 17.054C14.5597 17.9733 14.8433 19.0194 14.8433 20.0846V33.0036C14.8433 34.1081 13.9478 35.0036 12.8433 35.0036C11.7387 35.0036 10.8433 34.1081 10.8433 33.0036V20.0846C10.8433 19.7295 10.7487 19.3808 10.5694 19.0744L4.93716 9.4508L2.03734 11.727C1.52067 12.1326 0.769219 11.7251 0.827178 11.0709L1.65521 1.72356Z" fill="#eee"/>
</svg>
