<svg width="32" height="36" viewBox="0 0 32 36" fill="none" xmlns="http://www.w3.org/2000/svg">
<path fill-rule="evenodd" clip-rule="evenodd" d="M8.99351 24.766V24.1985C8.99351 21.9893 10.7844 20.1985 12.9935 20.1985C15.2026 20.1985 16.9935 21.9893 16.9935 24.1985V33.0631C16.9935 34.1676 17.8889 35.0631 18.9935 35.0631C20.0981 35.0631 20.9935 34.1676 20.9935 33.0631V24.1985C20.9935 19.7802 17.4118 16.1985 12.9935 16.1985C8.57523 16.1985 4.99351 19.7802 4.99351 24.1985V24.7757L1.675 24.3016C1.02477 24.2087 0.577714 24.9373 0.955042 25.4749L6.34579 33.1559C6.64445 33.5815 7.27494 33.5815 7.57359 33.1559L12.9642 25.4749C13.3415 24.9373 12.8944 24.2087 12.2442 24.3016L8.99351 24.766Z" fill="#eee"/>
<path  fill-rule="evenodd" clip-rule="evenodd" d="M29.4745 2.00666C29.3837 1.49477 28.8123 1.22832 28.3618 1.48778L20.2301 6.17097C19.6609 6.49877 19.7582 7.348 20.3867 7.53861L23.3286 8.43071L17.593 20.2926C17.1992 21.107 16.9946 21.9999 16.9946 22.9045V32.9916C16.9946 34.0961 17.8901 34.9916 18.9946 34.9916C20.0992 34.9916 20.9946 34.0962 20.9946 32.9916V22.9045C20.9946 22.6029 21.0628 22.3053 21.1941 22.0338L26.9841 10.0594L29.9657 12.0053C30.5157 12.3643 31.2288 11.893 31.1141 11.2462L29.4745 2.00666Z" fill="#eee"/>
</svg>
