<svg width="28" height="36" viewBox="0 0 28 36" fill="none" xmlns="http://www.w3.org/2000/svg">
<path  fill-rule="evenodd" clip-rule="evenodd" d="M19.3916 1.8653C19.6903 1.43976 20.3208 1.43976 20.6194 1.86529L26.0102 9.54628C26.3875 10.0839 25.9404 10.8125 25.2902 10.7196L22.0056 10.2504V23.9353C22.0124 24.0518 22.0159 24.1687 22.0159 24.2861V32.9917C22.0159 34.0963 21.1204 34.9917 20.0159 34.9917C19.4718 34.9917 18.9786 34.7745 18.618 34.4221C18.2197 34.0565 17.97 33.5315 17.97 32.9482V25.0837C17.97 24.0179 17.5532 23.0495 16.8737 22.3326L16.6264 22.0931C15.92 21.4651 14.9895 21.0837 13.97 21.0837C11.9081 21.0837 10.2106 22.6437 9.99343 24.6478L13.2208 24.1868C13.871 24.0939 14.3181 24.8225 13.9407 25.3601L8.55015 33.0411C8.25151 33.4666 7.62101 33.4666 7.32236 33.0411L1.93161 25.3601C1.55428 24.8225 2.00134 24.0939 2.65157 24.1868L5.98087 24.6624C6.16085 21.193 8.55123 18.3083 11.7706 17.3898L6.15644 11.9518L4.20071 14.5595C3.80661 15.085 2.97532 14.8859 2.86197 14.2389L1.24252 4.9958C1.1528 4.48372 1.59863 4.0379 2.11071 4.12762L11.3537 5.74719C12.0007 5.86056 12.1997 6.69184 11.6743 7.08594L8.97339 9.1116L18.0056 17.8602V10.2504L14.721 10.7196C14.0708 10.8125 13.6237 10.0839 14.001 9.5463L19.3916 1.8653Z" fill="#eee"/>
</svg>
