<svg width="24" height="36" viewBox="0 0 24 36" fill="none" xmlns="http://www.w3.org/2000/svg">
<path  fill-rule="evenodd" clip-rule="evenodd" d="M10.5338 10.3601L16.8658 1.06713C16.9328 0.977625 17.0668 0.977625 17.1338 1.06713L23.4663 10.3601C23.5538 10.4771 23.4598 10.6421 23.3143 10.6271L19.5527 10.2283C19.2574 10.197 19 10.4285 19 10.7255V34.5C19 34.7761 18.7761 35 18.5 35H15.5C15.4985 35 15.4971 35 15.4956 35H15.4417C15.1656 35 14.9417 34.7761 14.9417 34.5V26.3178C14.9417 25.6001 14.5571 24.9374 13.934 24.5814L8.02045 21.2022C7.76335 21.0553 7.43561 21.1627 7.31542 21.4334L5.76688 24.92C5.70712 25.0535 5.51723 25.0524 5.45965 24.9181L2.02335 17.7871C2.01825 17.7765 2.01005 17.7677 1.99985 17.7618L1.97923 17.7501C1.96278 17.7407 1.95706 17.7197 1.96646 17.7032C1.97207 17.6934 1.97249 17.6815 1.96758 17.6713L0.57793 14.7875C0.53392 14.6847 0.600922 14.5687 0.711931 14.5554L3.87846 14.319C3.89273 14.318 3.90554 14.3099 3.91264 14.2974C3.92443 14.2768 3.95073 14.2696 3.97137 14.2814L3.99895 14.2972C4.0119 14.3046 4.02677 14.3079 4.04164 14.3068L11.9259 13.7182C12.071 13.701 12.1669 13.8649 12.0814 13.9829L9.87406 17.0152C9.69874 17.2561 9.77159 17.5958 10.0302 17.7436L15 20.5835V10.7255C15 10.4285 14.7426 10.1969 14.4473 10.2283L10.6853 10.6271C10.5403 10.6421 10.4463 10.4771 10.5338 10.3601Z" fill="#eee"/>
</svg>
