<svg width="24" height="36" viewBox="0 0 24 36" fill="none" xmlns="http://www.w3.org/2000/svg">
<path fill-rule="evenodd" clip-rule="evenodd" d="M21.0293 22.6152C21.4549 22.3165 21.4549 21.686 21.0293 21.3874L13.3483 15.9968C12.8107 15.6195 12.0821 16.0665 12.175 16.7167L12.6441 20L8.99898 20C5.68461 20 3 22.687 3 26V33.0034C3 34.108 3.89543 35.0034 5 35.0034C6.10457 35.0034 7 34.108 7 33.0034V26C7 24.8948 7.89508 24 8.99898 24L12.6445 24L12.175 27.286C12.0821 27.9362 12.8107 28.3832 13.3484 28.0059L21.0293 22.6152Z" fill="#eee"/>
<path  fill-rule="evenodd" clip-rule="evenodd" d="M15.4801 1.72295C15.4343 1.2051 14.8882 0.889854 14.4168 1.10906L5.90795 5.06571C5.31237 5.34265 5.33526 6.19713 5.94481 6.4418L9.25484 7.7704L3.82165 17.0539C3.2836 17.9733 3 19.0193 3 20.0846V33.0035C3 34.1081 3.89543 35.0035 5 35.0035C6.10457 35.0035 7 34.1081 7 33.0035V20.0846C7 19.7295 7.09453 19.3808 7.27388 19.0743L12.6835 9.83112L15.098 11.7264C15.6147 12.132 16.3661 11.7245 16.3082 11.0703L15.4801 1.72295Z" fill="#eee"/>
</svg>
