<svg width="28" height="36" viewBox="0 0 28 36" fill="none" xmlns="http://www.w3.org/2000/svg">
<path  fill-rule="evenodd" clip-rule="evenodd" d="M2.11071 4.12753C1.59863 4.03781 1.1528 4.48363 1.24252 4.99571L2.86197 14.2388C2.97532 14.8858 3.80661 15.0849 4.20071 14.5594L6.2062 11.8854L12.0496 17.3155C8.69012 18.1433 6.16601 21.0934 5.98087 24.6623L2.65157 24.1867C2.00134 24.0938 1.55428 24.8224 1.93161 25.36L7.32236 33.041C7.62101 33.4665 8.25151 33.4665 8.55015 33.041L13.9407 25.36C14.3181 24.8224 13.871 24.0938 13.2208 24.1867L9.99343 24.6477C10.2106 22.6436 11.9081 21.0836 13.97 21.0836C16.1791 21.0836 17.97 22.8744 17.97 25.0836V32.9482C17.97 33.5314 18.2197 34.0564 18.618 34.422C18.9786 34.7744 19.4718 34.9916 20.0159 34.9916C21.1204 34.9916 22.0159 34.0962 22.0159 32.9916V23.7316C22.0159 22.064 21.3218 20.4716 20.1002 19.3364L9.04193 9.0601L11.6743 7.08585C12.1997 6.69175 12.0007 5.86046 11.3537 5.7471L2.11071 4.12753Z" fill="#eee"/>
<path fill-rule="evenodd" clip-rule="evenodd" d="M20.6192 1.86525C20.3205 1.43971 19.69 1.43972 19.3914 1.86526L14.0008 9.54626C13.6235 10.0839 14.0705 10.8124 14.7208 10.7196L18.0054 10.2503V32.9481C18.0054 34.0527 18.9008 34.9481 20.0054 34.9481C21.1099 34.9481 22.0054 34.0527 22.0054 32.9481V10.2503L25.29 10.7196C25.9402 10.8124 26.3872 10.0839 26.0099 9.54624L20.6192 1.86525Z" fill="#eee"/>
</svg>
