<svg width="20" height="36" viewBox="0 0 20 36" fill="none" xmlns="http://www.w3.org/2000/svg">
<path fill-rule="evenodd" clip-rule="evenodd" d="M2.59678 2.50682C2.50706 1.99474 2.95289 1.54892 3.46496 1.63864L12.708 3.25821C13.3549 3.37157 13.554 4.20286 13.0285 4.59695L10.2044 6.71502C10.4089 6.82225 10.5981 6.96695 10.7615 7.14859L16.8834 13.9506C18.2055 15.4196 18.937 17.326 18.937 19.3023V33.0034C18.937 34.1079 18.0416 35.0034 16.937 35.0034C15.8324 35.0034 14.937 34.1079 14.937 33.0034V19.3023C14.937 18.3142 14.5712 17.361 13.9102 16.6265L7.78835 9.82444C7.68296 9.70734 7.59395 9.58122 7.52118 9.44888L5.55497 12.0705C5.16087 12.596 4.32957 12.3969 4.21622 11.7499L2.59678 2.50682Z" fill="#eee"/>
</svg>
