<svg width="36" height="36" viewBox="0 0 36 36" fill="none" xmlns="http://www.w3.org/2000/svg">
<path fill-rule="evenodd" clip-rule="evenodd" d="M8.99742 25.2079V20.2079C8.99742 18.551 10.3406 17.2079 11.9974 17.2079C13.6543 17.2079 14.9974 18.551 14.9974 20.2079L14.9974 32.982C14.9974 34.0866 15.8928 34.982 16.9974 34.982C18.102 34.982 18.9974 34.0866 18.9974 32.982V20.2079C18.9974 16.3419 15.8634 13.2079 11.9974 13.2079C8.13143 13.2079 4.99742 16.3419 4.99742 20.2079V25.2079C4.99742 25.4132 5.02836 25.6113 5.08583 25.7978L1.67891 25.3111C1.02868 25.2182 0.58162 25.9467 0.958948 26.4844L6.3497 34.1654C6.64835 34.5909 7.27885 34.5909 7.5775 34.1654L12.9681 26.4844C13.3454 25.9467 12.8983 25.2182 12.2481 25.3111L8.9121 25.7876C8.96759 25.6041 8.99742 25.4095 8.99742 25.2079Z" fill="#eee"/>
<path  fill-rule="evenodd" clip-rule="evenodd" d="M16.2721 1.8653C16.5708 1.43976 17.2013 1.43976 17.4999 1.86529L22.8907 9.54628C23.268 10.0839 22.8209 10.8125 22.1707 10.7196L18.8861 10.2504V13.7378C19.671 13.7157 20.4815 13.9279 21.2206 14.4261L29.2749 19.855L30.73 16.9832C31.0269 16.3973 31.8801 16.4489 32.1041 17.0664L35.3041 25.8877C35.4813 26.3765 35.1197 26.8929 34.5998 26.8935L25.2159 26.9037C24.5591 26.9044 24.2187 26.1203 24.6678 25.641L27.0033 23.1477L19.7643 18.2684C19.4322 18.0445 18.9849 18.2825 18.9849 18.683V33.0129C18.9849 34.1175 18.0894 35.0129 16.9849 35.0129C16.5592 35.0129 16.1647 34.88 15.8404 34.6533C15.2679 34.3015 14.8861 33.6694 14.8861 32.9482V10.2504L11.6015 10.7196C10.9513 10.8125 10.5042 10.0839 10.8815 9.5463L16.2721 1.8653Z" fill="#eee"/>
</svg>
