<svg width="26" height="36" viewBox="0 0 26 36" fill="none" xmlns="http://www.w3.org/2000/svg">
<path  fill-rule="evenodd" clip-rule="evenodd" d="M11.8675 14.0763C9.20091 12.5208 5.85205 14.4443 5.85205 17.5314V30.0528C5.85205 31.1573 6.74748 32.0528 7.85205 32.0528C8.95662 32.0528 9.85205 31.1573 9.85205 30.0528V18.4019C9.85205 18.016 10.2707 17.7756 10.604 17.97L15.1167 20.6025L13.0198 23.2739C12.6142 23.7906 13.0216 24.542 13.6759 24.4841L23.0232 23.656C23.5411 23.6102 23.8563 23.0641 23.6371 22.5927L19.6805 14.0839C19.4035 13.4883 18.549 13.5112 18.3044 14.1207L17.0976 17.1272L11.8675 14.0763Z" fill="#eee"/>
<path fill-rule="evenodd" clip-rule="evenodd" d="M8.48845 1.86529C8.1898 1.43976 7.5593 1.43976 7.26065 1.8653L1.87007 9.5463C1.49276 10.0839 1.93982 10.8125 2.59004 10.7196L5.87465 10.2504V32.9482C5.87465 34.0527 6.77008 34.9482 7.87465 34.9482C8.97922 34.9482 9.87465 34.0527 9.87465 32.9482V10.2504L13.1592 10.7196C13.8095 10.8125 14.2565 10.0839 13.8792 9.54628L8.48845 1.86529Z" fill="#eee"/>
</svg>
