<svg width="36" height="36" viewBox="0 0 36 36" fill="none" xmlns="http://www.w3.org/2000/svg">
<path  fill-rule="evenodd" clip-rule="evenodd" d="M16.2721 1.8653C16.5708 1.43976 17.2013 1.43976 17.4999 1.86529L22.8907 9.54628C23.268 10.0839 22.8209 10.8125 22.1707 10.7196L18.8861 10.2504V18.9579C18.9592 19.3635 18.9974 19.7812 18.9974 20.2079V32.982C18.9974 34.0866 18.102 34.982 16.9974 34.982C16.7742 34.982 16.5595 34.9454 16.359 34.878C15.5102 34.6466 14.8861 33.8703 14.8861 32.9482V19.3955C14.5319 18.1334 13.3727 17.2079 11.9974 17.2079C10.3406 17.2079 8.99742 18.551 8.99742 20.2079V25.2079C8.99742 25.4095 8.96759 25.6041 8.9121 25.7876L12.2481 25.3111C12.8983 25.2182 13.3454 25.9467 12.9681 26.4844L7.5775 34.1654C7.27885 34.5909 6.64835 34.5909 6.3497 34.1654L0.958948 26.4844C0.58162 25.9467 1.02868 25.2182 1.67891 25.3111L5.08583 25.7978C5.02836 25.6113 4.99742 25.4132 4.99742 25.2079V20.2079C4.99742 16.3419 8.13143 13.2079 11.9974 13.2079C13.0274 13.2079 14.0055 13.4303 14.8861 13.8298V10.2504L11.6015 10.7196C10.9513 10.8125 10.5042 10.0839 10.8815 9.5463L16.2721 1.8653Z" fill="#eee"/>
<path fill-rule="evenodd" clip-rule="evenodd" d="M21.2206 14.4261C18.5637 12.6353 14.9849 14.539 14.9849 17.743V33.0129C14.9849 34.1175 15.8803 35.0129 16.9849 35.0129C18.0894 35.0129 18.9849 34.1175 18.9849 33.0129V18.683C18.9849 18.2825 19.4322 18.0445 19.7643 18.2684L27.0033 23.1477L24.6678 25.641C24.2187 26.1203 24.5591 26.9044 25.2159 26.9037L34.5998 26.8935C35.1197 26.8929 35.4813 26.3765 35.3041 25.8877L32.1041 17.0664C31.8801 16.4489 31.0269 16.3973 30.73 16.9832L29.2749 19.855L21.2206 14.4261Z" fill="#eee"/>
</svg>
