<svg width="26" height="36" viewBox="0 0 26 36" fill="none" xmlns="http://www.w3.org/2000/svg">
<path fill-rule="evenodd" clip-rule="evenodd" d="M8.48845 1.86529C8.1898 1.43976 7.5593 1.43976 7.26065 1.8653L1.87007 9.5463C1.49276 10.0839 1.93982 10.8125 2.59004 10.7196L5.88393 10.249V33C5.88393 34.1045 6.77936 35 7.88393 35C8.9885 35 9.88393 34.1045 9.88393 33V10.2517L13.1592 10.7196C13.8095 10.8125 14.2565 10.0839 13.8792 9.54628L8.48845 1.86529Z" fill="#eee"/>
<path  fill-rule="evenodd" clip-rule="evenodd" d="M25.0289 20.6152C25.4544 20.3165 25.4544 19.686 25.0289 19.3874L17.3479 13.9968C16.8103 13.6195 16.0817 14.0665 16.1746 14.7167L16.6436 18L11.8657 18C8.55131 18 5.8667 20.687 5.8667 24C5.8667 24.5542 6.31595 25.0034 6.87012 25.0034H8.86327C9.41745 25.0034 9.8667 24.5542 9.8667 24C9.8667 22.8948 10.7618 22 11.8657 22L16.644 22L16.1746 25.286C16.0817 25.9362 16.8103 26.3832 17.3479 26.0059L25.0289 20.6152Z" fill="#eee"/>
</svg>
