<svg width="26" height="36" viewBox="0 0 26 36" fill="none" xmlns="http://www.w3.org/2000/svg">
<path  fill-rule="evenodd" clip-rule="evenodd" d="M7.26065 1.8653C7.5593 1.43976 8.1898 1.43976 8.48845 1.86529L13.8792 9.54628C14.2565 10.0839 13.8095 10.8125 13.1592 10.7196L9.88393 10.2517V18.335C10.5043 18.118 11.1711 18 11.8657 18L16.6436 18L16.1746 14.7167C16.0817 14.0665 16.8103 13.6195 17.3479 13.9968L25.0289 19.3874C25.4544 19.686 25.4544 20.3165 25.0289 20.6152L17.3479 26.0059C16.8103 26.3832 16.0817 25.9362 16.1746 25.2859L16.644 22H11.8657C10.8511 22 10.013 22.7558 9.88393 23.7361V33C9.88393 33.9726 9.18959 34.7831 8.26953 34.9628C8.13941 34.9895 8.00469 35.0034 7.8667 35.0034C6.76213 35.0034 5.8667 34.108 5.8667 33.0034V24C5.8667 23.8458 5.87251 23.693 5.88393 23.5418V10.249L2.59004 10.7196C1.93982 10.8125 1.49276 10.0839 1.87007 9.5463L7.26065 1.8653Z" fill="#eee"/>
</svg>
