<svg width="40" height="36" viewBox="0 0 40 36" fill="none" xmlns="http://www.w3.org/2000/svg">
<path  fill-rule="evenodd" clip-rule="evenodd" d="M19.3333 1.8653C19.6319 1.43976 20.2624 1.43976 20.5611 1.86529L25.9518 9.54628C26.3292 10.0839 25.8821 10.8125 25.2319 10.7196L21.9473 10.2504V21.8481C22.0229 22.29 22.0624 22.7444 22.0624 23.2079V32.0725C22.0624 32.3076 22.0218 32.5332 21.9473 32.7428V32.9482C21.9473 34.0527 21.0518 34.9482 19.9473 34.9482C18.8427 34.9482 17.9473 34.0527 17.9473 32.9482V22.2513C17.5185 20.5041 15.9418 19.2079 14.0624 19.2079C11.8532 19.2079 10.0624 20.9987 10.0624 23.2079V25.7755L13.3135 25.311C13.9638 25.2181 14.4108 25.9467 14.0335 26.4843L8.64292 34.1653C8.34428 34.5909 7.71378 34.5909 7.41513 34.1653L2.02438 26.4843C1.64705 25.9467 2.09411 25.2181 2.74434 25.311L6.06237 25.785V23.2079C6.06237 18.7896 9.64409 15.2079 14.0624 15.2079C15.4723 15.2079 16.797 15.5726 17.9473 16.2128V10.2504L14.6627 10.7196C14.0124 10.8125 13.5654 10.0839 13.9427 9.5463L19.3333 1.8653Z" fill="#eee"/>
<path fill-rule="evenodd" clip-rule="evenodd" d="M38.0293 18.5938C38.4549 18.2951 38.4549 17.6646 38.0293 17.366L30.3483 11.9754C29.8107 11.5981 29.0821 12.0452 29.175 12.6954L29.6441 15.9787L23.9986 15.9787C20.6841 15.9787 18 18.6658 18 21.9787V32.9821C18 34.0867 18.8954 34.9821 20 34.9821C21.1046 34.9821 22 34.0867 22 32.9821V21.9787C22 20.8732 22.895 19.9787 23.9986 19.9787L29.6445 19.9787L29.175 23.2646C29.0821 23.9148 29.8107 24.3619 30.3484 23.9845L38.0293 18.5938Z" fill="#eee"/>
</svg>
