<svg width="32" height="36" viewBox="0 0 32 36" fill="none" xmlns="http://www.w3.org/2000/svg">
<path  fill-rule="evenodd" clip-rule="evenodd" d="M7.26065 1.8653C7.5593 1.43976 8.1898 1.43976 8.48845 1.86529L13.8792 9.54628C14.2565 10.0839 13.8095 10.8125 13.1592 10.7196L9.87465 10.2504V26H21.8433C24.0524 26 25.8433 24.2092 25.8433 22C25.8433 19.7909 24.0524 18 21.8433 18H21.0336L21.5 21.2646C21.5929 21.9148 20.8643 22.3619 20.3267 21.9846L12.6457 16.5938C12.2202 16.2951 12.2202 15.6646 12.6457 15.366L20.3267 9.97542C20.8643 9.5981 21.5929 10.0452 21.5 10.6954L21.0279 14H21.8433C26.2615 14 29.8433 17.5817 29.8433 22C29.8433 26.4183 26.2615 30 21.8433 30H10.3433C10.1286 30 9.94553 30.1353 9.87465 30.3253V32.9482C9.87465 33.3375 9.7634 33.7009 9.57095 34.0082C9.224 34.6015 8.58017 35 7.84326 35C6.73869 35 5.84326 34.1046 5.84326 33V30C5.84326 29.8295 5.85394 29.6614 5.87465 29.4965V10.2504L2.59004 10.7196C1.93982 10.8125 1.49276 10.0839 1.87007 9.5463L7.26065 1.8653Z" fill="#eee"/>
</svg>
