<svg width="28" height="36" viewBox="0 0 28 36" fill="none" xmlns="http://www.w3.org/2000/svg">
<path  fill-rule="evenodd" clip-rule="evenodd" d="M19.4286 1.8653C19.7273 1.43976 20.3578 1.43976 20.6564 1.86529L26.0472 9.54628C26.4245 10.0839 25.9774 10.8125 25.3272 10.7196L22.0426 10.2504V32.9482C22.0426 34.0527 21.1472 34.9482 20.0426 34.9482C19.3864 34.9482 18.804 34.6321 18.4394 34.144C18.1505 33.7972 17.9767 33.3512 17.9767 32.8646V24C17.9767 21.7909 16.1858 20 13.9767 20C11.7675 20 9.97666 21.7909 9.97666 24V24.5675L13.2274 24.1031C13.8776 24.0102 14.3246 24.7388 13.9473 25.2764L8.55674 32.9574C8.2581 33.383 7.6276 33.383 7.32895 32.9574L1.9382 25.2765C1.56087 24.7388 2.00793 24.0102 2.65816 24.1031L5.97666 24.5772V24C5.97666 19.5817 9.55838 16 13.9767 16C15.4611 16 16.8511 16.4043 18.0426 17.1088V10.2504L14.758 10.7196C14.1078 10.8125 13.6607 10.0839 14.038 9.5463L19.4286 1.8653Z" fill="#eee"/>
</svg>
