<svg width="24" height="36" viewBox="0 0 24 36" fill="none" xmlns="http://www.w3.org/2000/svg">
<path  fill-rule="evenodd" clip-rule="evenodd" d="M7.48845 1.86529C7.1898 1.43976 6.5593 1.43976 6.26065 1.8653L0.870074 9.5463C0.492758 10.0839 0.939817 10.8125 1.59004 10.7196L4.87465 10.2504V32.9482C4.87465 34.0527 5.77008 34.9482 6.87465 34.9482C7.97922 34.9482 8.87465 34.0527 8.87465 32.9482V10.2504L12.1592 10.7196C12.8095 10.8125 13.2565 10.0839 12.8792 9.54628L7.48845 1.86529Z" fill="#eee"/>
<path fill-rule="evenodd" clip-rule="evenodd" d="M23.7396 15.0137C23.9588 14.5423 23.6435 13.9962 23.1257 13.9504L13.7784 13.1225C13.1242 13.0645 12.7167 13.816 13.1223 14.3326L15.2169 17.0011L8.02317 21.1118C6.15372 22.1801 5 24.1681 5 26.3213V33.0034C5 34.108 5.89543 35.0034 7 35.0034C8.10457 35.0034 9 34.108 9 33.0034V26.3213C9 25.6036 9.38457 24.9409 10.0077 24.5848L17.1987 20.4757L18.4069 23.4858C18.6516 24.0954 19.5061 24.1183 19.783 23.5227L23.7396 15.0137Z" fill="#eee"/>
</svg>
