<svg width="26" height="36" viewBox="0 0 26 36" fill="none" xmlns="http://www.w3.org/2000/svg">
<path fill-rule="evenodd" clip-rule="evenodd" d="M11.8675 14.0764C9.20091 12.5209 5.85205 14.4444 5.85205 17.5315V33.0529C5.85205 34.1575 6.74748 35.0529 7.85205 35.0529C8.95662 35.0529 9.85205 34.1575 9.85205 33.0529V18.4021C9.85205 18.0162 10.2707 17.7757 10.604 17.9702L15.1167 20.6026L13.0198 23.274C12.6142 23.7907 13.0216 24.5422 13.6759 24.4842L23.0232 23.6562C23.5411 23.6103 23.8563 23.0643 23.6371 22.5929L19.6805 14.084C19.4035 13.4884 18.549 13.5113 18.3044 14.1208L17.0976 17.1273L11.8675 14.0764Z" fill="#eee"/>
<path  fill-rule="evenodd" clip-rule="evenodd" d="M8.48845 1.86529C8.1898 1.43976 7.5593 1.43976 7.26065 1.8653L1.87007 9.5463C1.49276 10.0839 1.93982 10.8125 2.59004 10.7196L5.87465 10.2504V32.9482C5.87465 34.0527 6.77008 34.9482 7.87465 34.9482C8.97922 34.9482 9.87465 34.0527 9.87465 32.9482V10.2504L13.1592 10.7196C13.8095 10.8125 14.2565 10.0839 13.8792 9.54628L8.48845 1.86529Z" fill="#eee"/>
</svg>
