<svg width="28" height="36" viewBox="0 0 28 36" fill="none" xmlns="http://www.w3.org/2000/svg">
<path  fill-rule="evenodd" clip-rule="evenodd" d="M20.6564 1.86529C20.3578 1.43976 19.7273 1.43976 19.4286 1.8653L14.038 9.5463C13.6607 10.0839 14.1078 10.8125 14.758 10.7196L18.0426 10.2504V32.9482C18.0426 34.0527 18.9381 34.9482 20.0426 34.9482C21.1472 34.9482 22.0426 34.0527 22.0426 32.9482V10.2504L25.3272 10.7196C25.9774 10.8125 26.4245 10.0839 26.0472 9.54628L20.6564 1.86529Z" fill="#eee"/>
<path fill-rule="evenodd" clip-rule="evenodd" d="M9.97666 24.5675V24C9.97666 21.7909 11.7675 20 13.9767 20C16.1858 20 17.9767 21.7909 17.9767 24V32.8646C17.9767 33.9692 18.8721 34.8646 19.9767 34.8646C21.0812 34.8646 21.9767 33.9692 21.9767 32.8646V24C21.9767 19.5817 18.3949 16 13.9767 16C9.55838 16 5.97666 19.5817 5.97666 24V24.5772L2.65816 24.1031C2.00793 24.0102 1.56087 24.7388 1.9382 25.2765L7.32895 32.9574C7.6276 33.383 8.2581 33.383 8.55674 32.9574L13.9473 25.2764C14.3246 24.7388 13.8776 24.0102 13.2274 24.1031L9.97666 24.5675Z" fill="#eee"/>
</svg>
