<svg width="40" height="36" viewBox="0 0 40 36" fill="none" xmlns="http://www.w3.org/2000/svg">
<path fill-rule="evenodd" clip-rule="evenodd" d="M9.99343 24.6478L13.2208 24.1868C13.871 24.0939 14.318 24.8224 13.9407 25.3601L8.55015 33.041C8.2515 33.4666 7.62101 33.4666 7.32235 33.0411L1.9316 25.3601C1.55428 24.8224 2.00134 24.0939 2.65157 24.1868L5.98086 24.6624C6.19991 20.4399 9.69299 17.0836 13.97 17.0836C18.3882 17.0836 21.97 20.6653 21.97 25.0836V32.9482C21.97 34.0528 21.0745 34.9482 19.97 34.9482C18.8654 34.9482 17.97 34.0528 17.97 32.9482V25.0836C17.97 22.8745 16.1791 21.0836 13.97 21.0836C11.9081 21.0836 10.2106 22.6437 9.99343 24.6478Z" fill="#eee"/>
<path  fill-rule="evenodd" clip-rule="evenodd" d="M19.3915 1.8653C19.6902 1.43976 20.3207 1.43976 20.6193 1.86529L26.0101 9.54628C26.3874 10.0839 25.9403 10.8125 25.2901 10.7196L22.0055 10.2504V18.2094L31.1219 9.14376L28.378 7.08585C27.8525 6.69175 28.0516 5.86046 28.6985 5.7471L37.9415 4.12753C38.4536 4.03781 38.8994 4.48363 38.8097 4.99571L37.1903 14.2388C37.0769 14.8858 36.2456 15.0849 35.8515 14.5594L33.9279 11.9945L22.6261 23.2334C22.2486 23.6088 22.0364 24.1192 22.0364 24.6516V32.9916C22.0364 34.0962 21.1409 34.9916 20.0364 34.9916C19.3532 34.9916 18.7501 34.6491 18.3893 34.1264C18.1479 33.796 18.0055 33.3887 18.0055 32.9482V10.2504L14.7209 10.7196C14.0707 10.8125 13.6236 10.0839 14.0009 9.5463L19.3915 1.8653Z" fill="#eee"/>
</svg>
