<svg width="40" height="36" viewBox="0 0 40 36" fill="none" xmlns="http://www.w3.org/2000/svg">
<path fill-rule="evenodd" clip-rule="evenodd" d="M20.5612 1.86529C20.2626 1.43976 19.6321 1.43976 19.3334 1.8653L13.9428 9.5463C13.5655 10.0839 14.0126 10.8125 14.6628 10.7196L17.9474 10.2504V32.9482C17.9474 34.0527 18.8428 34.9482 19.9474 34.9482C21.052 34.9482 21.9474 34.0527 21.9474 32.9482V10.2504L25.232 10.7196C25.8822 10.8125 26.3293 10.0839 25.952 9.54628L20.5612 1.86529Z" fill="#eee"/>
<path  fill-rule="evenodd" clip-rule="evenodd" d="M38.0292 17.366C38.4547 17.6646 38.4547 18.2951 38.0292 18.5938L30.3482 23.9845C29.8106 24.3619 29.082 23.9148 29.1749 23.2646L29.6443 19.9787L23.9985 19.9787C22.8948 19.9787 21.9999 20.8732 21.9999 21.9787V22.203C22.0411 22.5322 22.0624 22.8676 22.0624 23.2079V32.0725C22.0624 33.177 21.1669 34.0725 20.0624 34.0725C19.3601 34.0725 18.7424 33.7105 18.3855 33.163C18.1431 32.832 17.9999 32.4238 17.9999 31.9821V22.4997C17.6655 20.6284 16.0298 19.2079 14.0624 19.2079C11.8532 19.2079 10.0624 20.9987 10.0624 23.2079V25.7755L13.3135 25.311C13.9638 25.2181 14.4108 25.9467 14.0335 26.4843L8.64292 34.1653C8.34428 34.5909 7.71378 34.5909 7.41513 34.1653L2.02438 26.4843C1.64705 25.9467 2.09411 25.2181 2.74434 25.311L6.06237 25.785V23.2079C6.06237 18.7896 9.64409 15.2079 14.0624 15.2079C16.3284 15.2079 18.3743 16.15 19.8299 17.6639C20.9089 16.6206 22.3784 15.9787 23.9985 15.9787L29.6439 15.9787L29.1749 12.6954C29.082 12.0452 29.8106 11.5981 30.3482 11.9754L38.0292 17.366Z" fill="#eee"/>
</svg>
