<svg width="40" height="36" viewBox="0 0 40 36" fill="none" xmlns="http://www.w3.org/2000/svg">
<path fill-rule="evenodd" clip-rule="evenodd" d="M10.0625 25.7755V23.2079C10.0625 20.9987 11.8534 19.2079 14.0625 19.2079C16.2716 19.2079 18.0625 20.9987 18.0625 23.2079V32.0725C18.0625 33.177 18.9579 34.0725 20.0625 34.0725C21.1671 34.0725 22.0625 33.177 22.0625 32.0725V23.2079C22.0625 18.7896 18.4808 15.2079 14.0625 15.2079C9.64422 15.2079 6.0625 18.7896 6.0625 23.2079V25.785L2.74447 25.311C2.09424 25.2181 1.64718 25.9467 2.02451 26.4843L7.41526 34.1653C7.71391 34.5909 8.34441 34.5909 8.64306 34.1653L14.0336 26.4843C14.411 25.9467 13.9639 25.2181 13.3137 25.311L10.0625 25.7755Z" fill="#eee"/>
<path  fill-rule="evenodd" clip-rule="evenodd" d="M19.3334 1.8653C19.6321 1.43976 20.2626 1.43976 20.5612 1.86529L25.952 9.54628C26.3293 10.0839 25.8822 10.8125 25.232 10.7196L21.9474 10.2504V16.3385C22.5873 16.1057 23.2781 15.9787 23.9986 15.9787L29.6441 15.9787L29.175 12.6954C29.0821 12.0452 29.8107 11.5981 30.3483 11.9754L38.0293 17.366C38.4549 17.6646 38.4549 18.2951 38.0293 18.5938L30.3484 23.9845C29.8107 24.3619 29.0821 23.9148 29.175 23.2646L29.6445 19.9787H23.9986C22.895 19.9787 22 20.8732 22 21.9787V31.9821C22 32.1395 21.9818 32.2927 21.9474 32.4397V32.9482C21.9474 34.0527 21.052 34.9482 19.9474 34.9482C18.8428 34.9482 17.9474 34.0527 17.9474 32.9482V10.2504L14.6628 10.7196C14.0126 10.8125 13.5655 10.0839 13.9428 9.5463L19.3334 1.8653Z" fill="#eee"/>
</svg>
