<svg width="36" height="36" viewBox="0 0 36 36" fill="none" xmlns="http://www.w3.org/2000/svg">
<path fill-rule="evenodd" clip-rule="evenodd" d="M17.4999 1.86529C17.2013 1.43976 16.5708 1.43976 16.2721 1.8653L10.8815 9.5463C10.5042 10.0839 10.9513 10.8125 11.6015 10.7196L14.8861 10.2504V32.9482C14.8861 34.0527 15.7816 34.9482 16.8861 34.9482C17.9907 34.9482 18.8861 34.0527 18.8861 32.9482V10.2504L22.1707 10.7196C22.8209 10.8125 23.268 10.0839 22.8907 9.54628L17.4999 1.86529Z" fill="#eee"/>
<path  fill-rule="evenodd" clip-rule="evenodd" d="M8.99742 20.2079V25.2079C8.99742 25.4095 8.96759 25.6041 8.9121 25.7876L12.2481 25.3111C12.8983 25.2182 13.3454 25.9467 12.9681 26.4844L7.5775 34.1654C7.27885 34.5909 6.64835 34.5909 6.3497 34.1654L0.958948 26.4844C0.58162 25.9467 1.02868 25.2182 1.67891 25.3111L5.08583 25.7978C5.02836 25.6113 4.99742 25.4132 4.99742 25.2079V20.2079C4.99742 16.3419 8.13143 13.2079 11.9974 13.2079C13.6439 13.2079 15.1577 13.7764 16.3531 14.7278C17.6384 13.6157 19.6008 13.3343 21.2206 14.4261L29.2749 19.855L30.73 16.9832C31.0269 16.3973 31.8801 16.4489 32.1041 17.0664L35.3041 25.8877C35.4813 26.3765 35.1197 26.8929 34.5998 26.8935L25.2159 26.9037C24.5591 26.9044 24.2187 26.1203 24.6678 25.641L27.0033 23.1477L19.7643 18.2684C19.4322 18.0445 18.9849 18.2825 18.9849 18.683V19.7852C18.9932 19.925 18.9974 20.066 18.9974 20.2079V32.982C18.9974 33.254 18.9431 33.5134 18.8448 33.7498C18.5514 34.4897 17.8292 35.0129 16.9849 35.0129C15.8803 35.0129 14.9849 34.1175 14.9849 33.0129V19.9316C14.8454 18.4042 13.5611 17.2079 11.9974 17.2079C10.3406 17.2079 8.99742 18.551 8.99742 20.2079Z" fill="#eee"/>
</svg>
