<svg width="24" height="36" viewBox="0 0 24 36" fill="none" xmlns="http://www.w3.org/2000/svg">
<path  fill-rule="evenodd" clip-rule="evenodd" d="M9.92639 13.1985V9.19849C9.92639 6.98935 11.7172 5.19849 13.9264 5.19849C16.1355 5.19849 17.9264 6.98935 17.9264 9.19849V33.0631C17.9264 34.1676 18.8218 35.0631 19.9264 35.0631C21.031 35.0631 21.9264 34.1676 21.9264 33.0631V9.19849C21.9264 4.78021 18.3447 1.19849 13.9264 1.19849C9.50811 1.19849 5.92639 4.78021 5.92639 9.19849V13.1985C5.92639 13.4037 5.95731 13.6018 6.01474 13.7882L2.6086 13.3016C1.95837 13.2087 1.51131 13.9373 1.88864 14.4749L7.27939 22.1559C7.57804 22.5814 8.20854 22.5814 8.50718 22.1559L13.8978 14.4749C14.2751 13.9373 13.828 13.2087 13.1778 13.3016L9.84106 13.7783C9.89655 13.5947 9.92639 13.4001 9.92639 13.1985Z" fill="#eee"/>
</svg>
