<svg width="64" height="64" viewBox="0 0 64 64" fill="none" xmlns="http://www.w3.org/2000/svg">
<g clip-path="url(#clip0_3544_9267)">
<path d="M32 64C49.6731 64 64 49.6731 64 32C64 14.3269 49.6731 0 32 0C14.3269 0 0 14.3269 0 32C0 49.6731 14.3269 64 32 64Z" fill="black" fill-opacity="0.02"/>
<path d="M32.0001 62.8947C49.0637 62.8947 62.8966 49.0618 62.8966 31.9981C62.8966 14.9344 49.0637 1.10156 32.0001 1.10156C14.9364 1.10156 1.10352 14.9344 1.10352 31.9981C1.10352 49.0618 14.9364 62.8947 32.0001 62.8947Z" fill="black" fill-opacity="0.02"/>
<path d="M32.0001 61.7932C48.4544 61.7932 61.7932 48.4544 61.7932 32.0001C61.7932 15.5458 48.4544 2.20703 32.0001 2.20703C15.5458 2.20703 2.20703 15.5458 2.20703 32.0001C2.20703 48.4544 15.5458 61.7932 32.0001 61.7932Z" fill="black" fill-opacity="0.02"/>
<path d="M32.0002 60.6879C47.8451 60.6879 60.6899 47.8431 60.6899 31.9982C60.6899 16.1534 47.8451 3.30859 32.0002 3.30859C16.1553 3.30859 3.31055 16.1534 3.31055 31.9982C3.31055 47.8431 16.1553 60.6879 32.0002 60.6879Z" fill="black" fill-opacity="0.02"/>
<path d="M32.0003 59.5865C47.2357 59.5865 59.5865 47.2357 59.5865 32.0003C59.5865 16.7648 47.2357 4.41406 32.0003 4.41406C16.7648 4.41406 4.41406 16.7648 4.41406 32.0003C4.41406 47.2357 16.7648 59.5865 32.0003 59.5865Z" fill="#C4C4C4"/>
<path fill-rule="evenodd" clip-rule="evenodd" d="M22.0699 28.6906C27.2719 39.0945 39.0378 39.1088 48.5527 39.0945V34.3655C48.5527 24.4344 39.1537 20.6347 32.0009 22.5428C24.9074 24.4344 18.7619 18.7596 15.4492 15.4492C15.4492 32.0009 15.4492 48.5527 32.0009 48.5527C38.6216 48.5527 42.4072 45.7152 46.1881 41.4591C36.2571 41.4591 25.3803 41.932 22.0699 28.6906Z" stroke="#C4C4C4" stroke-width="5"/>
<path fill-rule="evenodd" clip-rule="evenodd" d="M22.0699 28.6906C27.2719 39.0945 39.0378 39.1088 48.5527 39.0945V34.3655C48.5527 24.4344 39.1537 20.6347 32.0009 22.5428C24.9074 24.4344 18.7619 18.7596 15.4492 15.4492C15.4492 32.0009 15.4492 48.5527 32.0009 48.5527C38.6216 48.5527 42.4072 45.7152 46.1881 41.4591C36.2571 41.4591 25.3803 41.932 22.0699 28.6906Z" fill="white"/>
</g>
<defs>
<clipPath id="clip0_3544_9267">
<rect width="64" height="64" fill="white"/>
</clipPath>
</defs>
</svg>
