<svg width="20" height="36" viewBox="0 0 20 36" fill="none" xmlns="http://www.w3.org/2000/svg">
<g clip-path="url(#clip0_72_536)">
<path d="M20 13L15 0L10 13H13.5V16.4157L13.4707 16.3974C12.5129 15.8029 11.3525 15.5 10 15.5C8.64745 15.5 7.48708 15.8029 6.52927 16.3974C5.57154 16.9919 4.91449 17.8169 4.47086 18.7042C3.7907 20.0645 3.57848 21.6437 3.51998 23H0L5 36L10 23H6.52407C6.58167 21.8882 6.75361 20.8469 7.15414 20.0458C7.39801 19.5581 7.70971 19.1956 8.11136 18.9463C8.51292 18.6971 9.10255 18.5 10 18.5C10.8975 18.5 11.4871 18.6971 11.8886 18.9463C12.2903 19.1956 12.602 19.5581 12.8459 20.0458C13.3648 21.0836 13.5 22.5247 13.5 24V36H16.5V13H20Z" fill="#E0E0E0"/>
</g>
<defs>
<clipPath id="clip0_72_536">
<rect width="20" height="36" fill="white"/>
</clipPath>
</defs>
</svg>
