<svg width="20" height="22" viewBox="0 0 20 22" fill="none" xmlns="http://www.w3.org/2000/svg">
<path d="M9.02139 13.5187H10.3048V12.7166L11.9893 14H15.3583C15.4859 14 15.6084 13.9493 15.6986 13.859C15.7889 13.7688 15.8396 13.6464 15.8396 13.5187V13.0374H18.246C18.4204 13.0374 18.5877 12.9681 18.7111 12.8448C18.8344 12.7214 18.9037 12.5541 18.9037 12.3797C18.9037 12.2052 18.8344 12.0379 18.7111 11.9146C18.5877 11.7912 18.4204 11.7219 18.246 11.7219H15.8396V10.2781H18.246C18.4204 10.2781 18.5877 10.2088 18.7111 10.0854C18.8344 9.96207 18.9037 9.79477 18.9037 9.62032C18.9037 9.44587 18.8344 9.27857 18.7111 9.15522C18.5877 9.03187 18.4204 8.96257 18.246 8.96257H15.8396V8.48128C15.8396 8.35364 15.7889 8.23122 15.6986 8.14096C15.6084 8.05071 15.4859 8 15.3583 8H11.9893L10.3048 9.28342V8.48128H9.02139V10.3262H1V11.6096H9.02139V13.5187Z" fill="#E0E0E0"/>
</svg>
