<svg width="20" height="36" viewBox="0 0 20 36" fill="none" xmlns="http://www.w3.org/2000/svg">
<path  fill-rule="evenodd" clip-rule="evenodd" d="M1.73897 8.61516C1.31343 8.31651 1.31344 7.68601 1.73898 7.38736L9.41997 1.99678C9.95761 1.61947 10.6862 2.06653 10.5933 2.71675L10.1278 5.97542L12.8909 5.97542C16.2048 5.97542 18.8906 8.66191 18.8906 11.9754V32.9788C18.8906 34.0834 17.9952 34.9789 16.8906 34.9789C15.7861 34.9789 14.8906 34.0834 14.8906 32.9788V11.9754C14.8906 10.8707 13.9953 9.97542 12.8909 9.97542L10.1203 9.97542L10.5933 13.286C10.6862 13.9362 9.95759 14.3832 9.41996 14.0059L1.73897 8.61516Z" fill="#eee"/>
</svg>
