<svg width="24" height="36" viewBox="0 0 24 36" fill="none" xmlns="http://www.w3.org/2000/svg">
<path  fill-rule="evenodd" clip-rule="evenodd" d="M9.71838 1.10967C9.24697 0.890464 8.70094 1.20571 8.65507 1.72356L7.82703 11.0709C7.76908 11.7251 8.52053 12.1326 9.0372 11.727L11.937 9.4508L17.5692 19.0744C17.6043 19.1343 17.6361 19.1959 17.6647 19.2588C17.1115 19.0905 16.5245 19 15.9163 19L10.2708 19L10.7399 15.7167C10.8328 15.0665 10.1042 14.6195 9.56656 14.9968L1.88556 20.3874C1.46002 20.686 1.46002 21.3165 1.88556 21.6152L9.56655 27.0059C10.1042 27.3832 10.8327 26.9362 10.7399 26.2859L10.2704 23H15.9163C16.8355 23 17.6099 23.6206 17.8431 24.4667V33.0036C17.8431 34.1081 18.7385 35.0036 19.8431 35.0036C19.8562 35.0036 19.8693 35.0034 19.8824 35.0032C19.8932 35.0034 19.904 35.0034 19.9149 35.0034C21.0195 35.0034 21.9149 34.108 21.9149 33.0034V25C21.9149 24.6834 21.8904 24.3724 21.8431 24.069V20.0846C21.8431 19.0194 21.5595 17.9733 21.0215 17.054L15.4539 7.54081L18.1904 6.44241C18.7999 6.19774 18.8228 5.34326 18.2273 5.06632L9.71838 1.10967Z" fill="#eee"/>
</svg>
