<svg width="24" height="36" viewBox="0 0 24 36" fill="none" xmlns="http://www.w3.org/2000/svg">
<path  fill-rule="evenodd" clip-rule="evenodd" d="M4.84213 7.38736C4.41658 7.68601 4.41658 8.31651 4.84212 8.61516L12.5231 14.0059C13.0607 14.3832 13.7893 13.9362 13.6964 13.286L13.2235 9.97542L15.9941 9.97542C17.0984 9.97542 17.9938 10.8707 17.9938 11.9754V17.2406C16.8282 16.5773 15.4798 16.1985 14.0428 16.1985C9.62455 16.1985 6.04282 19.7802 6.04282 24.1985V24.7757L2.72432 24.3016C2.07409 24.2087 1.62703 24.9373 2.00436 25.4749L7.39511 33.1559C7.69376 33.5815 8.32426 33.5815 8.62291 33.1559L14.0135 25.4749C14.3908 24.9373 13.9437 24.2087 13.2935 24.3016L10.0428 24.766V24.1985C10.0428 21.9893 11.8337 20.1985 14.0428 20.1985C16.0382 20.1985 17.6924 21.6596 17.9938 23.5702V32.9788C17.9938 33.3627 18.1019 33.7213 18.2893 34.0258C18.6295 34.6441 19.2873 35.0631 20.0428 35.0631C21.1474 35.0631 22.0428 34.1676 22.0428 33.0631V24.1985C22.0428 23.8973 22.0262 23.6001 21.9938 23.3075V11.9754C21.9938 8.66191 19.308 5.97542 15.9941 5.97542L13.2309 5.97542L13.6964 2.71675C13.7893 2.06653 13.0608 1.61947 12.5231 1.99678L4.84213 7.38736Z" fill="#eee"/>
</svg>
