<svg width="105" height="105" viewBox="0 0 105 105" fill="none" xmlns="http://www.w3.org/2000/svg">
<rect x="1" y="98" width="103" height="4" fill="#646464" stroke="white" stroke-width="2"/>
<path fill-rule="evenodd" clip-rule="evenodd" d="M26.2296 79.4507C26.2296 79.4507 16.1761 79.9807 18.2928 98H50L50.7143 90H54.2857L55 98H86.5492C87.6471 89.7523 86.6093 84.3569 84.8391 81C83.1968 77.8857 80.9241 76.5259 79.1416 76.2708C79.1416 76.2708 77.5543 66.7312 66.9718 69.3811C66.9718 69.3811 61.1515 60.3715 53.2147 68.3212C53.2147 68.3212 44.2197 59.3115 36.2829 70.9711C36.2829 70.9711 26.2296 68.3212 26.2296 79.4507Z" fill="#646464"/>
<path d="M18.2928 98L17.2996 98.1167L17.4034 99H18.2928V98ZM26.2296 79.4507L26.2822 80.4493L27.2296 80.3994V79.4507H26.2296ZM50 98V99H50.9147L50.996 98.0889L50 98ZM50.7143 90V89H49.7996L49.7182 89.9111L50.7143 90ZM54.2857 90L55.2817 89.9111L55.2004 89H54.2857V90ZM55 98L54.004 98.0889L54.0853 99H55V98ZM86.5492 98V99H87.4249L87.5405 98.132L86.5492 98ZM84.8391 81L83.9545 81.4665V81.4665L84.8391 81ZM79.1416 76.2708L78.1551 76.435L78.2753 77.1571L78.9999 77.2608L79.1416 76.2708ZM66.9718 69.3811L66.1319 69.9237L66.5203 70.5251L67.2147 70.3512L66.9718 69.3811ZM53.2147 68.3212L52.5071 69.0277L53.2147 69.7365L53.9224 69.0277L53.2147 68.3212ZM36.2829 70.9711L36.028 71.938L36.7117 72.1182L37.1095 71.5338L36.2829 70.9711ZM78 85L78.1414 84.01L78 85ZM84.0599 81.8832L84.8166 82.5371V82.5371L84.0599 81.8832ZM56 82L55.8605 81.0098L56 82ZM59.0895 77.4792L58.0987 77.3437V77.3437L59.0895 77.4792ZM59 69.3811L58.0495 69.0705V69.0705L59 69.3811ZM63.0713 68.8732L62.7406 69.8169H62.7406L63.0713 68.8732ZM66.0815 75.2012L66.6591 74.385L66.0815 75.2012ZM71.6828 80.143L72.3783 79.4246V79.4246L71.6828 80.143ZM46.6896 79.0731L46.3318 78.1393H46.3318L46.6896 79.0731ZM19.286 97.8833C18.2482 89.0491 20.2186 84.7502 22.195 82.6542C23.1947 81.5939 24.2447 81.0422 25.034 80.7547C25.4296 80.6106 25.7591 80.5332 25.9822 80.4923C26.0936 80.4718 26.1778 80.4606 26.2297 80.4547C26.2557 80.4518 26.2734 80.4502 26.2824 80.4495C26.2869 80.4491 26.2892 80.4489 26.2892 80.4489C26.2892 80.4489 26.2886 80.449 26.2875 80.449C26.2869 80.4491 26.2862 80.4491 26.2853 80.4492C26.2849 80.4492 26.2841 80.4492 26.2839 80.4493C26.2831 80.4493 26.2822 80.4493 26.2296 79.4507C26.1769 78.4521 26.176 78.4522 26.1751 78.4522C26.1747 78.4522 26.1737 78.4523 26.173 78.4523C26.1715 78.4524 26.1698 78.4525 26.168 78.4526C26.1644 78.4528 26.1602 78.4531 26.1554 78.4534C26.1457 78.4541 26.1336 78.4549 26.1192 78.4561C26.0903 78.4585 26.0518 78.4621 26.0047 78.4674C25.9103 78.4781 25.7806 78.4959 25.6212 78.5251C25.3028 78.5836 24.8635 78.6883 24.3496 78.8755C23.3201 79.2504 21.9889 79.9574 20.7399 81.2821C18.2187 83.9559 16.2207 88.9316 17.2996 98.1167L19.286 97.8833ZM50 97H18.2928V99H50V97ZM50.996 98.0889L51.7103 90.0889L49.7182 89.9111L49.004 97.9111L50.996 98.0889ZM50.7143 91H54.2857V89H50.7143V91ZM53.2897 90.0889L54.004 98.0889L55.996 97.9111L55.2817 89.9111L53.2897 90.0889ZM86.5492 97H55V99H86.5492V97ZM83.9545 81.4665C85.5955 84.5782 86.6394 89.7442 85.558 97.868L87.5405 98.132C88.6549 89.7604 87.6231 84.1356 85.7236 80.5335L83.9545 81.4665ZM78.9999 77.2608C80.4103 77.4626 82.4338 78.5826 83.9545 81.4665L85.7236 80.5335C83.9598 77.1888 81.4379 75.5892 79.2832 75.2809L78.9999 77.2608ZM67.2147 70.3512C69.7148 69.7251 71.6055 69.8372 73.0342 70.2925C74.4616 70.7474 75.4994 71.5678 76.2584 72.4743C77.0232 73.3877 77.5022 74.3863 77.7898 75.1673C77.9328 75.5554 78.026 75.8829 78.0827 76.1092C78.111 76.2221 78.13 76.3093 78.1416 76.3654C78.1473 76.3935 78.1512 76.4138 78.1534 76.4256C78.1545 76.4315 78.1551 76.4353 78.1554 76.4369C78.1556 76.4377 78.1556 76.4379 78.1556 76.4376C78.1555 76.4375 78.1555 76.4372 78.1554 76.4367C78.1554 76.4365 78.1553 76.4361 78.1553 76.436C78.1552 76.4355 78.1551 76.435 79.1416 76.2708C80.128 76.1067 80.1279 76.1061 80.1278 76.1055C80.1277 76.1053 80.1276 76.1046 80.1276 76.1041C80.1274 76.1031 80.1272 76.1019 80.127 76.1006C80.1265 76.098 80.126 76.0948 80.1253 76.091C80.124 76.0835 80.1222 76.0736 80.12 76.0615C80.1155 76.0374 80.1092 76.0044 80.1007 75.9633C80.0838 75.881 80.0585 75.7658 80.0227 75.623C79.9513 75.338 79.8378 74.9409 79.6666 74.4761C79.3259 73.5512 78.7466 72.3306 77.7918 71.1903C76.8312 70.0431 75.4879 68.9754 73.6415 68.3869C71.7962 67.7989 69.5201 67.7121 66.7289 68.4111L67.2147 70.3512ZM53.9224 69.0277C55.7961 67.151 57.4666 66.3513 58.8749 66.1197C60.281 65.8885 61.5355 66.2055 62.6122 66.7593C63.6987 67.3181 64.5841 68.1094 65.2059 68.7784C65.5142 69.11 65.751 69.4044 65.9088 69.6129C65.9875 69.7169 66.0461 69.799 66.0837 69.853C66.1025 69.88 66.1159 69.8999 66.124 69.912C66.1281 69.918 66.1307 69.9221 66.132 69.9241C66.1327 69.9251 66.133 69.9255 66.133 69.9255C66.133 69.9255 66.1329 69.9253 66.1327 69.925C66.1326 69.9249 66.1324 69.9246 66.1323 69.9245C66.1321 69.9241 66.1319 69.9237 66.9718 69.3811C67.8118 68.8385 67.8115 68.838 67.8112 68.8375C67.8111 68.8373 67.8107 68.8368 67.8104 68.8364C67.8099 68.8356 67.8093 68.8346 67.8085 68.8335C67.8071 68.8312 67.8053 68.8285 67.8031 68.8252C67.7988 68.8186 67.793 68.8098 67.7858 68.799C67.7713 68.7775 67.7511 68.7478 67.7254 68.7107C67.6738 68.6366 67.5996 68.5329 67.5037 68.4061C67.3121 68.153 67.0322 67.8055 66.6708 67.4167C65.9533 66.6448 64.8876 65.6806 63.527 64.9807C62.1565 64.2759 60.4678 63.8309 58.5503 64.1463C56.6351 64.4612 54.6018 65.5165 52.5071 67.6146L53.9224 69.0277ZM37.1095 71.5338C39.0106 68.7411 40.9173 67.2689 42.6528 66.5648C44.3834 65.8626 46.0322 65.8882 47.4869 66.245C48.9535 66.6047 50.215 67.3007 51.1202 67.9206C51.5699 68.2286 51.924 68.5125 52.1628 68.7168C52.2821 68.8188 52.3721 68.9004 52.4304 68.9547C52.4595 68.9818 52.4807 69.0021 52.4936 69.0146C52.5 69.0208 52.5044 69.0251 52.5066 69.0273C52.5078 69.0284 52.5084 69.029 52.5085 69.0291C52.5085 69.0291 52.5084 69.029 52.5082 69.0288C52.508 69.0287 52.5078 69.0284 52.5077 69.0283C52.5074 69.028 52.5071 69.0277 53.2147 68.3212C53.9224 67.6146 53.922 67.6142 53.9216 67.6138C53.9214 67.6136 53.9209 67.6131 53.9205 67.6127C53.9197 67.6119 53.9188 67.611 53.9177 67.61C53.9156 67.6079 53.913 67.6052 53.9097 67.602C53.9033 67.5957 53.8946 67.5872 53.8838 67.5768C53.8622 67.5559 53.8319 67.5269 53.7932 67.4909C53.7159 67.4189 53.6049 67.3184 53.4627 67.1968C53.1786 66.9539 52.7679 66.625 52.2503 66.2705C51.2209 65.5655 49.7376 64.7378 47.9634 64.3026C46.1772 63.8644 44.0891 63.8237 41.9009 64.7115C39.7176 65.5973 37.5236 67.3713 35.4562 70.4083L37.1095 71.5338ZM27.2296 79.4507C27.2296 76.8169 27.8235 75.1163 28.6135 74.0126C29.3994 72.9147 30.4465 72.3133 31.5347 71.9977C32.6361 71.6784 33.7621 71.6589 34.6332 71.7278C35.0645 71.7619 35.4226 71.8168 35.6694 71.8623C35.7926 71.8851 35.8874 71.9053 35.9489 71.9193C35.9796 71.9262 36.002 71.9316 36.0154 71.9349C36.0221 71.9366 36.0265 71.9377 36.0287 71.9382C36.0297 71.9385 36.0302 71.9386 36.0301 71.9386C36.03 71.9386 36.0298 71.9385 36.0295 71.9384C36.0293 71.9384 36.0289 71.9383 36.0288 71.9383C36.0284 71.9381 36.028 71.938 36.2829 70.9711C36.5377 70.0041 36.5372 70.0039 36.5366 70.0038C36.5364 70.0037 36.5358 70.0036 36.5353 70.0034C36.5343 70.0032 36.5332 70.0029 36.532 70.0026C36.5294 70.0019 36.5262 70.0011 36.5225 70.0001C36.5149 69.9982 36.505 69.9957 36.4926 69.9927C36.468 69.9866 36.4339 69.9785 36.391 69.9688C36.3053 69.9493 36.184 69.9235 36.0323 69.8955C35.7294 69.8396 35.3021 69.7744 34.7909 69.734C33.777 69.6539 32.3896 69.6675 30.9777 70.0769C29.5526 70.4901 28.0864 71.3129 26.9873 72.8484C25.8923 74.378 25.2296 76.5198 25.2296 79.4507H27.2296ZM77.8586 85.99C79.6062 86.2396 80.979 85.8431 82.1205 85.108C83.2117 84.4053 84.0695 83.4016 84.8166 82.5371L83.3033 81.2294C82.5177 82.1385 81.844 82.9072 81.0376 83.4265C80.2815 83.9134 79.3906 84.1885 78.1414 84.01L77.8586 85.99ZM84.8166 82.5371C85.0756 82.2372 85.323 81.9511 85.5752 81.6769L84.103 80.3231C83.8263 80.624 83.5589 80.9336 83.3033 81.2294L84.8166 82.5371ZM56.1395 82.9902C57.7366 82.7653 58.7126 81.9333 59.2765 80.8241C59.7905 79.8134 59.9469 78.5898 60.0803 77.6147L58.0987 77.3437C57.9533 78.407 57.825 79.2663 57.4938 79.9177C57.2127 80.4705 56.7832 80.8798 55.8605 81.0098L56.1395 82.9902ZM60.0803 77.6147C60.2117 76.6535 60.3215 75.9132 60.5724 75.3615C60.7834 74.8974 61.0612 74.6304 61.6122 74.533L61.2641 72.5635C59.9591 72.7942 59.1882 73.5738 58.7517 74.5337C58.355 75.4061 58.2185 76.4673 58.0987 77.3437L60.0803 77.6147ZM61.6122 74.533C61.6533 74.5257 61.6967 74.5193 61.7423 74.5139L61.5063 72.5279C61.4244 72.5376 61.3436 72.5495 61.2641 72.5635L61.6122 74.533ZM61.7423 74.5139C61.815 74.5053 61.9004 74.5 62 74.5V72.5C61.8307 72.5 61.6659 72.5089 61.5063 72.5279L61.7423 74.5139ZM60.7965 72.9599C61.0109 72.6435 61.3185 72.5783 61.4168 72.5643C61.5303 72.5481 61.6054 72.5623 61.6106 72.5633L61.2657 74.5333C61.3671 74.551 61.5232 74.5694 61.6997 74.5442C61.861 74.5211 62.2135 74.4339 62.4521 74.0819L60.7965 72.9599ZM61.6106 72.5633C61.6147 72.564 61.4506 72.5176 61.1734 72.341C60.9203 72.1799 60.6425 71.9536 60.4067 71.6776C59.9433 71.1352 59.6929 70.4804 59.9505 69.6917L58.0495 69.0705C57.5136 70.7104 58.1156 72.0749 58.8862 72.9768C59.2674 73.423 59.7021 73.7752 60.099 74.0279C60.4717 74.2653 60.8949 74.4684 61.2657 74.5333L61.6106 72.5633ZM59.9505 69.6917C60.0401 69.4175 60.1377 69.3375 60.177 69.3112C60.2241 69.2797 60.3259 69.2347 60.5546 69.2381C61.0763 69.2458 61.7785 69.4797 62.7406 69.8169L63.4021 67.9295C62.5535 67.632 61.5037 67.2519 60.5842 67.2383C60.0923 67.231 59.5512 67.3234 59.0646 67.6491C58.5703 67.9799 58.2435 68.4767 58.0495 69.0705L59.9505 69.6917ZM62.7406 69.8169C63.4146 70.0531 64.1958 70.3291 64.9519 70.4727C65.7046 70.6157 66.5759 70.658 67.3842 70.2921L66.5594 68.4701C66.298 68.5884 65.9098 68.6189 65.325 68.5078C64.7436 68.3974 64.1093 68.1773 63.4021 67.9295L62.7406 69.8169ZM62 74.5C62.9135 74.5 64.09 75.0169 65.5038 76.0175L66.6591 74.385C65.1767 73.3358 63.5661 72.5 62 72.5V74.5ZM65.5038 76.0175C66.0739 76.4209 66.6602 76.8867 67.2575 77.3955L68.5545 75.873C67.926 75.3376 67.2913 74.8323 66.6591 74.385L65.5038 76.0175ZM67.2575 77.3955C68.4989 78.453 69.7557 79.6692 70.9872 80.8615L72.3783 79.4246C71.1562 78.2414 69.853 76.9793 68.5545 75.873L67.2575 77.3955ZM70.9872 80.8615C72.2315 82.0661 73.4612 83.2576 74.5745 84.1725C75.133 84.6314 75.6843 85.0395 76.2139 85.3518C76.7342 85.6586 77.293 85.9092 77.8586 85.99L78.1414 84.01C77.9443 83.9819 77.6455 83.8742 77.2299 83.6291C76.8237 83.3895 76.3611 83.052 75.8443 82.6273C74.8071 81.7749 73.6408 80.6468 72.3783 79.4246L70.9872 80.8615ZM78.4095 75.5896C77.0648 77.0347 73.2902 79.0553 68.4646 75.8048L67.3473 77.4636C73.1267 81.3566 77.9782 78.9889 79.8736 76.9521L78.4095 75.5896ZM68.4646 75.8048C67.9093 75.4308 67.3369 74.9851 66.75 74.4575L65.4129 75.9449C66.0642 76.5304 66.7097 77.0341 67.3473 77.4636L68.4646 75.8048ZM52.5376 67.5853C50.4281 69.5264 48.9822 71.7352 48.2562 73.8802C47.5344 76.0131 47.502 78.165 48.3641 79.8964L50.1544 79.005C49.5993 77.8901 49.5419 76.3202 50.1507 74.5214C50.7553 72.7347 51.9957 70.8019 53.8919 69.057L52.5376 67.5853ZM48.3641 79.8964C49.5797 82.3382 52.3291 83.5269 56.1395 82.9902L55.8605 81.0098C52.5701 81.4732 50.8556 80.4134 50.1544 79.005L48.3641 79.8964ZM49.9669 78.7441C49.3378 78.1142 48.6722 77.7926 47.945 77.773C47.2956 77.7555 46.7089 77.9948 46.3318 78.1393L47.0474 80.0069C47.504 79.832 47.7102 79.7674 47.8912 79.7723C47.9944 79.7751 48.1968 79.802 48.5517 80.1573L49.9669 78.7441ZM46.3318 78.1393C45.6222 78.4112 45.1958 78.5546 44.5534 78.2575C43.7858 77.9024 42.601 76.8519 40.8344 74.0142L39.1366 75.0711C40.9383 77.9654 42.3828 79.4571 43.7138 80.0727C45.1701 80.7462 46.3116 80.2888 47.0474 80.0069L46.3318 78.1393Z" fill="white"/>
<path d="M4.77302 79.0982C4.84249 78.473 5.37095 78 6 78C6.62905 78 7.15751 78.473 7.22698 79.0982L8 86.0554V98H4V86.0554L4.77302 79.0982Z" fill="#646464" stroke="white" stroke-width="2"/>
<path d="M97.773 79.0982C97.8425 78.473 98.3709 78 99 78C99.6291 78 100.158 78.473 100.227 79.0982L101 86.0554V98H97V86.0554L97.773 79.0982Z" fill="#646464" stroke="white" stroke-width="2"/>
<path d="M35.9998 71C37.6665 72.6667 41.7998 74 39.9998 78.5M39.9998 78.5C38.5998 82 31 76.5 29.9998 84.5C29.6279 87.4747 32.7072 90.6264 35.9998 91.0069M39.9998 78.5C48 87 38.2416 91.266 35.9998 91.0069M35.9998 91.0069C34.9999 93.1713 38.5 95.5 42.5 95.5C46.5 95.5 50.5 93.5 50.5 89" stroke="white" stroke-width="2"/>
<path d="M31 88C31.1667 89.5 30.7 92.7 27.5 93.5C23.5 94.5 21.9999 92.5 22 89.5C22.0001 86.8074 29.5 83.5 23.5 80.5" stroke="white" stroke-width="2"/>
<path d="M30 85C30.5 82 29.5 79 25.5 79.5" stroke="white" stroke-width="2"/>
<path d="M30 92C29.6667 92.8333 29 95.2 29 98" stroke="white" stroke-width="2"/>
<path d="M33.5 90.5C33.1667 91.3333 33 95.2 33 98" stroke="white" stroke-width="2"/>
<path d="M75 91C75.6667 91.8333 77 95.2 77 98" stroke="white" stroke-width="2"/>
<path d="M71.5 90.5C72.5 91.3333 73 95.2 73 98" stroke="white" stroke-width="2"/>
<path d="M43.0996 84.6075C43.4329 87.2741 46.7999 91.5 55.9999 89.5C65.1999 87.5 69.3332 82.1667 70.4999 79.5" stroke="white" stroke-width="2"/>
<path d="M60 97.5C60.1667 95.8333 63.6 91.3 70 90.5C78 89.5 77.4244 95.0605 82.5 91C85 89 82.8333 83.5 82 83" stroke="white" stroke-width="2"/>
<path d="M58.7089 79.5684C57.2448 82.1884 57.7052 89.0106 61.7361 87.5802" stroke="white" stroke-width="2"/>
<path d="M69.2157 90.8009C69.3568 89.3628 69.0634 85.1837 68.1157 83.6948" stroke="white" stroke-width="2"/>
</svg>
