<svg width="63" height="63" viewBox="0 0 63 63" fill="none" xmlns="http://www.w3.org/2000/svg">
<mask id="path-1-inside-1_1728_671" fill="white">
<path fill-rule="evenodd" clip-rule="evenodd" d="M39.083 19.5087C40.9062 18.0835 42.0274 16.1456 42.0274 14.0105C42.0274 9.63296 37.3141 6.08423 31.5 6.08423C25.6859 6.08423 20.9726 9.63296 20.9726 14.0105C20.9726 16.1019 22.0484 18.0042 23.8061 19.4206C23.3901 22.7229 21.78 32.9504 16.9881 41.7138C11.1833 52.3295 6.57738 57.5256 5 59C5 59 16.9881 61 31.5 61C46.0119 61 58 59 58 59C56.4226 57.5256 51.8167 52.3295 46.0119 41.7138C40.7824 32.1501 39.257 23.5779 39.083 19.5087Z"/>
</mask>
<path fill-rule="evenodd" clip-rule="evenodd" d="M39.083 19.5087C40.9062 18.0835 42.0274 16.1456 42.0274 14.0105C42.0274 9.63296 37.3141 6.08423 31.5 6.08423C25.6859 6.08423 20.9726 9.63296 20.9726 14.0105C20.9726 16.1019 22.0484 18.0042 23.8061 19.4206C23.3901 22.7229 21.78 32.9504 16.9881 41.7138C11.1833 52.3295 6.57738 57.5256 5 59C5 59 16.9881 61 31.5 61C46.0119 61 58 59 58 59C56.4226 57.5256 51.8167 52.3295 46.0119 41.7138C40.7824 32.1501 39.257 23.5779 39.083 19.5087Z" fill="#646464"/>
<path d="M39.083 19.5087L38.4671 18.7208L38.0619 19.0376L38.0839 19.5514L39.083 19.5087ZM23.8061 19.4206L24.7982 19.5456L24.8679 18.992L24.4335 18.642L23.8061 19.4206ZM16.9881 41.7138L17.8655 42.1936L16.9881 41.7138ZM5 59L4.31714 58.2695L2.837 59.653L4.83544 59.9864L5 59ZM58 59L58.1646 59.9864L60.163 59.653L58.6829 58.2695L58 59ZM46.0119 41.7138L45.1345 42.1936L46.0119 41.7138ZM41.0274 14.0105C41.0274 15.772 40.105 17.4405 38.4671 18.7208L39.6988 20.2966C41.7074 18.7265 43.0274 16.5193 43.0274 14.0105H41.0274ZM31.5 7.08423C34.2107 7.08423 36.6266 7.91272 38.3425 9.20467C40.058 10.4963 41.0274 12.2054 41.0274 14.0105H43.0274C43.0274 11.4381 41.6402 9.18406 39.5455 7.60691C37.4512 6.03011 34.6034 5.08423 31.5 5.08423V7.08423ZM21.9726 14.0105C21.9726 12.2054 22.942 10.4963 24.6575 9.20467C26.3734 7.91272 28.7893 7.08423 31.5 7.08423V5.08423C28.3966 5.08423 25.5488 6.03011 23.4545 7.60692C21.3598 9.18406 19.9726 11.4381 19.9726 14.0105H21.9726ZM24.4335 18.642C22.8576 17.372 21.9726 15.7364 21.9726 14.0105H19.9726C19.9726 16.4675 21.2392 18.6363 23.1786 20.1992L24.4335 18.642ZM17.8655 42.1936C22.7501 33.2607 24.3782 22.8801 24.7982 19.5456L22.8139 19.2956C22.402 22.5658 20.8099 32.6402 16.1107 41.2341L17.8655 42.1936ZM5.68286 59.7305C7.35986 58.163 12.0263 52.8723 17.8655 42.1936L16.1107 41.2341C10.3404 51.7868 5.7949 56.8882 4.31714 58.2695L5.68286 59.7305ZM31.5 60C24.2877 60 17.6986 59.5029 12.9114 59.0053C10.5186 58.7567 8.57807 58.5081 7.23739 58.322C6.5671 58.2289 6.04689 58.1515 5.69523 58.0975C5.51941 58.0705 5.38573 58.0494 5.29651 58.0351C5.2519 58.0279 5.21841 58.0225 5.19632 58.0189C5.18528 58.0171 5.17708 58.0157 5.17178 58.0148C5.16912 58.0144 5.16719 58.0141 5.16599 58.0139C5.16539 58.0138 5.16496 58.0137 5.16473 58.0137C5.16461 58.0136 5.16456 58.0136 5.1645 58.0136C5.16451 58.0136 5.16456 58.0136 5 59C4.83544 59.9864 4.83558 59.9864 4.83577 59.9864C4.83589 59.9864 4.83612 59.9865 4.83637 59.9865C4.83686 59.9866 4.83754 59.9867 4.83839 59.9869C4.84011 59.9871 4.84255 59.9875 4.84571 59.9881C4.85204 59.9891 4.86126 59.9906 4.87334 59.9926C4.89751 59.9966 4.9331 60.0023 4.97984 60.0098C5.07331 60.0248 5.21136 60.0467 5.39168 60.0744C5.75231 60.1297 6.28204 60.2086 6.96238 60.303C8.32296 60.4919 10.2864 60.7433 12.7047 60.9946C17.5395 61.4971 24.2003 62 31.5 62V60ZM58 59C57.8354 58.0136 57.8355 58.0136 57.8355 58.0136C57.8354 58.0136 57.8354 58.0136 57.8353 58.0137C57.835 58.0137 57.8346 58.0138 57.834 58.0139C57.8328 58.0141 57.8309 58.0144 57.8282 58.0148C57.8229 58.0157 57.8147 58.0171 57.8037 58.0189C57.7816 58.0225 57.7481 58.0279 57.7035 58.0351C57.6143 58.0494 57.4806 58.0705 57.3048 58.0975C56.9531 58.1515 56.4329 58.2289 55.7626 58.322C54.4219 58.5081 52.4814 58.7567 50.0886 59.0053C45.3014 59.5029 38.7122 60 31.5 60V62C38.7996 62 45.4605 61.4971 50.2953 60.9946C52.7136 60.7433 54.677 60.4919 56.0376 60.303C56.718 60.2086 57.2477 60.1297 57.6083 60.0744C57.7886 60.0467 57.9267 60.0248 58.0202 60.0098C58.0669 60.0023 58.1025 59.9966 58.1267 59.9926C58.1387 59.9906 58.148 59.9891 58.1543 59.9881C58.1575 59.9875 58.1599 59.9871 58.1616 59.9869C58.1625 59.9867 58.1631 59.9866 58.1636 59.9865C58.1639 59.9865 58.1641 59.9864 58.1642 59.9864C58.1644 59.9864 58.1646 59.9864 58 59ZM45.1345 42.1936C50.9737 52.8723 55.6401 58.163 57.3171 59.7305L58.6829 58.2695C57.2051 56.8882 52.6596 51.7868 46.8893 41.2341L45.1345 42.1936ZM38.0839 19.5514C38.2643 23.769 39.8292 32.4913 45.1345 42.1936L46.8893 41.2341C41.7356 31.809 40.2498 23.3869 40.082 19.466L38.0839 19.5514Z" fill="white" mask="url(#path-1-inside-1_1728_671)"/>
<path d="M29.7696 21.2851C27.1761 49.1804 21.0374 58.7602 20 60M33.544 19.4777C36.1376 47.3729 41.9626 58.1573 43 59.3971" stroke="white" stroke-linecap="round"/>
<path d="M43 60C47.1786 57.1071 51.5 52 51.5 52" stroke="white"/>
<path d="M30.5 60.5C38.2273 55.3077 47.5 45.5 47.5 45.5" stroke="white"/>
<path d="M20.5 60C26.5247 57.2 38.4815 48.5 45 41" stroke="white"/>
<path d="M7 58C13.6 56.2 30.04 49.48 43 37" stroke="white"/>
<path d="M11.5 51.5C18.2525 49.9677 36.2822 39.3226 41.5 33.5" stroke="white"/>
<path d="M16 44.5C22.2222 41.7115 35.5222 35.0385 40.5 29.5" stroke="white"/>
<path d="M19.5 38C23.8483 36.1905 35.8701 30.5714 39.5 26" stroke="white"/>
<path d="M21.5 32.5C25.5345 30.8704 36.7655 26.1667 39 22.5" stroke="white"/>
<path d="M22.8322 27.9834C25.3812 27.2592 34.4276 23.3837 38.4276 19.3837" stroke="white"/>
<path d="M24 22C32.4364 22 34.2661 17.4777 40.3752 17.1652" stroke="white"/>
<path d="M24.3207 19.77C25.9761 18.2546 29.799 16.4113 33.4107 15.502C37.0224 14.5928 39.7961 15.1232 41 15.502" stroke="white"/>
<path d="M24 19C24 19 28.4737 13.1234 31.7544 11.7807C37.1228 9.58347 41.2789 12.9124 41.2789 12.9124" stroke="white"/>
<path d="M22.6196 17.0854C24.3408 13.1384 27.3353 10.1148 30.7454 8.80231C33.901 7.58784 38.5943 7.78231 40.1625 10.2543" stroke="white"/>
</svg>
