<svg width="105" height="105" viewBox="0 0 105 105" fill="none" xmlns="http://www.w3.org/2000/svg">
<path d="M19.6256 75.513C17.6613 71.1222 8.0385 70.6222 5.68705 69.0827C5.61659 69.0366 5.51904 69.0867 5.51904 69.1709V77.7964C5.51904 77.8735 5.60271 77.9219 5.67046 77.8851C9.20502 75.9666 14.7017 77.4973 15.099 78.7891C16.1066 82.0652 13.1363 90.0417 15.0914 96.3983C17.6104 104.589 30.1921 102.198 33.7322 97.2173C46.8312 78.7891 46.8341 39.5139 46.3274 32.9235C45.8296 26.4495 29.9209 24.1667 25.1674 20.953C25.0976 20.9058 25.0072 20.9619 25.012 21.046L25.4935 29.4434C25.4969 29.5038 25.5541 29.547 25.6136 29.5361C34.1165 27.9745 39.9125 34.1685 36.2513 37.4282C25.5 47 28.1903 96.3983 22.6485 95.1697C18.1673 94.1763 22.6765 82.3327 19.6256 75.513Z" fill="#646464" stroke="white" stroke-width="2"/>
<path d="M27.6942 76.7415C27.132 76.2845 28.2612 76.0773 29.2056 76.2098L29.2056 69.4703C29.2056 69.415 29.2504 69.3701 29.3056 69.3715C31.1587 69.4189 32.9444 70.7734 34.2437 72.2936C33 52.5082 38.5 44.7049 42.8008 37.4281C45.9055 32.1751 42.5953 27.8401 37.1317 28.1714C37.0659 28.1754 37.0122 28.1167 37.0246 28.0521L38.4704 20.5311C38.4842 20.4593 38.5669 20.4253 38.6262 20.4681C43.1505 23.7339 49.3549 28.0699 49.8541 34.5615C50.3608 41.1519 45.3427 83.7033 39.8008 97.2173C37.563 102.674 31.2208 104.589 28.7018 96.3982C26.7467 90.0416 33.2361 81.2462 27.6942 76.7415Z" fill="#646464"/>
<path d="M39.8008 97.2173C37.563 102.674 31.2208 104.589 28.7018 96.3982C26.7467 90.0416 33.2361 81.2462 27.6942 76.7415C26.5371 75.801 32.5442 75.9186 29.3604 77.8776C29.2948 77.918 29.2056 77.8735 29.2056 77.7964L29.2056 69.4703C29.2056 69.415 29.2504 69.3701 29.3056 69.3715C31.1587 69.4189 32.9444 70.7734 34.2437 72.2936M39.8008 97.2173C45.3427 83.7033 50.3608 41.1519 49.8541 34.5615C49.3549 28.0699 43.1505 23.7338 38.6262 20.4681C38.5669 20.4253 38.4842 20.4593 38.4704 20.5311L37.0246 28.0521C37.0122 28.1167 37.0659 28.1754 37.1317 28.1714C42.5953 27.8401 45.9055 32.1751 42.8008 37.4281C38.5 44.7049 33 52.5082 34.2437 72.2936M39.8008 97.2173C40.3905 95.6557 35.2513 97.6268 34.2437 90.665C33.2782 83.9945 36.7627 80.0176 36.2589 75.9225C36.1586 75.1072 35.3907 73.6358 34.2437 72.2936" stroke="white" stroke-width="2"/>
<path d="M27.1904 25.1427C27.1904 26.4721 26.8823 27.6263 26.4354 28.4134C25.9718 29.2299 25.4853 29.4664 25.1676 29.4664C24.8498 29.4664 24.3633 29.2299 23.8997 28.4134C23.4528 27.6263 23.1447 26.4721 23.1447 25.1427C23.1447 23.8134 23.4528 22.6591 23.8997 21.8721C24.3633 21.0555 24.8498 20.819 25.1676 20.819C25.4853 20.819 25.9718 21.0555 26.4354 21.8721C26.8823 22.6591 27.1904 23.8134 27.1904 25.1427Z" fill="#646464" stroke="white" stroke-width="2"/>
<path d="M41.2969 24.3237C41.2969 26.8681 39.5701 28.6474 37.7627 28.6474C35.9552 28.6474 34.2284 26.8681 34.2284 24.3237C34.2284 21.7792 35.9552 20 37.7627 20C39.5701 20 41.2969 21.7792 41.2969 24.3237Z" fill="#646464" stroke="white" stroke-width="2"/>
<path d="M7.03807 73.4655C7.03807 74.8214 6.77594 75.9999 6.39634 76.8022C5.98049 77.681 5.60269 77.7892 5.51903 77.7892C5.43538 77.7892 5.05758 77.681 4.64172 76.8022C4.26213 75.9999 4 74.8214 4 73.4655C4 72.1096 4.26213 70.931 4.64172 70.1288C5.05758 69.2499 5.43538 69.1418 5.51903 69.1418C5.60269 69.1418 5.98049 69.2499 6.39634 70.1288C6.77594 70.931 7.03807 72.1096 7.03807 73.4655Z" fill="#646464" stroke="white" stroke-width="2"/>
<path d="M32 73.6229C32 76.3112 30.2535 78.1311 28.5 78.1311C26.7465 78.1311 25 76.3112 25 73.6229C25 70.9346 26.7465 69.1147 28.5 69.1147C30.2535 69.1147 32 70.9346 32 73.6229Z" fill="#646464" stroke="white" stroke-width="2"/>
<path d="M85.2638 75.513C87.2281 71.1222 96.8509 70.6222 99.2024 69.0827C99.2728 69.0366 99.3704 69.0867 99.3704 69.1709V77.7964C99.3704 77.8735 99.2867 77.9219 99.2189 77.8851C95.6844 75.9666 90.1877 77.4973 89.7904 78.7891C88.7828 82.0652 91.7531 90.0417 89.798 96.3983C87.279 104.589 74.6973 102.198 71.1572 97.2173C58.0582 78.7891 58.0553 39.5139 58.562 32.9235C59.0598 26.4495 74.9685 24.1667 79.722 20.953C79.7918 20.9058 79.8822 20.9619 79.8774 21.046L79.3959 29.4434C79.3925 29.5038 79.3353 29.547 79.2758 29.5361C70.773 27.9745 64.9769 34.1685 68.6382 37.4282C79.3894 47 76.6991 96.3983 82.2409 95.1697C86.7221 94.1763 82.2129 82.3327 85.2638 75.513Z" fill="#646464" stroke="white" stroke-width="2"/>
<path d="M77.1952 76.7415C77.7575 76.2845 76.6282 76.0773 75.6838 76.2098L75.6838 69.4703C75.6838 69.415 75.639 69.3701 75.5838 69.3715C73.7307 69.4189 71.945 70.7734 70.6457 72.2936C71.8894 52.5082 66.3894 44.7049 62.0886 37.4281C58.9839 32.1751 62.2941 27.8401 67.7578 28.1714C67.8235 28.1754 67.8772 28.1167 67.8648 28.0521L66.419 20.5311C66.4052 20.4593 66.3225 20.4253 66.2632 20.4681C61.7389 23.7339 55.5345 28.0699 55.0354 34.5615C54.5286 41.1519 59.5468 83.7033 65.0886 97.2173C67.3264 102.674 73.6686 104.589 76.1876 96.3982C78.1427 90.0416 71.6533 81.2462 77.1952 76.7415Z" fill="#646464"/>
<path d="M65.0886 97.2173C67.3264 102.674 73.6686 104.589 76.1876 96.3982C78.1427 90.0416 71.6533 81.2462 77.1952 76.7415C78.3523 75.801 72.3452 75.9186 75.529 77.8776C75.5946 77.918 75.6838 77.8735 75.6838 77.7964L75.6838 69.4703C75.6838 69.415 75.639 69.3701 75.5838 69.3715C73.7307 69.4189 71.945 70.7734 70.6457 72.2936M65.0886 97.2173C59.5468 83.7033 54.5286 41.1519 55.0354 34.5615C55.5345 28.0699 61.7389 23.7338 66.2632 20.4681C66.3225 20.4253 66.4052 20.4593 66.419 20.5311L67.8648 28.0521C67.8772 28.1167 67.8235 28.1754 67.7578 28.1714C62.2941 27.8401 58.9839 32.1751 62.0886 37.4281C66.3894 44.7049 71.8894 52.5082 70.6457 72.2936M65.0886 97.2173C64.4989 95.6557 69.6381 97.6268 70.6457 90.665C71.6112 83.9945 68.1267 80.0176 68.6305 75.9225C68.7308 75.1072 69.4987 73.6358 70.6457 72.2936" stroke="white" stroke-width="2"/>
<path d="M77.699 25.1427C77.699 26.4721 78.0071 27.6263 78.454 28.4134C78.9176 29.2299 79.4041 29.4664 79.7218 29.4664C80.0396 29.4664 80.5261 29.2299 80.9897 28.4134C81.4366 27.6263 81.7447 26.4721 81.7447 25.1427C81.7447 23.8134 81.4366 22.6591 80.9897 21.8721C80.5261 21.0555 80.0396 20.819 79.7218 20.819C79.4041 20.819 78.9176 21.0555 78.454 21.8721C78.0071 22.6591 77.699 23.8134 77.699 25.1427Z" fill="#646464" stroke="white" stroke-width="2"/>
<path d="M63.5925 24.3237C63.5925 26.8681 65.3193 28.6474 67.1268 28.6474C68.9342 28.6474 70.661 26.8681 70.661 24.3237C70.661 21.7792 68.9342 20 67.1268 20C65.3193 20 63.5925 21.7792 63.5925 24.3237Z" fill="#646464" stroke="white" stroke-width="2"/>
<path d="M97.8513 73.4655C97.8513 74.8214 98.1135 75.9999 98.4931 76.8022C98.9089 77.681 99.2867 77.7892 99.3704 77.7892C99.454 77.7892 99.8318 77.681 100.248 76.8022C100.627 75.9999 100.889 74.8214 100.889 73.4655C100.889 72.1096 100.627 70.931 100.248 70.1288C99.8318 69.2499 99.454 69.1418 99.3704 69.1418C99.2867 69.1418 98.9089 69.2499 98.4931 70.1288C98.1135 70.931 97.8513 72.1096 97.8513 73.4655Z" fill="#646464" stroke="white" stroke-width="2"/>
<path d="M72.8894 73.6229C72.8894 76.3112 74.6359 78.1311 76.3894 78.1311C78.1429 78.1311 79.8894 76.3112 79.8894 73.6229C79.8894 70.9346 78.1429 69.1147 76.3894 69.1147C74.6359 69.1147 72.8894 70.9346 72.8894 73.6229Z" fill="#646464" stroke="white" stroke-width="2"/>
<path d="M49.7215 26.2145C49.3157 24.5516 49.6392 23.2483 50.2679 22.3809C50.9007 21.5079 51.8934 21 53 21C54.1066 21 55.0993 21.5079 55.7321 22.3809C56.3608 23.2483 56.6843 24.5516 56.2785 26.2145C55.321 30.1382 55.0724 33.2155 55.2562 35.9506C55.4395 38.6796 56.0512 41.0244 56.7587 43.4521C56.8726 43.8429 56.9893 44.237 57.1076 44.6366C58.449 49.1655 60 54.4022 60 63.5777C60 73.678 59.3773 82.7509 58.7545 89.2989C58.4431 92.5723 58.1319 95.213 57.8987 97.0338C57.792 97.867 57.7017 98.5284 57.6352 99H48.3648C48.2983 98.5284 48.208 97.867 48.1013 97.0338C47.8681 95.213 47.5569 92.5723 47.2455 89.2989C46.6227 82.7509 46 73.678 46 63.5777C46 54.4022 47.551 49.1655 48.8924 44.6366C49.0107 44.237 49.1274 43.8429 49.2413 43.4521C49.9488 41.0244 50.5605 38.6796 50.7438 35.9506C50.9276 33.2155 50.679 30.1382 49.7215 26.2145Z" fill="#646464" stroke="white" stroke-width="2"/>
<path d="M55.3537 77C55.3088 77.6643 55.2558 78.6001 55.2202 79.7182C55.1479 81.992 55.1472 85.0378 55.4389 88.095C55.791 91.7865 56.6591 94.259 57.2909 96.0585C57.3022 96.0908 57.3135 96.1229 57.3247 96.1548C57.9924 98.0576 58.183 98.8112 57.8214 99.5695C57.3619 100.533 56.7248 101.114 55.9569 101.473C55.1623 101.844 54.174 102 53 102C51.826 102 50.8377 101.844 50.0431 101.473C49.2752 101.114 48.6381 100.533 48.1786 99.5695C47.817 98.8112 48.0076 98.0576 48.6753 96.1548C48.6865 96.1229 48.6978 96.0908 48.7091 96.0585C49.3409 94.259 50.209 91.7865 50.5611 88.095C50.8528 85.0378 50.8521 81.992 50.7798 79.7182C50.7442 78.6001 50.6912 77.6643 50.6463 77H55.3537Z" fill="#646464" stroke="white" stroke-width="2"/>
<path d="M57 73.5C57 76.0771 55.1216 78 53 78C50.8784 78 49 76.0771 49 73.5C49 70.9229 50.8784 69 53 69C55.1216 69 57 70.9229 57 73.5Z" fill="#646464" stroke="white" stroke-width="2"/>
</svg>
