<svg width="63" height="63" viewBox="0 0 63 63" fill="none" xmlns="http://www.w3.org/2000/svg">
<path d="M31 4C32.1429 5.09091 33 7.27273 33 10" stroke="white" stroke-linejoin="round"/>
<path d="M42.7648 36.9081C41.9282 26.0673 38.0238 15.9908 35.6997 10.9526C35.6997 10.9526 35.0628 9.81265 32.9324 10.0268C29.9374 10.3278 30.2149 11.8908 30.2149 11.8908C30.2149 11.8908 30.5257 23.201 29.4486 30.2933C28.3236 37.7004 24 48.9974 24 48.9974C24 48.9974 29.8622 48.9914 33.4915 48.9974C37.0809 49.0033 42.4407 48.9974 42.4407 48.9974C42.4717 48.6817 43.4317 45.5489 42.7648 36.9081Z" fill="#646464" stroke="white" stroke-linejoin="round"/>
<path d="M42.5 48.5C42.5 48.568 42.4374 48.7669 41.9805 49.0467C41.5522 49.309 40.8991 49.5633 40.048 49.7837C38.3531 50.2228 35.9845 50.5 33.3492 50.5C30.7136 50.5 28.4228 50.2227 26.8065 49.7851C25.9948 49.5654 25.382 49.3127 24.9838 49.0539C24.5659 48.7822 24.5 48.5841 24.5 48.5C24.5 48.4159 24.5659 48.2178 24.9838 47.9461C25.382 47.6873 25.9948 47.4346 26.8065 47.2149C28.4228 46.7773 30.7136 46.5 33.3492 46.5C35.9845 46.5 38.3531 46.7772 40.048 47.2163C40.8991 47.4367 41.5522 47.691 41.9805 47.9533C42.4374 48.2331 42.5 48.432 42.5 48.5Z" fill="#646464" stroke="white"/>
<path d="M43 42C43 40.8954 39.477 40 35.1312 40C30.7853 40 27.0758 41.1074 26.4553 42.0076" stroke="white"/>
<path d="M42.5271 35C41.7347 34 38.7113 33 34.9805 33C31.2496 33 28.9675 34.3333 28.4392 35" stroke="white"/>
<path d="M41.3954 28C40.747 27 39.0365 26 35.984 26C32.9315 26 30.3356 27.3333 29.7902 28" stroke="white"/>
<path d="M39.6715 21.4286C39.1158 20.5714 37.4599 20 34.8435 20C32.227 20 30.5161 21.3801 30.0485 21.9515" stroke="white"/>
<rect x="32" y="45" width="2" height="3" fill="#646464"/>
<path d="M37.8428 16.0871C36.9856 15.0871 35.6579 15 33.7142 15C31.7706 15 30.6054 15.98 30.2581 16.7419" stroke="white"/>
<path d="M21 59L24.7276 48.4L25.0976 58L28.6402 47.2L28.939 58L33.2191 40.1292L34.03 58.1292L37.8598 47.2L37.9024 58L41.7724 48.4L42 58" stroke="white" stroke-linejoin="round"/>
<rect x="18.5" y="58.5" width="26" height="3" fill="#646464" stroke="white"/>
<path d="M29.8011 8L32 4C31.3718 4 29.8011 4 29.1729 5.14286C28.6703 6.05714 29.3823 7.42857 29.8011 8Z" fill="#646464" stroke="white" stroke-linejoin="round"/>
<path d="M35.3042 7.29038L31.5938 4.38748C32.1375 4.12931 33.497 3.48387 34.5571 4.31327C35.4053 4.97679 35.4086 6.57448 35.3042 7.29038Z" fill="#646464" stroke="white" stroke-linejoin="round"/>
<path d="M27.6793 5.09879L32.2621 4.00697C31.8755 3.54561 30.9088 2.3922 29.5994 2.70415C28.5519 2.95371 27.8829 4.40456 27.6793 5.09879Z" fill="#646464" stroke="white" stroke-linejoin="round"/>
<path d="M35.6787 1.34822L32.0415 4.34246C31.9071 3.75569 31.5712 2.28876 32.6104 1.43326C33.4418 0.748856 35.0023 1.0914 35.6787 1.34822Z" fill="#646464" stroke="white" stroke-linejoin="round"/>
</svg>
