<svg width="21" height="21" viewBox="0 0 21 21" fill="none" xmlns="http://www.w3.org/2000/svg">
<g clip-path="url(#clip0_1728_764)">
<path d="M4.5 14.5C4.5 13.3401 1.55503 13.0061 0.528148 12.5138C0.514742 12.5074 0.5 12.5175 0.5 12.5324V15.4643C0.5 15.4799 0.517302 15.4895 0.530885 15.4818C1.33061 15.0271 2.5 15.6776 2.5 16V18.5C2.5 20.541 5.69682 21.1915 6.5 20C9.47188 15.5914 9.61496 6.57664 9.5 5C9.38618 3.43899 7.51562 3.00361 5.5249 2.50622C5.51227 2.50307 5.5 2.5126 5.5 2.52562V4.47556C5.5 4.4882 5.51232 4.49752 5.52472 4.49509C7.44307 4.11947 7.43246 5.44571 7 6.5C5.32069 10.594 4.5 18.691 4.5 18V14.5Z" fill="#646464" stroke="white"/>
<path d="M16.5261 14.5C16.5261 13.3401 19.4711 13.0061 20.498 12.5138C20.5114 12.5074 20.5261 12.5175 20.5261 12.5324V15.4643C20.5261 15.4799 20.5088 15.4895 20.4952 15.4818C19.6955 15.0271 18.5261 15.6776 18.5261 16V18.5C18.5261 20.541 15.3293 21.1915 14.5261 20C11.5542 15.5914 11.4112 6.57664 11.5261 5C11.6399 3.43899 13.5105 3.00361 15.5012 2.50622C15.5138 2.50307 15.5261 2.5126 15.5261 2.52562V4.47556C15.5261 4.4882 15.5138 4.49752 15.5014 4.49509C13.5831 4.11947 13.5937 5.44571 14.0261 6.5C15.7054 10.594 16.5261 18.691 16.5261 18V14.5Z" fill="#646464" stroke="white"/>
<path d="M9.40074 3.45826C9.34954 3.11606 9.4445 2.90653 9.58925 2.77203C9.75082 2.62191 10.0466 2.5 10.5 2.5C10.9534 2.5 11.2492 2.62191 11.4107 2.77203C11.5555 2.90653 11.6505 3.11606 11.5993 3.45826C11.2892 5.53 11.5287 6.6027 11.8417 7.75393C11.86 7.82126 11.8786 7.88884 11.8973 7.95693C12.1825 8.9965 12.5 10.1536 12.5 12.3497C12.5 15.2036 12.2183 17.711 11.9924 19.2623C11.8883 19.9769 11.2668 20.5 10.5165 20.5C9.77449 20.5 9.15901 19.9888 9.0486 19.2853C8.80565 17.7373 8.5 15.2187 8.5 12.3497C8.5 10.1536 8.8175 8.9965 9.10274 7.95693C9.12142 7.88884 9.13996 7.82126 9.15827 7.75393C9.47125 6.6027 9.71077 5.53 9.40074 3.45826Z" fill="#646464" stroke="white"/>
<path d="M10.5001 17.693C10.501 17.702 10.502 17.711 10.5029 17.72C10.5953 18.5809 10.8244 19.1607 10.9843 19.5656C10.9874 19.5734 10.9904 19.5812 10.9935 19.5889C11.0772 19.8009 11.1198 19.9169 11.136 20.0069C11.1471 20.0689 11.1393 20.0833 11.1327 20.0953C11.1324 20.0959 11.1322 20.0964 11.1319 20.0969C10.9924 20.3568 10.9306 20.4183 10.8918 20.4437C10.8628 20.4627 10.7876 20.5 10.5 20.5C10.2125 20.5 10.1373 20.4627 10.1083 20.4437C10.0695 20.4183 10.0077 20.3568 9.86823 20.0969C9.86795 20.0964 9.86767 20.0959 9.86739 20.0953C9.86083 20.0833 9.85302 20.0689 9.86414 20.0069C9.8803 19.9169 9.92292 19.8009 10.0066 19.5889C10.0097 19.5812 10.0127 19.5734 10.0158 19.5656C10.1758 19.1607 10.4048 18.5809 10.4972 17.72C10.4982 17.711 10.4991 17.702 10.5001 17.693Z" fill="#646464" stroke="white"/>
<path d="M11 14.5C11 14.8293 10.9101 15.1048 10.7911 15.2833C10.6697 15.4654 10.557 15.5 10.5 15.5C10.443 15.5 10.3303 15.4654 10.2089 15.2833C10.0899 15.1048 10 14.8293 10 14.5C10 14.1707 10.0899 13.8952 10.2089 13.7167C10.3303 13.5346 10.443 13.5 10.5 13.5C10.557 13.5 10.6697 13.5346 10.7911 13.7167C10.9101 13.8952 11 14.1707 11 14.5Z" fill="#646464" stroke="white"/>
<rect x="10" y="19" width="1" height="1" fill="white"/>
</g>
<defs>
<clipPath id="clip0_1728_764">
<rect width="21" height="21" fill="white"/>
</clipPath>
</defs>
</svg>
