<svg width="105" height="105" viewBox="0 0 105 105" fill="none" xmlns="http://www.w3.org/2000/svg">
<path d="M65.5294 88.8582C65.5294 82.6 64.5 64 54 60C58 67.5 61.6078 87.989 60.8235 94.3342L65.7921 94.8348C65.8671 95.0894 65.9437 95.0118 66 94.8557L65.7921 94.8348C65.6582 94.3804 65.5294 92.8686 65.5294 88.8582Z" fill="#646464" stroke="white" stroke-width="2" stroke-linejoin="round"/>
<path d="M40.5 73.5C40.5 61.5 38.5 30.5 48.5 22C43.5 33 44.6667 71.8333 45.5 84L40.2209 84.9598C40.1412 85.4481 40.0599 85.2993 40 85L40.2209 84.9598C40.3631 84.0887 40.5 81.1897 40.5 73.5Z" fill="#646464" stroke="white" stroke-width="2" stroke-linejoin="round"/>
<path d="M29 87C27.5001 66.5 34.0001 29 49.5001 23.5C37.2727 35 31.0001 64 37.0001 87L40.5 93.5C40.4363 94.3475 29.8392 98.4693 29 87Z" fill="#646464" stroke="white" stroke-width="2" stroke-linejoin="round"/>
<path d="M104 93C104 93.3081 103.84 93.736 103.252 94.2834C102.665 94.8299 101.743 95.4045 100.464 95.9806C97.9113 97.13 94.1553 98.1898 89.436 99.0887C80.0138 100.883 66.9544 102 52.5 102C38.0456 102 24.9862 100.883 15.564 99.0887C10.8447 98.1898 7.08865 97.13 4.53633 95.9806C3.25694 95.4045 2.33509 94.8299 1.74795 94.2834C1.15992 93.736 1 93.3081 1 93C1 92.6919 1.15992 92.264 1.74795 91.7166C2.33509 91.1701 3.25694 90.5955 4.53633 90.0194C7.08865 88.87 10.8447 87.8102 15.564 86.9113C24.9862 85.1166 38.0456 84 52.5 84C66.9544 84 80.0138 85.1166 89.436 86.9113C94.1553 87.8102 97.9113 88.87 100.464 90.0194C101.743 90.5955 102.665 91.1701 103.252 91.7166C103.84 92.264 104 92.6919 104 93Z" fill="#646464" stroke="white" stroke-width="2"/>
<path d="M44.3358 64.0005C30.5 64.0005 16.3358 80.4889 16.3358 91.4889C14.3359 92.2889 11.9453 92.1555 11 91.9889C11 79.9889 26.5 59 44.3358 59C75.5361 59 91.3448 85.4889 92.8358 92.9889C91.3358 93.9889 88.8358 93.4889 87.8359 92.4889C87.8359 87.4889 71.5 64.0005 44.3358 64.0005Z" fill="#646464" stroke="white" stroke-width="2" stroke-linejoin="round"/>
<path d="M56 62C33.5 52.5 27.0385 84.1891 27.9783 95.5212C27.9783 95.5212 27.9783 96 31.3614 96C34.7446 96 34.7446 95.5212 34.7446 95.5212C34.7446 65 48 62 56 62Z" fill="#646464" stroke="white" stroke-width="2"/>
<path d="M47 26.5C58.5 14.5 55.8333 73.3334 55 97C55 97 55 98 52 98C49 98 49 97 49 97C50.1667 77.1667 51.4 31.3 47 26.5Z" fill="#646464" stroke="white" stroke-width="2"/>
<path d="M49.9521 26.0261C18.8671 25.221 9.52061 70.3054 11.0069 92.9483C8.45902 93.7534 7.41349 93.6192 6.20922 93.4515C4.47712 68.9942 13.0385 21.1421 49.264 22.0117C94.5459 23.0987 95.2884 74.4291 99 93.4515C97.089 94.4578 94.9041 93.9546 93.6302 92.9483C90.4453 75.3372 88.8082 27.0324 49.9521 26.0261Z" fill="#646464" stroke="white" stroke-width="2" stroke-linejoin="round"/>
<path d="M49.5 26.0004C25.1 25.2004 19.3334 70.0005 20.5001 92.5005C18.5001 93.3005 16.1095 93.1671 15.1642 93.0004C13.8046 68.6975 21.065 19.1359 49.5 20C85.0439 21.0801 85.0866 74.0981 88 93.0004C86.5 94.0004 84 93.5004 83.0001 92.5005C80.5001 75.0005 80 27.0004 49.5 26.0004Z" fill="#646464" stroke="white" stroke-width="2" stroke-linejoin="round"/>
<path d="M49.5 26.0004C25.1 25.2004 19.3333 70.0005 20.5 92.5005C18.5001 93.3005 16.1095 93.1671 15.1642 93.0004C13.8046 68.6975 21.0649 19.1359 49.5 20C85.0438 21.0801 85.0865 74.0981 88 93.0004C86.5 94.0004 84 93.5004 83 92.5005C80.5 75.0005 80 27.0004 49.5 26.0004Z" fill="#646464" stroke="white" stroke-width="2" stroke-linejoin="round"/>
<path d="M47.5 20C62 -8.50001 78.1403 69.1237 76.9739 92.7904C76.9739 92.7904 76.5 93.5 73.5 93.5C70.5 93.5 69.5758 92.7904 69.5758 92.7904C71.2087 72.957 59.5 9.49999 47.5 20Z" fill="#646464" stroke="white" stroke-width="2"/>
</svg>
