<svg width="21" height="21" viewBox="0 0 21 21" fill="none" xmlns="http://www.w3.org/2000/svg">
<rect x="0.5" y="18.5" width="20" height="2" fill="#646464" stroke="white"/>
<mask id="path-2-inside-1_1728_1097" fill="white">
<path d="M1 13.5C1 13.2239 1.22386 13 1.5 13C1.77614 13 2 13.2239 2 13.5V15.0455V18H1V15.0455V13.5Z"/>
</mask>
<path d="M1 13.5C1 13.2239 1.22386 13 1.5 13C1.77614 13 2 13.2239 2 13.5V15.0455V18H1V15.0455V13.5Z" fill="#646464"/>
<path d="M2 18V19H3V18H2ZM1 18H0V19H1V18ZM2 17H1V19H2V17ZM2 18V15.0455H0V18H2ZM2 15.0455V13.5H0V15.0455H2ZM1 13.5V15.0455H3V13.5H1ZM1 15.0455V18H3V15.0455H1ZM1.5 14C1.22386 14 1 13.7761 1 13.5H3C3 12.6716 2.32843 12 1.5 12V14ZM1.5 12C0.671574 12 0 12.6716 0 13.5H2C2 13.7761 1.77614 14 1.5 14V12Z" fill="white" mask="url(#path-2-inside-1_1728_1097)"/>
<mask id="path-4-inside-2_1728_1097" fill="white">
<path d="M19 13.5C19 13.2239 19.2239 13 19.5 13C19.7761 13 20 13.2239 20 13.5V15.0455V18H19V15.0455V13.5Z"/>
</mask>
<path d="M19 13.5C19 13.2239 19.2239 13 19.5 13C19.7761 13 20 13.2239 20 13.5V15.0455V18H19V15.0455V13.5Z" fill="#646464"/>
<path d="M20 18V19H21V18H20ZM19 18H18V19H19V18ZM20 17H19V19H20V17ZM20 18V15.0455H18V18H20ZM20 15.0455V13.5H18V15.0455H20ZM19 13.5V15.0455H21V13.5H19ZM19 15.0455V18H21V15.0455H19ZM19.5 14C19.2239 14 19 13.7761 19 13.5H21C21 12.6716 20.3284 12 19.5 12V14ZM19.5 12C18.6716 12 18 12.6716 18 13.5H20C20 13.7761 19.7761 14 19.5 14V12Z" fill="white" mask="url(#path-4-inside-2_1728_1097)"/>
<path fill-rule="evenodd" clip-rule="evenodd" d="M3.65817 18.5C3.23484 14.8142 5.24535 14.4558 5.24535 14.4558C5.24535 12.1793 7.25601 12.7214 7.25601 12.7214C8.84338 10.3364 10.6424 12.1793 10.6424 12.1793C12.2297 10.5533 13.3938 12.3961 13.3938 12.3961C15.5103 11.8541 15.8277 13.8054 15.8277 13.8054C16.1843 13.8576 16.6388 14.1357 16.9673 14.7727C17.3213 15.4594 17.529 16.813 17.3095 18.5L11.4998 18.5L11.0712 16.5H9.92839L9.49982 18.5L3.65817 18.5Z" fill="#646464"/>
<path d="M5.24535 14.4558L5.3331 14.9481L5.74535 14.8746V14.4558H5.24535ZM3.65817 18.5L3.16144 18.5571L3.21232 19H3.65817L3.65817 18.5ZM7.25601 12.7214L7.12586 13.2041L7.47302 13.2977L7.67224 12.9984L7.25601 12.7214ZM10.6424 12.1793L10.2846 12.5286L10.6424 12.8951L11.0002 12.5286L10.6424 12.1793ZM13.3938 12.3961L12.9711 12.6632L13.1654 12.9708L13.5178 12.8805L13.3938 12.3961ZM15.8277 13.8054L15.3342 13.8857L15.393 14.2471L15.7553 14.3001L15.8277 13.8054ZM16.9673 14.7727L16.5228 15.0019V15.0019L16.9673 14.7727ZM17.3095 18.5V19H17.7486L17.8053 18.5645L17.3095 18.5ZM11.4998 18.5L11.0109 18.6048L11.0956 19H11.4998V18.5ZM11.0712 16.5L11.5601 16.3952L11.4755 16H11.0712V16.5ZM9.92839 16.5V16H9.52418L9.43949 16.3952L9.92839 16.5ZM9.49982 18.5V19H9.90403L9.98872 18.6048L9.49982 18.5ZM5.24535 14.4558C5.1576 13.9636 5.15716 13.9637 5.15671 13.9638C5.15654 13.9638 5.15608 13.9639 5.15576 13.9639C5.15512 13.964 5.15444 13.9642 5.15373 13.9643C5.1523 13.9646 5.15076 13.9649 5.14908 13.9652C5.14573 13.9658 5.14187 13.9666 5.13752 13.9675C5.12883 13.9693 5.11817 13.9717 5.1057 13.9747C5.08077 13.9807 5.04848 13.9893 5.01003 14.0014C4.93322 14.0255 4.83115 14.0636 4.71372 14.1225C4.478 14.2406 4.18127 14.4423 3.90584 14.7794C3.3468 15.4635 2.93928 16.6228 3.16144 18.5571L4.15491 18.4429C3.95374 16.6914 4.3398 15.8287 4.68018 15.4121C4.85446 15.1989 5.0339 15.0806 5.16193 15.0164C5.22637 14.9841 5.27806 14.9654 5.30955 14.9555C5.32525 14.9505 5.33574 14.9479 5.34005 14.9468C5.3422 14.9463 5.34278 14.9462 5.34167 14.9464C5.34112 14.9466 5.34013 14.9468 5.33871 14.947C5.338 14.9472 5.33718 14.9473 5.33624 14.9475C5.33578 14.9476 5.33528 14.9477 5.33476 14.9478C5.3345 14.9478 5.33408 14.9479 5.33395 14.9479C5.33353 14.948 5.3331 14.9481 5.24535 14.4558ZM7.25601 12.7214C7.38615 12.2386 7.38589 12.2385 7.38563 12.2384C7.38553 12.2384 7.38525 12.2383 7.38506 12.2383C7.38466 12.2382 7.38423 12.2381 7.38377 12.238C7.38285 12.2377 7.38181 12.2374 7.38063 12.2371C7.37829 12.2365 7.37544 12.2358 7.37211 12.2349C7.36544 12.2333 7.35681 12.2312 7.34635 12.2287C7.32545 12.2239 7.2971 12.2177 7.26233 12.2112C7.19305 12.1981 7.09681 12.1831 6.98215 12.1739C6.7571 12.1557 6.43898 12.1575 6.10853 12.2555C5.77087 12.3557 5.41526 12.5586 5.14988 12.9377C4.88724 13.313 4.74535 13.8146 4.74535 14.4558H5.74535C5.74535 13.9588 5.8548 13.6745 5.96915 13.5111C6.08077 13.3516 6.22782 13.2632 6.39283 13.2143C6.56504 13.1632 6.74958 13.1583 6.90154 13.1706C6.97537 13.1766 7.03621 13.1862 7.0769 13.1938C7.09711 13.1977 7.11195 13.2009 7.1205 13.2029C7.12477 13.2039 7.12743 13.2046 7.12837 13.2048C7.12884 13.2049 7.12888 13.2049 7.12846 13.2048C7.12826 13.2048 7.12794 13.2047 7.12751 13.2046C7.12729 13.2045 7.12705 13.2044 7.12677 13.2044C7.12664 13.2043 7.12641 13.2043 7.12634 13.2042C7.12611 13.2042 7.12586 13.2041 7.25601 12.7214ZM10.6424 12.1793C11.0002 11.8301 11 11.8299 10.9998 11.8297C10.9997 11.8296 10.9995 11.8294 10.9993 11.8292C10.999 11.8289 10.9987 11.8286 10.9983 11.8282C10.9976 11.8275 10.9968 11.8266 10.9958 11.8257C10.9939 11.8237 10.9916 11.8214 10.9888 11.8186C10.9831 11.813 10.9757 11.8058 10.9666 11.7971C10.9483 11.7797 10.923 11.7563 10.8911 11.7284C10.8276 11.6729 10.737 11.5988 10.6233 11.5191C10.399 11.3619 10.0684 11.172 9.66613 11.071C9.25733 10.9685 8.77138 10.9578 8.26317 11.1687C7.75816 11.3783 7.27694 11.7875 6.83977 12.4443L7.67224 12.9984C8.02876 12.4628 8.36768 12.208 8.64643 12.0923C8.92199 11.978 9.18341 11.9809 9.4228 12.041C9.66865 12.1026 9.8871 12.2243 10.0496 12.3382C10.1294 12.394 10.1917 12.4452 10.2328 12.4812C10.2533 12.499 10.2682 12.5129 10.277 12.5213C10.2814 12.5255 10.2843 12.5284 10.2856 12.5296C10.2862 12.5303 10.2865 12.5305 10.2863 12.5304C10.2862 12.5303 10.2861 12.5301 10.2858 12.5298C10.2856 12.5296 10.2855 12.5295 10.2853 12.5293C10.2852 12.5292 10.285 12.529 10.2849 12.529C10.2848 12.5288 10.2846 12.5286 10.6424 12.1793ZM13.3938 12.3961C13.8165 12.1291 13.8164 12.1289 13.8163 12.1287C13.8162 12.1286 13.8161 12.1284 13.8159 12.1282C13.8157 12.1279 13.8155 12.1275 13.8152 12.1271C13.8147 12.1263 13.8142 12.1254 13.8135 12.1244C13.8122 12.1224 13.8106 12.1199 13.8087 12.117C13.8049 12.1112 13.7999 12.1036 13.7937 12.0946C13.7814 12.0765 13.7643 12.0521 13.7426 12.0228C13.6994 11.9644 13.6372 11.8854 13.5571 11.7973C13.3998 11.6242 13.1598 11.4004 12.8461 11.2354C12.5274 11.0678 12.1223 10.9562 11.659 11.0341C11.1973 11.1118 10.7358 11.3679 10.2846 11.8301L11.0002 12.5286C11.3427 12.1777 11.6219 12.0544 11.8249 12.0203C12.0264 11.9864 12.2099 12.0307 12.3806 12.1205C12.5564 12.2129 12.7066 12.3483 12.8171 12.4699C12.871 12.5292 12.9121 12.5815 12.9387 12.6175C12.952 12.6354 12.9615 12.649 12.9669 12.6571C12.9697 12.6611 12.9714 12.6638 12.9721 12.6648C12.9725 12.6654 12.9726 12.6655 12.9724 12.6652C12.9723 12.6651 12.9721 12.6649 12.9719 12.6645C12.9718 12.6643 12.9717 12.6641 12.9715 12.6639C12.9715 12.6638 12.9714 12.6636 12.9713 12.6636C12.9712 12.6634 12.9711 12.6632 13.3938 12.3961ZM15.8277 13.8054C16.3213 13.7251 16.3212 13.7248 16.3212 13.7246C16.3212 13.7245 16.3211 13.7242 16.3211 13.724C16.321 13.7235 16.3209 13.7231 16.3208 13.7226C16.3207 13.7217 16.3205 13.7206 16.3203 13.7194C16.3199 13.717 16.3194 13.7141 16.3188 13.7108C16.3176 13.7041 16.316 13.6955 16.3139 13.6852C16.3098 13.6647 16.3038 13.6371 16.2956 13.6036C16.2793 13.5369 16.2537 13.4457 16.2155 13.3396C16.14 13.1298 16.0098 12.8476 15.7913 12.5808C15.57 12.3105 15.2557 12.0537 14.8219 11.9123C14.3884 11.771 13.8732 11.7572 13.2698 11.9118L13.5178 12.8805C13.9727 12.764 14.2908 12.7909 14.5121 12.8631C14.7331 12.9351 14.895 13.0645 15.0176 13.2143C15.143 13.3675 15.2245 13.5392 15.2747 13.6784C15.2993 13.7467 15.3151 13.8037 15.3243 13.8416C15.329 13.8605 15.3319 13.8743 15.3334 13.882C15.3342 13.8859 15.3346 13.8882 15.3348 13.8889C15.3348 13.8892 15.3348 13.8891 15.3347 13.8886C15.3347 13.8883 15.3346 13.888 15.3345 13.8875C15.3345 13.8872 15.3344 13.887 15.3344 13.8867C15.3344 13.8865 15.3343 13.8863 15.3343 13.8862C15.3343 13.8859 15.3342 13.8857 15.8277 13.8054ZM17.4117 14.5436C17.0248 13.7932 16.4469 13.3907 15.9001 13.3107L15.7553 14.3001C15.9216 14.3245 16.2528 14.4782 16.5228 15.0019L17.4117 14.5436ZM17.8053 18.5645C18.0315 16.8267 17.8311 15.357 17.4117 14.5436L16.5228 15.0019C16.8115 15.5618 17.0266 16.7992 16.8136 18.4355L17.8053 18.5645ZM11.4998 19L17.3095 19L17.3095 18L11.4998 18V19ZM10.5823 16.6048L11.0109 18.6048L11.9887 18.3952L11.5601 16.3952L10.5823 16.6048ZM9.92839 17H11.0712V16H9.92839V17ZM9.98872 18.6048L10.4173 16.6048L9.43949 16.3952L9.01092 18.3952L9.98872 18.6048ZM3.65817 19L9.49982 19V18L3.65817 18L3.65817 19Z" fill="white"/>
</svg>
