<svg width="64" height="65" viewBox="0 0 64 65" fill="none" xmlns="http://www.w3.org/2000/svg">
<path d="M32 62.5C48.5685 62.5 62 49.0685 62 32.5C62 15.9315 48.5685 2.5 32 2.5C15.4315 2.5 2 15.9315 2 32.5C2 49.0685 15.4315 62.5 32 62.5Z" fill="black" fill-opacity="0.02"/>
<path d="M32 61.5C48.0163 61.5 61 48.5163 61 32.5C61 16.4837 48.0163 3.5 32 3.5C15.9837 3.5 3 16.4837 3 32.5C3 48.5163 15.9837 61.5 32 61.5Z" fill="black" fill-opacity="0.02"/>
<path d="M32 60.5C47.464 60.5 60 47.964 60 32.5C60 17.036 47.464 4.5 32 4.5C16.536 4.5 4 17.036 4 32.5C4 47.964 16.536 60.5 32 60.5Z" fill="black" fill-opacity="0.02"/>
<path d="M32 59.5C46.9117 59.5 59 47.4117 59 32.5C59 17.5883 46.9117 5.5 32 5.5C17.0883 5.5 5 17.5883 5 32.5C5 47.4117 17.0883 59.5 32 59.5Z" fill="black" fill-opacity="0.02"/>
<path d="M32 58.5C46.3594 58.5 58 46.8594 58 32.5C58 18.1406 46.3594 6.5 32 6.5C17.6406 6.5 6 18.1406 6 32.5C6 46.8594 17.6406 58.5 32 58.5Z" fill="#C4C4C4"/>
<path fill-rule="evenodd" clip-rule="evenodd" d="M22.8462 14.5L20.8846 17.14L15.6538 18.4613L15 21.1L16.3077 21.7613V21.1H18.9218L20.2308 22.42L22.8462 21.7613V25.06L20.2308 31.6613V34.3L18.9218 36.94L17.6141 38.26L18.9008 39.4902L22.3152 43.1546L24.1538 43.5413V42.2213H22.8462L20.2308 39.5813L22.8462 35.62L25.4615 34.3L26.7692 40.9013V46.18V47.5H28.0769V46.18V43.5413L29.3833 36.94L32 34.3H34.6154L37.8846 40.24L35.9231 46.18V47.5H37.2308V46.18L39.8462 40.9013V39.5813L38.5385 34.3L41.1525 39.5813L43.7692 40.9013V47.5H45.0769V46.18V39.5813L43.7692 38.26L42.4602 34.3L43.7692 31.6613V29.02L42.4602 27.7013L43.7692 26.38L45.2221 28.4326V34.1535L49 37.967V31.6613L47.6923 26.38L43.7692 25.06L41.1525 26.38L38.5385 25.7213L35.9231 26.38H30.691L28.0769 25.06L26.1154 19.12L22.8462 17.14V14.5Z" fill="white"/>
</svg>
