<svg width="64" height="65" viewBox="0 0 64 65" fill="none" xmlns="http://www.w3.org/2000/svg">
<g clip-path="url(#clip0_3449_9548)">
<g filter="url(#filter0_d_3449_9548)">
<path d="M32 58.935C46.5995 58.935 58.4348 47.0997 58.4348 32.5002C58.4348 17.9007 46.5995 6.06543 32 6.06543C17.4005 6.06543 5.56525 17.9007 5.56525 32.5002C5.56525 47.0997 17.4005 58.935 32 58.935Z" fill="#C4C4C4"/>
</g>
<path fill-rule="evenodd" clip-rule="evenodd" d="M29.2174 17.1957L32 14.4131L34.7826 17.1957L37.5652 14.4131C39.6522 16.5 41.7391 19.9783 41.7391 25.5435C41.7391 30.7252 39.3268 34.7007 33.3793 35.2241C33.2366 38.9709 31.8523 41.6492 30.5713 44.1279L30.4537 44.3556C29.9336 45.3634 29.4315 46.3511 29.0081 47.3957C31.2288 43.0071 36.4117 42.2392 43.1304 42.2392C43.1304 51.2826 34.7826 53.3696 27.8261 53.3696H25.0435C25.0435 48.8392 26.576 45.8016 27.9811 43.0793L28.0376 42.9697C29.3231 40.4796 30.4515 38.2938 30.5937 35.2408C24.6658 34.8706 22.2609 32.0108 22.2609 25.5435C22.2609 19.9783 24.3478 16.5 26.4348 14.4131L29.2174 17.1957Z" fill="white"/>
</g>
<defs>
<filter id="filter0_d_3449_9548" x="-1.43475" y="-0.93457" width="66.8696" height="66.8691" filterUnits="userSpaceOnUse" color-interpolation-filters="sRGB">
<feFlood flood-opacity="0" result="BackgroundImageFix"/>
<feColorMatrix in="SourceAlpha" type="matrix" values="0 0 0 0 0 0 0 0 0 0 0 0 0 0 0 0 0 0 127 0" result="hardAlpha"/>
<feOffset/>
<feGaussianBlur stdDeviation="3.5"/>
<feColorMatrix type="matrix" values="0 0 0 0 0 0 0 0 0 0 0 0 0 0 0 0 0 0 0.15 0"/>
<feBlend mode="normal" in2="BackgroundImageFix" result="effect1_dropShadow_3449_9548"/>
<feBlend mode="normal" in="SourceGraphic" in2="effect1_dropShadow_3449_9548" result="shape"/>
</filter>
<clipPath id="clip0_3449_9548">
<rect width="64" height="64" fill="white" transform="translate(0 0.5)"/>
</clipPath>
</defs>
</svg>
