<svg width="64" height="65" viewBox="0 0 64 65" fill="none" xmlns="http://www.w3.org/2000/svg">
<g clip-path="url(#clip0_3449_9958)">
<g filter="url(#filter0_d_3449_9958)">
<path d="M32 58.935C46.5995 58.935 58.4348 47.0997 58.4348 32.5002C58.4348 17.9007 46.5995 6.06543 32 6.06543C17.4005 6.06543 5.56525 17.9007 5.56525 32.5002C5.56525 47.0997 17.4005 58.935 32 58.935Z" fill="#C4C4C4"/>
</g>
<path fill-rule="evenodd" clip-rule="evenodd" d="M44.5217 17.1954C44.5217 19.5006 42.653 21.3693 40.3477 21.3693C38.0426 21.3693 36.1738 19.5006 36.1738 17.1954C36.1738 14.8902 38.0426 13.0215 40.3477 13.0215C42.653 13.0215 44.5217 14.8902 44.5217 17.1954ZM15.9999 20.3258L16.6956 20.6737L17.0434 19.978C17.2355 19.5938 17.7027 19.4381 18.0869 19.6302C18.4711 19.8222 18.6268 20.2894 18.4347 20.6737L18.0869 21.3693L26.9316 25.7916L31.7388 21.4652C32.7356 20.568 34.1801 20.3724 35.3797 20.9722C36.6991 21.6319 37.3489 23.0378 37.1475 24.379C37.1702 24.4452 37.1883 24.5142 37.2013 24.5858L38.212 30.1444C38.2433 30.3169 38.3387 30.4712 38.479 30.5765L43.2599 34.1621C43.5877 34.408 43.6928 34.8531 43.5096 35.2196C43.3001 35.6385 42.7908 35.8083 42.372 35.5988L37.0549 32.9403C36.4849 32.6553 36.0299 32.1832 35.7662 31.6029L34.3891 28.5735L32.8739 30.502L25.6894 26.9097L24.3477 26.2389L17.3912 22.7606L17.0434 23.4563C16.8513 23.8405 16.3841 23.9962 15.9999 23.8041C15.6158 23.612 15.46 23.1448 15.6521 22.7606L15.9999 22.065L15.3043 21.7171C14.9201 21.5251 14.7644 21.0579 14.9564 20.6737C15.1486 20.2894 15.6158 20.1338 15.9999 20.3258ZM23.7018 28.6985L23.2716 29.0857C21.4493 30.7257 21.8501 33.6857 24.0429 34.7821L29.4584 37.4899C29.9528 37.737 29.9753 38.4344 29.4978 38.713L23.1505 42.4155L12.1067 36.8237C11.4211 36.4766 10.5841 36.7509 10.2369 37.4364C9.88987 38.122 10.1642 38.9592 10.8497 39.3062L34.5807 51.3219C37.331 52.7144 40.5782 52.7226 43.3356 51.344L45.1439 50.4399C45.8312 50.0962 46.1098 49.2604 45.7661 48.5732C45.4225 47.8859 44.5868 47.6074 43.8995 47.9509L42.0911 48.8552C40.1216 49.8399 37.8022 49.8341 35.8376 48.8394L27.465 44.6L35.3121 41.3898C37.9628 40.3054 38.2404 36.6614 35.7846 35.188L31.3043 32.4997L23.7018 28.6985Z" fill="white"/>
</g>
<defs>
<filter id="filter0_d_3449_9958" x="-1.43475" y="-0.93457" width="66.8696" height="66.8691" filterUnits="userSpaceOnUse" color-interpolation-filters="sRGB">
<feFlood flood-opacity="0" result="BackgroundImageFix"/>
<feColorMatrix in="SourceAlpha" type="matrix" values="0 0 0 0 0 0 0 0 0 0 0 0 0 0 0 0 0 0 127 0" result="hardAlpha"/>
<feOffset/>
<feGaussianBlur stdDeviation="3.5"/>
<feColorMatrix type="matrix" values="0 0 0 0 0 0 0 0 0 0 0 0 0 0 0 0 0 0 0.15 0"/>
<feBlend mode="normal" in2="BackgroundImageFix" result="effect1_dropShadow_3449_9958"/>
<feBlend mode="normal" in="SourceGraphic" in2="effect1_dropShadow_3449_9958" result="shape"/>
</filter>
<clipPath id="clip0_3449_9958">
<rect width="64" height="64" fill="white" transform="translate(0 0.5)"/>
</clipPath>
</defs>
</svg>
