<svg width="116" height="116" viewBox="0 0 116 116" fill="none" xmlns="http://www.w3.org/2000/svg">
<g clip-path="url(#clip0_9_50)">
<mask id="mask0_9_50" style="mask-type:luminance" maskUnits="userSpaceOnUse" x="0" y="0" width="116" height="116">
<path d="M116 0H0V116H116V0Z" fill="white"/>
</mask>
<g mask="url(#mask0_9_50)">
<path d="M58 116C90.0325 116 116 90.0325 116 58C116 25.9675 90.0325 0 58 0C25.9675 0 0 25.9675 0 58C0 90.0325 25.9675 116 58 116Z" fill="black" fill-opacity="0.02"/>
<path d="M58 114C88.9279 114 114 88.9279 114 58C114 27.0721 88.9279 2 58 2C27.0721 2 2 27.0721 2 58C2 88.9279 27.0721 114 58 114Z" fill="black" fill-opacity="0.02"/>
<path d="M58 112C87.8234 112 112 87.8234 112 58C112 28.1766 87.8234 4 58 4C28.1766 4 4 28.1766 4 58C4 87.8234 28.1766 112 58 112Z" fill="black" fill-opacity="0.02"/>
<path d="M58 110C86.7188 110 110 86.7188 110 58C110 29.2812 86.7188 6 58 6C29.2812 6 6 29.2812 6 58C6 86.7188 29.2812 110 58 110Z" fill="black" fill-opacity="0.02"/>
<path d="M58 108C85.6142 108 108 85.6142 108 58C108 30.3858 85.6142 8 58 8C30.3858 8 8 30.3858 8 58C8 85.6142 30.3858 108 58 108Z" fill="#72B8EB"/>
<path fill-rule="evenodd" clip-rule="evenodd" d="M31.25 36.25C28.4886 36.25 26.25 38.4886 26.25 41.25V72.5C26.25 75.2614 28.4886 77.5 31.25 77.5H83.75C86.5114 77.5 88.75 75.2614 88.75 72.5V41.25C88.75 38.4886 86.5114 36.25 83.75 36.25H31.25Z" fill="#72B8EB"/>
<path fill-rule="evenodd" clip-rule="evenodd" d="M31.25 40C30.5596 40 30 40.5596 30 41.25V72.5C30 73.1904 30.5596 73.75 31.25 73.75H83.75C84.4404 73.75 85 73.1904 85 72.5V41.25C85 40.5596 84.4404 40 83.75 40H31.25ZM42.5 48.75H72.5V53.75H42.5V48.75ZM47.5 60H67.5V65H47.5V60Z" fill="white"/>
</g>
</g>
<defs>
<clipPath id="clip0_9_50">
<rect width="116" height="116" fill="white"/>
</clipPath>
</defs>
</svg>
