<svg width="64" height="68" viewBox="0 0 64 68" fill="none" xmlns="http://www.w3.org/2000/svg">
<g clip-path="url(#clip0_1945_5995)">
<path opacity="0.4" d="M32 68C49.6731 68 64 53.6731 64 36C64 18.3269 49.6731 4 32 4C14.3269 4 0 18.3269 0 36C0 53.6731 14.3269 68 32 68Z" fill="black" fill-opacity="0.05"/>
<path d="M32 66C49.6731 66 64 51.6731 64 34C64 16.3269 49.6731 2 32 2C14.3269 2 0 16.3269 0 34C0 51.6731 14.3269 66 32 66Z" fill="black" fill-opacity="0.05"/>
<path d="M32 65C49.6731 65 64 50.6731 64 33C64 15.3269 49.6731 1 32 1C14.3269 1 0 15.3269 0 33C0 50.6731 14.3269 65 32 65Z" fill="black" fill-opacity="0.05"/>
<path d="M32 64C49.6731 64 64 49.6731 64 32C64 14.3269 49.6731 0 32 0C14.3269 0 0 14.3269 0 32C0 49.6731 14.3269 64 32 64Z" fill="white"/>
<path opacity="0.19" d="M32 48C43.598 48 53 47.3284 53 46.5C53 45.6716 43.598 45 32 45C20.402 45 11 45.6716 11 46.5C11 47.3284 20.402 48 32 48Z" fill="#020202"/>
<path opacity="0.2" d="M32.7441 48C42.6853 48 50.7441 47.3284 50.7441 46.5C50.7441 45.6716 42.6853 45 32.7441 45C22.803 45 14.7441 45.6716 14.7441 46.5C14.7441 47.3284 22.803 48 32.7441 48Z" fill="black"/>
<path d="M44.5869 29.8633C45.6181 32.1389 44.3381 34.3789 45.9025 36.2633C47.467 38.1478 48.6403 38.5389 49.1381 38.8234C49.7781 40.53 49.8137 45.6179 49.387 46.2384C48.6403 46.2901 46.7559 46.2384 46.7559 46.2384C46.7559 45.5256 47.8581 45.1345 48.2848 45.1523C48.4803 43.5345 47.7692 41.2411 46.827 40.7078C45.8847 40.1745 42.5802 38.7485 40.9247 37.6856C39.2692 36.6226 38.2402 34.0766 38.2402 34.0766L44.5869 29.8633Z" fill="#785137"/>
<path d="M19.7344 31.0273C20.4051 31.3934 21.657 34.3828 21.9253 35.115C22.1936 35.8471 22.8867 44.3273 22.0148 45.0391C21.59 44.9374 21.061 45.141 20.7404 46.239C20.7404 46.239 20.964 46.239 23.535 46.239C23.535 46.239 23.7139 44.6527 24.3622 43.3512C24.2057 42.009 25.9495 35.3997 25.3235 32.1255L19.7344 31.0273Z" fill="#785137"/>
<path d="M12.0207 20.7633C12.1545 20.2623 12.7361 20.099 12.9299 19.6245C13.1236 19.15 13.1087 18.8653 13.7645 18.4585C14.4203 18.0518 15.1506 18.2281 15.5978 17.7671C16.0449 17.3061 16.3281 15.9097 17.2373 16.0046C18.1464 16.0995 18.6383 17.2609 18.5787 18.3817C18.519 19.5025 20.512 23.5263 21.6767 24.1021C22.9893 24.751 22.9567 25.4176 24.9005 25.5836C26.3215 25.7049 31.8169 25.7769 34.1654 25.5826C36.7432 25.3692 41.6709 24.3154 45.0843 28.5466C47.4206 31.4425 46.8633 33.1561 49.2088 33.5066C50.7555 33.7377 51.8357 33.4144 51.993 34.3244C52.179 35.401 48.6294 36.3614 46.9154 34.9288C45.7243 33.9333 44.6582 31.8975 44.5687 30.6977C43.6976 34.8992 36.4976 34.9822 38.8531 41.9955C38.7637 44.0699 35.3509 46.8134 34.6398 47.2489C33.8126 47.2489 32.2487 47.2489 32.2487 47.2489C32.2487 46.6592 32.8353 45.9245 33.8368 46.2534C35.022 45.0682 36.6657 42.8711 35.8832 41.5492C35.1007 40.2274 33.7183 37.317 33.7389 34.4539C30.8773 34.9623 23.8106 35.5016 22.5139 33.956C23.1399 37.2302 22.5726 43.019 22.7291 44.3612C22.0808 45.6627 21.9019 47.2489 21.9019 47.2489C19.3309 47.2489 19.1073 47.2489 19.1073 47.2489C18.4143 46.6185 19.9569 45.9474 20.3817 46.0491C21.2536 45.3373 19.9302 36.7928 19.6619 36.0607C19.3936 35.3286 17.8689 32.6253 17.4709 31.9731C16.7542 30.7984 15.8219 28.191 15.6016 26.2042C15.4231 24.594 15.4663 22.0517 14.7789 22.3361C14.3023 22.5333 12.8174 22.8398 12.4604 22.0513C12.1617 21.3915 11.9276 21.112 12.0207 20.7633Z" fill="#CB8C59"/>
<path opacity="0.19" d="M12.0273 21.0807C12.0849 21.3222 12.2531 21.5939 12.4601 22.051C12.8171 22.8395 14.302 22.533 14.7786 22.3358C15.4659 22.0514 15.4228 24.5937 15.6013 26.2039C15.8215 28.1907 16.7539 30.7981 17.4706 31.9727C17.8686 32.625 19.3932 35.3282 19.6616 36.0604C19.9298 36.7925 21.2532 45.3369 20.3813 46.0488C19.9565 45.9471 18.4139 46.6182 19.107 47.2486C19.107 47.2486 19.3306 47.2486 21.9016 47.2486C21.9016 47.2486 22.0804 45.6624 22.7288 44.3608C22.5723 43.0186 23.1395 37.2299 22.5136 33.9557C23.8103 35.5013 30.8769 34.962 33.7386 34.4536C33.718 37.3167 35.1004 40.227 35.8829 41.5489C36.6653 42.8708 35.0217 45.0678 33.8365 46.253C32.835 45.9241 32.2483 46.6588 32.2483 47.2486C32.2483 47.2486 33.8123 47.2486 34.6395 47.2486C35.3506 46.8131 38.7634 44.0695 38.8528 41.9952C36.4972 34.9818 43.6973 34.8989 44.5684 30.6973C44.6578 31.8972 45.724 33.933 46.9151 34.9285C48.6291 36.3611 52.1787 35.4006 51.9926 34.324C51.8353 33.4141 50.7551 33.7374 49.2084 33.5063C46.863 33.1558 47.4202 31.4422 45.084 28.5462C44.7552 28.1386 44.409 27.7938 44.0555 27.4789C43.2423 30.9408 35.9691 31.8856 35.3299 29.4707C30.4942 30.964 22.903 28.6529 21.8009 27.1062C20.6986 25.5595 18.3341 27.0351 17.9786 23.0707C17.6231 19.1062 15.3652 19.2395 14.5297 19.4084C13.6995 19.5762 12.5063 22.0718 12.0273 21.0807Z" fill="#191000"/>
<path opacity="0.19" d="M38.7499 37.5904C38.7465 37.582 38.7447 37.5763 38.7413 37.5678C37.2326 38.52 35.206 36.4755 34.0149 32.4932C32.5927 33.951 23.7037 33.9155 23.2415 32.4932C22.7792 31.071 21.0725 30.6799 18.7258 29.6488C16.3792 28.6177 16.2547 21.7821 16.1303 20.8398C15.2147 21.5776 13.3925 22.4073 12.5352 22.1519C12.9217 22.7156 13.9996 22.5778 14.5677 22.4092C14.6495 22.3847 14.7224 22.3597 14.7792 22.3361C15.4666 22.0517 15.4234 24.594 15.6019 26.2042C15.8221 28.191 16.7545 30.7984 17.4712 31.973C17.8692 32.6253 19.3939 35.3285 19.6622 36.0607C19.9304 36.7928 21.2538 45.3373 20.3819 46.0491C19.9572 45.9474 18.4146 46.6185 19.1076 47.2489C19.1076 47.2489 19.3312 47.2489 21.9022 47.2489C21.9022 47.2489 22.081 45.6627 22.7294 44.3612C22.5729 43.0189 23.1402 37.2302 22.5142 33.956C23.8109 35.5016 30.8775 34.9623 33.7392 34.454C33.7186 37.317 35.101 40.2273 35.8835 41.5492C36.666 42.8711 35.0223 45.0681 33.8371 46.2533C32.8356 45.9244 32.2489 46.6592 32.2489 47.2489C32.2489 47.2489 33.8129 47.2489 34.6401 47.2489C35.3512 46.8134 38.764 44.0699 38.8535 41.9956C38.2111 40.0831 38.2931 38.6963 38.7499 37.5904Z" fill="#191000"/>
</g>
<defs>
<clipPath id="clip0_1945_5995">
<rect width="64" height="68" fill="white"/>
</clipPath>
</defs>
</svg>
