<svg width="64" height="65" viewBox="0 0 64 65" fill="none" xmlns="http://www.w3.org/2000/svg">
<path d="M32 62.5C48.5685 62.5 62 49.0685 62 32.5C62 15.9315 48.5685 2.5 32 2.5C15.4315 2.5 2 15.9315 2 32.5C2 49.0685 15.4315 62.5 32 62.5Z" fill="black" fill-opacity="0.02"/>
<path d="M32 61.5C48.0163 61.5 61 48.5163 61 32.5C61 16.4837 48.0163 3.5 32 3.5C15.9837 3.5 3 16.4837 3 32.5C3 48.5163 15.9837 61.5 32 61.5Z" fill="black" fill-opacity="0.02"/>
<path d="M32 60.5C47.464 60.5 60 47.964 60 32.5C60 17.036 47.464 4.5 32 4.5C16.536 4.5 4 17.036 4 32.5C4 47.964 16.536 60.5 32 60.5Z" fill="black" fill-opacity="0.02"/>
<path d="M32 59.5C46.9117 59.5 59 47.4117 59 32.5C59 17.5883 46.9117 5.5 32 5.5C17.0883 5.5 5 17.5883 5 32.5C5 47.4117 17.0883 59.5 32 59.5Z" fill="black" fill-opacity="0.02"/>
<path d="M32 58.5C46.3594 58.5 58 46.8594 58 32.5C58 18.1406 46.3594 6.5 32 6.5C17.6406 6.5 6 18.1406 6 32.5C6 46.8594 17.6406 58.5 32 58.5Z" fill="#C4C4C4"/>
<path fill-rule="evenodd" clip-rule="evenodd" d="M24 14.5V19.5H30V24.5H34V19.5H40V14.5L24 14.5Z" fill="white"/>
<path fill-rule="evenodd" clip-rule="evenodd" d="M32 33.9446C25.3734 33.9446 19.9991 32.2037 19.9991 30.0557C19.9991 27.9077 25.3734 26.1668 32 26.1668C38.6266 26.1668 44.0009 27.9077 44.0009 30.0557C44.0009 32.2037 38.6266 33.9446 32 33.9446ZM14 30.0557V43.0187C14 45.9548 19.5859 48.6591 27.0186 49.4563V44.4516C27.0186 43.0205 28.5312 41.4775 29.9506 41.4775H34.0778C35.4972 41.4775 37.0058 43.0205 37.0058 44.4516V49.4563C44.4385 48.6591 50 45.9548 50 43.0187V30.0557C50 26.4753 41.9411 23.5742 32 23.5742C22.0589 23.5742 14 26.4753 14 30.0557Z" fill="white"/>
</svg>
