<svg width="64" height="65" viewBox="0 0 64 65" fill="none" xmlns="http://www.w3.org/2000/svg">
<g clip-path="url(#clip0_3449_9531)">
<g filter="url(#filter0_d_3449_9531)">
<path d="M32 58.935C46.5995 58.935 58.4348 47.0997 58.4348 32.5002C58.4348 17.9007 46.5995 6.06543 32 6.06543C17.4005 6.06543 5.56522 17.9007 5.56522 32.5002C5.56522 47.0997 17.4005 58.935 32 58.935Z" fill="#C4C4C4"/>
</g>
<path fill-rule="evenodd" clip-rule="evenodd" d="M36.1739 17.1953H19.4783V47.804H44.5217V25.5431H36.1739V17.1953ZM38.9565 28.3257H25.0435V31.1084H38.9565V28.3257ZM25.0435 33.891H33.3913V36.6736H25.0435V33.891ZM38.2609 44.3257C39.7976 44.3257 41.0435 43.0799 41.0435 41.5431C41.0435 40.0064 39.7976 38.7605 38.2609 38.7605C36.7241 38.7605 35.4783 40.0064 35.4783 41.5431C35.4783 43.0799 36.7241 44.3257 38.2609 44.3257Z" fill="white"/>
<path d="M44.5217 22.7605H38.9565V17.1953L44.5217 22.7605Z" fill="white"/>
</g>
<defs>
<filter id="filter0_d_3449_9531" x="-1.43478" y="-0.93457" width="66.8696" height="66.8691" filterUnits="userSpaceOnUse" color-interpolation-filters="sRGB">
<feFlood flood-opacity="0" result="BackgroundImageFix"/>
<feColorMatrix in="SourceAlpha" type="matrix" values="0 0 0 0 0 0 0 0 0 0 0 0 0 0 0 0 0 0 127 0" result="hardAlpha"/>
<feOffset/>
<feGaussianBlur stdDeviation="3.5"/>
<feColorMatrix type="matrix" values="0 0 0 0 0 0 0 0 0 0 0 0 0 0 0 0 0 0 0.15 0"/>
<feBlend mode="normal" in2="BackgroundImageFix" result="effect1_dropShadow_3449_9531"/>
<feBlend mode="normal" in="SourceGraphic" in2="effect1_dropShadow_3449_9531" result="shape"/>
</filter>
<clipPath id="clip0_3449_9531">
<rect width="64" height="64" fill="white" transform="translate(0 0.5)"/>
</clipPath>
</defs>
</svg>
