<svg width="64" height="64" viewBox="0 0 64 64" fill="none" xmlns="http://www.w3.org/2000/svg">
<g clip-path="url(#clip0_3449_9395)">
<g filter="url(#filter0_d_3449_9395)">
<path d="M32 58.435C46.5995 58.435 58.4348 46.5997 58.4348 32.0002C58.4348 17.4007 46.5995 5.56543 32 5.56543C17.4005 5.56543 5.56522 17.4007 5.56522 32.0002C5.56522 46.5997 17.4005 58.435 32 58.435Z" fill="#C4C4C4"/>
</g>
<path d="M19.647 34.9516L29.0486 44.3532C30.6786 45.9832 33.3214 45.9832 34.9514 44.3532L44.353 34.9516C45.9829 33.3217 45.9829 30.6789 44.353 29.0489L34.9514 19.6473C33.3214 18.0173 30.6786 18.0173 29.0486 19.6473L19.647 29.0489C18.017 30.6789 18.017 33.3217 19.647 34.9516Z" fill="white"/>
</g>
<defs>
<filter id="filter0_d_3449_9395" x="-1.43478" y="-1.43457" width="66.8696" height="66.8691" filterUnits="userSpaceOnUse" color-interpolation-filters="sRGB">
<feFlood flood-opacity="0" result="BackgroundImageFix"/>
<feColorMatrix in="SourceAlpha" type="matrix" values="0 0 0 0 0 0 0 0 0 0 0 0 0 0 0 0 0 0 127 0" result="hardAlpha"/>
<feOffset/>
<feGaussianBlur stdDeviation="3.5"/>
<feColorMatrix type="matrix" values="0 0 0 0 0 0 0 0 0 0 0 0 0 0 0 0 0 0 0.15 0"/>
<feBlend mode="normal" in2="BackgroundImageFix" result="effect1_dropShadow_3449_9395"/>
<feBlend mode="normal" in="SourceGraphic" in2="effect1_dropShadow_3449_9395" result="shape"/>
</filter>
<clipPath id="clip0_3449_9395">
<rect width="64" height="64" fill="white"/>
</clipPath>
</defs>
</svg>
