<svg width="64" height="65" viewBox="0 0 64 65" fill="none" xmlns="http://www.w3.org/2000/svg">
<g clip-path="url(#clip0_3449_9312)">
<path d="M32 64.5C49.6731 64.5 64 50.1731 64 32.5C64 14.8269 49.6731 0.5 32 0.5C14.3269 0.5 0 14.8269 0 32.5C0 50.1731 14.3269 64.5 32 64.5Z" fill="black" fill-opacity="0.02"/>
<path d="M32 63.4331C49.084 63.4331 62.9333 49.5837 62.9333 32.4997C62.9333 15.4157 49.084 1.56641 32 1.56641C14.916 1.56641 1.06665 15.4157 1.06665 32.4997C1.06665 49.5837 14.916 63.4331 32 63.4331Z" fill="black" fill-opacity="0.02"/>
<path d="M32 62.3671C48.4949 62.3671 61.8667 48.9954 61.8667 32.5005C61.8667 16.0056 48.4949 2.63379 32 2.63379C15.5051 2.63379 2.13336 16.0056 2.13336 32.5005C2.13336 48.9954 15.5051 62.3671 32 62.3671Z" fill="black" fill-opacity="0.02"/>
<path d="M32 61.3002C47.9058 61.3002 60.8 48.406 60.8 32.5002C60.8 16.5944 47.9058 3.7002 32 3.7002C16.0942 3.7002 3.20001 16.5944 3.20001 32.5002C3.20001 48.406 16.0942 61.3002 32 61.3002Z" fill="black" fill-opacity="0.02"/>
<path d="M32 60.2333C47.3167 60.2333 59.7333 47.8166 59.7333 32.4999C59.7333 17.1832 47.3167 4.7666 32 4.7666C16.6833 4.7666 4.26666 17.1832 4.26666 32.4999C4.26666 47.8166 16.6833 60.2333 32 60.2333Z" fill="#C4C4C4"/>
<path d="M43.159 29.7271H38.9744V26.9538H43.159C45.4661 26.9538 47.3436 25.0873 47.3436 22.7938V21.4071H38.9744V18.6338H50.1333V22.7938C50.1333 26.6168 47.006 29.7271 43.159 29.7271Z" fill="white"/>
<path d="M13.8801 41.1025C13.8801 44.1657 16.3649 46.3668 19.4462 46.3668H41.7641C44.8454 46.3668 46.8657 44.1657 46.8657 41.1025H13.8801Z" fill="white"/>
<path d="M16.6564 18.6338L21.0796 34.0244C21.7645 36.4053 24.1559 37.8289 26.6485 37.8289H34.1941C36.6867 37.8289 39.4458 36.4053 40.1307 34.0244L44.5539 18.6338H16.6564Z" fill="white"/>
</g>
<defs>
<clipPath id="clip0_3449_9312">
<rect width="64" height="64" fill="white" transform="translate(0 0.5)"/>
</clipPath>
</defs>
</svg>
