<svg width="64" height="65" viewBox="0 0 64 65" fill="none" xmlns="http://www.w3.org/2000/svg">
<g clip-path="url(#clip0_3449_9527)">
<g filter="url(#filter0_d_3449_9527)">
<path d="M32 58.935C46.5995 58.935 58.4348 47.0997 58.4348 32.5002C58.4348 17.9007 46.5995 6.06543 32 6.06543C17.4005 6.06543 5.56522 17.9007 5.56522 32.5002C5.56522 47.0997 17.4005 58.935 32 58.935Z" fill="#C4C4C4"/>
</g>
<path fill-rule="evenodd" clip-rule="evenodd" d="M16.6956 19.9779C16.6956 18.4412 17.9415 17.1953 19.4783 17.1953H41.7391C43.2759 17.1953 44.5217 18.4412 44.5217 19.9779V26.2388C44.5217 27.7756 43.2759 29.0214 41.7391 29.0214H19.4783C17.9415 29.0214 16.6956 27.7756 16.6956 26.2388V19.9779ZM47.3043 26.2388V20.6736H50.087V26.2388C50.087 30.8492 46.3495 34.5866 41.7391 34.5866H32V40.1518H32.6956C33.4641 40.1518 34.087 40.7747 34.087 41.5431V50.5866C34.087 52.1234 32.8411 53.3692 31.3043 53.3692H29.913C28.3763 53.3692 27.1304 52.1234 27.1304 50.5866V41.5431C27.1304 40.7747 27.7533 40.1518 28.5217 40.1518H29.2174V34.5866C29.2174 33.0499 30.4632 31.804 32 31.804H41.7391C44.8127 31.804 47.3043 29.3124 47.3043 26.2388Z" fill="white"/>
</g>
<defs>
<filter id="filter0_d_3449_9527" x="-1.43478" y="-0.93457" width="66.8696" height="66.8691" filterUnits="userSpaceOnUse" color-interpolation-filters="sRGB">
<feFlood flood-opacity="0" result="BackgroundImageFix"/>
<feColorMatrix in="SourceAlpha" type="matrix" values="0 0 0 0 0 0 0 0 0 0 0 0 0 0 0 0 0 0 127 0" result="hardAlpha"/>
<feOffset/>
<feGaussianBlur stdDeviation="3.5"/>
<feColorMatrix type="matrix" values="0 0 0 0 0 0 0 0 0 0 0 0 0 0 0 0 0 0 0.15 0"/>
<feBlend mode="normal" in2="BackgroundImageFix" result="effect1_dropShadow_3449_9527"/>
<feBlend mode="normal" in="SourceGraphic" in2="effect1_dropShadow_3449_9527" result="shape"/>
</filter>
<clipPath id="clip0_3449_9527">
<rect width="64" height="64" fill="white" transform="translate(0 0.5)"/>
</clipPath>
</defs>
</svg>
