<svg width="64" height="65" viewBox="0 0 64 65" fill="none" xmlns="http://www.w3.org/2000/svg">
<path d="M32 62.5C48.5685 62.5 62 49.0685 62 32.5C62 15.9315 48.5685 2.5 32 2.5C15.4315 2.5 2 15.9315 2 32.5C2 49.0685 15.4315 62.5 32 62.5Z" fill="black" fill-opacity="0.02"/>
<path d="M32 61.5C48.0163 61.5 61 48.5163 61 32.5C61 16.4837 48.0163 3.5 32 3.5C15.9837 3.5 3 16.4837 3 32.5C3 48.5163 15.9837 61.5 32 61.5Z" fill="black" fill-opacity="0.02"/>
<path d="M32 60.5C47.464 60.5 60 47.964 60 32.5C60 17.036 47.464 4.5 32 4.5C16.536 4.5 4 17.036 4 32.5C4 47.964 16.536 60.5 32 60.5Z" fill="black" fill-opacity="0.02"/>
<path d="M32 59.5C46.9117 59.5 59 47.4117 59 32.5C59 17.5883 46.9117 5.5 32 5.5C17.0883 5.5 5 17.5883 5 32.5C5 47.4117 17.0883 59.5 32 59.5Z" fill="black" fill-opacity="0.02"/>
<path d="M32 58.5C46.3594 58.5 58 46.8594 58 32.5C58 18.1406 46.3594 6.5 32 6.5C17.6406 6.5 6 18.1406 6 32.5C6 46.8594 17.6406 58.5 32 58.5Z" fill="#C4C4C4"/>
<path fill-rule="evenodd" clip-rule="evenodd" d="M44.9969 23.6593C44.9089 25.8674 43.0478 27.5848 40.8414 27.4968C38.635 27.4101 36.9152 25.5487 37.0032 23.342C37.0912 21.1339 38.9523 19.4152 41.1587 19.5032C43.3651 19.5912 45.0835 21.4526 44.9969 23.6593Z" fill="white"/>
<path fill-rule="evenodd" clip-rule="evenodd" d="M21 34.5L31.5 24.5L42 34.5H21Z" fill="white"/>
<path fill-rule="evenodd" clip-rule="evenodd" d="M35 27.8333L29.6667 22.5H19V26.5H28.3333L32.3333 30.5L35 27.8333Z" fill="white"/>
<path fill-rule="evenodd" clip-rule="evenodd" d="M41.8333 40.1667L36.6667 37.5L31.5 40.1667L26.3333 37.5L21.1667 40.1667L16 37.5V42.8333L21.1667 45.5L26.3333 42.8333L31.5 45.5L36.6667 42.8333L41.8333 45.5L47 42.8333V37.5L41.8333 40.1667Z" fill="white"/>
</svg>
