<svg width="116" height="116" viewBox="0 0 116 116" fill="none" xmlns="http://www.w3.org/2000/svg">
<g clip-path="url(#clip0_14_91)">
<mask id="mask0_14_91" style="mask-type:luminance" maskUnits="userSpaceOnUse" x="0" y="0" width="116" height="116">
<path d="M116 0H0V116H116V0Z" fill="white"/>
</mask>
<g mask="url(#mask0_14_91)">
<mask id="mask1_14_91" style="mask-type:luminance" maskUnits="userSpaceOnUse" x="0" y="0" width="116" height="116">
<path d="M116 0H0V116H116V0Z" fill="white"/>
</mask>
<g mask="url(#mask1_14_91)">
<path d="M58 116C90.0325 116 116 90.0325 116 58C116 25.9675 90.0325 0 58 0C25.9675 0 0 25.9675 0 58C0 90.0325 25.9675 116 58 116Z" fill="black" fill-opacity="0.02"/>
<path d="M58 114C88.9279 114 114 88.9279 114 58C114 27.0721 88.9279 2 58 2C27.0721 2 2 27.0721 2 58C2 88.9279 27.0721 114 58 114Z" fill="black" fill-opacity="0.02"/>
<path d="M58 112C87.8234 112 112 87.8234 112 58C112 28.1766 87.8234 4 58 4C28.1766 4 4 28.1766 4 58C4 87.8234 28.1766 112 58 112Z" fill="black" fill-opacity="0.02"/>
<path d="M58 110C86.7188 110 110 86.7188 110 58C110 29.2812 86.7188 6 58 6C29.2812 6 6 29.2812 6 58C6 86.7188 29.2812 110 58 110Z" fill="black" fill-opacity="0.02"/>
<path d="M58 108C85.6142 108 108 85.6142 108 58C108 30.3858 85.6142 8 58 8C30.3858 8 8 30.3858 8 58C8 85.6142 30.3858 108 58 108Z" fill="#F7B21B"/>
</g>
<path fill-rule="evenodd" clip-rule="evenodd" d="M38.4815 50.0535C45.262 50.0535 49.5929 55.9502 49.6286 56L53.4074 52.524C53.1759 52.1974 47.6339 44.5185 38.4815 44.5185V50.0535ZM40.7778 57.1482C33.169 57.1482 27 63.0601 27 70.3519C27 77.6436 33.169 83.5556 40.7778 83.5556C48.3866 83.5556 54.5556 77.6436 54.5556 70.3519C54.5556 63.0601 48.3866 57.1482 40.7778 57.1482ZM40.7778 62.0995C45.5259 62.0995 49.3889 65.8015 49.3889 70.3519C49.3889 74.9022 45.5259 78.6042 40.7778 78.6042C36.0296 78.6042 32.1667 74.9022 32.1667 70.3519C32.1667 65.8015 36.0296 62.0995 40.7778 62.0995ZM75.2222 57.1482C67.6134 57.1482 61.4445 63.0601 61.4445 70.3519C61.4445 77.6436 67.6134 83.5556 75.2222 83.5556C82.831 83.5556 89 77.6436 89 70.3519C89 63.0601 82.831 57.1482 75.2222 57.1482ZM75.2222 62.0995C79.9704 62.0995 83.8333 65.8015 83.8333 70.3519C83.8333 74.9022 79.9704 78.6042 75.2222 78.6042C70.4741 78.6042 66.6111 74.9022 66.6111 70.3519C66.6111 65.8015 70.4741 62.0995 75.2222 62.0995Z" fill="white"/>
<path d="M40.0068 69.9828L67.9883 48.9433" stroke="white" stroke-width="5"/>
<path d="M75.8915 70.3032L66.9203 49.6909L73.6487 36.875L63.5027 32.1758" stroke="white" stroke-width="5"/>
</g>
</g>
<defs>
<clipPath id="clip0_14_91">
<rect width="116" height="116" fill="white"/>
</clipPath>
</defs>
</svg>
