<svg width="92" height="92" viewBox="0 0 92 92" fill="none" xmlns="http://www.w3.org/2000/svg">
<g filter="url(#filter0_d_9_32)">
<path d="M46 84C66.9868 84 84 66.9868 84 46C84 25.0132 66.9868 8 46 8C25.0132 8 8 25.0132 8 46C8 66.9868 25.0132 84 46 84Z" fill="#F28B3D"/>
</g>
<mask id="mask0_9_32" style="mask-type:luminance" maskUnits="userSpaceOnUse" x="16" y="16" width="60" height="60">
<path d="M76 16H16V76H76V16Z" fill="white"/>
</mask>
<g mask="url(#mask0_9_32)">
<mask id="mask1_9_32" style="mask-type:luminance" maskUnits="userSpaceOnUse" x="16" y="16" width="60" height="60">
<path d="M76 16H16V76H76V16Z" fill="white"/>
</mask>
<g mask="url(#mask1_9_32)">
<path fill-rule="evenodd" clip-rule="evenodd" d="M68 60.9999H62C58.9726 60.3735 56.8065 58.2187 56 54.9999C56.8065 52.9017 58.9726 50.747 62 50.9999C63.9952 50.747 66.1613 48.5923 66 45.9999V43.9999V39.9999H48L52 33.9999L62 31.9999V25.9999C58.1339 23.7592 53.5629 22.3811 48 22.9999L29 27.9999C30.0903 31.3706 32.2661 33.6456 36 33.9999L44 35.9999L41 39.9999H21V45.9999H37.3684L31 54.9999L35 58.2369L43.3684 45.9999H47V50.9999L55 69.9999L71 62.9999L68 60.9999Z" stroke="#F28B3D" stroke-width="5"/>
<path fill-rule="evenodd" clip-rule="evenodd" d="M68 60.9999H62C58.9726 60.3735 56.8064 58.2187 56 54.9999C56.8064 52.9017 58.9726 50.747 62 50.9999C63.9952 50.747 66.1613 48.5923 66 45.9999V43.9999V39.9999H48L52 33.9999L62 31.9999V25.9999C58.1339 23.7592 53.5629 22.3811 48 22.9999L29 27.9999C30.0903 31.3706 32.2661 33.6456 36 33.9999L44 35.9999L41 39.9999H21V45.9999H37.3684L31 54.9999L35 58.2369L43.3684 45.9999H47V50.9999L55 69.9999L71 62.9999L68 60.9999Z" fill="white"/>
</g>
</g>
<defs>
<filter id="filter0_d_9_32" x="1" y="1" width="90" height="90" filterUnits="userSpaceOnUse" color-interpolation-filters="sRGB">
<feFlood flood-opacity="0" result="BackgroundImageFix"/>
<feColorMatrix in="SourceAlpha" type="matrix" values="0 0 0 0 0 0 0 0 0 0 0 0 0 0 0 0 0 0 127 0" result="hardAlpha"/>
<feOffset/>
<feGaussianBlur stdDeviation="3.5"/>
<feColorMatrix type="matrix" values="0 0 0 0 0 0 0 0 0 0 0 0 0 0 0 0 0 0 0.15 0"/>
<feBlend mode="normal" in2="BackgroundImageFix" result="effect1_dropShadow_9_32"/>
<feBlend mode="normal" in="SourceGraphic" in2="effect1_dropShadow_9_32" result="shape"/>
</filter>
</defs>
</svg>
