<svg width="116" height="116" viewBox="0 0 116 116" fill="none" xmlns="http://www.w3.org/2000/svg">
<g id="poi_pumptrack" clip-path="url(#clip0_3860_9747)">
<g id="poi/100/bounding">
<g id="poi/100/bounding_2" clip-path="url(#clip1_3860_9747)">
<circle id="Oval Shadow 1" cx="58" cy="58" r="58" fill="black" fill-opacity="0.02"/>
<circle id="Oval Shadow 2" cx="58" cy="58" r="56" fill="black" fill-opacity="0.02"/>
<circle id="Oval Shadow 3" cx="58" cy="58" r="54" fill="black" fill-opacity="0.02"/>
<circle id="Oval Shadow 4" cx="58" cy="58" r="52" fill="black" fill-opacity="0.02"/>
<circle id="Oval 2" cx="58" cy="58" r="50" fill="white"/>
</g>
</g>
<g id="64-pump track">
<g id="Group">
<path id="Union" fill-rule="evenodd" clip-rule="evenodd" d="M38.4815 50.0535C45.262 50.0535 49.5929 55.9502 49.6286 56L53.4074 52.524C53.1759 52.1974 47.6339 44.5185 38.4815 44.5185V50.0535ZM40.7778 57.1482C33.169 57.1482 27 63.0601 27 70.3519C27 77.6436 33.169 83.5556 40.7778 83.5556C48.3866 83.5556 54.5556 77.6436 54.5556 70.3519C54.5556 63.0601 48.3866 57.1482 40.7778 57.1482ZM40.7778 62.0995C45.5259 62.0995 49.3889 65.8015 49.3889 70.3519C49.3889 74.9022 45.5259 78.6042 40.7778 78.6042C36.0296 78.6042 32.1667 74.9022 32.1667 70.3519C32.1667 65.8015 36.0296 62.0995 40.7778 62.0995ZM75.2222 57.1482C67.6134 57.1482 61.4445 63.0601 61.4445 70.3519C61.4445 77.6436 67.6134 83.5556 75.2222 83.5556C82.831 83.5556 89 77.6436 89 70.3519C89 63.0601 82.831 57.1482 75.2222 57.1482ZM75.2222 62.0995C79.9704 62.0995 83.8333 65.8015 83.8333 70.3519C83.8333 74.9022 79.9704 78.6042 75.2222 78.6042C70.4741 78.6042 66.6111 74.9022 66.6111 70.3519C66.6111 65.8015 70.4741 62.0995 75.2222 62.0995Z" fill="#F7B21B"/>
<path id="Vector 1" d="M40.0068 69.9828L67.9883 48.9433" stroke="#F7B21B" stroke-width="5"/>
</g>
<path id="Vector 2" d="M75.8915 70.3032L66.9203 49.6909L73.6487 36.875L63.5027 32.1758" stroke="#F7B21B" stroke-width="5"/>
</g>
</g>
<defs>
<clipPath id="clip0_3860_9747">
<rect width="116" height="116" fill="white"/>
</clipPath>
<clipPath id="clip1_3860_9747">
<rect width="116" height="116" fill="white"/>
</clipPath>
</defs>
</svg>
