<svg width="64" height="65" viewBox="0 0 64 65" fill="none" xmlns="http://www.w3.org/2000/svg">
<g clip-path="url(#clip0_3449_9325)">
<path d="M32 64.5C49.6731 64.5 64 50.1731 64 32.5C64 14.8269 49.6731 0.5 32 0.5C14.3269 0.5 0 14.8269 0 32.5C0 50.1731 14.3269 64.5 32 64.5Z" fill="black" fill-opacity="0.02"/>
<path d="M32 63.109C48.9047 63.109 62.6087 49.405 62.6087 32.5003C62.6087 15.5956 48.9047 1.8916 32 1.8916C15.0953 1.8916 1.3913 15.5956 1.3913 32.5003C1.3913 49.405 15.0953 63.109 32 63.109Z" fill="black" fill-opacity="0.02"/>
<path d="M32 61.717C48.1363 61.717 61.2174 48.6359 61.2174 32.4996C61.2174 16.3633 48.1363 3.28223 32 3.28223C15.8637 3.28223 2.78259 16.3633 2.78259 32.4996C2.78259 48.6359 15.8637 61.717 32 61.717Z" fill="black" fill-opacity="0.02"/>
<path d="M32 60.326C47.3679 60.326 59.8261 47.8678 59.8261 32.4999C59.8261 17.132 47.3679 4.67383 32 4.67383C16.6321 4.67383 4.17389 17.132 4.17389 32.4999C4.17389 47.8678 16.6321 60.326 32 60.326Z" fill="black" fill-opacity="0.02"/>
<path d="M32 58.935C46.5995 58.935 58.4348 47.0997 58.4348 32.5002C58.4348 17.9007 46.5995 6.06543 32 6.06543C17.4005 6.06543 5.56525 17.9007 5.56525 32.5002C5.56525 47.0997 17.4005 58.935 32 58.935Z" fill="#C4C4C4"/>
<path fill-rule="evenodd" clip-rule="evenodd" d="M42.8477 29.022L40.879 21.6394C38.8833 21.2426 35.412 20.6742 32 20.6742C28.588 20.6742 25.1167 21.2426 23.121 21.6394L21.1523 29.022H42.8477ZM18.0869 29.7177L16.6956 31.8046V42.9351V45.7177H19.4782C21.015 45.7177 22.2609 44.4718 22.2609 42.9351V41.5438H25.0435H38.9565H41.7391V42.9351C41.7391 44.4718 42.985 45.7177 44.5217 45.7177H47.3043V42.9351V31.8046L45.913 29.7177L43.553 20.8677C43.2922 19.8898 42.5234 19.1315 41.5312 18.9322C39.4803 18.52 35.7402 17.8916 32 17.8916C28.2598 17.8916 24.5197 18.52 22.4688 18.9322C21.4766 19.1315 20.7077 19.8898 20.4469 20.8677L18.0869 29.7177ZM15.3043 31.109L16.6956 29.022L17.0435 27.6307H13.913C13.1446 27.6307 12.5217 28.2536 12.5217 29.022V29.327C12.5217 29.9655 12.9562 30.5219 13.5756 30.6768L15.3043 31.109ZM47.3043 29.022L48.6956 31.109L50.4244 30.6768C51.0437 30.5219 51.4782 29.9655 51.4782 29.327V29.022C51.4782 28.2536 50.8554 27.6307 50.0869 27.6307H46.9565L47.3043 29.022ZM20.8696 33.1959H25.0435C25.8119 33.1959 26.4348 33.8188 26.4348 34.5873V35.9786H22.2609C21.4924 35.9786 20.8696 35.3557 20.8696 34.5873V33.1959ZM38.9565 33.1959H43.1304V34.5873C43.1304 35.3557 42.5075 35.9786 41.7391 35.9786H37.5652V34.5873C37.5652 33.8188 38.1881 33.1959 38.9565 33.1959Z" fill="white"/>
</g>
<defs>
<clipPath id="clip0_3449_9325">
<rect width="64" height="64" fill="white" transform="translate(0 0.5)"/>
</clipPath>
</defs>
</svg>
