<svg width="64" height="65" viewBox="0 0 64 65" fill="none" xmlns="http://www.w3.org/2000/svg">
<g clip-path="url(#clip0_3449_9362)">
<path d="M32 64.5C49.6731 64.5 64 50.1731 64 32.5C64 14.8269 49.6731 0.5 32 0.5C14.3269 0.5 0 14.8269 0 32.5C0 50.1731 14.3269 64.5 32 64.5Z" fill="black" fill-opacity="0.02"/>
<path d="M32 63.109C48.9047 63.109 62.6087 49.405 62.6087 32.5003C62.6087 15.5956 48.9047 1.8916 32 1.8916C15.0953 1.8916 1.3913 15.5956 1.3913 32.5003C1.3913 49.405 15.0953 63.109 32 63.109Z" fill="black" fill-opacity="0.02"/>
<path d="M32 61.717C48.1363 61.717 61.2174 48.6359 61.2174 32.4996C61.2174 16.3633 48.1363 3.28223 32 3.28223C15.8637 3.28223 2.78259 16.3633 2.78259 32.4996C2.78259 48.6359 15.8637 61.717 32 61.717Z" fill="black" fill-opacity="0.02"/>
<path d="M32 60.326C47.3679 60.326 59.8261 47.8678 59.8261 32.4999C59.8261 17.132 47.3679 4.67383 32 4.67383C16.6321 4.67383 4.17389 17.132 4.17389 32.4999C4.17389 47.8678 16.6321 60.326 32 60.326Z" fill="black" fill-opacity="0.02"/>
<path d="M32 58.935C46.5995 58.935 58.4348 47.0997 58.4348 32.5002C58.4348 17.9007 46.5995 6.06543 32 6.06543C17.4005 6.06543 5.56525 17.9007 5.56525 32.5002C5.56525 47.0997 17.4005 58.935 32 58.935Z" fill="#C4C4C4"/>
<path fill-rule="evenodd" clip-rule="evenodd" d="M16 21.3696C16 20.2169 16.9343 19.2826 18.087 19.2826H45.9131C47.0657 19.2826 48 20.2169 48 21.3696V23.4565C48 24.2249 48.6229 24.8478 49.3913 24.8478C50.1597 24.8478 50.7826 24.2249 50.7826 23.4565V21.3696C50.7826 18.6802 48.6024 16.5 45.9131 16.5H18.087C15.3976 16.5 13.2174 18.6802 13.2174 21.3696V23.4565C13.2174 24.2249 13.8403 24.8478 14.6087 24.8478C15.3771 24.8478 16 24.2249 16 23.4565V21.3696ZM38.9565 22.0652H18.7826V45.0217H38.9565V22.0652ZM25.0435 47.1087H41.0435V22.0652H45.2174V47.1087V50.587H41.0435H25.0435V47.1087ZM34.7826 28.3261C34.7826 30.6313 32.1352 32.5 28.8696 32.5C25.6039 32.5 22.9565 30.6313 22.9565 28.3261C22.9565 26.0209 25.6039 24.1522 28.8696 24.1522C32.1352 24.1522 34.7826 26.0209 34.7826 28.3261ZM22.9565 38.7609C22.5723 38.7609 22.2609 39.0723 22.2609 39.4565V40.1522C22.2609 40.5364 22.5723 40.8478 22.9565 40.8478H25.7391C26.1234 40.8478 26.4348 40.5364 26.4348 40.1522V39.4565C26.4348 39.0723 26.1234 38.7609 25.7391 38.7609H22.9565Z" fill="white"/>
</g>
<defs>
<clipPath id="clip0_3449_9362">
<rect width="64" height="64" fill="white" transform="translate(0 0.5)"/>
</clipPath>
</defs>
</svg>
