<svg width="64" height="65" viewBox="0 0 64 65" fill="none" xmlns="http://www.w3.org/2000/svg">
<g clip-path="url(#clip0_3449_9376)">
<g filter="url(#filter0_d_3449_9376)">
<path d="M32 58.935C46.5995 58.935 58.4348 47.0997 58.4348 32.5002C58.4348 17.9007 46.5995 6.06543 32 6.06543C17.4005 6.06543 5.56522 17.9007 5.56522 32.5002C5.56522 47.0997 17.4005 58.935 32 58.935Z" fill="#C4C4C4"/>
</g>
<path d="M34.0582 19.5378L36.0952 11.9355L40.1269 13.0158L38.0899 20.6181L34.0582 19.5378Z" fill="white"/>
<path d="M22.3453 22.6765L16.78 17.1113L13.8287 20.0628L19.3939 25.628L22.3453 22.6765Z" fill="white"/>
<path d="M9.73343 27.1562L17.3357 29.1933L16.2554 33.225L8.65315 31.1879L9.73343 27.1562Z" fill="white"/>
<path d="M46.6644 29.1933L54.2666 27.1562L55.3469 31.1879L47.7446 33.2249L46.6644 29.1933Z" fill="white"/>
<path d="M41.6548 22.6765L47.22 17.1113L50.1713 20.0627L44.6061 25.6279L41.6548 22.6765Z" fill="white"/>
<path d="M23.8731 13.0158L25.9101 20.6181L29.9418 19.5378L27.9048 11.9355L23.8731 13.0158Z" fill="white"/>
<path d="M44.0317 38.7628C44.3507 37.6579 44.5217 36.4901 44.5217 35.2825C44.5217 28.3669 38.9155 22.7607 32 22.7607C25.0844 22.7607 19.4783 28.3669 19.4783 35.2825C19.4783 36.4901 19.6492 37.6579 19.9683 38.7628C21.2579 39.0693 22.505 39.577 23.6537 40.286C24.1158 40.5712 24.8582 40.5712 25.3202 40.286C29.366 37.7886 34.634 37.7886 38.6797 40.286C39.1418 40.5712 39.8843 40.5712 40.3463 40.286C41.495 39.577 42.742 39.0693 44.0317 38.7628Z" fill="white"/>
<path d="M19.6342 46.7979C18.0522 45.8214 15.8956 45.8214 14.3136 46.7979L12.1212 43.2462C15.047 41.4401 18.9008 41.4401 21.8266 43.2462C23.4086 44.2227 25.5653 44.2227 27.1473 43.2462C30.0731 41.4401 33.9269 41.4401 36.8527 43.2462C38.4347 44.2227 40.5914 44.2227 42.1734 43.2462C45.0992 41.4401 48.953 41.4401 51.8788 43.2462L49.6864 46.7979C48.1044 45.8214 45.9478 45.8214 44.3658 46.7979C41.4399 48.604 37.5862 48.604 34.6603 46.7979C33.0783 45.8214 30.9217 45.8214 29.3397 46.7979C26.4138 48.604 22.5601 48.604 19.6342 46.7979Z" fill="white"/>
</g>
<defs>
<filter id="filter0_d_3449_9376" x="-1.43478" y="-0.93457" width="66.8696" height="66.8691" filterUnits="userSpaceOnUse" color-interpolation-filters="sRGB">
<feFlood flood-opacity="0" result="BackgroundImageFix"/>
<feColorMatrix in="SourceAlpha" type="matrix" values="0 0 0 0 0 0 0 0 0 0 0 0 0 0 0 0 0 0 127 0" result="hardAlpha"/>
<feOffset/>
<feGaussianBlur stdDeviation="3.5"/>
<feColorMatrix type="matrix" values="0 0 0 0 0 0 0 0 0 0 0 0 0 0 0 0 0 0 0.15 0"/>
<feBlend mode="normal" in2="BackgroundImageFix" result="effect1_dropShadow_3449_9376"/>
<feBlend mode="normal" in="SourceGraphic" in2="effect1_dropShadow_3449_9376" result="shape"/>
</filter>
<clipPath id="clip0_3449_9376">
<rect width="64" height="64" fill="white" transform="translate(0 0.5)"/>
</clipPath>
</defs>
</svg>
