<svg width="64" height="65" viewBox="0 0 64 65" fill="none" xmlns="http://www.w3.org/2000/svg">
<g clip-path="url(#clip0_3449_9399)">
<g filter="url(#filter0_d_3449_9399)">
<path d="M32 58.935C46.5995 58.935 58.4348 47.0997 58.4348 32.5002C58.4348 17.9007 46.5995 6.06543 32 6.06543C17.4005 6.06543 5.56522 17.9007 5.56522 32.5002C5.56522 47.0997 17.4005 58.935 32 58.935Z" fill="#C4C4C4"/>
</g>
<path fill-rule="evenodd" clip-rule="evenodd" d="M30.6087 13.0222C30.6087 12.2537 31.2316 11.6309 32 11.6309C32.7684 11.6309 33.3913 12.2537 33.3913 13.0222V19.9787C33.3913 20.7471 32.7684 21.37 32 21.37C31.2316 21.37 30.6087 20.7471 30.6087 19.9787V13.0222ZM32 39.4569C33.5244 39.4569 34.9969 39.2341 36.3864 38.8191L39.4879 45.0222H26.1973C25.9962 44.4534 25.6754 43.9412 25.2652 43.5159L27.6136 38.8191C29.0031 39.2341 30.4755 39.4569 32 39.4569ZM22.7766 42.2711L25.0232 37.7778C20.0788 35.2409 16.6956 30.0919 16.6956 24.1526H47.3043C47.3043 30.0919 43.9212 35.2409 38.9768 37.7778L44.3749 48.5739C44.7185 49.2611 44.4399 50.0969 43.7526 50.4405C43.0654 50.7841 42.2296 50.5056 41.886 49.8183L40.8792 47.8048H26.1973C25.6243 49.4259 24.0782 50.5874 22.2609 50.5874C19.9557 50.5874 18.087 48.7187 18.087 46.4135C18.087 44.1083 19.9557 42.2396 22.2609 42.2396C22.4355 42.2396 22.6076 42.2503 22.7766 42.2711ZM37.5652 14.4135C36.7968 14.4135 36.1739 15.0364 36.1739 15.8048V19.9787C36.1739 20.7471 36.7968 21.37 37.5652 21.37C38.3336 21.37 38.9565 20.7471 38.9565 19.9787V15.8048C38.9565 15.0364 38.3336 14.4135 37.5652 14.4135ZM25.0435 15.8048C25.0435 15.0364 25.6664 14.4135 26.4348 14.4135C27.2032 14.4135 27.8261 15.0364 27.8261 15.8048V19.9787C27.8261 20.7471 27.2032 21.37 26.4348 21.37C25.6664 21.37 25.0435 20.7471 25.0435 19.9787V15.8048Z" fill="white"/>
</g>
<defs>
<filter id="filter0_d_3449_9399" x="-1.43478" y="-0.93457" width="66.8696" height="66.8691" filterUnits="userSpaceOnUse" color-interpolation-filters="sRGB">
<feFlood flood-opacity="0" result="BackgroundImageFix"/>
<feColorMatrix in="SourceAlpha" type="matrix" values="0 0 0 0 0 0 0 0 0 0 0 0 0 0 0 0 0 0 127 0" result="hardAlpha"/>
<feOffset/>
<feGaussianBlur stdDeviation="3.5"/>
<feColorMatrix type="matrix" values="0 0 0 0 0 0 0 0 0 0 0 0 0 0 0 0 0 0 0.15 0"/>
<feBlend mode="normal" in2="BackgroundImageFix" result="effect1_dropShadow_3449_9399"/>
<feBlend mode="normal" in="SourceGraphic" in2="effect1_dropShadow_3449_9399" result="shape"/>
</filter>
<clipPath id="clip0_3449_9399">
<rect width="64" height="64" fill="white" transform="translate(0 0.5)"/>
</clipPath>
</defs>
</svg>
