<svg width="60" height="60" viewBox="0 0 60 60" fill="none" xmlns="http://www.w3.org/2000/svg">
<path fill-rule="evenodd" clip-rule="evenodd" d="M9 13C6.79086 13 5 14.7909 5 17V42C5 44.2091 6.79086 46 9 46H51C53.2091 46 55 44.2091 55 42V17C55 14.7909 53.2091 13 51 13H9Z" fill="white"/>
<path fill-rule="evenodd" clip-rule="evenodd" d="M9 16C8.44772 16 8 16.4477 8 17V42C8 42.5523 8.44771 43 9 43H51C51.5523 43 52 42.5523 52 42V17C52 16.4477 51.5523 16 51 16H9ZM47 28C47 31.866 44.5376 35 41.5 35C38.4624 35 36 31.866 36 28C36 24.134 38.4624 21 41.5 21C44.5376 21 47 24.134 47 28ZM14 22H30V25H14V22ZM24 28H14V31H24V28ZM14 34H27V37H14V34Z" fill="#7A7A79"/>
</svg>
