<svg width="64" height="65" viewBox="0 0 64 65" fill="none" xmlns="http://www.w3.org/2000/svg">
<g clip-path="url(#clip0_3449_9872)">
<mask id="mask0_3449_9872" style="mask-type:luminance" maskUnits="userSpaceOnUse" x="0" y="0" width="64" height="65">
<path d="M64 0.5H0V64.5H64V0.5Z" fill="white"/>
</mask>
<g mask="url(#mask0_3449_9872)">
<g filter="url(#filter0_d_3449_9872)">
<path d="M32 60.0865C47.2354 60.0865 59.5862 47.7357 59.5862 32.5003C59.5862 17.2648 47.2354 4.91406 32 4.91406C16.7646 4.91406 4.41379 17.2648 4.41379 32.5003C4.41379 47.7357 16.7646 60.0865 32 60.0865Z" fill="#C4C4C4"/>
</g>
<path fill-rule="evenodd" clip-rule="evenodd" d="M50.7586 44.6387H12.6896V47.1214C12.6896 48.4919 13.9078 49.6042 15.4089 49.6042H48.0394C49.5404 49.6042 50.7586 48.4919 50.7586 47.1214V44.6387Z" fill="white"/>
<path fill-rule="evenodd" clip-rule="evenodd" d="M12.6896 30.2937H50.7586V26.9834H12.6896V30.2937Z" fill="white"/>
<path fill-rule="evenodd" clip-rule="evenodd" d="M50.7586 21.955C50.7586 21.955 39.0456 19.7688 31.7241 15.3965C24.4026 19.7688 12.6896 21.955 12.6896 21.955V24.7758H50.7586V21.955Z" fill="white"/>
<path fill-rule="evenodd" clip-rule="evenodd" d="M30.3448 19.2591H33.1034V8.77637H30.3448V19.2591Z" fill="white"/>
<path fill-rule="evenodd" clip-rule="evenodd" d="M33.1035 12.0867H38.6207V8.77637H33.1035V12.0867Z" fill="white"/>
<path fill-rule="evenodd" clip-rule="evenodd" d="M12.6896 42.9828H16.5517V32.5H12.6896V42.9828Z" fill="white"/>
<path fill-rule="evenodd" clip-rule="evenodd" d="M19.8621 42.9828H23.7241V32.5H19.8621V42.9828Z" fill="white"/>
<path fill-rule="evenodd" clip-rule="evenodd" d="M26.4828 42.9828H30.3448V32.5H26.4828V42.9828Z" fill="white"/>
<path fill-rule="evenodd" clip-rule="evenodd" d="M33.1035 42.9828H36.9655V32.5H33.1035V42.9828Z" fill="white"/>
<path fill-rule="evenodd" clip-rule="evenodd" d="M39.7241 42.9828H43.5862V32.5H39.7241V42.9828Z" fill="white"/>
<path fill-rule="evenodd" clip-rule="evenodd" d="M46.8965 42.9828H50.7586V32.5H46.8965V42.9828Z" fill="white"/>
</g>
</g>
<defs>
<filter id="filter0_d_3449_9872" x="-6.58621" y="-6.08594" width="77.1724" height="77.1729" filterUnits="userSpaceOnUse" color-interpolation-filters="sRGB">
<feFlood flood-opacity="0" result="BackgroundImageFix"/>
<feColorMatrix in="SourceAlpha" type="matrix" values="0 0 0 0 0 0 0 0 0 0 0 0 0 0 0 0 0 0 127 0" result="hardAlpha"/>
<feOffset/>
<feGaussianBlur stdDeviation="5.5"/>
<feColorMatrix type="matrix" values="0 0 0 0 0 0 0 0 0 0 0 0 0 0 0 0 0 0 0.15 0"/>
<feBlend mode="normal" in2="BackgroundImageFix" result="effect1_dropShadow_3449_9872"/>
<feBlend mode="normal" in="SourceGraphic" in2="effect1_dropShadow_3449_9872" result="shape"/>
</filter>
<clipPath id="clip0_3449_9872">
<rect width="64" height="64" fill="white" transform="translate(0 0.5)"/>
</clipPath>
</defs>
</svg>
