<svg width="64" height="65" viewBox="0 0 64 65" fill="none" xmlns="http://www.w3.org/2000/svg">
<g clip-path="url(#clip0_3449_10135)">
<g filter="url(#filter0_d_3449_10135)">
<path d="M32 58.935C46.5995 58.935 58.4348 47.0997 58.4348 32.5002C58.4348 17.9007 46.5995 6.06543 32 6.06543C17.4005 6.06543 5.56525 17.9007 5.56525 32.5002C5.56525 47.0997 17.4005 58.935 32 58.935Z" fill="#C4C4C4"/>
</g>
<path fill-rule="evenodd" clip-rule="evenodd" d="M32 31.1091C35.842 31.1091 38.9565 27.9945 38.9565 24.1526C38.9565 20.3107 32 11.6309 32 11.6309C32 11.6309 25.0435 20.3107 25.0435 24.1526C25.0435 27.9945 28.1581 31.1091 32 31.1091ZM17.962 24.4638C19.3177 23.5851 20.8537 22.837 22.526 22.2434C22.3624 22.8798 22.2609 23.5249 22.2609 24.1526C22.2609 24.5417 22.2837 24.9255 22.3281 25.3028C21.2914 25.7388 20.3354 26.2414 19.4754 26.7988C16.3195 28.8444 14.6087 31.5063 14.6087 34.2396C14.6087 36.9728 16.3195 39.6348 19.4754 41.6803C22.6178 43.717 27.042 45.0222 32 45.0222C36.9581 45.0222 41.3823 43.717 44.5246 41.6803C47.6805 39.6348 49.3913 36.9728 49.3913 34.2396C49.3913 31.5063 47.6805 28.8444 44.5246 26.7988C43.6646 26.2414 42.7086 25.7388 41.672 25.3028C41.7163 24.9255 41.7392 24.5417 41.7392 24.1526C41.7392 23.5249 41.6377 22.8798 41.474 22.2434C43.1464 22.837 44.6824 23.5851 46.0381 24.4638C49.6801 26.8244 52.1739 30.2494 52.1739 34.2396C52.1739 38.2297 49.6801 41.6547 46.0381 44.0153C42.3824 46.3847 37.4153 47.8048 32 47.8048C26.5847 47.8048 21.6176 46.3847 17.962 44.0153C14.32 41.6547 11.8261 38.2297 11.8261 34.2396C11.8261 30.2494 14.32 26.8244 17.962 24.4638ZM23.0155 28.1183C23.0391 28.1065 23.0628 28.0948 23.0866 28.083C23.4682 28.9472 23.9718 29.7454 24.5755 30.4558C24.4679 30.5053 24.3627 30.5557 24.2599 30.6071C22.2677 31.6032 21.5652 32.7219 21.5652 33.5439C21.5652 34.3659 22.2677 35.4846 24.2599 36.4807C26.1689 37.4351 28.9035 38.0656 32 38.0656C35.0966 38.0656 37.8311 37.4351 39.7401 36.4807C41.7323 35.4846 42.4348 34.3659 42.4348 33.5439C42.4348 32.7219 41.7323 31.6032 39.7401 30.6071C39.6373 30.5557 39.5321 30.5053 39.4246 30.4558C40.0283 29.7454 40.5318 28.9472 40.9135 28.083C40.9373 28.0948 40.9609 28.1065 40.9845 28.1183C43.2725 29.2623 45.2174 31.1001 45.2174 33.5439C45.2174 35.9877 43.2725 37.8255 40.9845 38.9695C38.6133 40.1551 35.4349 40.8482 32 40.8482C28.5652 40.8482 25.3867 40.1551 23.0155 38.9695C20.7275 37.8255 18.7826 35.9877 18.7826 33.5439C18.7826 31.1001 20.7275 29.2623 23.0155 28.1183Z" fill="white"/>
</g>
<defs>
<filter id="filter0_d_3449_10135" x="-1.43475" y="-0.93457" width="66.8696" height="66.8691" filterUnits="userSpaceOnUse" color-interpolation-filters="sRGB">
<feFlood flood-opacity="0" result="BackgroundImageFix"/>
<feColorMatrix in="SourceAlpha" type="matrix" values="0 0 0 0 0 0 0 0 0 0 0 0 0 0 0 0 0 0 127 0" result="hardAlpha"/>
<feOffset/>
<feGaussianBlur stdDeviation="3.5"/>
<feColorMatrix type="matrix" values="0 0 0 0 0 0 0 0 0 0 0 0 0 0 0 0 0 0 0.15 0"/>
<feBlend mode="normal" in2="BackgroundImageFix" result="effect1_dropShadow_3449_10135"/>
<feBlend mode="normal" in="SourceGraphic" in2="effect1_dropShadow_3449_10135" result="shape"/>
</filter>
<clipPath id="clip0_3449_10135">
<rect width="64" height="64" fill="white" transform="translate(0 0.5)"/>
</clipPath>
</defs>
</svg>
