<svg width="64" height="65" viewBox="0 0 64 65" fill="none" xmlns="http://www.w3.org/2000/svg">
<g clip-path="url(#clip0_3449_9372)">
<g filter="url(#filter0_d_3449_9372)">
<path d="M32 58.935C46.5995 58.935 58.4348 47.0997 58.4348 32.5002C58.4348 17.9007 46.5995 6.06543 32 6.06543C17.4005 6.06543 5.56522 17.9007 5.56522 32.5002C5.56522 47.0997 17.4005 58.935 32 58.935Z" fill="#C4C4C4"/>
</g>
<path fill-rule="evenodd" clip-rule="evenodd" d="M20.8696 17.1957C20.8696 15.6589 22.1154 14.4131 23.6522 14.4131H40.3478C41.8846 14.4131 43.1304 15.6589 43.1304 17.1957V47.8044C43.1304 49.3412 41.8846 50.587 40.3478 50.587H23.6522C22.1154 50.587 20.8696 49.3412 20.8696 47.8044V17.1957ZM40.3478 30.6073C40.3478 30.9068 40.1562 31.1726 39.8721 31.2673L24.5678 36.3688C24.1174 36.5189 23.6522 36.1836 23.6522 35.7088V17.8913C23.6522 17.5071 23.9636 17.1957 24.3478 17.1957H27.1304L27.509 18.3313C27.6984 18.8994 28.2301 19.2827 28.8289 19.2827H35.1711C35.7699 19.2827 36.3016 18.8994 36.491 18.3313L36.8696 17.1957H39.6522C40.0364 17.1957 40.3478 17.5071 40.3478 17.8913V30.6073Z" fill="white"/>
</g>
<defs>
<filter id="filter0_d_3449_9372" x="-1.43478" y="-0.93457" width="66.8696" height="66.8691" filterUnits="userSpaceOnUse" color-interpolation-filters="sRGB">
<feFlood flood-opacity="0" result="BackgroundImageFix"/>
<feColorMatrix in="SourceAlpha" type="matrix" values="0 0 0 0 0 0 0 0 0 0 0 0 0 0 0 0 0 0 127 0" result="hardAlpha"/>
<feOffset/>
<feGaussianBlur stdDeviation="3.5"/>
<feColorMatrix type="matrix" values="0 0 0 0 0 0 0 0 0 0 0 0 0 0 0 0 0 0 0.15 0"/>
<feBlend mode="normal" in2="BackgroundImageFix" result="effect1_dropShadow_3449_9372"/>
<feBlend mode="normal" in="SourceGraphic" in2="effect1_dropShadow_3449_9372" result="shape"/>
</filter>
<clipPath id="clip0_3449_9372">
<rect width="64" height="64" fill="white" transform="translate(0 0.5)"/>
</clipPath>
</defs>
</svg>
