<svg width="64" height="65" viewBox="0 0 64 65" fill="none" xmlns="http://www.w3.org/2000/svg">
<path d="M32 62.5C48.5685 62.5 62 49.0685 62 32.5C62 15.9315 48.5685 2.5 32 2.5C15.4315 2.5 2 15.9315 2 32.5C2 49.0685 15.4315 62.5 32 62.5Z" fill="black" fill-opacity="0.02"/>
<path d="M32 61.5C48.0163 61.5 61 48.5163 61 32.5C61 16.4837 48.0163 3.5 32 3.5C15.9837 3.5 3 16.4837 3 32.5C3 48.5163 15.9837 61.5 32 61.5Z" fill="black" fill-opacity="0.02"/>
<path d="M32 60.5C47.464 60.5 60 47.964 60 32.5C60 17.036 47.464 4.5 32 4.5C16.536 4.5 4 17.036 4 32.5C4 47.964 16.536 60.5 32 60.5Z" fill="black" fill-opacity="0.02"/>
<path d="M32 59.5C46.9117 59.5 59 47.4117 59 32.5C59 17.5883 46.9117 5.5 32 5.5C17.0883 5.5 5 17.5883 5 32.5C5 47.4117 17.0883 59.5 32 59.5Z" fill="black" fill-opacity="0.02"/>
<path d="M32 58.5C46.3594 58.5 58 46.8594 58 32.5C58 18.1406 46.3594 6.5 32 6.5C17.6406 6.5 6 18.1406 6 32.5C6 46.8594 17.6406 58.5 32 58.5Z" fill="#C4C4C4"/>
<path fill-rule="evenodd" clip-rule="evenodd" d="M39.25 46.5693H23.75C21.6097 46.5693 19.875 48.3291 19.875 50.5004H43.125C43.125 48.3291 41.3903 46.5693 39.25 46.5693Z" fill="white"/>
<path fill-rule="evenodd" clip-rule="evenodd" d="M40.5417 12.5H44.4167L31.5 30.8448H27.625L40.5417 12.5Z" fill="white"/>
<path fill-rule="evenodd" clip-rule="evenodd" d="M24.5158 27.5693L21.5752 23.4818H41.6497L38.5433 27.5693H24.5158ZM16.083 20.5107L29.0647 38.5172V46.5692H33.9383V38.5172L47.1169 20.5107H16.083Z" fill="white"/>
</svg>
