<svg width="64" height="65" viewBox="0 0 64 65" fill="none" xmlns="http://www.w3.org/2000/svg">
<path d="M32 62.5C48.5685 62.5 62 49.0685 62 32.5C62 15.9315 48.5685 2.5 32 2.5C15.4315 2.5 2 15.9315 2 32.5C2 49.0685 15.4315 62.5 32 62.5Z" fill="black" fill-opacity="0.02"/>
<path d="M32 61.5C48.0163 61.5 61 48.5163 61 32.5C61 16.4837 48.0163 3.5 32 3.5C15.9837 3.5 3 16.4837 3 32.5C3 48.5163 15.9837 61.5 32 61.5Z" fill="black" fill-opacity="0.02"/>
<path d="M32 60.5C47.464 60.5 60 47.964 60 32.5C60 17.036 47.464 4.5 32 4.5C16.536 4.5 4 17.036 4 32.5C4 47.964 16.536 60.5 32 60.5Z" fill="black" fill-opacity="0.02"/>
<path d="M32 59.5C46.9117 59.5 59 47.4117 59 32.5C59 17.5883 46.9117 5.5 32 5.5C17.0883 5.5 5 17.5883 5 32.5C5 47.4117 17.0883 59.5 32 59.5Z" fill="black" fill-opacity="0.02"/>
<path d="M32 58.5C46.3594 58.5 58 46.8594 58 32.5C58 18.1406 46.3594 6.5 32 6.5C17.6406 6.5 6 18.1406 6 32.5C6 46.8594 17.6406 58.5 32 58.5Z" fill="#C4C4C4"/>
<path fill-rule="evenodd" clip-rule="evenodd" d="M24.2857 23.4091C24.2857 26.0455 28.1428 26.0455 28.1428 23.4091C28.1428 20.7727 29.4286 19.4545 32 19.4545C33.818 19.4545 35.8571 20.7727 35.8571 23.4091C35.8571 26.3565 28.1428 28.6818 28.1428 33.9545C28.1428 35.2727 32.9746 35.2332 33.2857 33.9545C34.5714 28.6818 39.7143 28.6818 39.7143 23.4091C39.7143 18.1364 37.1428 15.5 32 15.5C26.8571 15.5 24.2857 18.1364 24.2857 23.4091Z" fill="white"/>
<path fill-rule="evenodd" clip-rule="evenodd" d="M16.9602 41.5792C16.9602 41.5792 21.7067 36.4633 31.9924 36.4633C42.2781 36.4633 47.0246 41.5792 47.0246 41.5792H16.9602ZM14 41.8638C14 44.5002 16.5714 44.5002 16.5714 44.5002H47.4286C47.4286 44.5002 50 43.8411 50 41.8638C50 36.5911 42.2857 31.3184 32 31.3184C21.7143 31.3184 14 37.0656 14 41.8638Z" fill="white"/>
</svg>
