<svg width="64" height="65" viewBox="0 0 64 65" fill="none" xmlns="http://www.w3.org/2000/svg">
<path d="M32 62.5C48.5685 62.5 62 49.0685 62 32.5C62 15.9315 48.5685 2.5 32 2.5C15.4315 2.5 2 15.9315 2 32.5C2 49.0685 15.4315 62.5 32 62.5Z" fill="black" fill-opacity="0.02"/>
<path d="M32 61.5C48.0163 61.5 61 48.5163 61 32.5C61 16.4837 48.0163 3.5 32 3.5C15.9837 3.5 3 16.4837 3 32.5C3 48.5163 15.9837 61.5 32 61.5Z" fill="black" fill-opacity="0.02"/>
<path d="M32 60.5C47.464 60.5 60 47.964 60 32.5C60 17.036 47.464 4.5 32 4.5C16.536 4.5 4 17.036 4 32.5C4 47.964 16.536 60.5 32 60.5Z" fill="black" fill-opacity="0.02"/>
<path d="M32 59.5C46.9117 59.5 59 47.4117 59 32.5C59 17.5883 46.9117 5.5 32 5.5C17.0883 5.5 5 17.5883 5 32.5C5 47.4117 17.0883 59.5 32 59.5Z" fill="black" fill-opacity="0.02"/>
<path d="M32 58.5C46.3594 58.5 58 46.8594 58 32.5C58 18.1406 46.3594 6.5 32 6.5C17.6406 6.5 6 18.1406 6 32.5C6 46.8594 17.6406 58.5 32 58.5Z" fill="#C4C4C4"/>
<path fill-rule="evenodd" clip-rule="evenodd" d="M19 33.5H24V30.5H19V33.5ZM21 43.5C21.1755 40.7585 23.0283 35.5 26 35.5V25.5C25.5332 25.5 25.553 25.5 25 25.5C18.583 25.5 16 22.5 16 22.5V38.5C16 43.3 18.5877 48.5 25 48.5C28.284 48.5 30.5431 47.2052 32 45.5C29.7823 44.4193 28.2995 42.7462 27 40.5C23.6623 40.8274 21.1755 43.3 21 43.5Z" fill="white"/>
<path fill-rule="evenodd" clip-rule="evenodd" d="M39 28.5H44V25.5H39V28.5ZM38 39.5C34.4 39.5 32 34.4453 32 31.5C32 31.5 34.4 34.1667 38 34.1667C41.6 34.1667 44 31.5 44 31.5C44 34.4453 41.6 39.5 38 39.5ZM32 28.5H37V25.5H32V28.5ZM38 20.1C31.5714 20.1 29 17.5 29 17.5V33.1C29 38.3 31.5714 43.5 38 43.5C44.4286 43.5 47 38.3 47 33.1V17.5C47 17.5 44.4286 20.1 38 20.1Z" fill="white"/>
</svg>
