<svg width="64" height="65" viewBox="0 0 64 65" fill="none" xmlns="http://www.w3.org/2000/svg">
<path d="M32 62.5C48.5685 62.5 62 49.0685 62 32.5C62 15.9315 48.5685 2.5 32 2.5C15.4315 2.5 2 15.9315 2 32.5C2 49.0685 15.4315 62.5 32 62.5Z" fill="black" fill-opacity="0.02"/>
<path d="M32 61.5C48.0163 61.5 61 48.5163 61 32.5C61 16.4837 48.0163 3.5 32 3.5C15.9837 3.5 3 16.4837 3 32.5C3 48.5163 15.9837 61.5 32 61.5Z" fill="black" fill-opacity="0.02"/>
<path d="M32 60.5C47.464 60.5 60 47.964 60 32.5C60 17.036 47.464 4.5 32 4.5C16.536 4.5 4 17.036 4 32.5C4 47.964 16.536 60.5 32 60.5Z" fill="black" fill-opacity="0.02"/>
<path d="M32 59.5C46.9117 59.5 59 47.4117 59 32.5C59 17.5883 46.9117 5.5 32 5.5C17.0883 5.5 5 17.5883 5 32.5C5 47.4117 17.0883 59.5 32 59.5Z" fill="black" fill-opacity="0.02"/>
<path d="M32 58.5C46.3594 58.5 58 46.8594 58 32.5C58 18.1406 46.3594 6.5 32 6.5C17.6406 6.5 6 18.1406 6 32.5C6 46.8594 17.6406 58.5 32 58.5Z" fill="#C4C4C4"/>
<path fill-rule="evenodd" clip-rule="evenodd" d="M46 16.5V46.5H17.5833V42.587H31.9762L29.343 36.243L25.3333 38.6739L18.875 34.7609L21.0278 32.8043L25.3333 34.7609L29.6389 30.8478L29.745 31.041L29.9464 30.8478H40.0952L42.125 32.8043L38.0655 42.587H43.4167L43.416 19.108L27.9167 19.1087V26.9348H25.3333V16.5H46ZM22.75 26.9348V30.8478H15V26.9348H22.75ZM35.0208 21.7174C36.8033 21.7174 38.25 23.1761 38.25 24.9783C38.25 26.7804 36.8033 28.2391 35.0208 28.2391C33.2383 28.2391 31.7917 26.7804 31.7917 24.9783C31.7917 23.1761 33.2383 21.7174 35.0208 21.7174Z" fill="white"/>
</svg>
