<svg width="64" height="65" viewBox="0 0 64 65" fill="none" xmlns="http://www.w3.org/2000/svg">
<path d="M32 62.5C48.5685 62.5 62 49.0685 62 32.5C62 15.9315 48.5685 2.5 32 2.5C15.4315 2.5 2 15.9315 2 32.5C2 49.0685 15.4315 62.5 32 62.5Z" fill="black" fill-opacity="0.02"/>
<path d="M32 61.5C48.0163 61.5 61 48.5163 61 32.5C61 16.4837 48.0163 3.5 32 3.5C15.9837 3.5 3 16.4837 3 32.5C3 48.5163 15.9837 61.5 32 61.5Z" fill="black" fill-opacity="0.02"/>
<path d="M32 60.5C47.464 60.5 60 47.964 60 32.5C60 17.036 47.464 4.5 32 4.5C16.536 4.5 4 17.036 4 32.5C4 47.964 16.536 60.5 32 60.5Z" fill="black" fill-opacity="0.02"/>
<path d="M32 59.5C46.9117 59.5 59 47.4117 59 32.5C59 17.5883 46.9117 5.5 32 5.5C17.0883 5.5 5 17.5883 5 32.5C5 47.4117 17.0883 59.5 32 59.5Z" fill="black" fill-opacity="0.02"/>
<path d="M32 58.5C46.3594 58.5 58 46.8594 58 32.5C58 18.1406 46.3594 6.5 32 6.5C17.6406 6.5 6 18.1406 6 32.5C6 46.8594 17.6406 58.5 32 58.5Z" fill="#C4C4C4"/>
<path fill-rule="evenodd" clip-rule="evenodd" d="M24.0481 42.5037C21.208 42.5037 18.9977 40.3539 18.9977 37.5138V35.4649L39.957 27.4932V37.6431C39.957 40.4832 37.8515 42.5037 35.0114 42.5037H24.0481Z" fill="white"/>
<path fill-rule="evenodd" clip-rule="evenodd" d="M42.0748 37.4032L50 40.4787V29.5742L42.0748 32.4999V37.4032Z" fill="white"/>
<path fill-rule="evenodd" clip-rule="evenodd" d="M20.4286 19.6426C16.8774 19.6426 14 22.5213 14 26.0711C14 29.621 16.8774 32.4997 20.4286 32.4997C23.9797 32.4997 26.8571 29.621 26.8571 26.0711C26.8571 22.5213 23.9797 19.6426 20.4286 19.6426ZM20.4286 22.214C22.5551 22.214 24.2857 23.9446 24.2857 26.0711C24.2857 28.1977 22.5551 29.9283 20.4286 29.9283C18.302 29.9283 16.5714 28.1977 16.5714 26.0711C16.5714 23.9446 18.302 22.214 20.4286 22.214Z" fill="white"/>
<path fill-rule="evenodd" clip-rule="evenodd" d="M33.2857 14.5C29.7345 14.5 26.8571 17.3787 26.8571 20.9286C26.8571 24.4784 29.7345 27.3571 33.2857 27.3571C36.8368 27.3571 39.7143 24.4784 39.7143 20.9286C39.7143 17.3787 36.8368 14.5 33.2857 14.5ZM33.2857 17.0714C35.4123 17.0714 37.1428 18.802 37.1428 20.9286C37.1428 23.0551 35.4123 24.7857 33.2857 24.7857C31.1591 24.7857 29.4285 23.0551 29.4285 20.9286C29.4285 18.802 31.1591 17.0714 33.2857 17.0714Z" fill="white"/>
<path fill-rule="evenodd" clip-rule="evenodd" d="M31.0359 42.4971H27.0221L21.7143 50.5002H25.5714L31.0359 42.4971Z" fill="white"/>
<path fill-rule="evenodd" clip-rule="evenodd" d="M28.0656 42.4922H32L37.1428 50.5004H33.2857L28.0656 42.4922Z" fill="white"/>
</svg>
