<svg width="24" height="36" viewBox="0 0 24 36" fill="none" xmlns="http://www.w3.org/2000/svg">
<path  fill-rule="evenodd" clip-rule="evenodd" d="M20.0291 7.38736C20.4546 7.68601 20.4546 8.31651 20.0291 8.61516L12.3481 14.0059C11.8105 14.3832 11.0819 13.9362 11.1748 13.286L11.6477 9.97542L8.87714 9.97542C7.77277 9.97542 6.87744 10.8707 6.87744 11.9754V16.5256C7.54282 16.5288 8.22498 16.7016 8.86754 17.0764L14.0976 20.1273L15.3044 17.1208C15.549 16.5113 16.4035 16.4884 16.6805 17.084L20.6371 25.5929C20.8563 26.0643 20.5411 26.6103 20.0232 26.6562L10.6759 27.4842C10.0216 27.5422 9.61422 26.7907 10.0198 26.274L12.1167 23.6026L7.60399 20.9702C7.31951 20.8042 6.97293 20.955 6.87744 21.2427V32.9788C6.87744 33.2198 6.83482 33.4509 6.7567 33.6648C6.49818 34.4701 5.74318 35.0529 4.85205 35.0529C3.74748 35.0529 2.85205 34.1575 2.85205 33.0529V20.5315C2.85205 20.3747 2.86069 20.2209 2.87744 20.0704V11.9754C2.87744 8.66191 5.56324 5.97542 8.87714 5.97542L11.6403 5.97542L11.1748 2.71675C11.0819 2.06653 11.8105 1.61947 12.3481 1.99678L20.0291 7.38736Z" fill="#eee"/>
</svg>
