<svg width="36" height="36" viewBox="0 0 36 36" fill="none" xmlns="http://www.w3.org/2000/svg">
<path  fill-rule="evenodd" clip-rule="evenodd" d="M8.92639 9.19849V13.1985C8.92639 13.4001 8.89655 13.5947 8.84106 13.7783L12.1778 13.3016C12.828 13.2087 13.2751 13.9373 12.8978 14.4749L7.50718 22.1559C7.20854 22.5814 6.57804 22.5814 6.27939 22.1559L0.888635 14.4749C0.511308 13.9373 0.958368 13.2087 1.6086 13.3016L5.01474 13.7882C4.95731 13.6018 4.92639 13.4037 4.92639 13.1985V9.19849C4.92639 4.78021 8.50811 1.19849 12.9264 1.19849C16.392 1.19849 19.3429 3.40216 20.4544 6.4847C21.1953 6.15727 22.0149 5.97542 22.8771 5.97542L25.6403 5.97542L25.1748 2.71675C25.0819 2.06653 25.8105 1.61947 26.3481 1.99678L34.0291 7.38736C34.4546 7.68601 34.4546 8.31651 34.0291 8.61516L26.3481 14.0059C25.8105 14.3832 25.0819 13.9362 25.1748 13.286L25.6477 9.97542L22.8771 9.97542C21.9245 9.97542 21.1275 10.6415 20.9264 11.5336V33.0631C20.9264 34.1676 20.031 35.0631 18.9264 35.0631C18.1702 35.0631 17.5119 34.6433 17.172 34.0241C16.9852 33.72 16.8774 33.362 16.8774 32.9788V11.9754C16.8774 11.7145 16.8941 11.4575 16.9264 11.2054V9.19849C16.9264 6.98935 15.1355 5.19849 12.9264 5.19849C10.7172 5.19849 8.92639 6.98935 8.92639 9.19849Z" fill="#eee"/>
</svg>
