<svg width="20" height="36" viewBox="0 0 20 36" fill="none" xmlns="http://www.w3.org/2000/svg">
<path  fill-rule="evenodd" clip-rule="evenodd" d="M11.9447 3.20426C14.4395 0.603828 18.8311 2.36979 18.8311 5.9735V33.0034C18.8311 34.108 17.9356 35.0034 16.8311 35.0034C15.7265 35.0034 14.8311 34.108 14.8311 33.0034V7.21242C14.8311 6.76256 14.2834 6.54152 13.9711 6.86537L8.63825 12.3963L11.3255 14.4117C11.851 14.8058 11.6519 15.6371 11.005 15.7505L1.76184 17.3699C1.24976 17.4596 0.803932 17.0138 0.89366 16.5017L2.51323 7.25871C2.62659 6.61174 3.45788 6.41269 3.85197 6.93815L5.81753 9.55889L11.9447 3.20426Z" fill="#eee"/>
</svg>
