<svg width="24" height="36" viewBox="0 0 24 36" fill="none" xmlns="http://www.w3.org/2000/svg">
<path  fill-rule="evenodd" clip-rule="evenodd" d="M3.7509 7.38736C3.32536 7.68601 3.32535 8.31651 3.75089 8.61516L11.4319 14.0059C11.9695 14.3832 12.6981 13.9362 12.6052 13.286L12.1323 9.97542L14.9028 9.97542C16.0072 9.97542 16.9025 10.8707 16.9025 11.9754V16.5256C16.2372 16.5288 15.555 16.7016 14.9125 17.0764L9.68237 20.1273L8.47561 17.1208C8.23095 16.5113 7.37647 16.4884 7.09952 17.084L3.14287 25.5929C2.92367 26.0643 3.23891 26.6103 3.75676 26.6562L13.1041 27.4842C13.7583 27.5422 14.1658 26.7907 13.7602 26.274L11.6633 23.6026L16.176 20.9702C16.4605 20.8042 16.8071 20.955 16.9025 21.2427V32.9788C16.9025 33.2198 16.9452 33.4509 17.0233 33.6648C17.2818 34.4701 18.0368 35.0529 18.9279 35.0529C20.0325 35.0529 20.9279 34.1575 20.9279 33.0529V20.5315C20.9279 20.3747 20.9193 20.2209 20.9025 20.0704V11.9754C20.9025 8.66191 18.2168 5.97542 14.9028 5.97542L12.1397 5.97542L12.6052 2.71675C12.6981 2.06653 11.9695 1.61947 11.4319 1.99678L3.7509 7.38736Z" fill="#eee"/>
</svg>
