<svg width="36" height="36" viewBox="0 0 36 36" fill="none" xmlns="http://www.w3.org/2000/svg">
<path  fill-rule="evenodd" clip-rule="evenodd" d="M28.6514 1.86529C28.3527 1.43976 27.7222 1.43976 27.4236 1.8653L22.033 9.5463C21.6557 10.0839 22.1027 10.8125 22.753 10.7196L26.0376 10.2504V12.7695C24.6443 12.1063 23.015 11.8939 21.3648 12.3007L9.55104 15.2132L9.20856 11.8819C9.14138 11.2285 8.32631 10.971 7.89593 11.4672L1.74719 18.5558C1.40654 18.9485 1.55907 19.5603 2.04421 19.7472L10.8012 23.1196C11.4141 23.3556 12.0129 22.7456 11.7655 22.1371L10.5272 19.0923L16.1594 17.7038C16.0533 18.1883 15.9974 18.6915 15.9974 19.2079V24.2079C15.9974 24.4132 16.0283 24.6113 16.0858 24.7977L12.6789 24.311C12.0287 24.2182 11.5816 24.9467 11.9589 25.4844L17.3497 33.1653C17.6483 33.5909 18.2788 33.5909 18.5775 33.1653L23.968 25.4843C24.3454 24.9467 23.8983 24.2181 23.2481 24.311L19.9121 24.7876C19.9676 24.6041 19.9974 24.4095 19.9974 24.2079V19.2079C19.9974 17.551 21.3405 16.2079 22.9974 16.2079C24.6542 16.2079 25.9974 17.551 25.9974 19.2079V32.982C25.9974 34.0866 26.8928 34.982 27.9974 34.982C28.4976 34.982 28.9548 34.7984 29.3055 34.4949C29.7524 34.1281 30.0376 33.5715 30.0376 32.9482V32.8248C30.0394 32.7896 30.0404 32.754 30.0404 32.7183V19.0972C30.0404 19.03 30.0394 18.963 30.0376 18.8962V10.2504L33.3222 10.7196C33.9724 10.8125 34.4194 10.0839 34.0421 9.54628L28.6514 1.86529Z" fill="#eee"/>
</svg>
