<svg width="34" height="36" viewBox="0 0 34 36" fill="none" xmlns="http://www.w3.org/2000/svg">
<path  fill-rule="evenodd" clip-rule="evenodd" d="M30.3643 1.63864C30.8764 1.54892 31.3222 1.99474 31.2325 2.50682L29.6131 11.7499C29.4997 12.3969 28.6684 12.596 28.2743 12.0705L26.3081 9.44888C26.2354 9.58122 26.1463 9.70734 26.041 9.82444L19.9191 16.6265C19.2581 17.361 18.8923 18.3142 18.8923 19.3023V33.0034C18.8923 33.4591 18.7398 33.8793 18.4831 34.2157C18.1203 34.7226 17.5266 35.0529 16.8557 35.0529C15.7511 35.0529 14.8557 34.1575 14.8557 33.0529V21.4021C14.8557 21.0162 14.4371 20.7757 14.1037 20.9702L9.591 23.6026L11.6879 26.274C12.0935 26.7907 11.6861 27.5422 11.0318 27.4842L1.6845 26.6562C1.16665 26.6103 0.851402 26.0643 1.07061 25.5929L5.02725 17.084C5.3042 16.4884 6.15868 16.5113 6.40335 17.1208L7.6101 20.1273L12.8402 17.0764C13.6602 16.5981 14.5448 16.4487 15.3766 16.561C15.7249 15.6063 16.2547 14.7187 16.9459 13.9506L23.0678 7.14859C23.2312 6.96695 23.4204 6.82225 23.6249 6.71502L20.8008 4.59695C20.2753 4.20286 20.4744 3.37157 21.1213 3.25821L30.3643 1.63864Z" fill="#eee"/>
</svg>
