<svg width="30" height="36" viewBox="0 0 30 36" fill="none" xmlns="http://www.w3.org/2000/svg">
<path  fill-rule="evenodd" clip-rule="evenodd" d="M1.58141 1.64804C1.06933 1.55831 0.623505 2.00414 0.713224 2.51622L2.33267 11.7593C2.44602 12.4063 3.27732 12.6054 3.67142 12.0799L5.63763 9.45828C5.7104 9.59062 5.79941 9.71674 5.9048 9.83384L12.0266 16.6359C12.5913 17.2632 12.9405 18.0501 13.0303 18.8821C13.0227 19.0249 13.0188 19.1681 13.0188 19.3117V33.0128C13.0188 34.1173 13.9142 35.0128 15.0188 35.0128C15.0246 35.0128 15.0304 35.0127 15.0361 35.0127C15.0419 35.0127 15.0477 35.0128 15.0535 35.0128C16.158 35.0128 17.0535 34.1173 17.0535 33.0128V19.3117C17.0535 19.1681 17.0496 19.0249 17.0419 18.8821C17.1318 18.0502 17.481 17.2632 18.0456 16.6359L24.1675 9.83384C24.2728 9.71674 24.3619 9.59062 24.4346 9.45828L26.4008 12.0799C26.7949 12.6054 27.6262 12.4063 27.7396 11.7593L29.359 2.51622C29.4487 2.00414 29.0029 1.55831 28.4908 1.64804L19.2478 3.26761C18.6009 3.38097 18.4018 4.21226 18.9273 4.60635L21.7514 6.72442C21.5469 6.83165 21.3577 6.97635 21.1943 7.15799L15.0724 13.96C15.0603 13.9735 15.0482 13.9871 15.0361 14.0007C15.0241 13.9871 15.012 13.9735 14.9998 13.96L8.87798 7.15799C8.71451 6.97635 8.52532 6.83165 8.32089 6.72442L11.145 4.60635C11.6704 4.21226 11.4714 3.38097 10.8244 3.26761L1.58141 1.64804Z" fill="#eee"/>
</svg>
