<svg width="20" height="36" viewBox="0 0 20 36" fill="none" xmlns="http://www.w3.org/2000/svg">
<path  fill-rule="evenodd" clip-rule="evenodd" d="M18.2426 2.50688C18.3323 1.9948 17.8865 1.54898 17.3744 1.6387L8.13139 3.25827C7.48442 3.37163 7.28537 4.20292 7.81083 4.59702L10.6349 6.71508C10.4305 6.82231 10.2413 6.96702 10.0778 7.14865L3.95599 13.9507C2.63389 15.4197 1.90234 17.3261 1.90234 19.3024V33.0034C1.90234 34.108 2.79777 35.0034 3.90234 35.0034C5.00691 35.0034 5.90234 34.108 5.90234 33.0034V19.3024C5.90234 18.3142 6.26812 17.361 6.92917 16.6265L13.051 9.82451C13.1564 9.7074 13.2454 9.58128 13.3182 9.44894L15.2844 12.0706C15.6785 12.596 16.5098 12.397 16.6231 11.75L18.2426 2.50688Z" fill="#eee"/>
</svg>
