<svg width="24" height="36" viewBox="0 0 24 36" fill="none" xmlns="http://www.w3.org/2000/svg">
<path  fill-rule="evenodd" clip-rule="evenodd" d="M14.4168 1.10906C14.8882 0.889854 15.4343 1.2051 15.4801 1.72295L16.3082 11.0703C16.3661 11.7245 15.6147 12.132 15.098 11.7264L12.6835 9.83112L7.27388 19.0743C7.09453 19.3808 7 19.7295 7 20.0846V20.3411C7.6252 20.1202 8.298 20 8.99898 20L12.6441 20L12.175 16.7167C12.0821 16.0665 12.8107 15.6195 13.3483 15.9968L21.0293 21.3874C21.4549 21.686 21.4549 22.3165 21.0293 22.6152L13.3484 28.0059C12.8107 28.3832 12.0821 27.9362 12.175 27.286L12.6445 24L8.99898 24C7.89508 24 7 24.8948 7 26V33.0034C7 33.0035 7 33.0035 7 33.0035C7 33.2883 6.94049 33.5591 6.83323 33.8043C6.83018 33.8113 6.82709 33.8182 6.82397 33.8252C6.82065 33.8325 6.81729 33.8399 6.81388 33.8472C6.49569 34.5301 5.80313 35.0035 5 35.0035C3.89543 35.0035 3 34.1081 3 33.0035V33.0034V26V20.0846C3 19.0193 3.2836 17.9733 3.82165 17.0539L9.25484 7.7704L5.94481 6.4418C5.33526 6.19713 5.31237 5.34265 5.90795 5.06571L14.4168 1.10906Z" fill="#eee"/>
</svg>
