<svg width="34" height="36" viewBox="0 0 34 36" fill="none" xmlns="http://www.w3.org/2000/svg">
<path  fill-rule="evenodd" clip-rule="evenodd" d="M2.4652 1.63864C1.95312 1.54892 1.50729 1.99474 1.59701 2.50682L3.21646 11.7499C3.32981 12.3969 4.16111 12.596 4.5552 12.0705L6.52142 9.44888C6.59419 9.58122 6.6832 9.70734 6.78859 9.82444L12.9104 16.6265C13.5715 17.361 13.9373 18.3142 13.9373 19.3023V19.696C13.8817 19.963 13.8523 20.2421 13.8523 20.5315V33.0529C13.8523 34.1575 14.7477 35.0529 15.8523 35.0529C16.2366 35.0529 16.5956 34.9445 16.9004 34.7566C17.5185 34.4163 17.9373 33.7587 17.9373 33.0034V21.122C18.0767 20.9166 18.3628 20.8294 18.6042 20.9702L23.117 23.6026L21.02 26.274C20.6145 26.7907 21.0219 27.5422 21.6762 27.4842L31.0235 26.6562C31.5413 26.6103 31.8566 26.0643 31.6374 25.5929L27.6807 17.084C27.4038 16.4884 26.5493 16.5113 26.3046 17.1208L25.0979 20.1273L19.8678 17.0764C19.0859 16.6203 18.2454 16.4633 17.4478 16.5471C17.0995 15.5977 16.5715 14.7149 15.8836 13.9506L9.76177 7.14859C9.5983 6.96695 9.40911 6.82225 9.20468 6.71502L12.0288 4.59695C12.5542 4.20286 12.3552 3.37157 11.7082 3.25821L2.4652 1.63864Z" fill="#eee"/>
</svg>
