<svg width="24" height="36" viewBox="0 0 24 36" fill="none" xmlns="http://www.w3.org/2000/svg">
<path  fill-rule="evenodd" clip-rule="evenodd" d="M10.5904 1.48778C10.1399 1.22832 9.56846 1.49477 9.47763 2.00666L7.83808 11.2462C7.72332 11.893 8.4364 12.3643 8.98645 12.0053L11.9681 10.0594L14.9617 16.2507C14.6602 16.2162 14.3536 16.1985 14.0428 16.1985C9.62455 16.1985 6.04282 19.7802 6.04282 24.1985V24.7757L2.72432 24.3016C2.07409 24.2087 1.62703 24.9373 2.00436 25.4749L7.39511 33.1559C7.69376 33.5815 8.32426 33.5815 8.62291 33.1559L14.0135 25.4749C14.3908 24.9373 13.9437 24.2087 13.2935 24.3016L10.0428 24.766V24.1985C10.0428 21.9893 11.8337 20.1985 14.0428 20.1985C15.9689 20.1985 17.5771 21.5598 17.9575 23.3729V32.9916C17.9575 33.6274 18.2542 34.194 18.7168 34.5603C19.0697 34.8731 19.5341 35.0631 20.0428 35.0631C21.1474 35.0631 22.0428 34.1676 22.0428 33.0631V24.1985C22.0428 23.8002 22.0137 23.4087 21.9575 23.026V22.9045C21.9575 21.9999 21.753 21.107 21.3592 20.2926L15.6236 8.43072L18.5654 7.53861C19.194 7.348 19.2912 6.49877 18.7221 6.17097L10.5904 1.48778Z" fill="#eee"/>
</svg>
