<svg width="30" height="36" viewBox="0 0 30 36" fill="none" xmlns="http://www.w3.org/2000/svg">
<path  fill-rule="evenodd" clip-rule="evenodd" d="M2.71872 1.10967C2.24731 0.890464 1.70129 1.20571 1.65541 1.72356L0.827381 11.0709C0.769423 11.7251 1.52087 12.1326 2.03754 11.727L4.93736 9.4508L10.5696 19.0744C10.7489 19.3808 10.8435 19.7295 10.8435 20.0846V22.5636C10.8331 22.7077 10.8278 22.8533 10.8278 23V33.0034C10.8278 34.1056 11.7194 34.9996 12.8207 35.0034C12.8283 35.0035 12.8359 35.0036 12.8435 35.0036C13.948 35.0036 14.8435 34.1081 14.8435 33.0036V22.7486C14.967 21.7622 15.808 21 16.8268 21L20.4723 21L20.0029 24.286C19.91 24.9362 20.6386 25.3832 21.1762 25.0059L28.8572 19.6152C29.2827 19.3165 29.2827 18.686 28.8572 18.3874L21.1762 12.9968C20.6385 12.6195 19.91 13.0665 20.0029 13.7167L20.4719 17L16.8268 17C15.9191 17 15.0586 17.2016 14.2876 17.5623C14.2073 17.3892 14.1187 17.2195 14.0218 17.054L8.45422 7.54081L11.1907 6.44241C11.8003 6.19774 11.8232 5.34326 11.2276 5.06632L2.71872 1.10967Z" fill="#eee"/>
</svg>
