<svg width="24" height="36" viewBox="0 0 24 36" fill="none" xmlns="http://www.w3.org/2000/svg">
<path  fill-rule="evenodd" clip-rule="evenodd" d="M6.26065 1.8653C6.5593 1.43976 7.1898 1.43976 7.48845 1.86529L12.8792 9.54628C13.2565 10.0839 12.8095 10.8125 12.1592 10.7196L8.87465 10.2504V20.6253L15.2169 17.0011L13.1223 14.3326C12.7167 13.816 13.1242 13.0645 13.7784 13.1225L23.1257 13.9504C23.6435 13.9962 23.9588 14.5423 23.7396 15.0137L19.783 23.5227C19.5061 24.1183 18.6516 24.0954 18.4069 23.4858L17.1987 20.4757L10.0077 24.5848C9.38457 24.9409 9 25.6036 9 26.3213V33.0034C9 34.108 8.10457 35.0034 7 35.0034C6.68889 35.0034 6.39437 34.9324 6.13178 34.8057C5.39505 34.5107 4.87465 33.7902 4.87465 32.9482V10.2504L1.59004 10.7196C0.939817 10.8125 0.492758 10.0839 0.870074 9.5463L6.26065 1.8653Z" fill="#eee"/>
</svg>
