<svg width="36" height="36" viewBox="0 0 36 36" fill="none" xmlns="http://www.w3.org/2000/svg">
<path  fill-rule="evenodd" clip-rule="evenodd" d="M17.4999 1.86529C17.2013 1.43976 16.5708 1.43976 16.2721 1.8653L10.8815 9.5463C10.5042 10.0839 10.9513 10.8125 11.6015 10.7196L14.8861 10.2504V13.8298C14.0055 13.4303 13.0274 13.2079 11.9974 13.2079C8.13143 13.2079 4.99742 16.3419 4.99742 20.2079V25.2079C4.99742 25.4132 5.02836 25.6113 5.08583 25.7978L1.67891 25.3111C1.02868 25.2182 0.58162 25.9467 0.958948 26.4844L6.3497 34.1654C6.64835 34.5909 7.27885 34.5909 7.5775 34.1654L12.9681 26.4844C13.3454 25.9467 12.8983 25.2182 12.2481 25.3111L8.9121 25.7876C8.96759 25.6041 8.99742 25.4095 8.99742 25.2079V20.2079C8.99742 18.551 10.3406 17.2079 11.9974 17.2079C13.3727 17.2079 14.5319 18.1334 14.8861 19.3955V32.9482C14.8861 33.6694 15.2679 34.3015 15.8404 34.6533C16.1646 34.88 16.5592 35.0129 16.9849 35.0129C17.8292 35.0129 18.5514 34.4897 18.8448 33.7497C18.9431 33.5133 18.9974 33.254 18.9974 32.982V20.2079C18.9974 20.066 18.9932 19.925 18.9849 19.7852V18.683C18.9849 18.2825 19.4322 18.0445 19.7643 18.2684L27.0033 23.1477L24.6678 25.641C24.2187 26.1203 24.5591 26.9044 25.2159 26.9037L34.5998 26.8935C35.1197 26.8929 35.4813 26.3765 35.3041 25.8877L32.1041 17.0664C31.8801 16.4489 31.0269 16.3973 30.73 16.9832L29.2749 19.855L21.2206 14.4261C20.4815 13.9279 19.671 13.7157 18.8861 13.7378V10.2504L22.1707 10.7196C22.8209 10.8125 23.268 10.0839 22.8907 9.54628L17.4999 1.86529Z" fill="#eee"/>
</svg>
