<svg width="40" height="36" viewBox="0 0 40 36" fill="none" xmlns="http://www.w3.org/2000/svg">
<path  fill-rule="evenodd" clip-rule="evenodd" d="M20.5611 1.86529C20.2624 1.43976 19.6319 1.43976 19.3333 1.8653L13.9427 9.5463C13.5654 10.0839 14.0124 10.8125 14.6627 10.7196L17.9473 10.2504V16.2128C16.797 15.5726 15.4723 15.2079 14.0624 15.2079C9.64409 15.2079 6.06237 18.7896 6.06237 23.2079V25.785L2.74434 25.311C2.09411 25.2181 1.64705 25.9467 2.02438 26.4843L7.41513 34.1653C7.71378 34.5909 8.34428 34.5909 8.64292 34.1653L14.0335 26.4843C14.4108 25.9467 13.9638 25.2181 13.3135 25.311L10.0624 25.7755V23.2079C10.0624 20.9987 11.8532 19.2079 14.0624 19.2079C15.9418 19.2079 17.5185 20.5041 17.9473 22.2513V32.9482C17.9473 34.0527 18.8427 34.9482 19.9473 34.9482C21.0518 34.9482 21.9473 34.0527 21.9473 32.9482V32.7428C22.0218 32.5332 22.0624 32.3076 22.0624 32.0725V23.2079C22.0624 22.8676 22.0411 22.5322 21.9999 22.203V21.9787C21.9999 20.8732 22.8948 19.9787 23.9985 19.9787H29.6443L29.1749 23.2646C29.082 23.9148 29.8106 24.3619 30.3482 23.9845L38.0292 18.5938C38.4547 18.2951 38.4547 17.6646 38.0292 17.366L30.3482 11.9754C29.8106 11.5981 29.082 12.0452 29.1749 12.6954L29.6439 15.9787L23.9985 15.9787C23.2779 15.9787 22.5872 16.1057 21.9473 16.3385V10.2504L25.2319 10.7196C25.8821 10.8125 26.3292 10.0839 25.9518 9.54628L20.5611 1.86529Z" fill="#eee"/>
</svg>
