<svg width="26" height="36" viewBox="0 0 26 36" fill="none" xmlns="http://www.w3.org/2000/svg">
<path  fill-rule="evenodd" clip-rule="evenodd" d="M7.26065 1.8653C7.5593 1.43976 8.1898 1.43976 8.48845 1.86529L13.8792 9.54628C14.2565 10.0839 13.8095 10.8125 13.1592 10.7196L9.87465 10.2504V13.5255C10.5409 13.5283 11.2241 13.7011 11.8675 14.0764L17.0976 17.1273L18.3044 14.1208C18.549 13.5113 19.4035 13.4884 19.6805 14.084L23.6371 22.5929C23.8563 23.0643 23.5411 23.6103 23.0232 23.6562L13.6759 24.4842C13.0216 24.5422 12.6142 23.7907 13.0198 23.274L15.1167 20.6026L10.604 17.9702C10.3167 17.8026 9.96599 17.9581 9.87465 18.2513V32.9482C9.87465 34.0527 8.97922 34.9482 7.87465 34.9482C6.77008 34.9482 5.87465 34.0527 5.87465 32.9482V30.3546C5.85977 30.2562 5.85205 30.1554 5.85205 30.0529V17.5315C5.85205 17.3837 5.85973 17.2385 5.87465 17.0962V10.2504L2.59004 10.7196C1.93982 10.8125 1.49276 10.0839 1.87007 9.5463L7.26065 1.8653Z" fill="#eee"/>
</svg>
