<svg width="106" height="106" viewBox="0 0 106 106" fill="none" xmlns="http://www.w3.org/2000/svg">
<path fill-rule="evenodd" clip-rule="evenodd" d="M0 22V42V43V63V64V84V85V105V106H106V105V85V84V64V63V43V42V22V21V1V0H105H85H84H64H63H43H42H22H21H1H0V1V21V22ZM105 105V85H85V105H105ZM84 105V85H64V105H84ZM63 105V85H43V105H63ZM42 105V85H22V105H42ZM21 105V85H1V105H21ZM21 84H1V64H21V84ZM42 84H22V64H42V84ZM63 84H43V64H63V84ZM84 84H64V64H84V84ZM105 84H85V64H105V84ZM105 63V43H85V63H105ZM84 63V43H64V63H84ZM63 63V43H43V63H63ZM42 63V43H22V63H42ZM21 63V43H1V63H21ZM21 42H1V22H21V42ZM42 42H22V22H42V42ZM63 42H43V22H63V42ZM84 42H64V22H84V42ZM105 42H85V22H105V42ZM1 21H21V1H1V21ZM22 21H42V1H22V21ZM43 21H63V1H43V21ZM64 21H84V1H64V21ZM85 21H105V1H85V21Z" fill="#FEFA53"/>
</svg>
