<svg width="64" height="64" viewBox="0 0 64 64" fill="none" xmlns="http://www.w3.org/2000/svg">
<g clip-path="url(#clip0_3544_9275)">
<path d="M32 64C49.6731 64 64 49.6731 64 32C64 14.3269 49.6731 0 32 0C14.3269 0 0 14.3269 0 32C0 49.6731 14.3269 64 32 64Z" fill="black" fill-opacity="0.02"/>
<path d="M32.0001 62.8947C49.0637 62.8947 62.8966 49.0618 62.8966 31.9981C62.8966 14.9344 49.0637 1.10156 32.0001 1.10156C14.9364 1.10156 1.10352 14.9344 1.10352 31.9981C1.10352 49.0618 14.9364 62.8947 32.0001 62.8947Z" fill="black" fill-opacity="0.02"/>
<path d="M32.0001 61.7932C48.4544 61.7932 61.7932 48.4544 61.7932 32.0001C61.7932 15.5458 48.4544 2.20703 32.0001 2.20703C15.5458 2.20703 2.20703 15.5458 2.20703 32.0001C2.20703 48.4544 15.5458 61.7932 32.0001 61.7932Z" fill="black" fill-opacity="0.02"/>
<path d="M32.0002 60.6879C47.8451 60.6879 60.6899 47.8431 60.6899 31.9982C60.6899 16.1534 47.8451 3.30859 32.0002 3.30859C16.1553 3.30859 3.31055 16.1534 3.31055 31.9982C3.31055 47.8431 16.1553 60.6879 32.0002 60.6879Z" fill="black" fill-opacity="0.02"/>
<path d="M32.0003 59.5865C47.2357 59.5865 59.5865 47.2357 59.5865 32.0003C59.5865 16.7648 47.2357 4.41406 32.0003 4.41406C16.7648 4.41406 4.41406 16.7648 4.41406 32.0003C4.41406 47.2357 16.7648 59.5865 32.0003 59.5865Z" fill="#C4C4C4"/>
<path fill-rule="evenodd" clip-rule="evenodd" d="M22.8373 48.5506L28.5728 48.5517C28.5728 48.5517 28.6 45.6618 28.5728 43.1081C28.5424 40.1409 26.3675 37.0987 23.4666 36.6504C19.4114 36.0248 15.9997 39.5512 16.704 43.638C17.2084 46.5616 19.9049 48.5811 22.8373 48.5506Z" stroke="#C4C4C4" stroke-width="5"/>
<path fill-rule="evenodd" clip-rule="evenodd" d="M44.1925 48.5506L38.4566 48.5517C38.4566 48.5517 38.4305 45.6618 38.4577 43.1092C38.4881 40.1409 40.6631 37.0987 43.5642 36.6504C47.6186 36.0248 51.0305 39.5512 50.3262 43.638C49.8218 46.5616 47.1262 48.5811 44.1925 48.5506Z" stroke="#C4C4C4" stroke-width="5"/>
<path fill-rule="evenodd" clip-rule="evenodd" d="M21.5406 15.4492H13.793V18.9709H21.5406C23.6391 18.661 25.1706 20.102 25.0622 21.7882V42.2137H28.5839V21.7882C28.5839 18.3259 25.5267 15.4492 21.5406 15.4492Z" stroke="#C4C4C4" stroke-width="5"/>
<path fill-rule="evenodd" clip-rule="evenodd" d="M20.1328 15.4492V18.9709H27.8804C29.979 18.7244 31.5104 20.1938 31.4021 21.7882V43.6223H34.9237V21.7882C34.9237 18.3826 31.8666 15.4492 27.8804 15.4492H20.1328Z" stroke="#C4C4C4" stroke-width="5"/>
<path d="M39.8538 18.2656H32.8105V43.6214H39.8538V18.2656Z" fill="#C4C4C4"/>
<path fill-rule="evenodd" clip-rule="evenodd" d="M34.9234 15.4492H27.1758V18.9709H34.9234C37.022 18.661 38.5534 20.102 38.445 21.7882V42.2137H41.9667V21.7882C41.9667 18.3259 38.9095 15.4492 34.9234 15.4492Z" stroke="#C4C4C4" stroke-width="5"/>
<path fill-rule="evenodd" clip-rule="evenodd" d="M28.584 48.5514H38.4446V43.6211H28.584V48.5514Z" stroke="#C4C4C4" stroke-width="5"/>
<path fill-rule="evenodd" clip-rule="evenodd" d="M22.8373 48.5506L28.5728 48.5517C28.5728 48.5517 28.6 45.6618 28.5728 43.1081C28.5424 40.1409 26.3675 37.0987 23.4666 36.6504C19.4114 36.0248 15.9997 39.5512 16.704 43.638C17.2084 46.5616 19.9049 48.5811 22.8373 48.5506Z" fill="white"/>
<path fill-rule="evenodd" clip-rule="evenodd" d="M44.1925 48.5506L38.4566 48.5517C38.4566 48.5517 38.4305 45.6618 38.4577 43.1092C38.4881 40.1409 40.6631 37.0987 43.5642 36.6504C47.6186 36.0248 51.0305 39.5512 50.3262 43.638C49.8218 46.5616 47.1262 48.5811 44.1925 48.5506Z" fill="white"/>
<path fill-rule="evenodd" clip-rule="evenodd" d="M21.5406 15.4492H13.793V18.9709H21.5406C23.6391 18.661 25.1706 20.102 25.0622 21.7882V42.2137H28.5839V21.7882C28.5839 18.3259 25.5267 15.4492 21.5406 15.4492Z" fill="white"/>
<path fill-rule="evenodd" clip-rule="evenodd" d="M20.8359 15.4492V18.9709H28.5836C30.6822 18.7244 32.2136 20.1938 32.1052 21.7882V43.6223H35.6268V21.7882C35.6268 18.3826 32.5697 15.4492 28.5836 15.4492H20.8359Z" fill="white"/>
<path fill-rule="evenodd" clip-rule="evenodd" d="M34.9234 15.4492H27.1758V18.9709H34.9234C37.022 18.661 38.5534 20.102 38.445 21.7882V42.2137H41.9667V21.7882C41.9667 18.3259 38.9095 15.4492 34.9234 15.4492Z" fill="white"/>
<path fill-rule="evenodd" clip-rule="evenodd" d="M28.584 48.5514H38.4446V43.6211H28.584V48.5514Z" fill="white"/>
</g>
<defs>
<clipPath id="clip0_3544_9275">
<rect width="64" height="64" fill="white"/>
</clipPath>
</defs>
</svg>
