<svg xmlns="http://www.w3.org/2000/svg" version="1.1" xmlns:xlink="http://www.w3.org/1999/xlink" xmlns:svgjs="http://svgjs.dev/svgjs" viewBox="0 0 800 800" width="800" height="800"><g transform="scale(1) rotate(0) translate(0 0) skewX(0) skewY(0)" transform-origin="400 400"><rect width="1600" height="1600" x="-400" y="-400" fill="url(#rrreplicate-pattern1)"></rect><rect width="1600" height="1600" x="-400" y="-400" fill="url(#rrreplicate-pattern2)"></rect><rect width="1600" height="1600" x="-400" y="-400" fill="url(#rrreplicate-pattern3)"></rect></g><defs><pattern id="rrreplicate-pattern1" width="504" height="504" patternUnits="userSpaceOnUse" patternTransform="rotate(0)" stroke-width="4" fill="none" stroke="#f8e71c" stroke-opacity="0.48">
      <line x1="21" y1="0" x2="21" y2="504"></line><line x1="63" y1="0" x2="63" y2="504"></line><line x1="105" y1="0" x2="105" y2="504"></line><line x1="147" y1="0" x2="147" y2="504"></line><line x1="189" y1="0" x2="189" y2="504"></line><line x1="231" y1="0" x2="231" y2="504"></line><line x1="273" y1="0" x2="273" y2="504"></line><line x1="315" y1="0" x2="315" y2="504"></line><line x1="357" y1="0" x2="357" y2="504"></line><line x1="399" y1="0" x2="399" y2="504"></line><line x1="441" y1="0" x2="441" y2="504"></line><line x1="483" y1="0" x2="483" y2="504"></line>
      </pattern><pattern id="rrreplicate-pattern2" width="504" height="504" patternUnits="userSpaceOnUse" patternTransform="rotate(90)" stroke-opacity="0.67" stroke-width="2.2" fill="none" stroke="#f8e71c">
      <line x1="21" y1="0" x2="21" y2="504"></line><line x1="63" y1="0" x2="63" y2="504"></line><line x1="105" y1="0" x2="105" y2="504"></line><line x1="147" y1="0" x2="147" y2="504"></line><line x1="189" y1="0" x2="189" y2="504"></line><line x1="231" y1="0" x2="231" y2="504"></line><line x1="273" y1="0" x2="273" y2="504"></line><line x1="315" y1="0" x2="315" y2="504"></line><line x1="357" y1="0" x2="357" y2="504"></line><line x1="399" y1="0" x2="399" y2="504"></line><line x1="441" y1="0" x2="441" y2="504"></line><line x1="483" y1="0" x2="483" y2="504"></line>
      </pattern><pattern id="rrreplicate-pattern3" width="504" height="504" patternUnits="userSpaceOnUse" patternTransform="rotate(0)" stroke-opacity="1" stroke-width="4" fill="none" stroke="#ffffff00">
      <line x1="63" y1="0" x2="63" y2="504"></line><line x1="189" y1="0" x2="189" y2="504"></line><line x1="315" y1="0" x2="315" y2="504"></line><line x1="441" y1="0" x2="441" y2="504"></line>
      </pattern></defs></svg>